<?xml version="1.0" encoding="utf-8"?>
<!-- Generator: Adobe Illustrator 16.0.4, SVG Export Plug-In . SVG Version: 6.00 Build 0)  -->
<!DOCTYPE svg PUBLIC "-//W3C//DTD SVG 1.1//EN" "http://www.w3.org/Graphics/SVG/1.1/DTD/svg11.dtd">
<svg version="1.1" id="Layer_1" xmlns="http://www.w3.org/2000/svg" xmlns:xlink="http://www.w3.org/1999/xlink" x="0px" y="0px"
	 width="160px" height="160px" viewBox="0 0 160 160" enable-background="new 0 0 160 160" xml:space="preserve">
<g id="dropbox_1_">
	<g>
		<path d="M17.971,56.806c11.499,4.401,19.438,6.014,25.356,17.551c12.094-6.631,20.867-19.313,32.092-27.769l0,0
			c-4.741-7.167-18.692-15.786-26.008-12.315c-9.225,3.703-19.117,17.811-27.396,23.973c-0.48,1.35,0.639-0.078,1.906-0.23"/>
	</g>
	<g>
		<path d="M43.157,78.249c-6.373,5.936-12.818,11.235-18.557,17.092c8.959,4.719,29.835,6.688,34.332,17.106l0.635-0.081
			c7.489-7.361,16.713-11.063,22.775-19.539l0,0l-0.078-0.635C75.6,90.417,40.058,79.271,40.058,79.271"/>
	</g>
	<g>
		<path d="M86.56,90.374c-0.095,4.529,19.018,13.164,23.371,17.146c7.489-7.357,15.848-12.892,23.333-20.256
			c9.316-8.228,4.79-8.32-5.44-12.883c-10.863-4.479-13.871-7.982-23.188,0.249c-4.62,4.431-15.378,16.708-16.573,17.499"/>
	</g>
	<g>
		<path d="M75.729,49.124c8.201-6.803,18.23-14.472,23.503-24.145l0,0l0,0c10.772,9.006,30.706,8.514,39.728,19.023
			c-6.855,7.284-17.037,13.686-23.89,20.971l0,0l0,0c-8.883-4.077-30.598-18.201-37.667-17.987"/>
	</g>
	<g>
		<path d="M85.814,100.143c-0.079-0.638,0.961-2.696,0.479-1.351c1.472,12.079,3.576,24.076,3.698,35.669
			c7.242-4.106,38.589-22.113,32.897-31.74c-6.277,1.406-11.455,6.556-16.075,10.986c-8.165-3.519-15.528-11.007-21.949-16.03"/>
	</g>
	<g>
		<path d="M81.056,98.142c0.773,6.355,5.201,37.416,5.201,37.416s-36.084-15.598-36.303-22.665
			c15.857,8.39,21.536-3.269,30.467-14.673"/>
	</g>
</g>
<g>
</g>
<g>
</g>
<g>
</g>
<g>
</g>
<g>
</g>
<g>
</g>
</svg>
