<?xml version="1.0" encoding="utf-8"?>
<!-- Generator: Adobe Illustrator 16.0.4, SVG Export Plug-In . SVG Version: 6.00 Build 0)  -->
<!DOCTYPE svg PUBLIC "-//W3C//DTD SVG 1.1//EN" "http://www.w3.org/Graphics/SVG/1.1/DTD/svg11.dtd">
<svg version="1.1" id="Layer_1" xmlns="http://www.w3.org/2000/svg" xmlns:xlink="http://www.w3.org/1999/xlink" x="0px" y="0px"
	 width="160px" height="160px" viewBox="0 0 160 160" enable-background="new 0 0 160 160" xml:space="preserve">
<g>
	<g>
		<path fill="#FFFFFF" d="M131.381,33.675c-17.443,10.336-32.703,22.607-47.457,32.32c-2.723,1.549-5.05,3.491-7.771,5.823
			c-1.553-2.332-4.27-7.382-8.156-6.217c-3.105,0.778-3.693,6.798-4.463,9.907c2.327,1.553-4.078-2.525-4.856-2.916
			c-7.378-2.717-18.255-3.492-25.632-1.164C14.4,76.868,7.793,100.169,14.011,116.87c5.829,16.311,28.353,24.471,45.054,21.359
			c12.428-2.715,32.231-26.02,22.915-38.836c10.485,3.496,12.428-6.604,5.437-12.816c5.049-5.828,15.926-1.164,15.926-1.164
			l4.66-13.595l8.545,2.718l6.6-14.371l14.695-6.141C137.842,54.024,154.637,16.558,131.381,33.675z M34.982,119.979
			c-10.461,1.801-11.531-14.815-0.42-15.322l-3.461-0.214C44.307,100.946,45.471,118.423,34.982,119.979z"/>
		<g>
			<path fill="#000001" d="M130.245,31.732c-10.039,6.006-19.603,12.715-29.112,19.517c-8.814,6.304-18.323,11.957-26.571,18.979
				c1.178,0.152,2.355,0.303,3.534,0.455c-2.632-4.058-5.339-8.065-10.697-7.25c-4.6,0.699-5.265,8.087-6.034,11.479
				c-0.237,1.042,0.161,1.95,1.034,2.541c0.016,0,0.031-0.001,0.047-0.001c0.909-1.178,1.818-2.356,2.727-3.534
				c-1.935-1.092-3.785-2.768-5.896-3.493c-5.123-1.759-10.422-2.514-15.826-2.623c-9.651-0.195-18.711,3.374-25.121,10.634
				c-11.47,12.991-11.961,35.171-0.916,48.439c10.256,12.319,33.372,18.925,47.946,11.255c12.088-6.361,27.833-25.961,18.563-39.87
				c-0.847,1.102-1.693,2.204-2.54,3.306c4.247,1.216,9.771,1.222,11.733-3.59c1.944-4.767-0.691-9.679-4.108-12.987
				c0,1.061,0,2.121,0,3.182c3.613-3.579,9.478-2.355,13.737-0.585c1.183,0.491,2.409-0.526,2.768-1.572
				c1.553-4.531,3.106-9.062,4.66-13.594c-0.923,0.524-1.846,1.048-2.768,1.571c2.848,0.906,5.696,1.812,8.545,2.718
				c0.886,0.282,2.137-0.155,2.54-1.034c1.504-3.275,3.008-6.549,4.512-9.824c0.686-1.491,1.37-2.983,2.055-4.474
				c-0.473,1.03-1.911,1.212-0.223,0.506c0.907-0.379,1.814-0.758,2.722-1.137c3.628-1.516,7.257-3.032,10.885-4.549
				c1.76-0.735,2.206-3.022,2.861-4.648c2.36-5.856,5.47-13.169,4.507-19.613C144.467,22.955,134.417,28.73,130.245,31.732
				c-2.332,1.678-0.089,5.584,2.271,3.886c1.203-0.866,6.894-5.393,8.447-4.114c1.317,1.085,0.271,4.992,0.009,6.311
				c-1,5.036-2.87,9.99-4.906,14.693c-0.525,1.214,2.161-1.064,0.546-0.389c-1.632,0.682-3.265,1.364-4.896,2.046
				c-3.056,1.277-6.111,2.554-9.167,3.831c-2.142,0.895-2.951,4.532-3.828,6.439c-1.372,2.989-2.744,5.977-4.116,8.965
				c0.847-0.345,1.693-0.689,2.54-1.034c-2.848-0.906-5.696-1.812-8.545-2.718c-1.222-0.389-2.382,0.448-2.768,1.571
				c-1.553,4.532-3.106,9.063-4.66,13.595c0.923-0.524,1.846-1.048,2.768-1.572c-5.858-2.435-13.313-3.013-18.114,1.743
				c-0.86,0.853-0.878,2.332,0,3.182c4.498,4.356,4.795,11.358-3.248,9.056c-1.825-0.522-3.655,1.633-2.541,3.306
				c7.946,11.924-7.267,28.154-16.949,33.713c-6.204,3.562-14.531,2.697-21.233,1.287c-8.083-1.7-15.701-5.697-21.26-11.839
				c-10.115-11.173-8.111-30.978,0.916-42.074c5.459-6.711,13.552-9.2,21.939-9.316c4.359-0.061,10.472,0.218,14.396,2.404
				c1.726,0.962,3.335,2.126,5.055,3.097c2.154,1.215,4.791-1.912,2.727-3.534c-0.314-0.247-0.627-0.479-0.958-0.702
				c0.345,0.847,0.689,1.694,1.034,2.541c0.484-2.135,0.871-4.273,1.535-6.363c1.634-5.138,5.676,1.212,6.972,3.21
				c0.833,1.284,2.401,1.419,3.534,0.455c7.936-6.754,17.177-12.202,25.66-18.274c9.508-6.804,19.074-13.512,29.113-19.517
				C135.003,34.13,132.742,30.238,130.245,31.732z"/>
			<path fill="#000001" d="M34.384,117.81c-7.362,1.025-6.897-10.361,0.178-10.902c2.886-0.221,2.911-4.32,0-4.5
				c-1.154-0.071-2.307-0.143-3.461-0.214c0.199,1.474,0.399,2.946,0.598,4.42c3.709-0.888,7.167,0.011,8.019,4.068
				C40.476,114.291,37.712,117.209,34.384,117.81c-2.853,0.515-1.641,4.852,1.196,4.34c5.753-1.038,9.426-6.459,8.549-12.197
				c-1.041-6.809-7.529-9.138-13.626-7.679c-2.577,0.617-1.846,4.269,0.598,4.42c1.154,0.071,2.307,0.143,3.461,0.214
				c0-1.5,0-3,0-4.5c-5.994,0.458-10.402,4.857-10.115,11.021c0.285,6.101,5.38,9.522,11.133,8.722
				C38.444,121.75,37.221,117.415,34.384,117.81z"/>
		</g>
	</g>
	<g>
		<g>
			<path fill="#000001" d="M36.307,79.325c-3.982,2.639-7.082,6.099-10.395,9.499c1.669,1.287,3.337,2.575,5.006,3.862
				c1.308-1.966,2.623-3.922,3.75-6c1.961-3.613-3.543-6.831-5.505-3.217c-1.127,2.077-2.442,4.033-3.75,6
				c1.942,0.818,3.884,1.637,5.826,2.456c0.617-2.984,0.883-6.017,1.5-9c0.675-3.268-2.856-5.111-5.328-3.102
				c-3.632,2.953-6.332,6.614-7.57,11.156c2.087,0.283,4.174,0.565,6.261,0.848c0.009-2.521,0.11-4.928,0.636-7.402
				c-2.049-0.565-4.098-1.13-6.147-1.695c-0.867,5.462-2.392,10.642-4.5,15.75c-1.375,3.333,4.413,5.764,5.826,2.456
				c1.679-3.931,3.807-7.587,6-11.25c-1.942-0.818-3.884-1.637-5.826-2.456c-1.429,4.217-2.916,8.365-3.75,12.75
				c-0.606,3.188,2.85,5.232,5.328,3.102c8.207-7.058,10.422-18.172,16.249-26.895c-1.942-0.819-3.884-1.638-5.826-2.456
				c-1.096,7.206-5.075,13.46-7.5,20.25c-1.22,3.417,4.179,5.645,5.826,2.456c3.097-5.996,6.902-11.551,10.5-17.25
				c-1.942-0.819-3.884-1.638-5.826-2.456c-2.4,6.06-5.721,11.698-7.5,18c-0.86,3.045,3.104,5.416,5.328,3.102
				c5.805-6.044,9.659-13.204,12.82-20.907c-2.049-0.565-4.098-1.129-6.147-1.694c-1.543,6.333-4.341,12.261-5.25,18.75
				c-0.472,3.368,3.873,5.827,5.826,2.456c2.82-4.866,5.882-9.57,9-14.25c-1.942-0.818-3.884-1.637-5.826-2.456
				c-2.309,6.166-4.496,12.331-6,18.75c-0.853,3.64,3.776,5.379,5.826,2.456c3.347-4.773,6.342-9.807,10.001-14.354
				c-1.669-1.287-3.337-2.575-5.006-3.862c-2.529,5.561-5.917,10.674-7.821,16.511c-1.042,3.193,3.092,5.14,5.328,3.102
				c5.333-4.861,8.754-11.067,12.499-17.146c-1.942-0.818-3.884-1.637-5.826-2.456c-1.615,5.89-4.385,11.361-6,17.25
				c-0.943,3.438,4.131,5.712,5.826,2.456c3.731-7.169,8.819-13.539,12-21c-1.942-0.818-3.884-1.637-5.826-2.456
				c-0.98,6.579-4.382,12.345-6,18.75c-0.876,3.469,4.025,5.662,5.826,2.456c4.285-7.626,8.986-15.008,13.5-22.5
				c-1.98-0.536-3.96-1.073-5.94-1.609c-0.269,5.978-3.188,11.049-5.565,16.392c-1.634,3.674,3.578,6.928,5.505,3.217
				c3.1-5.969,6.884-11.414,8.571-18.011c-2.087-0.282-4.174-0.565-6.261-0.847c-0.209,6.931-2.791,13.135-5.565,19.392
				c-1.63,3.675,3.59,6.933,5.505,3.217c2.462-4.778,5.299-9.337,7.5-14.25c1.644-3.668-3.449-6.874-5.505-3.217
				c-5.596,9.95-14.744,17.875-17.571,29.261c2.049,0.565,4.098,1.13,6.147,1.695c0.87-3.73,1.491-7.516,1.614-11.348
				c0.092-2.892-3.484-4.068-5.441-2.254c-5.041,4.674-6.707,11.465-10.249,17.146c1.942,0.254,3.884,0.507,5.826,0.761
				c-0.502-3.007-0.6-5.811,0-8.805c-2.087-0.283-4.174-0.565-6.261-0.848c-0.189,5.676-2.099,10.709-4.815,15.642
				c1.942,0.818,3.884,1.637,5.826,2.456c0.794-3.381,2.17-6.173,4.179-8.989c-1.942-0.818-3.884-1.637-5.826-2.456
				c-0.89,5.202-2.844,9.804-5.679,14.239c1.454-0.382,2.908-0.763,4.361-1.144c0.276,0.417,0.552,0.835,0.829,1.252
				c-0.238-3.336-4.034-4.126-5.94-1.608c-3.021,3.989-3.933-0.041-3.81-2.892c0.136-3.156-4.457-4.373-5.94-1.608
				c-1.199,2.233-2.393,4.396-3.321,6.761c-1.323,3.369,4.25,5.68,5.826,2.456c1.239-2.533,1.22-4.807,1.821-7.511
				c0.319-1.437-0.201-2.813-1.465-3.6c-2.423-1.508-4.319-3.737-6.75-5.25c-1.404-0.874-3.599-0.381-4.361,1.144
				c-0.75,1.5-1.5,3-2.25,4.5c1.98,0.536,3.96,1.072,5.94,1.608c-0.133-3.129-0.95-6.052-1.614-9.098
				c-0.454-2.08-2.955-2.835-4.683-1.904c-1.185,0.638-1.973,1.47-2.644,2.644c1.98,0.536,3.96,1.072,5.94,1.608
				c0.411-4.313,2.578-8.458,3.636-12.652c1.036-4.106-4.612-5.377-6.147-1.695c-0.674,1.618-1.802,2.985-2.679,4.489
				c1.98,0.536,3.96,1.072,5.94,1.608c0.157-2.266,0.593-4.484,0.75-6.75c0.246-3.536-4.222-3.836-5.94-1.608
				c-0.916,1.187-1.569,2.414-2.25,3.75c1.942,0.818,3.884,1.637,5.826,2.456c1.493-4.488,4.903-6.728,9.035-8.596
				c-1.561-1.199-3.122-2.399-4.683-3.6c-0.492,2.626-0.28,4.94-0.114,7.598c0.168,2.694,3.385,4.324,5.441,2.254
				c1.837-1.85,3.488-3.771,4.999-5.896c-1.98-0.536-3.96-1.072-5.94-1.608c0.056,1.685,0.311,3.391,1.684,4.504
				c1.029,0.834,2.647,1.404,3.863,0.498c7.201-5.365,13.306-10.128,18.394-17.644c-1.835,0-3.67,0-5.505,0
				c0.105,0.214,0.21,0.428,0.315,0.642c0.109,1.635,1.37,3.317,3.188,3.188c5.895-0.421,10.445-3.378,15.004-6.934
				c-1.814-0.751-3.627-1.502-5.441-2.254c-1.06,8.539-5.69,16.005-6,24.75c-0.071,2.013,2.099,3.703,4.035,3.073
				c7.457-2.424,10.52-9.701,14.655-15.715c-1.942-0.818-3.884-1.637-5.826-2.456c-3.048,7.488-6.568,14.775-9,22.5
				c2.049,0.565,4.098,1.13,6.147,1.695c0.646-2.478,0.854-5.022,1.5-7.5c0.916-3.515-3.958-5.572-5.826-2.456
				c-4.596,7.667-9.049,15.38-11.571,24.011c2.049,0,4.098,0,6.147,0c-0.552-1.679-1.204-3.38-1.386-5.152
				c-0.375-3.644-4.933-4.262-6.261-0.848c-1.625,4.179-2.903,8.347-3.114,12.848c-0.094,2.009,2.117,3.708,4.035,3.073
				c7.752-2.564,10.087-10.827,13.905-17.215c-1.835-1.072-3.67-2.145-5.505-3.217c-1.458,3.166-2.469,6.384-3.321,9.761
				c-0.713,2.829,2.205,4.836,4.683,3.6c7.453-3.717,11.365-11.093,14.644-18.394c-1.942-0.818-3.884-1.637-5.826-2.456
				c-0.663,3.229-0.837,6.523-1.5,9.75c-0.605,2.95,3.022,5.59,5.328,3.102c3.916-4.225,6.41-9.335,9.499-14.146
				c-1.942-0.818-3.884-1.637-5.826-2.456c-0.887,5.04-2.903,9.568-4.929,14.239c1.942,0.818,3.884,1.637,5.826,2.456
				c0.899-4.348,2.7-8.173,4.929-11.989c2.078-3.558-3.421-6.757-5.505-3.217c-2.4,4.077-4.622,8.228-7.5,12
				c1.98,0.536,3.96,1.072,5.94,1.608c-0.496-9.675,2.115-18.573,5.136-27.652c-2.049-0.565-4.098-1.13-6.147-1.695
				c-0.784,5.52-1.518,11.016-1.614,16.598c-0.052,3.025,4.563,4.552,5.94,1.608c4.013-8.578,9.163-16.538,12.321-25.511
				c1.222-3.47-4.057-5.532-5.825-2.457c-2.603,4.525-4.619,9.333-6.322,14.261c-1.193,3.455,4.094,5.578,5.826,2.456
				c3.899-7.024,7.633-14.078,10.071-21.761c1.056-3.324-3.043-4.943-5.327-3.101c-5.685,4.584-7.104,12.025-10.999,17.896
				c1.98,0.536,3.96,1.072,5.94,1.608c-0.532-6.03,0.85-11.521,2.886-17.153c1.282-3.543-3.943-5.359-5.826-2.456
				c-2.918,4.503-5.29,9.199-7.071,14.261c-1.172,3.331,3.094,4.89,5.328,3.102c6.495-5.198,10.621-12.681,13.998-20.145
				c-1.979-0.536-3.96-1.073-5.939-1.609c-0.005,3.986-0.066,7.948-0.636,11.903c-0.498,3.453,3.769,5.697,5.825,2.456
				c2.945-4.64,4.96-9.829,8.25-14.25c-1.979-0.536-3.96-1.073-5.939-1.609c-0.011,2.53-0.127,4.908-0.636,7.403
				c-0.688,3.371,4.126,5.854,5.825,2.456c1.5-3,3-6,4.5-9c-1.941-0.819-3.884-1.638-5.825-2.456c-1.5,4.5-3,9-4.5,13.5
				c-1.133,3.396,4.373,5.779,5.825,2.456c1.572-3.595,3.679-6.905,5.25-10.5c-1.979-0.536-3.96-1.073-5.939-1.609
				c-0.015,1.558-0.121,2.927-0.636,4.403c-1.289,3.693,3.826,5.121,5.825,2.456c3.83-5.104,4.76-11.451,7.071-17.262
				c-2.087-0.282-4.174-0.565-6.261-0.847c-0.218,4.87-1.952,9.406-2.886,14.153c-0.703,3.57,3.773,5.511,5.825,2.456
				c3.996-5.949,6.112-12.843,8.571-19.512c-2.087-0.282-4.174-0.565-6.261-0.847c-0.007,3.5-0.053,6.94-0.636,10.403
				c-0.561,3.322,4.095,5.923,5.825,2.456c2.329-4.666,4.583-9.339,6.321-14.262c-2.049-0.565-4.098-1.129-6.146-1.694
				c-1.648,4.969-2.951,9.839-3.114,15.097c-0.121,3.901,4.969,3.924,6.261,0.847c2.16-5.144,3.973-10.634,7.431-15.093
				c-1.669-1.288-3.338-2.575-5.006-3.863c-2.22,4.623-3.947,9.402-5.571,14.262c-1.162,3.477,4.057,5.552,5.825,2.456
				c3.897-6.818,8.657-13.122,12-20.25c-1.941-0.819-3.884-1.638-5.825-2.456c-0.643,3.562-1.029,7.071-2.25,10.5
				c-1.048,2.941,3.303,5.541,5.327,3.101c3.597-4.335,7.083-8.732,10.248-13.395c-1.835-1.073-3.669-2.145-5.504-3.218
				c-1.622,2.44-3.147,4.9-4.5,7.5c1.941,0.819,3.884,1.638,5.825,2.456c0.776-4.058,2.118-7.651,4.179-11.238
				c1.84-3.202-2.371-6.307-5.006-3.863c-8.739,8.107-15.915,18.174-26.942,23.384c-8.768,4.142-16.29,8.948-22.279,16.707
				c-7.006,9.076-15.38,18.565-20.212,29.019c-2.35,5.084-2.246,9.705-1.387,15.12c1.141,7.192-2.905,12.644-4.999,19.177
				c2.087,0.283,4.174,0.565,6.261,0.848c0-0.25,0-0.5,0-0.75c0-1.506-0.992-2.582-2.34-3.073c-2.531-0.924-4.968-2.077-7.5-3
				c0.635,1.561,1.27,3.121,1.905,4.682c2.727-3.922,5.889-7.071,10.106-9.356c-1.561-1.199-3.122-2.399-4.683-3.6
				c-0.209,1.019-0.541,1.982-0.75,3c-0.382,1.855,0.882,4.243,3.074,4.035c2.446-0.232,4.642-0.876,6.859-1.936
				c3.708-1.771,0.472-7.267-3.218-5.504c-1.139,0.544-2.379,0.944-3.641,1.064c1.024,1.345,2.049,2.689,3.074,4.035
				c0.209-1.019,0.541-1.982,0.75-3c0.563-2.735-2.128-4.984-4.683-3.6c-5.172,2.802-9.06,6.849-12.394,11.644
				c-1.26,1.812,0.115,4.029,1.905,4.682c2.531,0.924,4.968,2.077,7.5,3c-0.78-1.024-1.56-2.049-2.34-3.073c0,0.25,0,0.5,0,0.75
				c0,3.683,5.177,4.23,6.261,0.848c1.614-5.036,4.905-9.724,5.364-15.098c0.504-5.902-1.822-11.38,0.18-17.158
				c1.956-5.648,6.277-10.755,9.884-15.412c3.707-4.784,7.093-9.831,10.882-14.541c6.057-7.529,14.01-10.961,22.328-15.351
				c10.201-5.383,17.242-15.335,25.542-23.035c-1.669-1.288-3.338-2.575-5.006-3.863c-2.319,4.037-3.945,8.181-4.821,12.762
				c-0.646,3.374,4.063,5.842,5.825,2.456c1.354-2.6,2.879-5.061,4.5-7.5c2.288-3.442-3.214-6.591-5.504-3.218
				c-2.862,4.214-6.001,8.187-9.252,12.105c1.775,1.034,3.552,2.067,5.327,3.101c1.222-3.428,1.608-6.938,2.25-10.5
				c0.598-3.316-4.188-5.947-5.825-2.456c-3.344,7.128-8.104,13.432-12,20.25c1.941,0.819,3.884,1.638,5.825,2.456
				c1.449-4.336,2.947-8.61,4.929-12.738c1.46-3.041-2.65-6.9-5.006-3.863c-4.19,5.403-6.447,11.662-9.069,17.907
				c2.087,0.282,4.174,0.565,6.261,0.847c0.146-4.694,1.419-8.979,2.886-13.403c1.304-3.929-4.791-5.531-6.146-1.694
				c-1.556,4.403-3.597,8.566-5.679,12.738c1.941,0.819,3.884,1.638,5.825,2.456c0.68-4.029,0.856-8.014,0.864-12.097
				c0.007-3.773-5.059-4.108-6.261-0.847c-2.278,6.175-4.229,12.479-7.929,17.988c1.941,0.819,3.884,1.638,5.825,2.456
				c1.049-5.329,2.87-10.376,3.114-15.847c0.173-3.864-5.02-3.967-6.261-0.847c-2.112,5.306-2.936,11.082-6.429,15.738
				c1.941,0.819,3.884,1.638,5.825,2.456c0.701-2.006,0.845-3.982,0.864-6.097c0.028-2.974-4.623-4.621-5.939-1.609
				c-1.572,3.595-3.679,6.905-5.25,10.5c1.941,0.819,3.884,1.638,5.825,2.456c1.5-4.5,3-9,4.5-13.5
				c1.141-3.419-4.209-5.689-5.825-2.456c-1.5,3-3,6-4.5,9c1.941,0.819,3.884,1.638,5.825,2.456
				c0.618-3.026,0.852-6.009,0.864-9.097c0.015-3.428-4.155-4.006-5.939-1.609c-3.291,4.42-5.306,9.61-8.25,14.25
				c1.941,0.819,3.884,1.638,5.825,2.456c0.653-4.531,0.858-9.021,0.864-13.597c0.004-2.981-4.582-4.608-5.939-1.609
				c-3.176,7.017-6.892,13.964-13.002,18.855c1.776,1.034,3.552,2.067,5.328,3.102c1.602-4.552,3.809-8.698,6.428-12.739
				c-1.941-0.819-3.884-1.638-5.826-2.456c-2.22,6.138-3.693,12.29-3.114,18.847c0.279,3.156,4.119,4.353,5.939,1.608
				c3.559-5.362,4.839-12.441,10.002-16.604c-1.775-1.034-3.552-2.067-5.327-3.101c-2.273,7.162-5.797,13.694-9.429,20.239
				c1.942,0.818,3.884,1.637,5.826,2.456c1.527-4.42,3.346-8.682,5.679-12.739c-1.941-0.818-3.884-1.637-5.825-2.456
				c-2.969,8.435-7.905,15.92-11.679,23.989c1.98,0.536,3.96,1.072,5.94,1.608c0.086-5.015,0.681-9.94,1.386-14.902
				c0.566-3.984-4.817-5.692-6.147-1.695c-3.196,9.605-5.888,19.124-5.364,29.348c0.173,3.377,4.059,4.074,5.94,1.608
				c2.877-3.771,5.099-7.922,7.5-12c-1.835-1.072-3.67-2.145-5.505-3.217c-2.493,4.27-4.565,8.646-5.571,13.511
				c-0.689,3.335,4.314,5.943,5.826,2.456c2.235-5.153,4.591-10.19,5.571-15.761c0.617-3.506-3.796-5.617-5.826-2.456
				c-2.78,4.33-4.978,9.053-8.501,12.854c1.776,1.034,3.552,2.067,5.328,3.102c0.663-3.229,0.837-6.523,1.5-9.75
				c0.686-3.34-4.267-5.927-5.826-2.456c-2.826,6.292-5.895,12.884-12.356,16.106c1.561,1.199,3.122,2.399,4.683,3.6
				c0.713-2.826,1.455-5.581,2.679-8.239c1.691-3.672-3.359-6.807-5.505-3.217c-2.621,4.384-4.781,12.526-10.095,14.285
				c1.345,1.024,2.69,2.049,4.035,3.073c0.183-3.9,1.482-7.544,2.886-11.152c-2.087-0.283-4.174-0.565-6.261-0.848
				c0.246,2.391,0.863,4.563,1.614,6.848c0.975,2.964,5.238,3.112,6.147,0c2.369-8.106,6.615-15.293,10.929-22.489
				c-1.942-0.818-3.884-1.637-5.826-2.456c-0.646,2.478-0.854,5.022-1.5,7.5c-1.041,3.995,4.917,5.602,6.147,1.695
				c2.431-7.722,5.953-15.015,9-22.5c1.442-3.544-3.911-5.241-5.826-2.456c-2.968,4.315-5.476,11.039-10.845,12.785
				c1.345,1.024,2.69,2.049,4.035,3.073c0.305-8.604,4.944-16.247,6-24.75c0.389-3.13-3.58-3.706-5.441-2.254
				c-3.096,2.415-6.456,4.778-10.496,5.066c1.062,1.062,2.125,2.125,3.188,3.188c-0.098-1.469-0.454-2.588-1.185-3.859
				c-1.256-2.182-4.196-1.934-5.505,0c-4.445,6.566-9.819,10.671-16.106,15.357c1.288,0.166,2.575,0.332,3.863,0.498
				c0.191,0.475,0.252,0.477,0.184,0.004c-0.111-3.324-4.136-4.146-5.94-1.608c-1.2,1.688-2.547,3.141-4.001,4.604
				c1.814,0.751,3.627,1.503,5.441,2.254c-0.123-1.972-0.484-3.927-0.114-5.902c0.541-2.883-2.073-4.78-4.683-3.6
				c-5.749,2.599-9.941,6.325-11.965,12.404c-1.14,3.426,4.187,5.674,5.826,2.456c0.68-1.335,1.334-2.562,2.25-3.75
				c-1.98-0.536-3.96-1.072-5.94-1.608c-0.157,2.266-0.593,4.484-0.75,6.75c-0.226,3.251,4.41,4.233,5.94,1.608
				c1.179-2.022,2.415-3.838,3.321-6.011c-2.049-0.565-4.098-1.13-6.147-1.695c-1.232,4.884-3.383,9.304-3.864,14.348
				c-0.31,3.254,4.448,4.219,5.94,1.608c0.026-0.334,0.145-0.453,0.356-0.356c-1.561-0.635-3.122-1.27-4.683-1.904
				c0.538,2.468,1.279,4.869,1.386,7.402c0.126,2.975,4.443,4.603,5.94,1.608c0.75-1.5,1.5-3,2.25-4.5
				c-1.454,0.382-2.908,0.763-4.361,1.144c2.423,1.508,4.319,3.737,6.75,5.25c-0.488-1.199-0.977-2.399-1.465-3.6
				c-0.423,1.906-0.319,4.23-1.179,5.989c1.942,0.818,3.884,1.637,5.826,2.456c0.722-1.838,1.749-3.506,2.679-5.239
				c-1.98-0.536-3.96-1.072-5.94-1.608c-0.455,10.548,9.184,14.702,15.69,6.108c-1.98-0.536-3.96-1.072-5.94-1.608
				c0.142,1.98,0.745,3.085,2.329,4.252c1.44,1.062,3.502,0.2,4.361-1.144c3.107-4.861,5.346-10.057,6.321-15.761
				c0.617-3.606-3.683-5.462-5.826-2.456c-2.32,3.254-3.906,6.617-4.821,10.511c-0.81,3.447,4.034,5.711,5.826,2.456
				c3.255-5.91,5.458-12.066,5.685-18.858c0.119-3.561-5.549-4.399-6.261-0.848c-0.829,4.135-0.692,8.051,0,12.195
				c0.482,2.885,4.494,2.896,5.826,0.761c3.219-5.161,4.69-11.625,9.251-15.854c-1.814-0.751-3.627-1.503-5.441-2.254
				c-0.104,3.276-0.643,6.465-1.386,9.652c-0.932,3.996,5.155,5.69,6.147,1.695c2.659-10.71,11.649-18.351,16.929-27.739
				c-1.835-1.072-3.67-2.145-5.505-3.217c-2.201,4.912-5.038,9.472-7.5,14.25c1.835,1.072,3.67,2.145,5.505,3.217
				c3.24-7.306,6.19-14.512,6.435-22.608c0.109-3.614-5.373-4.322-6.261-0.847c-1.546,6.046-5.087,11.017-7.929,16.489
				c1.835,1.072,3.67,2.145,5.505,3.217c2.867-6.444,6.112-12.411,6.435-19.608c0.146-3.257-4.359-4.232-5.94-1.609
				c-4.513,7.492-9.215,14.874-13.5,22.5c1.942,0.818,3.884,1.637,5.826,2.456c1.618-6.405,5.02-12.172,6-18.75
				c0.482-3.236-4.286-6.068-5.826-2.456c-3.181,7.461-8.268,13.831-12,21c1.942,0.818,3.884,1.637,5.826,2.456
				c1.615-5.89,4.385-11.361,6-17.25c0.97-3.538-3.94-5.518-5.826-2.456c-3.462,5.62-6.567,11.356-11.501,15.854
				c1.776,1.034,3.552,2.067,5.328,3.102c1.726-5.292,4.884-9.942,7.179-14.989c1.38-3.035-2.565-6.896-5.006-3.862
				c-4.007,4.979-7.333,10.419-10.999,15.646c1.942,0.818,3.884,1.637,5.826,2.456c1.504-6.419,3.69-12.584,6-18.75
				c1.331-3.555-3.926-5.309-5.826-2.457c-3.118,4.68-6.18,9.383-9,14.25c1.942,0.818,3.884,1.637,5.826,2.456
				c0.909-6.489,3.707-12.418,5.25-18.75c1-4.102-4.627-5.4-6.147-1.694c-2.731,6.656-6.17,12.877-11.18,18.093
				c1.776,1.034,3.552,2.067,5.328,3.102c1.773-6.28,5.105-11.952,7.5-18c1.381-3.487-3.979-5.382-5.826-2.456
				c-3.598,5.699-7.403,11.253-10.5,17.25c1.942,0.818,3.884,1.637,5.826,2.456c2.427-6.796,6.401-13.026,7.5-20.25
				c0.534-3.513-3.724-5.604-5.826-2.456c-5.49,8.22-7.547,18.978-15.251,25.605c1.776,1.034,3.552,2.067,5.328,3.102
				c0.834-4.385,2.321-8.533,3.75-12.75c1.187-3.503-4.01-5.49-5.826-2.456c-2.192,3.662-4.32,7.318-6,11.25
				c1.942,0.818,3.884,1.637,5.826,2.456c2.108-5.109,3.633-10.289,4.5-15.75c0.63-3.974-5.28-5.775-6.147-1.695
				c-0.646,3.043-0.853,5.99-0.864,9.098c-0.013,3.61,5.313,4.327,6.261,0.848c0.964-3.54,3.141-6.076,5.93-8.344
				c-1.776-1.034-3.552-2.067-5.328-3.102c-0.617,2.984-0.883,6.017-1.5,9c-0.738,3.569,3.796,5.509,5.826,2.456
				c1.308-1.966,2.623-3.922,3.75-6c1.961-3.613-3.543-6.831-5.505-3.217c-1.127,2.077-2.442,4.033-3.75,6
				c-2.033,3.056,2.511,6.422,5.006,3.862c2.913-2.988,5.6-6.179,9.105-8.502C42.934,82.57,39.745,77.046,36.307,79.325
				L36.307,79.325z"/>
		</g>
	</g>
	<g>
		<g>
			<path fill="#000001" d="M59.418,79.186c0.226-0.461,0.424-0.931,0.623-1.404c1.299-3.092-3.23-5.17-5.328-3.101
				c-2.059,2.031-2.885,5.208-4.801,7.393c1.776,1.034,3.552,2.067,5.328,3.102c0.184-1.137,0.525-2.043,1.179-2.989
				c1.407-2.035-0.476-4.796-2.752-4.796c-1.5,0-3,0-4.5,0c1.024,1.345,2.049,2.69,3.074,4.035c0.641-2.225,0.118-4.556,0.75-6.75
				c0.564-1.959-1.012-4.086-3.074-4.035c-6.632,0.165-12.341,2.369-16.504,7.684c1.814,0.751,3.627,1.502,5.441,2.254
				c-0.301-10.228-11.906-5.821-16.803-1.476c-6.349,5.634-9.315,15.148-11.208,23.128c-0.527,2.225,1.517,4.744,3.921,3.921
				c3.625-1.24,6.21-3.397,8.907-6.069c2.923-2.896-1.586-7.403-4.508-4.508c-1.845,1.828-3.567,3.566-6.093,4.431
				c1.307,1.307,2.614,2.613,3.921,3.921c2.091-8.817,6.435-24.021,17.926-23.16c-0.917-0.526-1.835-1.052-2.752-1.579
				c0.105,0.464,0.21,0.927,0.315,1.391c0.073,2.498,3.611,4.591,5.441,2.254c3.169-4.045,6.915-5.69,11.996-5.816
				c-1.024-1.345-2.049-2.69-3.074-4.035c-0.641,2.225-0.118,4.556-0.75,6.75c-0.575,1.997,1.02,4.035,3.074,4.035c1.5,0,3,0,4.5,0
				c-0.917-1.599-1.835-3.198-2.752-4.796c-0.937,1.355-1.558,2.883-1.821,4.511c-0.459,2.841,3.005,5.75,5.328,3.102
				c1.012-1.153,1.845-2.435,2.665-3.729c0.49-0.773,0.957-1.562,1.428-2.346c0.143-0.238,1.534-2.133,0.708-1.318
				c-1.776-1.034-3.552-2.067-5.328-3.102c0.007-0.04,0.014-0.079,0.02-0.119C52.115,79.646,57.612,82.879,59.418,79.186
				L59.418,79.186z"/>
		</g>
	</g>
	<g>
		<g>
			<path fill="#000001" d="M43.162,93.331c2.962,2.91,6.303,4.599,10.504,4.684c4.113,0.083,4.105-6.292,0-6.375
				c-2.515-0.051-4.24-1.091-5.996-2.816C44.736,85.941,40.226,90.446,43.162,93.331L43.162,93.331z"/>
		</g>
	</g>
	<g>
		<g>
			<path fill="#000001" d="M58.166,99.515c4.111,0,4.111-6.375,0-6.375S54.055,99.515,58.166,99.515L58.166,99.515z"/>
		</g>
	</g>
	<g>
		<g>
			<path fill="#000001" d="M61.916,99.515c0.68-0.057,1.591-0.183,2.164,0.103c0.218,0.108,0.177,0.06,0.333,0.747
				c0.311,1.369-0.785,3.559-1.5,4.854c-1.987,3.602,3.519,6.816,5.505,3.217c1.709-3.098,2.862-6.597,2.057-10.142
				c-0.89-3.914-4.942-5.457-8.559-5.154C57.85,93.479,57.817,99.857,61.916,99.515L61.916,99.515z"/>
		</g>
	</g>
	<g>
		<g>
			<path fill="#000001" d="M80.418,106.936c3.118-5.332,6.631-10.417,9.75-15.75c-1.453,0.382-2.907,0.763-4.36,1.144
				c0.939,0.569,1.942,0.944,2.606,1.856c0.635-1.561,1.27-3.121,1.904-4.682c-1.856,0.734-3.909,1.222-5.902,1.386
				c-4.04,0.332-4.165,6.375,0,6.375c0.25,0,0.5,0,0.75,0c1.606,0,3.361-1.455,3.188-3.188c-0.498-4.968-2.565-8.755-6.534-11.802
				c-3.755-2.884-9.352-4.939-8.58-10.601c-1.024,0.78-2.049,1.56-3.074,2.34c1,0,2,0,3,0c-1.024-1.345-2.049-2.69-3.074-4.035
				c-0.7,2.006-0.844,3.982-0.864,6.097c-0.015,1.608,1.467,3.358,3.188,3.188c9.153-0.909,18.624-1.937,24.502-9.829
				c-1.941-0.254-3.884-0.508-5.825-0.762c0.864,5.714,3.756,6.625,8.215,9.405c-0.382-1.454-0.763-2.908-1.144-4.361
				c-0.849,1.202-1.402,2.549-2.25,3.75c-0.824,1.167-0.44,2.903,0.498,3.863c0.929,0.949,1.653,1.836,2.181,3.094
				c0.826,1.974,2.664,2.898,4.682,1.904c8.967-4.415,3.088-19.882,5.215-27.405c1.021-3.612-3.859-5.375-5.825-2.456
				c-1.907,2.832-3.068,5.922-4.5,9c-1.45,3.115,2.375,6.667,5.006,3.863c3.461-3.689,5.811-7.64,6.184-12.754
				c0.141-1.925-2.172-3.819-4.035-3.074c-5.05,2.021-8.548,5.637-12.656,9.07c1.503,1.502,3.005,3.005,4.508,4.508
				c1.698-1.563,3.552-2.937,5.25-4.5c-1.813-0.751-3.628-1.502-5.441-2.254c0.056,1.684,0.311,3.391,1.684,4.504
				c1.159,0.94,2.493,1.237,3.862,0.499c7.63-4.119,12.982-11.133,20.25-15.75c1.675-1.063,2.204-3.563,0.646-5.006
				c-1.337-1.238-2.717-1.326-3.656-1.57c0,2.049,0,4.098,0,6.147c1.364-0.355,2.586-1.058,3.761-1.821
				c-1.599-0.917-3.197-1.835-4.796-2.752c0.164,1.762,0.586,3.49,0.75,5.25c0.175,1.876,1.937,3.87,4.035,3.074
				c4.328-1.643,8.382-2.951,11.906-6.07c-1.813-0.751-3.628-1.502-5.441-2.254c-0.314,2.917,1.196,4.854,1.614,7.597
				c0.616,4.054,6.759,2.326,6.146-1.694c-0.323-2.129-1.625-3.682-1.386-5.903c0.323-2.999-3.583-3.898-5.441-2.254
				c-2.629,2.327-5.882,3.211-9.094,4.43c1.346,1.024,2.69,2.049,4.035,3.074c-0.164-1.762-0.586-3.49-0.75-5.25
				c-0.209-2.246-2.599-4.181-4.796-2.752c-0.707,0.459-1.413,0.964-2.239,1.179c-3.045,0.792-3.048,5.357,0,6.147
				c1.164,0.302,2.02,0.273,3.195,0.056c-1.034-0.273-2.067-0.547-3.102-0.82c0.25,0.231,0.5,0.463,0.75,0.694
				c0.215-1.669,0.43-3.337,0.646-5.006c-7.264,4.614-12.66,11.653-20.25,15.75c1.287,0.167,2.575,0.333,3.862,0.499
				c0.191,0.475,0.252,0.476,0.184,0.004c-0.095-2.828-3.377-4.154-5.441-2.254c-1.698,1.563-3.552,2.937-5.25,4.5
				c-3.064,2.82,1.401,7.103,4.508,4.508c3.145-2.627,5.963-5.877,9.844-7.43c-1.346-1.024-2.69-2.049-4.035-3.074
				c-0.245,3.354-2.089,5.872-4.316,8.246c1.669,1.288,3.338,2.575,5.006,3.863c1.433-3.079,2.593-6.169,4.5-9
				c-1.941-0.819-3.884-1.638-5.825-2.456c-1.128,3.987-0.818,8.238-0.67,12.329c0.095,2.589,1.256,9.852-1.615,11.266
				c1.561,0.635,3.121,1.27,4.682,1.905c-0.951-2.271-2.091-4.138-3.819-5.906c0.166,1.288,0.332,2.575,0.498,3.863
				c0.849-1.202,1.402-2.549,2.25-3.75c1.023-1.45,0.233-3.503-1.144-4.361c-3.071-1.915-4.709-1.79-5.285-5.595
				c-0.464-3.067-4.407-2.667-5.825-0.762c-4.227,5.675-12.568,6.033-18.998,6.671c1.062,1.062,2.125,2.125,3.188,3.188
				c0.015-1.558,0.121-2.927,0.636-4.403c0.691-1.98-1.107-4.035-3.074-4.035c-1,0-2,0-3,0c-1.274,0-2.886,0.96-3.074,2.34
				c-0.694,5.095,0.407,9.268,4.379,12.699c4.039,3.488,9.899,5.335,10.507,11.398c1.062-1.062,2.125-2.125,3.188-3.188
				c-0.25,0-0.5,0-0.75,0c0,2.125,0,4.25,0,6.375c2.558-0.211,5.208-0.668,7.598-1.614c1.729-0.684,3.229-2.86,1.904-4.682
				c-1.447-1.992-2.818-2.888-4.894-4.144c-1.486-0.9-3.494-0.338-4.36,1.144c-3.118,5.332-6.632,10.417-9.75,15.75
				C72.834,107.274,78.345,110.481,80.418,106.936L80.418,106.936z"/>
		</g>
	</g>
	<g>
		<g>
			<path fill="#000001" d="M133.058,48.575c-0.75,0.5-1.5,1-2.25,1.5c1.453,1.454,2.907,2.908,4.36,4.361
				c3.473-4.571,5.964-9.759,8.25-15c1.625-3.724-3.145-6.671-5.504-3.218c-4.752,6.953-36.683,23.609-22.752,34.613
				c0-1.502,0-3.005,0-4.508c-1.416,1.294-2.925,2.334-4.604,3.251c1.561,1.2,3.121,2.4,4.682,3.6
				c1.382-8.351-4.472-13.406-12.182-8.85c-3.536,2.089-0.33,7.601,3.217,5.505c2.148-1.27,3.319-1.381,2.818,1.65
				c-0.447,2.701,2.054,5.035,4.682,3.6c2.154-1.176,4.086-2.594,5.896-4.249c1.174-1.073,1.324-3.462,0-4.508
				c-6.002-4.741,20.729-22.469,23.748-26.887c-1.835-1.073-3.669-2.145-5.504-3.218c-2.286,5.241-4.778,10.429-8.25,15
				c-1.954,2.571,1.809,6.063,4.36,4.361c0.75-0.5,1.5-1,2.25-1.5C139.677,51.812,136.489,46.287,133.058,48.575L133.058,48.575z"/>
		</g>
	</g>
	<g>
		<g>
			<path fill="#000001" d="M97.818,63.253c-3.158,1.115-5.306,3.233-7.154,5.965c-0.976,1.441-0.281,3.527,1.144,4.361
				c1.573,0.922,3.389,0.292,4.36-1.144c0.36-0.531,0.507-0.739,0.689-0.963c0.321-0.394,0.678-0.757,1.047-1.105
				c0.144-0.132,0.292-0.26,0.444-0.383c-0.507,0.422,0.246-0.128,0.305-0.166c0.167-0.1,0.338-0.193,0.512-0.28
				c0.828-0.436-0.561,0.183,0.349-0.138c1.637-0.578,2.711-2.156,2.226-3.921C101.304,63.894,99.458,62.675,97.818,63.253
				L97.818,63.253z"/>
		</g>
	</g>
	<g>
		<g>
			<path fill="#000001" d="M78.412,79.823c-3.832,3.69-6.036,8.667-8.173,13.448c-1.562,3.495-3.307,10.364-6.932,12.304
				c-3.625,1.939-0.406,7.442,3.218,5.504c4.039-2.16,5.937-7.229,7.705-11.164c2.379-5.297,4.418-11.471,8.69-15.584
				C85.886,81.475,81.372,76.972,78.412,79.823L78.412,79.823z"/>
		</g>
	</g>
	<g>
		<g>
			<path fill="#000001" d="M46.414,102.219c-0.39,0.534-0.595,1.16-0.595,1.827c0.031,0.469,0.113,0.929,0.246,1.379
				c0.277,1.15,0.405,0.862,0.384-0.862c0.917-0.526,1.835-1.053,2.752-1.579c-2.313-0.276-3.611-2.778-6.253-2.052
				c-2.6,0.715-3.48,3.576-4.355,5.798c2.049,0.565,4.098,1.13,6.147,1.695c2.784-8.016-6.165-11.988-12.679-12.066
				c-8.449-0.102-15.489,7.664-11.147,15.827c1.931,3.631,7.434,0.41,5.505-3.217c-4.304-8.092,14.124-7.853,12.174-2.239
				c-1.368,3.939,4.672,5.438,6.147,1.695c1.219-1.695,0.825-2.098-1.183-1.206c0.442,0.271,0.89,0.533,1.344,0.784
				c1.367,0.778,2.755,1.171,4.3,1.355c1.146,0.137,2.15-0.727,2.752-1.579c0.418-0.591,0.678-1.21,0.678-1.952
				c-0.06-0.481-0.128-0.962-0.204-1.441c-0.285-1.213-0.454-0.862-0.509,1.05C54.347,102.109,48.812,98.935,46.414,102.219
				L46.414,102.219z"/>
		</g>
	</g>
	<g>
		<g>
			<path fill="#000001" d="M74.479,111.327c-0.028,1.501-0.146,2.879,0.069,4.377c0.292,2.034,2.038,3.241,3.771,3.946
				c1.001,0.408,2.391-0.075,3.101-0.819c1.745-1.827,3.594-4.201,3.934-6.754c-2.087,0.282-4.174,0.564-6.261,0.848
				c0.124,0.336,0.369,1.234,0.372,1.297c-0.009-0.189-0.17,0.177-0.048,0.035c-0.738,0.854-1.695,1.53-2.504,2.316
				c-2.952,2.87,1.56,7.374,4.508,4.508c1.252-1.218,2.615-2.226,3.571-3.719c1.172-1.828,0.963-4.191,0.248-6.133
				c-0.496-1.348-1.563-2.34-3.073-2.34c-1.911,0-2.958,1.466-3.188,3.188c0.087-0.652,0.335-1.139-0.12-0.367
				c-0.235,0.398-0.503,0.778-0.768,1.156c-0.401,0.573-0.578,0.828-1.179,1.457c1.034-0.273,2.067-0.547,3.101-0.819
				c0.398,0.133,0.653,0.408,0.763,0.828c-0.25-0.635-0.038,0.196-0.042-0.553c-0.004-0.817,0.104-1.635,0.119-2.452
				C80.93,107.214,74.555,107.222,74.479,111.327L74.479,111.327z"/>
		</g>
	</g>
	<g>
		<g>
			<path fill="#000001" d="M67.057,121.325c-7.05,4.298-13.739,9.28-21.738,11.679c1.345,1.024,2.69,2.049,4.035,3.073
				c-0.167-1.766-0.583-3.487-0.75-5.25c-0.194-2.06-1.886-3.627-4.035-3.073c-0.479,0.091-0.935,0.25-1.368,0.477
				c-0.274,0.124-0.548,0.248-0.822,0.372c-1.1,0.604-1.187,0.603-0.259-0.005c-0.649-0.623-1.767-3.259-1.767-1.146
				c0,2.1,0.531,0.379,2.171-0.623c3.502-2.138,0.301-7.652-3.218-5.504c-2.668,1.629-7.63,5.262-4.395,8.756
				c1.641,1.772,3.417,4.635,5.907,5.319c2.007,0.553,3.629-1.032,5.444-1.5c-1.345-1.024-2.69-2.049-4.035-3.073
				c0.167,1.766,0.583,3.487,0.75,5.25c0.188,1.994,1.901,3.714,4.035,3.073c8.564-2.567,15.712-7.718,23.262-12.321
				C73.778,124.693,70.577,119.179,67.057,121.325L67.057,121.325z"/>
		</g>
	</g>
</g>
<g>
</g>
<g>
</g>
<g>
</g>
<g>
</g>
<g>
</g>
<g>
</g>
</svg>
