<?xml version="1.0" encoding="utf-8"?>
<!-- Generator: Adobe Illustrator 16.0.4, SVG Export Plug-In . SVG Version: 6.00 Build 0)  -->
<!DOCTYPE svg PUBLIC "-//W3C//DTD SVG 1.1//EN" "http://www.w3.org/Graphics/SVG/1.1/DTD/svg11.dtd">
<svg version="1.1" id="Layer_1" xmlns="http://www.w3.org/2000/svg" xmlns:xlink="http://www.w3.org/1999/xlink" x="0px" y="0px"
	 width="160px" height="160px" viewBox="0 0 160 160" enable-background="new 0 0 160 160" xml:space="preserve">
<g>
	<g>
		<path d="M54.573,20.476c0.427-1.303,1.291-1.74,2.15-2.612c6.473-5.233,21.189-8.349,29.418-8.83
			c9.094-0.917,16.475,1.644,23.871,7.235c7.396,5.591,20.135,36.285,8.474,43.281l0.003,0.436
			c-3.501-6.047-3.939-6.91-3.114-14.279c0.411-4.34,0.803-11.706-6.981-8.63l-1.731,0.009c-1.325-4.758-2.654-9.949-4.415-14.707
			l0,0l0,0c-8.218,2.211-18.182,3.566-26.405,4.912c-10.39,1.355-13.88-2.524-21.706-7.244"/>
	</g>
	<g>
		<path d="M70.322,43.39c4.817,9.506-7.288,14.34-7.775,4.373c-0.018-3.031,0.399-5.635,2.995-6.515L70.322,43.39z"/>
	</g>
	<g>
		<path d="M89.55,42.58l6.057-1.768c0,0,4.387,9.507,0.066,11.701c-6.484,2.634-5.664-5.604-6.984-9.064"/>
	</g>
	<g>
		<path d="M101.411,102.564c0,0-13.317,20.01-18.037,28.701c-4.79-4.309-7.427-10.795-11.352-15.541
			c-3.922-4.307-7.413-8.621-10.473-13.371l0,0c-5.635,0.031-21.805,0.77-27.443,0.365l10.827,50.854l77.438,0.555l5.819-48.174"/>
	</g>
	<g>
		<path d="M64.206,152.168"/>
	</g>
	<g>
		<path d="M81.156,102.73c-0.151,1.789-2.099,2.287-2.415,3.59c-0.641,2.117,1.148,1.945,2.453,3.234
			c-2.434,0.5-3.056,5.703-3.369,7.82c-0.302,4.064,3.126,7.131,5.745,9.879c-1.478-2.754,4.679-5.711,4.497-9.125
			c-0.176-2.438-4.257-5.664-4.433-8.264c-0.171-1.945,2.429-1.311,3.394-3.268C85.726,105.955,82.299,103.537,81.156,102.73"/>
	</g>
	<g>
		<path d="M111.433,18.714c-0.477-1.297-1.419-1.727-2.361-2.588c-7.074-5.159-23.064-8.102-31.99-8.488
			c-9.87-0.811-17.842,1.832-25.795,7.512c-7.953,5.674-21.408,36.514-8.685,43.375v0.437c3.727-6.088,4.19-6.956,3.211-14.317
			c-0.495-4.332-1.003-11.695,7.47-8.707l1.876-0.01c1.383-4.774,2.761-9.98,4.617-14.759l0,0l0,0
			c8.935,2.115,19.751,3.356,28.681,4.605c11.279,1.237,15.016-2.684,23.445-7.494"/>
	</g>
	<g>
		<g>
			<path d="M40.541,52.941c1.605,9.239,1.302,18.694,2.733,27.953c0.829,5.361-0.538,17.929,7.033,18.62
				c11.825,1.081,23.782-1.241,35.509-2.409c6.008-0.599,11.829-0.85,17.781,0.27c4.187,0.788,8.247,1.527,12.481,0.685
				c0.835-0.166,1.344-1.017,1.377-1.808c0.615-14.553,2.191-29.073,2.262-43.648c0.012-2.419-3.738-2.417-3.75,0
				c-0.07,14.575-1.646,29.095-2.262,43.648c0.459-0.603,0.918-1.205,1.377-1.808c-4.492,0.894-9.021-0.453-13.438-1.219
				c-4.619-0.8-9.333-0.396-13.978-0.036c-10.49,0.815-20.837,2.701-31.387,2.752c-1.991,0.01-3.982-0.125-5.973-0.177
				c-1.994-0.051-2.156-5.386-2.28-6.396c-0.521-4.263-1.078-8.543-1.526-12.812c-0.86-8.196-0.932-16.478-2.344-24.611
				C43.743,49.565,40.13,50.577,40.541,52.941L40.541,52.941z"/>
		</g>
	</g>
	<g>
		<g>
			<path d="M101.664,72.299c-5.155,1.268-10.762,1.341-16.046,1.843c-5.905,0.562-11.799,0.844-17.727,0.514
				c-2.417-0.135-2.404,3.616,0,3.75c5.935,0.331,11.812,0.012,17.727-0.514c5.632-0.501,11.54-0.623,17.042-1.977
				C105.008,75.337,104.012,71.721,101.664,72.299L101.664,72.299z"/>
		</g>
	</g>
	<g>
		<g>
			<path d="M78.724,54.869c-0.253,2.297-1.789,3.987-2.752,6.005c-0.504,1.057-0.132,2.444,1.121,2.754
				c3.414,0.844,6.951,0.129,10.344,0.969c2.348,0.581,3.343-3.036,0.996-3.616c-3.413-0.844-6.95-0.13-10.343-0.969
				c0.374,0.918,0.747,1.836,1.121,2.754c1.304-2.731,2.921-4.784,3.264-7.897C82.738,52.467,78.985,52.492,78.724,54.869
				L78.724,54.869z"/>
		</g>
	</g>
</g>
<g>
</g>
<g>
</g>
<g>
</g>
<g>
</g>
<g>
</g>
<g>
</g>
</svg>
