<?xml version="1.0" encoding="utf-8"?>
<!-- Generator: Adobe Illustrator 16.0.4, SVG Export Plug-In . SVG Version: 6.00 Build 0)  -->
<!DOCTYPE svg PUBLIC "-//W3C//DTD SVG 1.1//EN" "http://www.w3.org/Graphics/SVG/1.1/DTD/svg11.dtd">
<svg version="1.1" id="Layer_1" xmlns="http://www.w3.org/2000/svg" xmlns:xlink="http://www.w3.org/1999/xlink" x="0px" y="0px"
	 width="160px" height="160px" viewBox="0 0 160 160" enable-background="new 0 0 160 160" xml:space="preserve">
<g>
	<g>
		<g>
			<path d="M50.502,60.318c3.385-0.423,6.77-0.846,10.155-1.269c1.015-0.127,1.874-0.757,1.875-1.875
				c0.012-7.952,0.72-15.083,6.27-21.352c6.45-7.285,22.203-7.444,27.206,1.343c6.607,11.607,2.611,27.049-0.029,39.184
				c0.603-0.459,1.205-0.917,1.808-1.376c-10.992,0-22.019-0.395-33.003,0c-6.877,0.247-13.803,1.372-20.628,2.223
				c-0.915,0.114-1.469,0.509-1.808,1.376c-6.45,16.523-8.977,39.202,2.902,53.805c10.589,13.02,30.853,14.098,46.095,11.761
				c14.224-2.182,25.684-10.74,30.362-24.464c4.483-13.154,2.877-29.325-1.484-42.372c-0.198-0.594-0.656-1.179-1.31-1.31
				c-3.173-0.634-6.347-1.269-9.521-1.903c0.437,0.769,0.873,1.538,1.31,2.307c1.259-8.525,1.875-17.223,1.566-25.836
				c-0.461-12.88-5.973-23.501-17.231-30.279c-11.42-6.875-26.384-5.356-35.894,3.98c-8.779,8.619-10.445,22.523-10.515,34.182
				c-0.015,2.419,3.735,2.417,3.75,0c0.064-10.653,1.48-22.23,8.607-30.657c8.794-10.398,23.94-9.769,34.516-2.779
				c16.51,10.912,14.101,33.345,11.586,50.393c-0.141,0.951,0.221,2.089,1.31,2.307c2.843,0.568,5.687,1.137,8.53,1.705
				c1.913,0.383-0.283-1.001-0.264-0.94c0.116,0.357,0.224,0.717,0.331,1.078c1.01,3.399,1.755,6.876,2.347,10.371
				c1.97,11.646,1.853,24.623-4.109,35.144c-9.09,16.039-30.955,18.11-47.32,15.271c-15.111-2.621-25.103-12.926-26.778-28.127
				c-1.188-10.778,0.893-22.549,4.832-32.638c-0.603,0.459-1.206,0.917-1.808,1.376c6.619-0.825,13.252-1.663,19.904-2.175
				c11.145-0.858,22.543-0.048,33.727-0.048c0.8,0,1.632-0.568,1.808-1.376c1.531-7.037,2.838-14.171,3.513-21.344
				c0.8-8.496-1.117-20.281-8.119-25.861c-6.674-5.318-20.466-4.22-26.785,1.151c-7.946,6.754-9.406,16.049-9.42,25.882
				c0.625-0.625,1.25-1.25,1.875-1.875c-3.385,0.423-6.77,0.846-10.155,1.269C48.135,56.864,48.106,60.618,50.502,60.318
				L50.502,60.318z"/>
		</g>
	</g>
	<g>
		<g>
			<path d="M81.919,95.603c-4.093-0.093-7.895,0.569-11.036,3.337c-2.663,2.348-3.803,8.467-1.698,11.443
				c1.074,1.519,2.344,2.301,3.777,3.459c2.421,1.956,0.858,7.199,0.696,9.763c-0.203,3.204,1.49,8.005,4.966,8.922
				c13.918,3.669,4.719-13.171,9.87-18.271C95.184,107.629,91.613,96.453,81.919,95.603c-2.41-0.212-2.39,3.54,0,3.75
				c4.91,0.431,8.002,5.851,5.755,10.309c-0.99,1.966-3.437,2.812-4.07,5.09c-0.784,2.812-0.364,5.64-0.117,8.509
				c0.105,1.226,0.056,2.47,0.045,3.698c-0.034,3.818-4.703,2.16-5.646-0.479c-1.638-4.583,2.059-10.484-1.58-14.522
				c-2.558-2.838-5.05-3.801-3.951-8.405c0.953-3.994,6.372-4.271,9.564-4.199C84.339,99.407,84.333,95.657,81.919,95.603
				L81.919,95.603z"/>
		</g>
	</g>
	<g>
		<g>
			<path d="M43.683,86.956c0.106-0.105,0.212-0.211,0.317-0.316c0.724-0.722,0.722-1.931,0-2.652c-0.723-0.723-1.928-0.721-2.651,0
				c-0.106,0.105-0.212,0.211-0.317,0.316c-0.724,0.722-0.722,1.931,0,2.652C41.755,87.679,42.96,87.677,43.683,86.956
				L43.683,86.956z"/>
		</g>
	</g>
	<g>
		<g>
			<path d="M43.304,86.933c2.596-1.857,4.794-4.393,7.043-6.641c1.466-1.465-0.531-4.252-2.272-2.945
				c-1.454,1.092-2.883,2.196-4.187,3.466c1.044,0.608,2.089,1.216,3.134,1.824c0.294-1.099,0.379-2.218,0.383-3.353
				c0.005-1.377-1.613-2.396-2.821-1.619c-2.105,1.354-3.496,3.223-4.352,5.562c-0.533,1.456,1.031,2.547,2.307,2.306
				c2.494-0.472,4.313-2.104,6.222-3.655c-0.884-0.884-1.768-1.768-2.651-2.652c-2.293,1.987-4.096,4.558-4.926,7.494
				c-0.461,1.632,1.333,2.881,2.754,2.117c2.275-1.224,4.133-3.082,6.092-4.736c1.85-1.562-0.816-4.202-2.651-2.652
				c-1.723,1.455-3.333,3.075-5.333,4.15c0.918,0.706,1.836,1.412,2.754,2.117c0.662-2.343,2.141-4.26,3.961-5.838
				c1.848-1.602-0.807-4.151-2.651-2.652c-1.422,1.156-2.713,2.34-4.567,2.692c0.769,0.769,1.538,1.537,2.307,2.306
				c0.507-1.387,1.386-2.521,2.628-3.32c-0.94-0.54-1.881-1.08-2.821-1.619c-0.003,0.809-0.04,1.571-0.25,2.356
				c-0.489,1.826,1.789,3.134,3.134,1.824c1.076-1.048,2.229-1.979,3.428-2.88c-0.757-0.982-1.515-1.963-2.272-2.945
				c-1.134,1.133-2.272,2.264-3.42,3.383c-0.565,0.551-1.135,1.097-1.711,1.637c-0.235,0.221-0.474,0.438-0.714,0.653
				c-0.061,0.055-0.777,0.622-0.439,0.381C39.463,85.088,41.332,88.343,43.304,86.933L43.304,86.933z"/>
		</g>
	</g>
	<g>
		<g>
			<path d="M48.71,79.249c-3.466,2.522-6.537,5.253-8.289,9.243c-0.778,1.772,0.789,3.352,2.565,2.565
				c4.291-1.899,7.649-5.359,10.192-9.243c1.171-1.789-1.503-3.828-2.945-2.272c-3.286,3.545-6.659,6.703-8.416,11.302
				c-0.581,1.521,1.448,3.013,2.754,2.117c4.564-3.129,8.968-6.734,11.463-11.78c0.913-1.847-1.4-3.873-2.945-2.272
				c-3.824,3.961-7.095,8.358-10.473,12.693c-1.471,1.888,0.77,4.241,2.651,2.652c4.533-3.828,9.044-7.671,11.718-13.073
				c0.878-1.774-0.852-3.32-2.565-2.565c-6.16,2.713-10.973,10.273-13.239,16.354c-0.566,1.518,1.441,3.021,2.754,2.117
				c6.4-4.407,12.037-9.773,16.881-15.843c1.514-1.896-0.756-4.176-2.651-2.652c-5.443,4.375-10.806,9.491-13.492,16.061
				c-0.529,1.295,1.046,2.767,2.307,2.306c6.719-2.453,11.171-8.699,15.425-14.128c1.459-1.862-0.827-4.332-2.651-2.652
				c-3.751,3.455-7.229,7.063-9.815,11.487c-0.93,1.591,0.949,3.584,2.565,2.565c5.587-3.519,9.93-8.479,14.978-12.67
				c1.872-1.554-0.795-4.147-2.651-2.652c-2.877,2.318-5.458,4.877-7.934,7.616c-1.365,1.51,0.448,4.222,2.272,2.945
				c4.233-2.962,8.371-6.054,12.694-8.886c-0.631-1.08-1.262-2.159-1.893-3.238c-4.295,3.279-8.355,6.771-11.146,11.462
				c-1.052,1.77,0.955,3.255,2.565,2.565c4.273-1.829,7.083-5.578,10.534-8.543c-0.884-0.884-1.768-1.769-2.651-2.652
				c-2.576,2.498-5.23,4.806-6.958,7.997c-0.95,1.754,0.898,3.322,2.565,2.565c5.262-2.391,9.348-6.416,13.391-10.45
				c1.73-1.726-0.845-4.224-2.651-2.651c-3.124,2.72-6.242,5.247-8.227,8.948c-0.873,1.628,0.899,3.545,2.565,2.565
				c4.202-2.469,7.678-5.897,11.741-8.568c-0.757-0.982-1.515-1.963-2.272-2.945c-3.426,2.838-6.639,5.805-9.521,9.203
				c-1.199,1.414-0.082,3.584,1.824,3.134c6.673-1.576,11.885-6.723,17.268-10.661c1.911-1.399,0.151-4.599-1.893-3.238
				c-3.35,2.229-6.461,4.432-8.924,7.653c-1.025,1.342,0.661,3.208,2.118,2.754c4.059-1.263,7.457-3.712,11.237-5.581
				c-0.631-1.08-1.262-2.159-1.893-3.238c-2.916,1.859-5.491,3.735-7.338,6.702c-0.839,1.348,0.551,3.299,2.117,2.754
				c1.713-0.595,3.328-1.282,4.957-2.086c0.716-0.353,5.947-4.182,5.71-4.222c-0.276-1.044-0.552-2.089-0.828-3.134
				c-2.101,2.466-5.165,3.697-7.195,6.371c-1.252,1.649,1.066,3.284,2.565,2.565c2.879-1.381,5.553-3.062,8.251-4.762
				c2.043-1.287,0.231-4.411-1.893-3.238c-2.729,1.507-4.956,3.38-7.043,5.688c-1.173,1.298-0.059,3.794,1.824,3.134
				c3.673-1.287,6.865-3.249,9.967-5.583c-0.94-0.54-1.881-1.08-2.821-1.619c0,0.317,0,0.634,0,0.951
				c0,1.286,1.65,2.518,2.821,1.619c1.68-1.288,3.4-2.519,5.08-3.807c1.856-1.423,0.224-4.548-1.893-3.238
				c-3.62,2.241-6.837,4.732-9.242,8.29c-1.053,1.558,1.017,3.568,2.565,2.565c2.704-1.752,5.169-3.636,7.361-6.006
				c-0.884-0.884-1.769-1.768-2.652-2.651c-2.049,2.23-3.318,4.342-3.722,7.355c-0.213,1.592,1.708,2.089,2.821,1.619
				c3.283-1.387,5.854-3.833,8.63-6.006c-0.884-0.884-1.769-1.768-2.652-2.651c-1.972,1.99-3.751,3.917-5.054,6.409
				c-0.965,1.846,1.421,3.856,2.945,2.272c2.188-2.276,4.215-4.657,6.665-6.665c-0.982-0.757-1.964-1.515-2.945-2.272
				c-1.359,2.457-2.967,4.734-4.125,7.299c-0.672,1.487,0.893,3.841,2.565,2.565c1.854-1.413,3.348-2.919,4.822-4.736
				c1.49-1.838-0.915-4.408-2.652-2.652c-1.865,1.886-3.504,3.733-4.735,6.092c-0.9,1.727,0.877,3.382,2.565,2.565
				c2.79-1.349,4.495-3.452,6.066-6.068c-1.079-0.631-2.159-1.262-3.238-1.893c-1.145,2.704-2.467,5.166-3.044,8.064
				c-0.305,1.526,1.264,3.05,2.754,2.117c3.12-1.953,4.902-4.595,5.94-8.102c0.348-1.173-0.606-2.373-1.808-2.373
				c-0.212,0-0.424,0-0.636,0c-0.635,0-1.319,0.351-1.619,0.929c-1.687,3.246-1.396,6.57,1.562,8.937
				c1.293,1.033,3.077,0.397,3.201-1.326c0.205-2.838-0.966-5.097-1.654-7.798c-1.142,0.481-2.284,0.963-3.427,1.444
				c1.265,2.164,1.009,4.812,1.716,7.168c0.541,1.805,3.061,1.772,3.615,0c1.08-3.449,0.236-6.811,0.067-10.335
				c-1.165,0.315-2.329,0.631-3.494,0.946c1.993,2.805,2.142,6.095,2.669,9.389c0.382,2.394,3.966,1.359,3.615-0.996
				c-0.4-2.702-1.041-5.333-1.203-8.07c-1.165,0.315-2.329,0.631-3.494,0.946c2.63,4.845,3.145,10.132,2.919,15.557
				c1.228-0.166,2.455-0.332,3.683-0.498c-0.75-2.446-0.959-4.905-1.203-7.437c-0.228-2.36-3.78-2.459-3.75,0
				c0.081,6.677,0.867,13.316,0.952,19.993c1.165-0.315,2.329-0.631,3.494-0.946c-1.873-3.343-1.388-7.122-1.33-10.795
				c-1.25,0-2.5,0-3.75,0c0.078,6.021,0.785,12.028-0.886,17.908c1.142-0.149,2.284-0.299,3.427-0.448
				c-1.636-3.744-0.72-8.321-0.129-12.2c0.294-1.93-2.424-3.519-3.427-1.444c-2.806,5.803-4.87,11.888-7.17,17.899
				c1.228,0.166,2.455,0.332,3.683,0.498c-1.06-8.414,1.116-16.689,1.588-25.068c-1.25,0-2.5,0-3.75,0
				c0.164,9.18-1.779,18.129-4.693,26.793c1.205,0,2.41,0,3.615,0c-2.258-9.306,1.139-18.73,1.654-28.063
				c0.103-1.857-2.636-2.57-3.494-0.946c-0.655,1.241-0.985,1.993-1.459,3.305c-0.824,2.279,2.8,3.253,3.615,0.996
				c0.361-0.803,0.722-1.605,1.082-2.408c-1.165-0.315-2.329-0.631-3.494-0.946c-0.538,9.744-3.883,19.32-1.52,29.06
				c0.46,1.897,3.051,1.679,3.615,0c3.017-8.966,4.998-18.294,4.828-27.789c-0.044-2.432-3.615-2.4-3.75,0
				c-0.472,8.379-2.647,16.654-1.588,25.068c0.265,2.105,2.899,2.548,3.683,0.498c2.184-5.707,4.129-11.493,6.793-17.003
				c-1.143-0.481-2.285-0.963-3.427-1.444c-0.773,5.077-1.611,10.241,0.506,15.089c0.683,1.562,3.022,0.978,3.427-0.448
				c1.766-6.209,1.104-12.537,1.021-18.904c-0.031-2.418-3.712-2.417-3.75,0c-0.069,4.448-0.397,8.69,1.842,12.688
				c0.912,1.628,3.518,0.909,3.494-0.946c-0.085-6.677-0.871-13.316-0.952-19.993c-1.25,0-2.5,0-3.75,0
				c0.278,2.881,0.485,5.657,1.338,8.433c0.629,2.051,3.595,1.62,3.683-0.498c0.253-6.101-0.488-12.026-3.431-17.449
				c-0.87-1.603-3.605-0.926-3.494,0.946c0.182,3.069,0.887,6.031,1.338,9.066c1.205-0.332,2.41-0.664,3.615-0.996
				c-0.586-3.668-0.843-7.184-3.046-10.285c-0.999-1.406-3.591-1.069-3.494,0.946c0.15,3.14,1.033,6.254,0.067,9.339
				c1.205,0,2.41,0,3.615,0c-0.829-2.766-0.603-5.514-2.093-8.064c-1.085-1.857-3.95-0.611-3.427,1.444
				c0.596,2.342,1.7,4.295,1.52,6.802c1.067-0.442,2.134-0.884,3.201-1.326c-2.958-2.397-3.61-3.552-1.959-3.463
				c-0.603-0.791-1.205-1.582-1.808-2.373c-0.77,2.598-1.891,4.402-4.218,5.859c0.918,0.706,1.836,1.412,2.754,2.117
				c0.51-2.556,1.659-4.787,2.667-7.168c0.915-2.162-1.956-4.027-3.238-1.893c-1.247,2.076-2.508,3.653-4.721,4.723
				c0.855,0.855,1.71,1.71,2.565,2.565c1.078-2.066,2.524-3.69,4.149-5.333c-0.884-0.884-1.769-1.769-2.652-2.652
				c-1.263,1.557-2.439,2.913-4.062,4.15c0.855,0.855,1.71,1.71,2.565,2.565c1.157-2.564,2.766-4.843,4.125-7.299
				c1.083-1.958-1.345-3.583-2.945-2.272c-2.45,2.007-4.476,4.387-6.665,6.664c0.982,0.758,1.964,1.515,2.945,2.272
				c1.15-2.2,2.736-3.903,4.468-5.65c1.75-1.766-0.801-4.101-2.652-2.651c-2.541,1.989-4.868,4.152-7.87,5.419
				c0.94,0.54,1.881,1.079,2.821,1.619c0.351-1.877,1.225-3.445,2.624-4.704c1.632-1.776-1.007-4.432-2.652-2.651
				c-1.968,2.129-4.172,3.845-6.602,5.419c0.855,0.855,1.71,1.71,2.565,2.565c2.038-3.015,4.838-5.051,7.896-6.944
				c-0.631-1.08-1.262-2.159-1.893-3.238c-1.68,1.288-3.401,2.519-5.08,3.807c0.94,0.54,1.881,1.08,2.821,1.619
				c0-0.317,0-0.634,0-0.951c0-1.296-1.645-2.504-2.821-1.619c-2.829,2.129-5.707,4.026-9.07,5.206
				c0.607,1.044,1.216,2.089,1.824,3.134c1.864-2.062,3.845-3.755,6.283-5.102c-0.631-1.08-1.262-2.159-1.893-3.238
				c-2.698,1.7-5.372,3.382-8.251,4.762c0.855,0.855,1.71,1.71,2.565,2.565c1.822-2.4,4.717-3.391,6.609-5.612
				c0.817-0.96,0.684-2.88-0.828-3.134c-1.383-0.232-1.815,0.245-3.006,1.099c-3.007,2.158-6.148,3.99-9.653,5.209
				c0.705,0.918,1.411,1.836,2.117,2.754c1.502-2.413,3.655-3.867,5.992-5.356c2.053-1.308,0.267-4.306-1.893-3.238
				c-3.473,1.717-6.614,4.044-10.341,5.204c0.706,0.918,1.412,1.836,2.118,2.754c2.045-2.675,4.812-4.467,7.578-6.308
				c-0.631-1.08-1.262-2.159-1.893-3.238c-5.078,3.716-10.083,8.798-16.373,10.284c0.608,1.044,1.216,2.089,1.824,3.134
				c2.881-3.398,6.094-6.365,9.521-9.204c1.646-1.364-0.506-4.105-2.272-2.945c-4.06,2.668-7.546,6.104-11.741,8.568
				c0.855,0.855,1.71,1.71,2.565,2.565c1.831-3.413,4.772-5.691,7.64-8.189c-0.884-0.884-1.768-1.768-2.651-2.651
				c-3.827,3.817-7.649,7.599-12.632,9.863c0.855,0.855,1.71,1.71,2.565,2.565c1.569-2.899,4.037-4.975,6.371-7.237
				c1.757-1.703-0.839-4.209-2.651-2.652c-3.203,2.752-5.812,6.26-9.775,7.957c0.855,0.855,1.71,1.71,2.565,2.565
				c2.452-4.122,6.024-7.234,9.8-10.116c1.864-1.423,0.18-4.596-1.893-3.238c-4.323,2.832-8.461,5.924-12.694,8.886
				c0.757,0.981,1.515,1.963,2.272,2.945c2.477-2.739,5.056-5.299,7.934-7.616c-0.884-0.884-1.768-1.768-2.651-2.652
				c-4.798,3.983-8.91,8.74-14.219,12.083c0.855,0.855,1.71,1.71,2.565,2.565c2.426-4.152,5.715-7.492,9.228-10.728
				c-0.884-0.884-1.768-1.769-2.651-2.652c-3.732,4.761-7.859,11.005-13.771,13.165c0.769,0.769,1.538,1.537,2.307,2.306
				c2.403-5.878,7.68-10.509,12.527-14.405c-0.884-0.884-1.768-1.768-2.651-2.652c-4.638,5.81-9.99,11.034-16.123,15.256
				c0.918,0.706,1.836,1.412,2.754,2.117c1.961-5.262,6.226-11.782,11.515-14.111c-0.855-0.855-1.71-1.71-2.565-2.565
				c-2.535,5.122-6.844,8.693-11.131,12.313c0.884,0.884,1.768,1.769,2.651,2.652c3.378-4.336,6.65-8.733,10.473-12.693
				c-0.981-0.758-1.963-1.515-2.945-2.272c-2.215,4.48-6.062,7.655-10.117,10.435c0.918,0.706,1.836,1.412,2.754,2.117
				c1.493-3.907,4.676-6.652,7.451-9.646c-0.981-0.758-1.963-1.515-2.945-2.272c-2.213,3.38-5.124,6.25-8.847,7.897
				c0.855,0.855,1.71,1.71,2.565,2.565c1.494-3.404,3.979-5.74,6.943-7.897C52.537,81.079,50.669,77.824,48.71,79.249L48.71,79.249z
				"/>
		</g>
	</g>
	<g>
		<g>
			<path d="M56.961,86.232c-5.954,2.827-7.579,10.232-9.113,16.038c-0.473,1.788,1.809,3.194,3.134,1.824
				c3.896-4.031,5.171-9.781,9.202-13.646c-1.044-0.608-2.089-1.217-3.134-1.824c-1.529,4.906-4.474,9.17-5.395,14.279
				c-0.343,1.904,1.652,3.036,3.134,1.824c4.556-3.728,7.932-8.866,9.686-14.475c0.725-2.318-2.87-3.281-3.616-0.996
				c-1.589,4.863-5.07,8.767-6.664,13.646c-0.541,1.656,1.377,2.828,2.754,2.117c7.253-3.744,10.411-11.902,15.612-17.747
				c-0.981-0.758-1.963-1.515-2.945-2.272c-2.106,4.566-4.979,8.709-6.98,13.329c-0.936,2.16,2.091,4.08,3.238,1.893
				c2.449-4.673,6.421-8.084,9.861-11.997c-0.981-0.758-1.963-1.515-2.945-2.272c-2.93,4.188-5.964,8.289-8.568,12.693
				c-1.059,1.792,1.579,3.959,2.945,2.272c2.283-2.818,7.801-9.851,2.794-12.783c-4.485-2.627-10.707,5.389-13.952,7.301
				c0.918,0.706,1.836,1.412,2.754,2.117c0.657-1.965,0.932-3.825,1.019-5.894c0.048-1.143-1.249-2.234-2.374-1.808
				c-3.56,1.348-6.093,3.533-8.443,6.511c0.981,0.127,1.963,0.253,2.945,0.38c-1.218-2.108-2.084-4.348-3.491-6.347
				c-0.858-1.219-2.373-1.178-3.238,0c-1.873,2.55-2.668,5.32-3.363,8.382c1.228,0.166,2.456,0.332,3.683,0.498
				c0.05-2.414,0.072-4.555-0.702-6.846c-0.656-1.942-3.742-1.701-3.683,0.498c0.094,3.5,0.541,6.973,0.635,10.473
				c0.065,2.412,3.75,2.423,3.75,0c0-1.481,0-2.962,0-4.443c0-2.449-3.557-2.377-3.75,0c-0.353,4.345-0.915,8.667-1.269,13.012
				c1.25,0,2.5,0,3.75,0c0.081-4.028,0.553-8.031,0.634-12.06c-1.25,0-2.5,0-3.75,0c0.051,4.572,0.499,8.84,2.479,13.006
				c0.566,1.192,2.695,1.262,3.238,0c1.835-4.264,1.322-8.461,1.207-13.006c-0.061-2.413-3.787-2.422-3.75,0
				c0.116,7.546,1.48,14.718,4.699,21.574c0.884,1.882,3.307,0.69,3.494-0.946c0.904-7.926,1.229-16.091,4.504-23.489
				c-1.165-0.315-2.33-0.631-3.494-0.946c1.044,8.713-0.801,17.313-0.952,26.021c-0.037,2.14,3.113,2.523,3.683,0.498
				c2.68-9.519,6.06-18.839,10.918-27.478c-1.165-0.315-2.33-0.631-3.494-0.946c-0.246,5.849-2.382,11.316-3.742,16.957
				c-0.566,2.348,2.977,3.332,3.616,0.996c3.073-11.216,10.883-20.298,20.083-27.123c-0.758-0.981-1.515-1.963-2.272-2.945
				c-4.68,4.286-9.473,8.49-11.272,14.791c-0.493,1.725,1.333,2.745,2.754,2.117c2.848-1.259,5.208-3.192,7.721-4.999
				c3.169-2.277,7.241-2.786,10.871-4.016c2.107-0.713,1.56-3.432-0.498-3.683c-5.579-0.68-10.569,1.888-15.543,4.063
				c0.631,1.079,1.262,2.159,1.893,3.238c3.24-1.959,14.835-10.056,6.097-13.504c-3.751-1.48-8.15-0.888-12.068-0.589
				c-6.556,0.5-13.158,0.443-19.729,0.444c0.315,1.165,0.631,2.329,0.946,3.494c3.842-2.697,8.635-3.05,13.185-3.398
				c5.142-0.394,10.279-0.916,15.422-1.268c5.321-0.364,10.823,0.647,16.08,1.351c2.979,0.398,5.947,0.653,8.951,0.715
				c2.729,0.056,5.428-0.827,8.25-0.635c-0.603-0.459-1.205-0.917-1.808-1.376c2.675,6.622,0.426,13.865,1.203,20.763
				c1.165-0.315,2.329-0.631,3.494-0.946c-0.043-1.423-0.086-2.845-0.13-4.268c-1.205,0-2.41,0-3.615,0
				c1.789,7.781,1.859,14.756,0.086,22.544c-1.291,5.67-1.694,13.034-7.979,15.454c0.769,0.437,1.537,0.873,2.306,1.31
				c-1.349-4.434,1.853-9.073,3.431-13.088c1.771-4.506,2.782-9.514,2.982-14.342c0.075-1.826-2.656-2.614-3.494-0.946
				c-2.957,5.891-3.385,12.122-4.313,18.538c1.142-0.149,2.284-0.299,3.427-0.448c-4.721-6.658-0.924-17.289-2.032-24.94
				c-0.201-1.394-2.264-1.801-3.134-0.828c-5.152,5.763-6.703,14.477-7.214,21.954c-0.135,1.975,2.543,2.404,3.494,0.946
				c4.582-7.023,7.117-15.259,12.401-21.834c-1.067-0.442-2.134-0.884-3.201-1.326c0.502,8.846-7.212,15.802-6.347,24.752
				c0.146,1.514,1.99,2.629,3.201,1.326c6.134-6.605,12.318-21.083,8.228-29.882c-0.482-1.036-2.218-1.268-2.945-0.38
				c-4.716,5.759-6.632,12.994-10.767,19.104c1.165,0.315,2.329,0.631,3.494,0.946c0.669-8.616,5.715-16.121,7.231-24.572
				c0.307-1.703-1.766-3.334-3.134-1.824c-7.05,7.787-11.307,18.003-14.762,27.803c-0.707,2.004,2.485,3.343,3.427,1.444
				c4.369-8.815,10.312-16.927,11.362-26.968c0.141-1.344-1.729-2.438-2.821-1.619c-6.583,4.939-11.062,13.078-13.556,20.797
				c-0.562,1.738,1.909,3.261,3.134,1.824c5.468-6.418,7.784-13.995,10.639-21.774c0.716-1.949-1.833-2.878-3.134-1.824
				c-5.046,4.09-7.546,10.217-11.402,15.297c1.079,0.631,2.159,1.262,3.238,1.893c3.14-5.387,8.283-9.64,8.825-16.181
				c0.146-1.769-2.081-2.294-3.201-1.326c-4.326,3.739-8.45,7.609-12.059,12.059c0.982,0.758,1.964,1.515,2.945,2.272
				c3.197-4.249,7.612-7.295,10.154-12.059c0.929-1.741-0.889-3.35-2.565-2.565c-4.776,2.234-7.81,6.545-12.059,9.521
				c0.855,0.855,1.71,1.71,2.565,2.565c2.274-3.129,5.603-5.133,8.274-7.874c1.335-1.37-0.009-3.567-1.824-3.134
				c-2.601,0.62-4.591,1.97-6.659,3.617c-1.992,1.587-3.826,3.535-6.57,3.651c-1.521,0.064-3.119-0.397-4.678-0.353
				c0.442,1.067,0.884,2.134,1.326,3.201c4.811-4.71,12.776-1.913,18.088-6.03c0.988-0.767,0.55-2.377-0.38-2.945
				c-4.216-2.578-8.02-1.718-12.688-1.209c0.166,1.228,0.332,2.455,0.498,3.683c6.29-1.91,12.731-3.244,19.042-5.076
				c1.857-0.538,1.716-3.018,0-3.615c-8.383-2.923-17.37,1.456-25.339,3.847C71.31,88.097,65.454,88.882,62,97.061
				c-0.537,1.272,0.382,3.486,2.118,2.754c3.563-1.502,6.368-4.654,8.444-7.839c1.408-2.159,1.907-6.414-1.814-6.427
				c-4.603-0.016-7.488,3.103-9.62,6.869c-1.639,2.896-2.107,7.27,1.993,8.029c-0.459-0.603-0.917-1.205-1.376-1.808
				c0.528,5.375-3.625,15.686,1.881,19.393c0.81,0.545,2.127,0.199,2.565-0.673c2.325-4.627-0.118-9.391,1.458-14.093
				c-1.206,0-2.411,0-3.616,0c0.917,2.184,1.601,4.391,2.728,6.478c0.931,1.723,3.404,0.832,3.494-0.946
				c0.154-3.043-0.067-6.011,0.568-9.023c0.505-2.397-2.759-3.231-3.616-0.996c-1.156,3.014-2.783,8.169-1.081,11.282
				c2.354,4.302,7.196,4.341,7.569,9.957c0.457,6.896,0.03,15.62,9.465,14.958c6.94-0.487,5.639-9.567,5.483-14.235
				c-0.164-4.938,4.702-5.119,6.188-9.048c1.346-3.559,0.18-8.414-0.843-11.963c-0.577-2.005-3.755-1.655-3.683,0.498
				c0.18,5.364-3.934,14.671,0.716,19.085c3.648,3.464,8.454-1.828,10.393-4.492c1.317-1.811-1.437-3.607-2.945-2.272
				c-3.728,3.301-6.385,7.344-8.543,11.804c-1.048,2.167,2.186,4.069,3.238,1.893c2.021-4.178,4.46-7.948,7.957-11.044
				c-0.982-0.758-1.964-1.515-2.945-2.272c-0.317,0.436-4.133,5.782-5.326,2.428c-0.652-1.836,0.104-4.142,0.453-5.965
				c0.583-3.052,0.857-6.056,0.753-9.163c-1.228,0.166-2.455,0.332-3.683,0.498c0.805,2.795,1.233,5.746,1.26,8.653
				c0.021,2.357-5.575,4.768-6.339,7.487c-1.208,4.3,1.146,9.392-0.895,13.448c-0.875,1.739-4.201,0.98-5.32,0.074
				c-1.258-1.018-1.327-3.465-1.448-4.893c-0.251-2.985-0.084-5.955-0.587-8.923c-0.441-2.6-2.192-4.351-4.415-5.561
				c-4.61-2.51-3.398-7.091-1.808-11.238c-1.206-0.332-2.411-0.664-3.616-0.996c-0.705,3.342-0.53,6.624-0.702,10.02
				c1.165-0.315,2.329-0.631,3.494-0.946c-0.975-1.804-1.562-3.705-2.35-5.581c-0.703-1.675-2.985-1.884-3.616,0
				c-1.439,4.292,0.95,9.155-1.081,13.196c0.855-0.225,1.71-0.448,2.565-0.673c-2.771-1.865,0.278-13.089-0.023-16.154
				c-0.077-0.784-0.509-1.647-1.376-1.808c-3.184-0.591,5.908-8.389,5.884-8.215c-0.365,2.673-4.51,6.582-6.881,7.582
				c0.706,0.918,1.412,1.836,2.118,2.754c2.991-7.085,8.087-7.717,14.84-9.572c7.38-2.027,15.61-6.545,23.346-3.848
				c0-1.205,0-2.41,0-3.615c-6.312,1.831-12.753,3.165-19.042,5.076c-1.946,0.591-1.677,3.92,0.498,3.683
				c3.795-0.413,7.294-1.444,10.796,0.697c-0.127-0.981-0.253-1.963-0.38-2.945c-2.72,2.108-6.704,1.747-9.921,2.292
				c-3.168,0.536-5.845,1.466-8.167,3.738c-1.149,1.125-0.315,3.248,1.326,3.201c2.623-0.075,5.416,0.922,7.928-0.256
				c3.943-1.85,6.662-5.765,10.976-6.795c-0.607-1.044-1.216-2.089-1.824-3.134c-2.919,2.996-6.374,5.215-8.86,8.634
				c-1.098,1.509,1.06,3.62,2.565,2.565c4.216-2.953,7.346-7.316,12.059-9.521c-0.855-0.855-1.71-1.71-2.565-2.565
				c-2.512,4.707-6.979,7.838-10.154,12.059c-1.278,1.698,1.609,3.92,2.945,2.272c3.607-4.449,7.731-8.32,12.059-12.059
				c-1.067-0.442-2.134-0.884-3.201-1.326c-0.457,5.519-5.654,9.727-8.313,14.288c-1.253,2.149,1.819,3.763,3.238,1.893
				c3.66-4.822,6.03-10.659,10.816-14.537c-1.045-0.608-2.09-1.217-3.134-1.824c-2.606,7.101-4.675,14.25-9.676,20.118
				c1.045,0.608,2.09,1.217,3.134,1.824c2.153-6.661,6.126-14.272,11.833-18.555c-0.94-0.54-1.881-1.079-2.821-1.619
				c-0.968,9.249-6.829,16.962-10.851,25.075c1.143,0.481,2.285,0.963,3.427,1.444c3.226-9.146,7.208-18.868,13.799-26.146
				c-1.045-0.608-2.09-1.217-3.134-1.824c-1.582,8.812-6.666,16.558-7.366,25.568c-0.155,2,2.534,2.364,3.494,0.946
				c3.941-5.824,5.694-12.869,10.181-18.345c-0.982-0.127-1.964-0.253-2.945-0.38c1.841,3.958,0.066,9.195-1.182,13.074
				c-1.364,4.24-3.385,8.953-6.46,12.263c1.067,0.442,2.134,0.884,3.201,1.326c-0.851-8.799,6.853-15.839,6.347-24.752
				c-0.083-1.461-2.091-2.707-3.201-1.326c-5.509,6.856-8.215,15.279-12.987,22.594c1.165,0.315,2.329,0.631,3.494,0.946
				c0.435-6.359,1.718-14.384,6.116-19.302c-1.045-0.276-2.09-0.552-3.134-0.828c1.194,8.251-2.804,18.484,2.409,25.837
				c0.814,1.149,3.169,1.334,3.427-0.448c0.874-6.034,1.153-12.098,3.937-17.642c-1.165-0.315-2.329-0.631-3.494-0.946
				c-0.262,6.332-2.344,12.262-4.833,18.019c-1.46,3.377-2.547,6.787-1.445,10.407c0.274,0.903,1.333,1.685,2.306,1.31
				c6.921-2.665,8.737-8.963,10.106-15.692c1.909-9.379,2.574-17.484,0.405-26.917c-0.445-1.938-3.027-1.633-3.615,0
				c-0.956,2.653-0.867,4.686,0.507,7.156c0.856,1.54,3.709,0.96,3.494-0.946c-0.817-7.25,1.481-14.784-1.338-21.76
				c-0.335-0.83-0.89-1.314-1.808-1.376c-5.805-0.396-11.339,0.656-17.201-0.08c-6.589-0.828-13.002-1.683-19.65-1.062
				c-8.468,0.792-19.653-0.22-26.93,4.888c-1.466,1.029-1.029,3.494,0.946,3.494c7.275-0.001,14.538-0.073,21.796-0.598
				c2.731-0.197,5.56-0.37,8.236,0.306c3.434,0.867-5.3,6.395-6.225,6.953c-2.12,1.282-0.271,4.185,1.893,3.238
				c4.399-1.925,8.723-4.151,13.65-3.552c-0.166-1.228-0.332-2.455-0.498-3.683c-3.473,1.175-7.199,1.712-10.415,3.508
				c-3.182,1.775-5.703,4.395-9.073,5.884c0.918,0.706,1.836,1.412,2.754,2.117c1.602-5.612,6.161-9.338,10.308-13.135
				c1.551-1.421-0.549-4.224-2.272-2.945c-9.999,7.418-18.463,17.159-21.807,29.365c1.206,0.332,2.411,0.664,3.616,0.996
				c1.443-5.987,3.615-11.747,3.875-17.953c0.079-1.879-2.597-2.542-3.494-0.946c-5.012,8.911-8.532,18.553-11.296,28.374
				c1.228,0.166,2.456,0.332,3.683,0.498c0.151-8.708,1.997-17.309,0.952-26.021c-0.192-1.604-2.645-2.864-3.494-0.946
				c-3.568,8.061-4.029,16.738-5.016,25.382c1.165-0.315,2.329-0.631,3.494-0.946c-2.931-6.241-4.083-12.816-4.188-19.682
				c-1.25,0-2.5,0-3.75,0c0.093,3.69,0.822,7.589-0.695,11.113c1.08,0,2.159,0,3.238,0c-1.679-3.534-1.924-7.265-1.967-11.113
				c-0.027-2.42-3.702-2.416-3.75,0c-0.081,4.028-0.553,8.031-0.634,12.06c-0.049,2.446,3.557,2.376,3.75,0
				c0.354-4.345,0.916-8.667,1.269-13.012c-1.25,0-2.5,0-3.75,0c0,1.481,0,2.962,0,4.443c1.25,0,2.5,0,3.75,0
				c-0.094-3.5-0.541-6.973-0.635-10.473c-1.228,0.166-2.456,0.332-3.683,0.498c0.698,2.065,0.612,3.744,0.568,5.85
				c-0.044,2.102,3.212,2.577,3.683,0.498c0.622-2.742,1.29-5.177,2.985-7.485c-1.08,0-2.159,0-3.238,0
				c1.407,1.999,2.273,4.238,3.491,6.347c0.553,0.956,2.184,1.344,2.945,0.38c1.888-2.393,3.859-4.438,6.789-5.548
				c-0.791-0.603-1.583-1.205-2.374-1.808c-0.072,1.707-0.343,3.275-0.885,4.897c-0.532,1.593,1.39,2.921,2.754,2.117
				c2.645-1.559,4.84-3.838,7.312-5.646c1.238-0.905,3.665-2.348,2.381,0.58c-0.738,1.682-1.93,3.239-3.079,4.657
				c0.981,0.758,1.963,1.515,2.945,2.272c2.604-4.404,5.638-8.506,8.568-12.693c1.223-1.748-1.546-3.864-2.945-2.272
				c-3.657,4.161-7.846,7.792-10.448,12.757c1.08,0.631,2.159,1.262,3.238,1.893c2.001-4.619,4.874-8.763,6.98-13.329
				c0.836-1.812-1.432-3.973-2.945-2.272c-4.937,5.548-8.021,13.635-14.853,17.161c0.918,0.706,1.836,1.412,2.754,2.117
				c1.589-4.864,5.069-8.767,6.664-13.646c-1.206-0.332-2.411-0.664-3.616-0.996c-1.571,5.024-4.652,9.49-8.721,12.818
				c1.044,0.608,2.089,1.217,3.134,1.824c0.917-5.085,3.87-9.388,5.395-14.279c0.575-1.846-1.821-3.083-3.134-1.824
				c-4.073,3.906-5.314,9.624-9.202,13.646c1.044,0.608,2.089,1.217,3.134,1.824c1.277-4.836,2.417-11.436,7.389-13.796
				C61.037,88.434,59.133,85.201,56.961,86.232L56.961,86.232z"/>
		</g>
	</g>
	<g>
		<g>
			<path d="M99.129,125.939c-2.152,2.828-4.192,5.739-6.346,8.567c-1.32,1.734,1.477,3.729,2.945,2.272
				c3.515-3.486,7.095-6.883,10.154-10.788c1.232-1.573-0.312-4.136-2.272-2.945c-3.49,2.119-5.24,5.349-7.019,8.923
				c-1.083,2.177,1.867,3.88,3.238,1.893c1.595-2.312,5.562-9.574,0.4-10.921c-4.604-1.201-7.578,3.602-8.904,7.256
				c-0.609,1.677,1.413,2.779,2.754,2.117c5.363-2.65,8.581-9.811,8.543-15.582c-0.009-1.306-1.633-2.49-2.821-1.619
				c-4.904,3.596-6.092,9.689-6.891,15.4c-0.246,1.756,1.668,3.251,3.134,1.824c3.287-3.203,6.297-9.199,0.494-11.673
				c-4.66-1.985-9.121,1.37-9.089,6.222c0.014,2.078,3.22,2.605,3.683,0.498c0.64-2.908,0.953-5.771,1.02-8.75
				c0.054-2.42-3.688-2.413-3.75,0c-0.091,3.555-0.242,6.452,2.136,9.262c0.503,0.594,1.636,0.75,2.272,0.293
				c3.228-2.315,8.57-10.229,5.584-14.305c-4.147-5.66-9.427,0.813-9.359,5.702c0.016,1.175,1.192,2.19,2.373,1.808
				c2.717-0.88,3.781-2.853,5.589-4.924c-1.045-0.276-2.09-0.552-3.134-0.828c0.989,4.357,1.915,8.723,3.174,13.012
				c0.356,1.216,1.667,1.667,2.754,1.121c3.344-1.681,5.154-4.327,6.704-7.655c1.01-2.169-2.178-4.078-3.238-1.893
				c-2.7,5.564-5.891,10.067-10.498,14.218c-1.68,1.514,0.453,3.807,2.272,2.945c1.7-0.805,2.955-1.727,4.188-3.148
				c1.085-1.252,0.36-3.111-1.326-3.201c-4.874-0.26-8.551,2.248-12.371,5.016c0.758,0.981,1.515,1.963,2.272,2.945
				c2.537-2.035,4.031-4.382,4.923-7.492c-1.205-0.332-2.41-0.664-3.615-0.996c-0.494,1.929-1.2,3.083-2.349,4.628
				c1.079,0.631,2.159,1.262,3.238,1.893c1.26-1.712,2.558-3.021,4.148-4.379c-0.982-0.758-1.964-1.515-2.945-2.272
				c-1.328,2.364-1.967,4.591-2.16,7.293c-0.07,0.986,0.907,1.92,1.875,1.875c4.189-0.195,7.042-2.828,10.212-5.309
				c-0.884-0.884-1.769-1.769-2.652-2.652c-2.618,2.137-5.258,3.976-7.274,6.728c-0.983,1.343,0.637,3.232,2.117,2.754
				c3.499-1.129,5.738-3.263,7.786-6.258c-1.143-0.481-2.285-0.963-3.427-1.444c-0.269,1.218-0.477,2.334-0.952,3.491
				c-0.533,1.295,1.048,2.765,2.306,2.306c10.193-3.712,13.62-15.919,17.96-24.752c1.679-3.417,5.038-6.124,5.313-10.061
				c0.54-7.712-3.714-14.798-2.854-22.531c-1.25,0-2.5,0-3.75,0c0.64,7.336,0.882,14.728,1.755,22.04
				c0.354,2.976,1.212,6.294,0.324,9.263c-0.382,1.279-0.998,2.47-1.646,3.63c-0.075,0.135-2.239-2.482-2.627-2.937
				c-5.963-6.969-12.744-13.43-20.238-18.726c-6.414-4.531-14.764-8.526-22.687-5.869c-10.487,3.517-12.583,16.754-14.159,26.058
				c0.918-0.374,1.836-0.747,2.754-1.121c-3.282-2.354-6.659-3.311-10.603-3.997c-0.779-0.136-1.741,0.059-2.118,0.861
				c-1.453,3.093-1.747,6.025-1.141,9.378c1.143-0.481,2.285-0.963,3.427-1.444c-1.077-2.531-2.167-4.754-4.101-6.727
				c-1.45-1.479-3.365,0.104-3.134,1.824c0.424,3.155,2.754,5.444,3.174,8.567c1.045-0.607,2.089-1.216,3.134-1.824
				c-1.161-1.292-2.149-2.685-3.199-4.062c-1.425-1.871-4.447-0.282-3.238,1.893c2.646,4.763,4.488,9.94,8.925,13.367
				c1.467,1.133,3.667-1.097,2.565-2.565c-0.764-1.019-1.297-2.059-1.904-3.174c-0.982,0.758-1.963,1.515-2.945,2.272
				c11.349,12.3,26.444,9.616,41.449,12.224c2.351,0.409,3.383-3.141,0.996-3.615c-7.34-1.462-15.529,2.42-21.694-3.135
				c-4.778-4.306-5.764-11.978-7.779-17.769c-0.603,0.791-1.206,1.582-1.808,2.373c3.126-0.343,6.186,0.405,8.512,2.623
				c1.545,1.473,3.999-0.398,2.945-2.272c-0.915-1.627-1.772-3.237-2.856-4.76c-0.982,0.758-1.963,1.515-2.945,2.272
				c1.683,1.464,3.24,2.927,5.14,4.102c1.485,0.918,3.07-0.582,2.754-2.117c-0.179-0.96-0.391-1.913-0.635-2.857
				c-1.143,0.481-2.285,0.963-3.427,1.444c1.525,2.106,1.363,4.747,2.032,7.169c0.565,2.046,3.683,1.627,3.683-0.498
				c0-0.529,0-1.059,0-1.588c-1.228,0.166-2.456,0.332-3.683,0.498c1.424,4.459,2.446,9.131,4.95,13.144
				c0.952,1.526,3.562,0.983,3.494-0.946c-0.123-3.508-0.955-11.22-5.168-12.414c-6.115-1.734-5.94,6.39-5.881,10.193
				c1.25,0,2.5,0,3.75,0c-0.434-4.233-1.275-8.303-2.923-12.24c-0.748-1.786-3.832-1.805-3.683,0.498
				c0.312,4.831,2.318,8.862,4.698,13.005c0.855-0.855,1.71-1.71,2.565-2.565c-5.417-3.022-6.635-9.604-12.824-11.931
				c-1.473-0.554-2.521,1.046-2.307,2.306c0.837,4.902,4.757,7.697,7.488,11.556c0.855-0.855,1.71-1.71,2.565-2.565
				c-4.738-3.474-6.486-9.481-12.824-10.661c-1.151-0.215-2.417,0.507-2.374,1.808c0.18,5.423,4.097,9.343,8.227,12.41
				c0.631-1.079,1.262-2.159,1.893-3.238c-3.744-2.677-6.265-6.614-10.919-7.806c-2.087-0.535-3.244,2.296-1.445,3.427
				c3.45,2.168,6.117,4.957,8.824,7.958c1.649,1.828,4.128-0.808,2.651-2.652c-1.982-2.476-4.575-4.49-6.818-6.724
				c-0.516-0.513-3.562-3.713-1.094-2.931c1.461,0.464,2.848,1.529,4.11,2.37c3.244,2.16,6.711,5.118,9.866,0.945
				c4.281-5.662-11.51-16.762-10.216-3.125c1.228-0.166,2.456-0.332,3.683-0.498c-1.954-6.088-4.294-11.666-8.733-16.377
				c-0.811-0.86-2.381-0.668-2.945,0.38c-1.372,2.551-1.761,5.051-1.843,7.927c1.25,0,2.5,0,3.75,0
				c-0.012-6.458-0.084-12.653,4.528-17.715c-1.067-0.442-2.134-0.884-3.201-1.326c0.165,7.298-1.4,14.687,1.019,21.76
				c1.018,2.977,3.04,5.582,4.679,8.229c1.778,2.871,0.988,9.023-0.682,11.906c-0.765,1.321,0.241,2.688,1.619,2.821
				c10.62,1.026,23.517,8.055,32.743-0.549c0.968-0.903,0.567-2.892-0.828-3.134c-6.547-1.138-14.638-0.188-20.389-3.604
				c-2.241-1.332-4.55-2.487-7.001-3.378c-3.834-1.394-8.72-1.24-11.324-4.939c-1.861-2.643-0.162-9.749-3.81-10.926
				c-1.556-0.502-2.595-0.395-4.023,0.426c-2.37,1.36-0.173-6.85,0.701-8.146c0.81-1.203-0.267-2.821-1.619-2.821
				c-0.423,0-0.846,0-1.269,0c0.625,0.625,1.25,1.25,1.875,1.875c-0.309-2.573-0.493-5.025-0.317-7.615
				c0.144-2.112-3.245-2.56-3.683-0.498c-0.806,3.789-2.285,8.185-1.587,12.104c0.844,4.743,3.397,8.874,4.24,13.698
				c0.527,3.02,1.52,5.348,3.481,7.698c2.613,3.131,7.846,3.422,9.604,7.294c0.999,2.199,4.23,0.291,3.238-1.893
				c-1.124-2.475-3.297-3.804-5.607-5.081c-3.544-1.961-5.975-3.758-6.898-7.925c-0.743-3.351-1.241-6.486-2.68-9.638
				c-2.432-5.327-1.338-9.792-0.174-15.262c-1.228-0.166-2.456-0.332-3.683-0.498c-0.176,2.59,0.009,5.042,0.317,7.615
				c0.122,1.015,0.761,1.875,1.875,1.875c0.423,0,0.846,0,1.269,0c-0.54-0.94-1.079-1.881-1.619-2.821
				c-2.701,4.011-3.819,10.245,0.293,13.698c1.343,1.127,2.896,0.481,4.137-0.421c-0.182,0.132,1.886,7.234,2.125,7.923
				c2.33,6.694,11.412,6.37,16.649,8.975c2.847,1.416,5.445,3.246,8.531,4.111c5.09,1.426,11.113,0.881,16.353,1.79
				c-0.276-1.044-0.552-2.089-0.828-3.134c-7.83,7.303-20.989,0.331-30.091-0.549c0.54,0.94,1.079,1.881,1.619,2.821
				c1.829-3.158,1.074-6.562,2.538-9.838c0.965-2.16-1.592-5.426-2.646-7.129c-2.747-4.436-4.582-8.074-4.781-13.442
				c-0.166-4.457,0.486-8.915,0.385-13.379c-0.035-1.562-2.06-2.578-3.201-1.326c-5.35,5.871-5.64,12.779-5.626,20.367
				c0.004,2.423,3.682,2.412,3.75,0c0.062-2.188,0.272-4.064,1.331-6.034c-0.982,0.127-1.963,0.253-2.945,0.38
				c4.003,4.247,6.008,9.237,7.769,14.721c0.618,1.926,3.891,1.695,3.683-0.498c-0.19-2.004-0.498-3.848,1.599-1.927
				c0.441,0.403,2.604,4.496,0.658,3.433c-3.31-1.809-6.572-5.621-10.608-5.723c-2.93-0.073-5.447,2.977-3.798,5.799
				c2.463,4.216,6.894,6.778,9.9,10.534c0.884-0.884,1.768-1.769,2.651-2.652c-2.925-3.242-5.87-6.211-9.583-8.544
				c-0.481,1.143-0.963,2.285-1.445,3.427c4.091,1.048,6.692,5.047,10.024,7.429c1.983,1.418,3.8-1.821,1.893-3.238
				c-2.973-2.208-6.238-5.219-6.369-9.172c-0.791,0.603-1.583,1.205-2.374,1.808c5.488,1.022,7.701,7.185,11.928,10.284
				c1.503,1.102,3.627-1.064,2.565-2.565c-2.464-3.481-6.361-6.271-7.11-10.659c-0.769,0.769-1.538,1.537-2.307,2.306
				c5.432,2.043,6.889,8.742,11.928,11.554c1.638,0.913,3.513-0.916,2.565-2.565c-2.017-3.511-3.92-6.986-4.187-11.112
				c-1.228,0.166-2.456,0.332-3.683,0.498c1.516,3.622,2.39,7.34,2.79,11.244c0.241,2.354,3.789,2.464,3.75,0
				c-0.014-0.905-0.036-1.81-0.045-2.715c-0.019-1.799,0.992-4.909,2.299-1.676c0.828,2.047,1.218,4.416,1.295,6.611
				c1.165-0.315,2.329-0.631,3.494-0.946c-2.328-3.731-3.247-8.101-4.572-12.247c-0.636-1.992-3.683-1.667-3.683,0.498
				c0,0.529,0,1.059,0,1.588c1.228-0.166,2.456-0.332,3.683-0.498c-0.783-2.835-0.634-5.612-2.41-8.065
				c-1.217-1.681-3.95-0.718-3.427,1.444c0.245,0.945,0.456,1.898,0.635,2.857c0.918-0.705,1.836-1.411,2.754-2.117
				c-1.646-1.018-2.94-2.262-4.381-3.516c-1.515-1.318-4.25,0.44-2.945,2.272c1.084,1.522,1.941,3.133,2.856,4.76
				c0.982-0.758,1.963-1.515,2.945-2.272c-2.982-2.844-7.072-4.169-11.164-3.721c-1.125,0.123-2.245,1.117-1.808,2.373
				c2.366,6.801,3.675,13.991,8.743,19.424c6.481,6.947,15.372,2.511,23.35,4.099c0.332-1.205,0.664-2.41,0.996-3.615
				c-14.117-2.454-29.104,0.324-39.793-11.261c-1.484-1.608-3.941,0.444-2.945,2.272c0.607,1.115,1.14,2.155,1.904,3.174
				c0.855-0.855,1.71-1.71,2.565-2.565c-3.757-2.9-5.345-8.001-7.579-12.021c-1.08,0.631-2.159,1.262-3.238,1.893
				c1.242,1.632,2.415,3.295,3.786,4.822c1.404,1.563,3.357-0.162,3.134-1.824c-0.424-3.155-2.754-5.444-3.174-8.567
				c-1.045,0.607-2.089,1.216-3.134,1.824c1.732,1.766,2.568,3.742,3.514,5.967c0.887,2.086,3.777,0.493,3.427-1.444
				c-0.418-2.312-0.241-4.352,0.763-6.489c-0.706,0.287-1.412,0.574-2.118,0.861c3.584,0.624,6.711,1.471,9.708,3.62
				c0.928,0.666,2.562,0.016,2.754-1.121c1.77-10.447,4.866-26.477,18.927-23.873c9.575,1.772,17.944,9.774,24.623,16.34
				c2.861,2.812,5.858,5.747,8.265,8.969c1.619,2.169,4.735,4.76,6.947,1.719c3.16-4.346,3.305-8.897,2.611-14.073
				c-1.045-7.798-1.278-15.7-1.962-23.536c-0.213-2.436-3.484-2.39-3.75,0c-0.68,6.11,1.578,11.5,2.507,17.445
				c0.431,2.762,0.958,5.477-1.033,7.658c-1.207,1.321-2.084,3.068-2.927,4.631c-4.19,7.77-6.981,20.632-16.212,23.994
				c0.769,0.769,1.537,1.537,2.306,2.306c0.477-1.156,0.685-2.272,0.952-3.491c0.468-2.121-2.226-3.201-3.427-1.444
				c-1.497,2.189-2.97,3.704-5.544,4.535c0.705,0.918,1.411,1.836,2.117,2.754c1.791-2.444,4.37-4.077,6.688-5.968
				c1.889-1.541-0.783-4.114-2.652-2.652c-2.249,1.761-4.486,4.067-7.56,4.211c0.625,0.625,1.25,1.25,1.875,1.875
				c0.009-1.964,0.558-3.765,1.648-5.4c1.084-1.931-1.36-3.626-2.945-2.272c-1.823,1.559-3.318,3.215-4.734,5.139
				c-1.438,1.954,1.815,3.807,3.238,1.893c1.303-1.754,2.188-3.418,2.726-5.524c0.601-2.345-2.949-3.319-3.615-0.996
				c-0.734,2.559-1.929,4.208-3.96,5.836c-1.656,1.329,0.553,4.191,2.272,2.945c3.193-2.313,6.307-4.727,10.479-4.504
				c-0.442-1.067-0.884-2.134-1.326-3.201c-0.999,1.153-2.052,1.911-3.429,2.562c0.758,0.981,1.515,1.963,2.272,2.945
				c4.854-4.375,8.234-9.106,11.084-14.978c-1.079-0.631-2.159-1.262-3.238-1.893c-1.266,2.719-2.588,4.917-5.358,6.31
				c0.918,0.374,1.836,0.747,2.754,1.121c-1.258-4.29-2.184-8.655-3.174-13.012c-0.301-1.326-2.218-1.877-3.134-0.828
				c-1.103,1.265-2.314,3.437-3.933,3.961c0.791,0.603,1.582,1.205,2.373,1.808c-0.042-3.067,3.192-4.658,2.023-0.668
				c-0.596,2.03-2.139,4.775-3.891,6.032c0.758,0.098,1.515,0.195,2.272,0.293c-1.588-1.875-1.096-4.34-1.038-6.609
				c-1.25,0-2.5,0-3.75,0c-0.059,2.635-0.317,5.173-0.885,7.754c1.228,0.166,2.455,0.332,3.683,0.498
				c-0.014-2.073,1.169-3.309,3.3-2.964c3.723,0.602,0.126,4.562-1.107,5.763c1.045,0.608,2.09,1.217,3.134,1.824
				c0.622-4.438,1.277-10.306,5.168-13.158c-0.94-0.54-1.881-1.079-2.821-1.619c0.03,4.525-2.484,10.269-6.686,12.344
				c0.918,0.706,1.836,1.412,2.754,2.117c0.667-1.835,1.603-3.88,3.558-4.65c1.169-0.462-1.719,5.154-1.907,5.427
				c1.079,0.631,2.159,1.262,3.238,1.893c1.454-2.921,2.769-5.814,5.673-7.577c-0.758-0.981-1.515-1.963-2.272-2.945
				c-3.06,3.906-6.639,7.302-10.154,10.788c0.982,0.758,1.964,1.515,2.945,2.272c2.153-2.828,4.192-5.739,6.346-8.567
				C103.833,125.907,100.573,124.042,99.129,125.939L99.129,125.939z"/>
		</g>
	</g>
	<g>
		<g>
			<path d="M51.503,52.047c0.805,0.856,0.612,3.053,0.788,4.251c0.287-0.706,0.575-1.412,0.862-2.118
				c-0.423,0.317-0.847,0.634-1.271,0.951c-1.339,1.002-1.113,3.634,0.946,3.494c1.378-0.093,2.747-0.237,4.126-0.316
				c1.021-0.059,1.874-0.809,1.875-1.875c0.004-3.08,0.063-6.135,0.317-9.205c-1.228,0.166-2.456,0.333-3.683,0.499
				c0.422,2.74-0.084,5.311,0.952,7.936c0.804,2.035,3.409,1.617,3.683-0.499c0.492-3.799,0.46-7.627,0.952-11.426
				c0.273-2.107-3.24-2.541-3.683-0.499c-0.571,2.629-1.515,5.134-2.539,7.617c1.228,0.166,2.456,0.333,3.683,0.499
				c-0.007-2.344-0.068-4.651-0.317-6.982c-0.207-1.93-3.308-2.75-3.683-0.499c-0.317,1.904-0.635,3.809-0.952,5.713
				c1.228,0.166,2.456,0.333,3.683,0.499c0.012-1.722,0.089-3.371,0.317-5.078c-1.25,0-2.5,0-3.75,0
				c0.04,1.456-0.15,2.877-0.568,4.263c1.206,0,2.411,0,3.616,0c-0.69-1.977-0.611-3.514-0.568-5.533c-1.25,0-2.5,0-3.75,0
				c0,1.409-0.533,2.896-0.885,4.263c1.228,0.166,2.456,0.333,3.683,0.499c0.262-2.99,2.007-5.529,2.79-8.388
				c0.554-2.025-2.423-3.355-3.427-1.445c-0.773,1.471-1.532,2.93-2.221,4.443c-0.985,2.166,1.939,3.984,3.238,1.893
				c1.627-2.619,3.116-5.223,4.314-8.064c0.825-1.956-2.539-3.363-3.427-1.445c-0.737,1.591-1.543,2.999-2.539,4.442
				c1.143,0.481,2.285,0.963,3.427,1.445c0.742-2.475,1.797-4.826,2.539-7.301c0.628-2.094-2.311-3.202-3.427-1.445
				c-0.792,1.247-1.524,2.507-2.222,3.811c1.143,0.481,2.285,0.963,3.427,1.445c0.724-1.736,1.224-3.564,2.033-5.265
				c-1.165-0.315-2.33-0.631-3.494-0.946c-0.083,0.892-0.167,1.784-0.25,2.675c-0.35,1.998,2.326,3.409,3.427,1.445
				c1.286-2.295,2.535-4.562,4.125-6.664c-1.165-0.315-2.33-0.631-3.494-0.946c-0.111,3.813-3.129,6.945-4.058,10.607
				c-0.379,1.495,1.336,3.093,2.754,2.118c2.99-2.057,5.325-4.427,7.021-7.653c1.122-2.135-2.011-3.986-3.238-1.893
				c-1.802,3.075-3.716,5.972-4.951,9.333c-0.678,1.846,1.862,3.045,3.134,1.824c2.804-2.691,4.848-5.832,6.641-9.264
				c1.12-2.144-1.944-3.94-3.238-1.893c-1.492,2.361-3.055,4.465-3.998,7.112c-0.538,1.511,1.429,3.041,2.754,2.118
				c3.485-2.427,5.077-6.23,7.021-9.874c-1.08-0.631-2.159-1.262-3.238-1.893c-0.759,1.536-1.712,2.813-2.88,4.062
				c0.981,0.757,1.963,1.515,2.945,2.272c1.402-2.54,2.986-4.604,5.356-6.31c-0.757-0.982-1.515-1.963-2.272-2.945
				c-0.718,0.897-1.252,1.627-1.88,2.6c-1.328,2.057,1.866,3.838,3.238,1.893c1.962-2.781,6.395-2.577,9.353-3.263
				c2.081-0.483,1.6-3.707-0.499-3.683c-4.647,0.053-8.662,0.689-12.688,3.113c0.757,0.982,1.515,1.963,2.272,2.945
				c1.62-1.376,3.067-2.824,4.443-4.443c1.097-1.29,0.094-3.851-1.824-3.134c-2.398,0.896-4.376,2.229-6.478,3.679
				c0.855,0.855,1.71,1.71,2.565,2.565c0.39-0.769,0.777-1.512,1.27-2.221c1.072-1.543-1.031-3.581-2.565-2.565
				c-2.377,1.573-3.079,3.802-2.449,6.559c0.407,1.779,3.229,1.811,3.616,0c0.523-2.452,0.406-4.312-0.824-6.521
				c-0.688-1.235-2.542-1.199-3.238,0c-1.449,2.496-0.794,8.767,3.481,6.262c2.259-1.323,4.959-7.237,0.986-8.33
				c-3.384-0.931-6.951,3.325-4.15,6.125c3.962,3.962,7.153-2.909,7.302-5.969c0.085-1.754-2.047-2.319-3.201-1.326
				c-7.954,6.85,10.376,9.036,5.483,0.063c-0.962-1.764-3.336-0.792-3.494,0.946c-0.664,7.316,8.853,4.696,7.174-2.084
				c-0.24-0.969-1.349-1.605-2.307-1.31c-9.801,3.024,3.801,10.84,3.008,3.077c-1.25,0-2.5,0-3.75,0
				c0.822,7.179,8.282,3.417,9.396-1.722c0.365-1.681-1.846-3.375-3.134-1.824c-1.224,1.475-2.643,3.534-0.893,5.284
				c1.289,1.289,3.192,1.537,4.155-0.158c0.385-0.677,0.356-1.742-0.293-2.272c-0.139-0.113-0.971-1.012-0.787-0.44
				c-0.446-1.386-2.726-2.045-3.427-0.448c-2.251,5.13,2.359,7.996,5.775,3.479c-1.143-0.149-2.285-0.298-3.427-0.448
				c0.226,0.944,0.599,1.851,1.042,2.713c0.507,0.987,1.67,1.06,2.565,0.672c0.032-0.014,0.065-0.028,0.099-0.042
				c1.38-0.596,1.054-2.554,0-3.238c0.285,0.107,0.298,0.014,0.04-0.28c-0.801-1.55-2.921-0.975-3.427,0.448
				c-0.319,0.71-0.531,1.451-0.636,2.221c-0.25,1.246,0.865,2.881,2.306,2.307c2.062-0.822,3.045-1.616,3.53-3.848
				c0.417-1.914-1.695-3.017-3.134-1.824c-1.481,1.229-2.032,2.108-2.386,4c-0.255,1.362,0.84,2.72,2.306,2.307
				c3.504-0.987,4.926-3.874,2.098-6.624c-0.941-0.915-2.224-0.583-2.945,0.379c-1.223,1.63-4.56,1.688-6.308,2.817
				c-1.421,0.919-1.041,3.729,0.946,3.494c5.055-0.599,9.282-1.789,13.271,2.308c0.758-0.981,1.515-1.963,2.272-2.945
				c-2.874-1.372-8.645-1.625-10.434-4.405c-0.374,0.918-0.747,1.836-1.121,2.754c3.085-0.512,5.881-0.45,8.842,0.635
				c1.992,0.73,3.359-2.52,1.444-3.427c-2.923-1.386-5.854-2.072-9.017-2.728c-0.166,1.228-0.332,2.456-0.498,3.683
				c5.362,0.034,10.751,3.508,13.614,7.957c0.981-0.757,1.963-1.515,2.945-2.272c-1.805-1.396-3.208-3.104-4.761-4.761
				c-0.608,1.044-1.217,2.089-1.824,3.134c4.54,1.25,7.337,4.925,9.352,8.976c1.079-0.631,2.159-1.262,3.238-1.893
				c-0.907-1.785-1.429-3.682-2.032-5.58c-1.205,0.333-2.41,0.665-3.615,0.997c1.813,4.968,5.371,9.126,6.663,14.279
				c1.044-0.608,2.089-1.216,3.134-1.824c-3.681-4.028-5.485-9.691-10.534-12.352c-1.572-0.829-3.654,0.911-2.565,2.565
				c2.055,3.122,4.13,6.283,4.186,10.159c1.228-0.166,2.455-0.333,3.683-0.499c-0.32-1.691-0.628-3.385-0.95-5.076
				c-1.142,0.481-2.284,0.963-3.427,1.445c3.071,4.182,3.734,9.799,2.35,14.739c1.142-0.149,2.284-0.298,3.427-0.448
				c-1.03-2.204-1.345-4.281-1.648-6.67c-1.228,0.166-2.455,0.333-3.683,0.499c1.17,5.277,1.197,10.624,1.201,16.002
				c0.002,2.418,3.75,2.418,3.75,0c0-1.692,0-3.384,0-5.076c0-2.423-3.678-2.412-3.75,0c-0.124,4.145-0.828,8.232-0.952,12.377
				c1.25,0,2.5,0,3.75,0c-0.22-1.984-0.22-3.729,0-5.713c0.268-2.419-3.444-2.348-3.75,0c-0.459,3.522-1.391,6.917-1.585,10.473
				c-0.115,2.101,3.278,2.579,3.683,0.499c0.239-1.159,0.451-2.322,0.635-3.49c-1.228-0.166-2.455-0.333-3.683-0.499
				c-0.102,2.597-0.367,4.962,0.385,7.479c0.417,1.398,2.753,2.037,3.427,0.448c1.547-3.648,2.609-7.345,3.361-11.237
				c-1.205-0.333-2.41-0.665-3.615-0.997c-0.483,3.269-1.107,6.361,0,9.565c0.604,1.751,3.038,1.819,3.615,0
				c1.29-4.063,1.038-8.27,0.316-12.423c-0.377-2.175-3.588-1.517-3.683,0.499c-0.181,3.833,0.354,7.526,1.02,11.29
				c0.314,1.78,3.333,1.814,3.615,0c0.937-6.002,0.985-11.93-0.634-17.817c-0.562-2.045-3.688-1.626-3.683,0.499
				c0.009,4.086,0.2,7.979,1.337,11.924c0.59,2.05,3.642,1.622,3.683-0.499c0.137-7.09-1.484-13.93-2.221-20.945
				c-0.248-2.358-3.694-2.465-3.75,0c-0.103,4.551,1.216,8.81,2.288,13.192c0.511,2.089,3.659,1.592,3.683-0.499
				c0.062-5.494,0.453-10.91-0.386-16.366c-0.323-2.105-3.773-1.587-3.683,0.499c0.163,3.741,1.107,7.37,1.271,11.107
				c1.25,0,2.5,0,3.75,0c-0.582-4.782-0.298-9.504-3.112-13.641c-1.05-1.543-3.408-0.97-3.494,0.946
				c-0.386,8.608,2.628,16.825,2.856,25.388c0.064,2.426,3.632,2.408,3.75,0c0.088-1.791,0.406-3.492,0.885-5.213
				c-1.228-0.166-2.455-0.333-3.683-0.499c0.089,8.011-2.112,15.189,2.16,22.526c0.74,1.271,2.472,1.15,3.238,0
				c0.211-0.316,0.422-0.634,0.633-0.95c-1.079,0-2.159,0-3.238,0c2.589,3.809,1.722,8.544,2.668,12.878
				c0.43,1.974,3.011,1.593,3.615,0c0.399-0.797,0.611-1.644,0.636-2.538c0.237-1.653-1.752-3.402-3.134-1.824
				c-2.187,2.499-3.457,5.245-4.29,8.444c1.205,0,2.41,0,3.615,0c-0.083-0.574-0.166-1.148-0.249-1.723
				c-0.097-2.41-3.847-2.419-3.75,0c0.041,1.027,0.153,1.698,0.384,2.719c0.412,1.832,3.158,1.756,3.615,0
				c0.674-2.585,1.553-4.762,3.327-6.788c-1.045-0.608-2.09-1.217-3.134-1.824c-0.025,0.894-0.237,1.74-0.636,2.538
				c1.205,0,2.41,0,3.615,0c-1.053-4.83-0.135-9.492-3.045-13.774c-0.812-1.195-2.43-1.215-3.238,0
				c-0.211,0.316-0.422,0.634-0.633,0.95c1.079,0,2.159,0,3.238,0c-3.859-6.628-1.569-13.452-1.648-20.634
				c-0.023-2.118-3.112-2.552-3.683-0.499c-0.566,2.036-0.916,4.099-1.02,6.21c1.25,0,2.5,0,3.75,0
				c-0.229-8.56-3.242-16.795-2.856-25.388c-1.165,0.315-2.329,0.631-3.494,0.946c2.406,3.537,2.105,7.678,2.601,11.748
				c0.284,2.331,3.857,2.471,3.75,0c-0.163-3.741-1.107-7.37-1.271-11.107c-1.228,0.166-2.455,0.333-3.683,0.499
				c0.783,5.099,0.31,10.239,0.251,15.369c1.228-0.166,2.455-0.333,3.683-0.499c-0.991-4.054-2.249-7.975-2.153-12.195
				c-1.25,0-2.5,0-3.75,0c0.735,7.002,2.356,13.871,2.221,20.945c1.228-0.166,2.455-0.333,3.683-0.499
				c-1.039-3.61-1.193-7.194-1.202-10.927c-1.228,0.166-2.455,0.333-3.683,0.499c1.436,5.221,1.464,10.498,0.634,15.823
				c1.205,0,2.41,0,3.615,0c-0.61-3.455-1.05-6.788-0.885-10.292c-1.228,0.166-2.455,0.333-3.683,0.499
				c0.606,3.495,0.769,7.01-0.316,10.429c1.205,0,2.41,0,3.615,0c-0.903-2.616-0.393-4.909,0-7.571
				c0.346-2.336-3.15-3.404-3.615-0.997c-0.688,3.554-1.567,6.999-2.984,10.341c1.143,0.149,2.285,0.298,3.427,0.448
				c-0.657-2.202-0.338-4.241-0.25-6.482c0.082-2.087-3.324-2.601-3.683-0.499c-0.185,1.168-0.396,2.332-0.635,3.49
				c1.228,0.166,2.455,0.333,3.683,0.499c0.193-3.54,1.128-6.965,1.585-10.473c-1.25,0-2.5,0-3.75,0c-0.22,1.984-0.22,3.729,0,5.713
				c0.261,2.354,3.677,2.469,3.75,0c0.124-4.145,0.828-8.232,0.952-12.377c-1.25,0-2.5,0-3.75,0c0,1.692,0,3.384,0,5.076
				c1.25,0,2.5,0,3.75,0c-0.005-5.716-0.094-11.397-1.336-17c-0.451-2.038-3.951-1.612-3.683,0.499
				c0.383,3.01,0.868,5.797,2.16,8.562c0.714,1.528,3.019,1.009,3.427-0.448c1.63-5.813,0.9-12.689-2.727-17.628
				c-1.262-1.718-3.836-0.707-3.427,1.445c0.321,1.691,0.629,3.385,0.95,5.076c0.399,2.109,3.713,1.58,3.683-0.499
				c-0.066-4.562-2.243-8.322-4.697-12.052c-0.855,0.855-1.71,1.71-2.565,2.565c4.564,2.406,6.394,8.064,9.774,11.765
				c1.312,1.435,3.573-0.073,3.134-1.824c-1.306-5.21-4.84-9.286-6.663-14.279c-0.816-2.238-4.356-1.334-3.615,0.997
				c0.703,2.212,1.354,4.401,2.409,6.475c1.099,2.16,4.31,0.262,3.238-1.893c-2.454-4.935-6.13-9.195-11.594-10.7
				c-1.853-0.51-3.09,1.784-1.824,3.134c1.554,1.657,2.956,3.365,4.761,4.761c1.556,1.203,4.199-0.325,2.945-2.272
				c-3.582-5.565-10.136-9.771-16.853-9.814c-2.082-0.013-2.603,3.247-0.498,3.683c2.829,0.587,5.475,1.096,8.12,2.35
				c0.481-1.143,0.963-2.285,1.444-3.427c-3.563-1.306-7.128-1.25-10.834-0.635c-1.181,0.196-1.73,1.807-1.121,2.754
				c2.557,3.974,7.873,3.886,11.779,5.751c1.874,0.895,3.822-1.353,2.272-2.945c-4.737-4.866-9.626-4.153-15.923-3.407
				c0.315,1.165,0.631,2.329,0.946,3.494c2.749-1.778,5.573-1.39,7.653-4.163c-0.981,0.126-1.963,0.253-2.945,0.379
				c-0.147,0.119-0.294,0.238-0.441,0.356c0.769,0.769,1.537,1.538,2.306,2.307c0.267-1.422,0.299-1.414,1.423-2.346
				c-1.045-0.608-2.09-1.216-3.134-1.824c-0.304,0.41-0.607,0.819-0.911,1.229c0.769,0.769,1.537,1.538,2.306,2.307
				c0.104-0.77,0.316-1.51,0.636-2.221c-1.142,0.149-2.284,0.298-3.427,0.448c0.349,0.674,0.66,1.207,1.306,1.626
				c0-1.08,0-2.159,0-3.238c-0.033,0.014-0.066,0.029-0.099,0.043c0.854,0.224,1.71,0.448,2.564,0.672
				c-0.3-0.585-0.512-1.18-0.664-1.817c-0.415-1.739-2.522-1.644-3.427-0.448c0.233,0.102,0.468,0.205,0.701,0.307
				c-1.143-0.149-2.285-0.298-3.427-0.448c0.305,0.945,1,1.483,1.75,2.095c-0.098-0.757-0.195-1.515-0.293-2.272
				c0.876-0.194,1.752-0.388,2.629-0.583c-1.045-0.608-2.09-1.216-3.134-1.824c-0.062,0.286-1.951,3.407-2.03,2.719
				c-0.271-2.365-3.997-2.415-3.75,0c0.58,0.18,1.159,0.36,1.739,0.54c-0.769-0.437-1.538-0.873-2.307-1.31
				c0.064,0.362,0.128,0.725,0.192,1.087c-1.165,0.315-2.329,0.631-3.494,0.946c0.561,0.394,0.504,0.611-0.168,0.652
				c-0.971,0.279-0.335,0.828,0.575,0.043c-1.067-0.442-2.134-0.884-3.201-1.326c-0.043,0.884-2,6.161-0.632,3.804
				c-1.08,0-2.159,0-3.238,0c0.149,1.21,0.297,2.421,0.446,3.631c1.206,0,2.411,0,3.616,0c0.242-0.774,0.483-1.549,0.725-2.324
				c-0.855-0.855-1.71-1.71-2.565-2.565c-0.492,0.709-0.879,1.452-1.27,2.221C64.388,27.84,66.08,30,67.739,28.856
				c1.806-1.246,3.502-2.524,5.583-3.301c-0.608-1.045-1.216-2.089-1.824-3.134c-1.376,1.619-2.824,3.067-4.443,4.443
				c-1.647,1.4,0.478,4.025,2.272,2.945c3.471-2.09,6.812-2.556,10.796-2.602c-0.166-1.228-0.333-2.456-0.499-3.683
				c-4.414,1.024-8.774,0.99-11.594,4.987c1.08,0.631,2.159,1.262,3.238,1.893c0.431-0.614,0.862-1.228,1.293-1.841
				c1.219-1.524-0.401-4.291-2.272-2.945c-2.873,2.068-4.994,4.561-6.702,7.655c-1.011,1.832,1.455,3.864,2.945,2.272
				c1.406-1.502,2.553-2.972,3.467-4.821c1.063-2.15-2.093-4.04-3.238-1.893c-1.562,2.927-2.859,6.567-5.675,8.528
				c0.918,0.706,1.836,1.412,2.754,2.118c0.826-2.32,2.323-4.164,3.62-6.216c-1.08-0.631-2.159-1.262-3.238-1.893
				c-1.642,3.143-3.481,6.036-6.054,8.505c1.044,0.608,2.089,1.216,3.134,1.824c1.119-3.046,2.944-5.659,4.573-8.437
				c-1.08-0.631-2.159-1.262-3.238-1.893c-1.409,2.681-3.189,4.597-5.675,6.308c0.918,0.706,1.836,1.412,2.754,2.118
				c1.047-4.129,4.063-7.205,4.192-11.604c0.06-2.045-2.458-2.315-3.494-0.946c-1.59,2.102-2.838,4.369-4.125,6.664
				c1.143,0.481,2.285,0.963,3.427,1.445c0.25-1.425,0.348-2.228,0.384-3.672c0.045-1.792-2.679-2.661-3.494-0.946
				c-0.953,2.005-1.557,4.114-2.411,6.161c-0.826,1.98,2.44,3.29,3.427,1.445c0.697-1.303,1.429-2.563,2.222-3.811
				c-1.143-0.481-2.285-0.963-3.427-1.445c-0.742,2.475-1.797,4.826-2.539,7.301c-0.641,2.137,2.267,3.127,3.427,1.445
				c0.995-1.443,1.802-2.851,2.539-4.442c-1.143-0.481-2.285-0.963-3.427-1.445c-1.07,2.537-2.488,4.839-3.936,7.168
				c1.08,0.631,2.159,1.262,3.238,1.893c0.688-1.514,1.447-2.972,2.221-4.443c-1.143-0.481-2.285-0.963-3.427-1.445
				c-0.898,3.283-2.621,5.938-2.923,9.385c-0.188,2.14,3.165,2.509,3.683,0.499c0.448-1.738,1.019-3.444,1.019-5.26
				c0-2.421-3.698-2.414-3.75,0c-0.05,2.316-0.063,4.339,0.702,6.53c0.578,1.654,3.162,1.918,3.616,0
				c0.435-1.836,0.757-3.385,0.702-5.26c-0.074-2.492-3.439-2.325-3.75,0c-0.229,1.708-0.305,3.356-0.317,5.078
				c-0.015,2.066,3.329,2.625,3.683,0.499c0.317-1.904,0.635-3.809,0.952-5.713c-1.228-0.166-2.456-0.333-3.683-0.499
				c0.25,2.332,0.311,4.639,0.317,6.982c0.006,2.268,2.918,2.353,3.683,0.499c1.023-2.483,1.968-4.988,2.539-7.617
				c-1.228-0.166-2.456-0.333-3.683-0.499c-0.492,3.799-0.46,7.627-0.952,11.426c1.228-0.166,2.456-0.333,3.683-0.499
				c-0.985-2.494-0.546-5.297-0.952-7.936c-0.343-2.224-3.521-1.463-3.683,0.499c-0.254,3.07-0.313,6.125-0.317,9.205
				c0.625-0.625,1.25-1.25,1.875-1.875c-1.379,0.08-2.748,0.223-4.126,0.316c0.315,1.165,0.631,2.329,0.946,3.494
				c0.424-0.317,0.847-0.634,1.271-0.951c0.75-0.562,0.998-1.192,0.862-2.118c-0.309-2.101-0.231-4.286-1.753-5.905
				C52.496,47.63,49.849,50.287,51.503,52.047L51.503,52.047z"/>
		</g>
	</g>
</g>
<g>
</g>
<g>
</g>
<g>
</g>
<g>
</g>
<g>
</g>
<g>
</g>
</svg>
