<?xml version="1.0" encoding="utf-8"?>
<!-- Generator: Adobe Illustrator 16.0.4, SVG Export Plug-In . SVG Version: 6.00 Build 0)  -->
<!DOCTYPE svg PUBLIC "-//W3C//DTD SVG 1.1//EN" "http://www.w3.org/Graphics/SVG/1.1/DTD/svg11.dtd">
<svg version="1.1" id="Layer_1" xmlns="http://www.w3.org/2000/svg" xmlns:xlink="http://www.w3.org/1999/xlink" x="0px" y="0px"
	 width="160px" height="160px" viewBox="0 0 160 160" enable-background="new 0 0 160 160" xml:space="preserve">
<g>
	<rect x="56.071" y="64.921" width="48.462" height="31.886"/>
	<polygon fill="#FFFFFF" points="80.273,68.517 80.672,69.763 81.979,69.756 80.917,70.521 81.326,71.76 80.273,70.989 
		79.217,71.765 79.627,70.521 78.564,69.756 79.873,69.763 	"/>
	<polygon fill="#FFFFFF" points="80.273,90.067 80.672,91.312 81.979,91.309 80.917,92.071 81.326,93.315 80.273,92.542 
		79.217,93.315 79.627,92.071 78.564,91.309 79.873,91.312 	"/>
	<polygon fill="#FFFFFF" points="74.913,69.95 75.311,71.196 76.618,71.189 75.557,71.954 75.967,73.198 74.913,72.423 
		73.857,73.198 74.267,71.954 73.206,71.189 74.514,71.196 	"/>
	<polygon fill="#FFFFFF" points="70.966,73.903 71.364,75.15 72.674,75.144 71.611,75.908 72.021,77.149 70.966,76.378 
		69.911,77.152 70.32,75.908 69.258,75.144 70.566,75.15 	"/>
	<polygon fill="#FFFFFF" points="69.511,79.277 69.91,80.525 71.218,80.518 70.154,81.283 70.565,82.527 69.511,81.752 
		68.456,82.527 68.865,81.283 67.804,80.518 69.113,80.525 	"/>
	<polygon fill="#FFFFFF" points="70.951,84.655 71.349,85.9 72.658,85.895 71.597,86.659 72.006,87.901 70.951,87.129 
		69.896,87.901 70.305,86.659 69.246,85.895 70.552,85.9 	"/>
	<polygon fill="#FFFFFF" points="74.913,88.608 75.311,89.854 76.618,89.847 75.557,90.611 75.967,91.854 74.913,91.08 
		73.857,91.854 74.267,90.611 73.206,89.847 74.514,89.854 	"/>
	<polygon fill="#FFFFFF" points="85.637,69.95 85.238,71.196 83.931,71.189 84.991,71.954 84.581,73.198 85.637,72.423 
		86.692,73.198 86.282,71.954 87.344,71.189 86.037,71.196 	"/>
	<polygon fill="#FFFFFF" points="89.584,73.903 89.184,75.15 87.877,75.144 88.939,75.908 88.53,77.149 89.584,76.378 
		90.639,77.152 90.229,75.908 91.291,75.144 89.982,75.15 	"/>
	<polygon fill="#FFFFFF" points="91.039,79.277 90.641,80.525 89.332,80.518 90.394,81.283 89.982,82.527 91.039,81.752 
		92.095,82.527 91.686,81.283 92.746,80.518 91.438,80.525 	"/>
	<polygon fill="#FFFFFF" points="89.598,84.655 89.199,85.9 87.891,85.895 88.954,86.659 88.545,87.901 89.598,87.129 
		90.654,87.901 90.245,86.659 91.305,85.895 89.998,85.9 	"/>
	<polygon fill="#FFFFFF" points="85.637,88.608 85.238,89.854 83.931,89.847 84.991,90.611 84.581,91.854 85.637,91.08 
		86.692,91.854 86.282,90.611 87.344,89.847 86.037,89.854 	"/>
</g>
<g>
</g>
<g>
</g>
<g>
</g>
<g>
</g>
<g>
</g>
<g>
</g>
</svg>
