<?xml version="1.0" encoding="utf-8"?>
<!-- Generator: Adobe Illustrator 16.0.0, SVG Export Plug-In . SVG Version: 6.00 Build 0)  -->
<!DOCTYPE svg PUBLIC "-//W3C//DTD SVG 1.1//EN" "http://www.w3.org/Graphics/SVG/1.1/DTD/svg11.dtd">
<svg version="1.1" id="Layer_1" xmlns="http://www.w3.org/2000/svg" xmlns:xlink="http://www.w3.org/1999/xlink" x="0px" y="0px"
	 width="160px" height="160px" viewBox="0 0 160 160" enable-background="new 0 0 160 160" xml:space="preserve">
<g>
	<defs>
		<rect id="SVGID_1_" x="-2.559" y="-42.562" width="344.589" height="174.765"/>
	</defs>
	<clipPath id="SVGID_2_">
		<use xlink:href="#SVGID_1_"  overflow="visible"/>
	</clipPath>
	<path clip-path="url(#SVGID_2_)" d="M138.939,58.38c-0.013-0.001-0.026-0.001-0.045-0.003v-1.222c0.019,0,0.032,0.001,0.045,0.004
		V58.38z M133.797,60.891c-2.526,0.004-4.988-0.037-7.559-0.137v-4.827c2.598-0.096,5.147-0.092,7.882,0.238
		C134.014,57.715,133.909,59.209,133.797,60.891 M132.232,74.564c-0.057-0.039-0.114-0.082-0.171-0.118
		c0.187-0.265,0.368-0.531,0.549-0.795c0.071,0.06,0.139,0.117,0.205,0.176C132.622,74.075,132.425,74.319,132.232,74.564
		 M129.805,81.047c0.136-1.614,1.452-2.417,2.437-3.447C131.643,78.898,130.722,79.971,129.805,81.047 M128.946,86.094
		c-0.362-0.336-0.661-0.803-1.07-0.934c-0.388-0.125-0.903,0.049-1.345,0.164c-2.776,0.736-5.549,1.496-8.324,2.24
		c-0.292,0.078-0.593,0.125-0.892,0.148c-0.521,0.041-0.512-0.311-0.454-0.84c0.634,0.041,1.184,0.094,1.743,0.111
		c0.526,0.018,1.005-0.018,1.146-0.734c0.046-0.238,0.449-0.52,0.729-0.576c2.568-0.51,5.145-0.967,7.716-1.461
		c0.564-0.107,1.108-0.314,1.737-0.498C130.072,84.721,129.437,85.373,128.946,86.094 M127.164,89.031
		c-0.279-0.4-0.524-0.756-0.851-1.229c0.7-0.203,1.32-0.389,2.198-0.648C127.979,87.893,127.608,88.408,127.164,89.031
		 M121.547,90.633c0.835-0.459,1.737-0.516,2.627-0.605c0.928-0.094,1.903,0.082,2.781-0.564c0.372,0.395,0.649,0.688,1.103,1.17
		H121.547z M119.909,73.154c-2.284,0.871-7.685,2.149-8.743,2.067C111.844,74.705,118.753,73.072,119.909,73.154 M108.316,70.293
		c-0.016-0.051-0.025-0.096-0.039-0.146c0.251-0.069,0.5-0.138,0.747-0.206c0.034,0.066,0.064,0.131,0.097,0.197
		C108.854,70.192,108.585,70.241,108.316,70.293 M107.192,55.296h5.898v5.233h-5.73C106.744,58.809,107.272,57.14,107.192,55.296
		 M104.074,33.861c-0.184-1.314-0.36-2.574-0.551-3.923c0.909-0.18,1.688-0.336,2.643-0.526c0.177,1.557,0.337,2.953,0.509,4.449
		H104.074z M101.316,67.316c-0.231,0.051-0.444,0.185-0.665,0.283h-0.004v0.005c-0.004-0.004-0.009-0.004-0.011-0.005h-3.086
		c1.03-0.681,2.071-0.667,3.086,0h0.011c0.035-0.641,0.565-0.868,1.02-0.939c1.595-0.262,3.2-0.422,4.84-0.41
		C104.772,66.602,103.044,66.949,101.316,67.316 M101.01,90.463c0-0.037-0.003-0.076-0.006-0.113
		c0.159,0.006,0.315,0.018,0.475,0.025c0.003,0.018,0.003,0.033,0.003,0.053C101.324,90.441,101.167,90.451,101.01,90.463
		 M97.136,90.414h-1.125V90.34h1.125V90.414z M99.281,63.44h-1.448c-0.002-0.05-0.004-0.1-0.008-0.152h1.447
		C99.276,63.34,99.28,63.39,99.281,63.44 M103.831,63.265v0.221h-3.453c0.016-0.072,0.031-0.147,0.048-0.221H103.831z
		 M95.443,55.245h9.35v5.162h-9.636C95.256,58.641,95.347,56.984,95.443,55.245 M92.806,63.654c0.742-0.451,0.742-0.451,1.873-0.145
		C94.101,63.553,93.522,63.598,92.806,63.654 M81.346,60.595v-5.576c3.92,0.144,7.71-0.141,11.521,0.224
		c0.341,1.762,0.219,3.417-0.088,5.233C88.996,60.639,85.228,60.476,81.346,60.595 M90.899,90.406h-1.221
		c-0.012-0.02-0.025-0.039-0.033-0.062h1.254V90.406z M86.646,90.691c-0.012-0.045-0.022-0.088-0.035-0.135
		c0.219-0.074,0.434-0.148,0.651-0.221c0.017,0.07,0.034,0.145,0.05,0.215C87.09,90.6,86.868,90.645,86.646,90.691 M84.024,79.286
		v-0.159h2.362c0.005,0.054,0.013,0.106,0.021,0.159H84.024z M78.911,60.488c-2.514,0.27-5.026-0.116-7.667-0.029
		c0.125-1.776,0.243-3.515,0.378-5.431h7.289V60.488z M59.625,86.828c-0.133-0.002-0.267-0.152-0.402-0.234
		c0.025-0.076,0.048-0.154,0.074-0.23h17.82c0,0.094,0,0.188,0.002,0.279C71.29,86.889,65.459,86.916,59.625,86.828 M60.362,77.056
		c0,0.045-0.002,0.087-0.004,0.129h-1.123v-0.129H60.362z M57.373,75.075c-0.007,0.009-0.015,0.01-0.024,0.02
		c-0.008-0.011-0.015-0.011-0.023-0.02h-1.739c0.581-0.21,1.171-0.622,1.739,0h0.023H57.373c0.606-0.604,1.296-0.381,1.975-0.293
		c0.008,0.096,0.017,0.194,0.025,0.29C58.706,75.073,58.04,75.075,57.373,75.075 M47.71,55.416h9.082v5.198H47.71V55.416z
		 M47.853,47.432c0.254,0.088,0.507,0.177,0.941,0.33c-0.618,0.312-1.07,0.542-1.735,0.88
		C47.385,48.146,47.604,47.812,47.853,47.432 M46.545,45.297h-4.796c-0.771-1.098-0.673-2.454-0.521-3.972
		c1.762-0.077,3.489-0.152,5.317-0.231V45.297z M45.832,84.203c-2.129,0.035-4.257,0.035-6.387,0.029
		c-0.142,0-0.283-0.133-0.417-0.328c2.412-0.299,4.816-0.441,7.226-0.441c0.055,0.107,0.111,0.215,0.163,0.324
		C46.223,83.932,46.029,84.197,45.832,84.203 M43.169,86.008c-1.328,0.121-2.655,0.225-3.983,0.318
		c-0.6,0.043-0.602,0.025-1.033-0.727h6.179c0.021,0.066,0.042,0.133,0.064,0.197C43.989,85.871,43.581,85.973,43.169,86.008
		 M40.301,90.471h-1.147c0.003-0.041,0.003-0.08,0.003-0.119h1.144C40.301,90.391,40.301,90.43,40.301,90.471 M43.65,49.951h1.053
		c0.006,0.055,0.009,0.108,0.014,0.163c-0.344,0.033-0.688,0.066-1.029,0.103C43.674,50.128,43.661,50.04,43.65,49.951
		 M37.372,55.593h7.977v5.201c-2.672,0.144-5.273,0.28-7.977,0.427V55.593z M33.435,45.753c-0.607-1.353-0.72-2.687-0.502-4.212
		h5.521c0.091,1.224,0.187,2.505,0.292,3.954C37.027,45.923,35.234,45.676,33.435,45.753 M33.391,50.784h0.684
		c0,0.03,0.002,0.061,0.006,0.094c-0.214,0.011-0.424,0.022-0.639,0.033C33.425,50.872,33.405,50.828,33.391,50.784 M35.023,61.246
		c-2.207,0.109-4.331,0.218-6.539,0.328c-0.444-1.896-0.625-3.748-0.396-5.755c2.315-0.086,4.531-0.169,6.88-0.255
		C35.354,57.541,35.234,59.323,35.023,61.246 M23.024,68.946c1.683-0.568,5.121-0.887,5.915-0.606
		C28.174,68.765,24.383,69.204,23.024,68.946 M26.794,88.35c-0.107-0.195-0.178-0.303-0.231-0.42
		c-0.224-0.508-0.446-1.016-0.723-1.646c0.327-0.051,0.585-0.09,0.984-0.148C26.585,86.914,27.538,87.514,26.794,88.35
		 M20.364,56.136c1.87-0.086,3.596-0.167,5.452-0.25v5.391c-1.774,0.109-3.485,0.208-5.304,0.315
		C19.919,59.848,20.625,58.056,20.364,56.136 M18.895,46.236v-3.524c1.124-0.491,2.331-0.313,3.598-0.465
		c0.489,1.238,0.025,2.416,0.135,3.735C21.35,46.069,20.214,46.145,18.895,46.236 M25.161,41.868
		c1.708-0.128,3.323-0.248,5.009-0.374c0.113,1.526,0.213,2.877,0.326,4.383h-5.334V41.868z M27.885,32.235
		c0.16,1.153,0.086,2.239-0.017,3.447c-0.693,0.062-1.36,0.119-2.162,0.188c-0.097-1.16-0.186-2.245-0.292-3.485
		C26.25,32.333,26.993,32.288,27.885,32.235 M30.218,31.929h3.879v3.687c-1.34,0.126-2.645,0.233-4.103,0.032
		C30.071,34.37,30.141,33.193,30.218,31.929 M37.056,31.665c0.891,0.003,1.783,0.002,2.851,0.002v3.891h-3.605
		c-0.02-1.019-0.068-2.041-0.041-3.06C36.272,32.041,36.502,31.665,37.056,31.665 M42.212,31.474h3.18
		c0.085,1.356,0.172,2.714,0.263,4.14c-1.115,0.317-2.202-0.11-3.442-0.005V31.474z M47.838,31.196h4.388v4.388h-4.134
		C47.587,34.168,47.536,32.75,47.838,31.196 M51.66,50.869c-0.355,0.578-0.559,0.916-0.844,1.375
		c-0.117-0.369-0.191-0.607-0.291-0.918C50.836,51.2,51.121,51.088,51.66,50.869 M52.625,50.972c-0.191,0.06-0.384,0.121-0.578,0.18
		c-0.02-0.072-0.041-0.145-0.063-0.217c0.195-0.053,0.391-0.104,0.586-0.154C52.59,50.843,52.608,50.907,52.625,50.972
		 M49.56,45.137c-0.55-1.342-0.306-2.623-0.121-4.014h6.505c0.491,1.41,0.684,3.029,0.455,4.014H49.56z M54.595,31.005
		c1.038-0.05,2.002-0.102,3.057-0.152v4.661c-1.036,0.049-1.953,0.091-3.057,0.142V31.005z M63.941,41.208v3.876
		c-1.142,0.277-3.546,0.231-4.544-0.104c-0.142-1.239-0.284-2.473-0.445-3.867C60.665,41.019,62.261,41.057,63.941,41.208
		 M60.066,30.596c1.015-0.082,1.967-0.16,3.01-0.244c0.21,1.709,0.393,3.195,0.595,4.836h-3.605V30.596z M61.188,74.953
		c-0.207,0.03-0.412,0.059-0.618,0.091c-0.01-0.065-0.021-0.129-0.03-0.194c0.207-0.029,0.412-0.064,0.618-0.093
		C61.168,74.821,61.178,74.886,61.188,74.953 M69.146,55.033c0.057,1.801,0.072,3.501-0.137,5.445h-9.741
		c-0.356-1.628-0.187-3.338-0.192-5.202C62.433,54.98,65.715,55.104,69.146,55.033 M65.595,30.249
		c1.329-0.062,2.645-0.127,4.189-0.201v4.698c-1.219,0.069-2.478,0.139-3.799,0.213C65.583,33.399,65.446,31.922,65.595,30.249
		 M78.113,34.203c-0.15-1.542-0.285-2.945-0.434-4.473h4.401c0.178,1.423,0.347,2.79,0.527,4.263
		C81.189,34.057,79.746,34.125,78.113,34.203 M72.194,34.61v-4.688h3.049c0.397,1.412,0.558,2.879,0.639,4.518
		C74.613,34.498,73.475,34.55,72.194,34.61 M68.358,47.589c-0.014,0.048-0.024,0.098-0.035,0.146h-0.917
		c0.004-0.07,0.007-0.14,0.012-0.21C67.731,47.544,68.042,47.565,68.358,47.589 M66.764,45.24c-0.076-1.272-0.147-2.499-0.23-3.879
		c2.34-0.004,4.49-0.311,6.78-0.076v3.847C71.253,45.325,69.104,45.576,66.764,45.24 M78.423,52.666
		c-0.211,0.021-0.421,0.042-0.634,0.066c-0.002-0.042-0.004-0.084-0.006-0.126h0.636C78.421,52.626,78.423,52.645,78.423,52.666
		 M76.172,45.206c-0.105-1.366-0.205-2.63-0.318-4.049c1.939-0.211,3.72-0.019,5.67-0.049c0.396,1.34,0.197,2.749,0.506,4.098
		H76.172z M84.604,29.853c1.574-0.152,3.076,0.116,4.641,0.317c0.087,1.206,0.168,2.318,0.266,3.612h-4.359
		C84.796,32.577,84.302,31.331,84.604,29.853 M89.731,40.91c0.225,1.644,0.44,3.212,0.686,4.999
		c-1.893-0.153-3.639-0.292-5.492-0.441c-0.209-1.386-0.41-2.731-0.635-4.226C86.206,41.123,87.944,41.021,89.731,40.91
		 M97.876,33.891c-0.064-1.093-0.131-2.262-0.209-3.551c1.284-0.123,2.404-0.229,3.549-0.34c0.168,1.368,0.31,2.555,0.474,3.891
		H97.876z M100.442,50.146h-2.797C98.553,49.672,99.21,49.675,100.442,50.146 M91.864,33.833c-0.084-1.165-0.166-2.34-0.255-3.624
		h3.685c0.073,1.245,0.145,2.392,0.221,3.685C94.301,34.038,93.169,33.993,91.864,33.833 M94.07,40.882
		c1.255-0.073,2.476-0.143,3.714-0.216c0.673,1.583,0.398,3.154,0.693,4.774H94.43C93.935,43.957,93.819,42.485,94.07,40.882
		 M106.076,40.931c0.406,1.578,0.519,3.049,0.082,4.622c-1.585,0.273-3.148-0.003-4.691-0.042c-0.482-1.208-0.753-3.331-0.581-4.63
		C102.567,40.461,104.258,41.017,106.076,40.931 M111.521,28.828c0.152,1.629,0.304,3.201,0.458,4.841
		c-0.909,0.137-1.701,0.253-2.531,0.377c-0.715-1.574-0.71-3.21-0.807-4.908C109.571,28.732,110.507,28.663,111.521,28.828
		 M113.937,41.106c0.046,1.426,0.461,2.82,0.052,4.314c-1.183,0.123-2.353,0.245-3.588,0.373c-0.26-1.383-0.399-2.651-0.21-3.929
		c0.151-1.036,0.34-1.139,1.354-1.016C112.298,40.943,113.057,41.014,113.937,41.106 M123.745,82.75
		c-1.37,0.434-2.702,1.018-4.189,0.82c-0.017-0.094-0.035-0.184-0.053-0.273c1.389-0.299,2.778-0.598,4.172-0.893
		C123.695,82.52,123.718,82.633,123.745,82.75 M115.568,55.416c2.775-0.228,5.435,0.179,8.206,0.34v4.858h-8.206V55.416z
		 M116.855,41.141c0.818-0.038,6.529-0.035,7.527-0.084c0.44,1.354-0.334,2.691,0.116,4.081c-1.301,0.572-6.167,0.221-7.644,0.327
		V41.141z M125.825,82.064c0.018,0.061,0.031,0.119,0.048,0.18c-0.298,0.088-0.593,0.176-0.887,0.268
		c-0.021-0.084-0.039-0.164-0.057-0.244C125.227,82.199,125.526,82.131,125.825,82.064 M153.236,47.076
		c-0.321-0.589-0.872-0.967-1.576-0.927c-2.838,0.158-5.669,0.182-8.512,0.181c-1.518-0.002-3.04-0.023-4.56-0.052l0.002,0.001
		c0,0-7.316-0.01-11.05-0.001c-0.44,0.015-0.888,0.013-1.33,0.04c-0.258,0.012-0.516-0.007-0.775-0.02
		c-0.254-0.012,0.669-0.018,2.105-0.02c3.684-0.137,7.368-0.065,11.048,0c-0.818-2.324,1.021-6.595,0.132-8.893
		c-0.183-0.474-10.234-2.141-14.521-2.501c-0.778-0.066-4.175-0.31-4.956-0.312c-0.899-0.007-1.801,0.043-2.691,0.153
		c-1.15,0.142-1.812-0.241-2.071-1.375c-0.135-0.59-0.203-1.194-0.279-1.795c-0.194-1.5-0.382-3.001-0.571-4.502
		c-0.066-0.551-0.177-1.099-0.188-1.65c-0.018-0.92-0.597-1.539-1.527-1.518c-0.337,0.008-0.673,0.108-1.01,0.104
		c-1.025-0.014-2.045-0.094-3.064-0.072c-0.976,0.022-1.949,0.139-3.042,0.224c-0.063-0.471-67.087,2.292-80.453,3.498
		c-0.611,0.535-1.16,1.018-1.812,1.592c0.902,2.919,1.199,6.059,0.784,9.354c-0.501,0.053-0.921,0.129-1.342,0.137
		c-1.462,0.029-2.922,0.026-4.382,0.066c-0.319,0.007-0.68,0.066-0.941,0.231c-0.36,0.225-0.646,0.573-0.871,0.78
		c-0.194,2.229-0.384,4.362-0.569,6.465H9.869c-0.244,0.285-0.468,0.607-0.75,0.868c-0.458,0.419-0.463,0.851-0.445,1.473
		c0.021,0.837-0.481,41.478-0.005,42.956c0.422,1.307,17.05,0.895,18.385,0.75c1.751-0.191,3.53-0.418,5.272-0.285
		c2.368,0.176,4.722,0.32,7.1,0.275c3.102-0.061,6.207-0.045,9.309-0.092c3.449-0.051,6.897-0.205,10.343-0.184
		c3.918,0.021,7.839,0.266,11.758,0.271c7.375,0.004,14.749-0.117,22.125-0.135c3.49-0.006,6.983,0.113,10.475,0.152
		c7.933,0.086,15.866,0.158,23.8,0.25c0.549,0.004,1.107,0.105,1.64,0.236c0.924,0.225,22.611,0.949,23.158,0.129
		c1.006-1.504,0.509-43.096,1.183-44.176C153.626,48.1,153.521,47.599,153.236,47.076"/>
	<path clip-path="url(#SVGID_2_)" d="M138.755,97.662c-0.017-0.004-0.028-0.004-0.046-0.008c-0.002-0.406-0.007-0.812-0.01-1.219
		c0.017,0,0.032,0,0.046,0.002C138.747,96.844,138.75,97.252,138.755,97.662 M133.632,100.211c-2.522,0.025-4.988,0.004-7.557-0.076
		c-0.014-1.615-0.027-3.15-0.041-4.826c2.596-0.117,5.147-0.135,7.879,0.176C133.82,97.035,133.732,98.529,133.632,100.211
		 M132.178,113.896c-0.057-0.041-0.112-0.08-0.171-0.117c0.183-0.266,0.363-0.533,0.545-0.801c0.068,0.061,0.136,0.117,0.204,0.176
		C132.563,113.402,132.37,113.65,132.178,113.896 M129.805,120.398c0.122-1.617,1.432-2.428,2.406-3.467
		C131.624,118.236,130.71,119.314,129.805,120.398 M128.987,125.455c-0.369-0.336-0.671-0.799-1.08-0.926
		c-0.392-0.123-0.901,0.053-1.342,0.174c-2.771,0.758-5.538,1.539-8.31,2.307c-0.286,0.082-0.591,0.133-0.889,0.156
		c-0.521,0.041-0.512-0.309-0.457-0.84c0.631,0.039,1.182,0.088,1.737,0.102c0.532,0.01,1.01-0.025,1.144-0.744
		c0.045-0.238,0.447-0.525,0.724-0.584c2.565-0.531,5.136-1.002,7.702-1.521c0.562-0.113,1.109-0.324,1.733-0.512
		C130.102,124.066,129.472,124.727,128.987,125.455 M127.23,128.402c-0.284-0.396-0.533-0.75-0.865-1.219
		c0.698-0.213,1.32-0.402,2.193-0.668C128.035,127.258,127.667,127.777,127.23,128.402 M121.624,130.049
		c0.83-0.467,1.735-0.525,2.623-0.623c0.925-0.104,1.9,0.066,2.774-0.592c0.374,0.393,0.655,0.684,1.113,1.166
		C125.837,130.018,123.765,130.033,121.624,130.049 M119.843,112.588c-2.277,0.889-7.666,2.209-8.727,2.137
		C111.792,114.199,118.687,112.514,119.843,112.588 M108.228,109.816c-0.014-0.047-0.023-0.094-0.039-0.141
		c0.25-0.07,0.498-0.143,0.746-0.215c0.031,0.068,0.064,0.131,0.099,0.197C108.764,109.713,108.498,109.766,108.228,109.816
		 M106.986,94.83c2.038-0.016,3.916-0.031,5.896-0.045c0.016,1.715,0.029,3.42,0.044,5.23c-1.947,0.014-3.815,0.033-5.73,0.049
		C106.565,98.348,107.078,96.676,106.986,94.83 M103.69,73.424c-0.193-1.313-0.382-2.573-0.583-3.919
		c0.909-0.188,1.688-0.35,2.637-0.548c0.191,1.555,0.364,2.95,0.548,4.447C105.441,73.409,104.623,73.414,103.69,73.424
		 M101.203,106.898c-0.229,0.053-0.439,0.188-0.662,0.287h-0.002l-0.002,0.004c-0.004,0-0.007,0-0.012-0.002
		c-1.007,0.008-2.014,0.016-3.082,0.025c1.022-0.693,2.065-0.686,3.082-0.025c0.005,0,0.01,0,0.014-0.002
		c0.03-0.639,0.557-0.871,1.01-0.949c1.592-0.271,3.198-0.445,4.836-0.445C104.654,106.156,102.929,106.52,101.203,106.898
		 M101.083,130.047c0-0.039-0.002-0.076-0.004-0.113c0.158,0.008,0.314,0.014,0.475,0.021c0.004,0.018,0.004,0.035,0.004,0.053
		C101.399,130.02,101.24,130.033,101.083,130.047 M97.212,130.031c-0.375,0.002-0.748,0.004-1.125,0.008c0-0.021,0-0.047,0-0.072
		c0.373-0.004,0.752-0.006,1.125-0.012C97.212,129.982,97.212,130.006,97.212,130.031 M99.14,103.041
		c-0.484,0.004-0.965,0.008-1.447,0.01c-0.004-0.051-0.007-0.102-0.011-0.152c0.482-0.002,0.961-0.006,1.446-0.008
		C99.13,102.939,99.136,102.988,99.14,103.041 M103.687,102.826c0,0.074,0,0.15,0,0.223c-1.152,0.008-2.303,0.016-3.453,0.027
		c0.018-0.074,0.034-0.148,0.047-0.223C101.417,102.848,102.549,102.836,103.687,102.826 M95.232,94.875
		c3.128-0.025,6.159-0.049,9.351-0.074c0.015,1.799,0.028,3.428,0.042,5.158c-3.237,0.029-6.392,0.055-9.635,0.078
		C95.072,98.275,95.151,96.615,95.232,94.875 M92.663,103.305c0.736-0.457,0.736-0.457,1.874-0.16
		C93.958,103.193,93.382,103.244,92.663,103.305 M81.18,100.34c-0.016-1.875-0.03-3.664-0.047-5.574
		c3.923,0.109,7.71-0.205,11.525,0.131c0.354,1.758,0.245,3.412-0.046,5.232C88.831,100.32,85.062,100.188,81.18,100.34
		 M90.976,130.076c-0.407,0.002-0.818,0.006-1.221,0.008c-0.015-0.021-0.025-0.043-0.035-0.062c0.418-0.002,0.836-0.006,1.256-0.01
		C90.976,130.031,90.976,130.053,90.976,130.076 M86.724,130.393c-0.01-0.047-0.023-0.088-0.037-0.135
		c0.219-0.074,0.434-0.152,0.648-0.227c0.02,0.074,0.037,0.146,0.053,0.213C87.165,130.293,86.945,130.342,86.724,130.393
		 M84.009,119.01c0-0.053-0.002-0.107-0.002-0.16c0.789-0.008,1.574-0.014,2.365-0.021c0.004,0.057,0.013,0.109,0.021,0.16
		C85.599,118.994,84.804,119,84.009,119.01 M78.745,100.252c-2.513,0.291-5.028-0.074-7.667,0.033
		c0.111-1.777,0.216-3.518,0.335-5.434c2.506-0.02,4.841-0.037,7.289-0.059C78.716,96.604,78.73,98.361,78.745,100.252
		 M59.672,126.748c-0.134-0.002-0.269-0.15-0.403-0.232c0.022-0.074,0.046-0.152,0.072-0.23c5.938-0.047,11.879-0.094,17.82-0.143
		c0,0.094,0,0.184,0.004,0.279C71.339,126.715,65.507,126.789,59.672,126.748 M60.331,116.969c0,0.047-0.002,0.086-0.002,0.131
		c-0.376,0.004-0.75,0.004-1.123,0.006c0-0.039-0.002-0.082-0.002-0.129C59.581,116.975,59.955,116.973,60.331,116.969
		 M57.326,115.014c-0.008,0.008-0.016,0.01-0.025,0.018c-0.007-0.01-0.016-0.01-0.022-0.018c-0.583,0.006-1.164,0.008-1.742,0.014
		c0.582-0.215,1.168-0.629,1.742-0.014c0.007,0,0.014,0,0.021,0C57.308,115.014,57.318,115.014,57.326,115.014
		c0.599-0.609,1.292-0.393,1.972-0.312c0.009,0.1,0.018,0.193,0.028,0.293C58.657,115,57.993,115.006,57.326,115.014
		 M47.546,100.629c-0.015-1.729-0.029-3.385-0.042-5.197c2.938-0.023,5.886-0.047,9.082-0.074c0.014,1.75,0.028,3.459,0.042,5.199
		C53.652,100.582,50.655,100.605,47.546,100.629 M47.583,87.447c0.254,0.088,0.508,0.174,0.943,0.322
		c-0.616,0.318-1.066,0.551-1.729,0.895C47.119,88.166,47.336,87.832,47.583,87.447 M46.256,85.32
		c-1.593,0.014-3.125,0.027-4.794,0.043c-0.781-1.094-0.695-2.449-0.556-3.969c1.763-0.09,3.488-0.184,5.318-0.275
		C46.235,82.529,46.246,83.807,46.256,85.32 M45.859,124.234c-2.128,0.051-4.257,0.066-6.387,0.08c-0.142,0-0.283-0.129-0.42-0.322
		c2.41-0.32,4.812-0.482,7.222-0.502c0.055,0.105,0.111,0.215,0.167,0.322C46.247,123.959,46.055,124.227,45.859,124.234
		 M43.21,126.061c-1.326,0.131-2.653,0.248-3.979,0.354c-0.601,0.043-0.602,0.029-1.042-0.719c2.085-0.02,4.13-0.037,6.18-0.053
		c0.022,0.066,0.044,0.129,0.065,0.199C44.028,125.918,43.621,126.023,43.21,126.061 M40.378,130.547
		c-0.381,0.002-0.764,0.006-1.146,0.008c0.001-0.041,0.001-0.078,0.001-0.119c0.381-0.002,0.764-0.004,1.146-0.008
		C40.379,130.469,40.379,130.506,40.378,130.547 M43.398,90c0.351-0.004,0.701-0.006,1.054-0.008
		c0.007,0.055,0.009,0.109,0.015,0.162c-0.344,0.037-0.687,0.074-1.03,0.111C43.427,90.176,43.411,90.088,43.398,90 M37.167,95.693
		c2.684-0.021,5.273-0.041,7.978-0.064c0.013,1.725,0.027,3.383,0.042,5.199c-2.672,0.166-5.271,0.326-7.973,0.492
		C37.199,99.395,37.184,97.609,37.167,95.693 M33.15,85.887c-0.617-1.348-0.741-2.684-0.537-4.211
		c1.85-0.016,3.639-0.029,5.522-0.045c0.102,1.225,0.208,2.504,0.325,3.951C36.745,86.027,34.949,85.795,33.15,85.887
		 M33.147,90.914c0.228,0,0.457-0.002,0.685-0.004c0,0.031,0.003,0.062,0.006,0.094c-0.215,0.014-0.426,0.027-0.64,0.039
		C33.183,91.002,33.163,90.959,33.147,90.914 M34.863,101.365c-2.205,0.125-4.326,0.252-6.535,0.381
		c-0.46-1.895-0.654-3.746-0.442-5.752c2.314-0.105,4.529-0.207,6.877-0.312C35.166,97.656,35.061,99.439,34.863,101.365
		 M22.928,109.162c1.678-0.582,5.113-0.928,5.911-0.654C28.077,108.941,24.29,109.408,22.928,109.162 M26.856,128.533
		c-0.11-0.189-0.181-0.301-0.234-0.418c-0.229-0.502-0.455-1.012-0.738-1.639c0.328-0.053,0.586-0.096,0.983-0.156
		C26.632,127.1,27.591,127.689,26.856,128.533 M20.163,96.373c1.87-0.102,3.595-0.193,5.45-0.295
		c0.017,1.896,0.031,3.609,0.044,5.391c-1.773,0.121-3.482,0.236-5.299,0.357C19.751,100.09,20.441,98.291,20.163,96.373
		 M18.615,86.486c-0.011-1.227-0.02-2.338-0.028-3.523c1.119-0.502,2.329-0.33,3.593-0.496c0.499,1.236,0.045,2.414,0.165,3.736
		C21.067,86.299,19.934,86.385,18.615,86.486 M24.847,82.066c1.706-0.141,3.319-0.275,5.005-0.412
		c0.125,1.523,0.234,2.875,0.36,4.379c-1.78,0.016-3.482,0.029-5.334,0.043C24.869,84.824,24.859,83.521,24.847,82.066
		 M27.493,72.412c0.168,1.154,0.101,2.24,0.011,3.451c-0.695,0.065-1.36,0.128-2.161,0.203c-0.107-1.158-0.206-2.245-0.32-3.483
		C25.859,72.525,26.601,72.473,27.493,72.412 M29.822,72.088c1.36-0.01,2.542-0.021,3.879-0.029c0.01,1.33,0.019,2.482,0.03,3.684
		c-1.341,0.139-2.643,0.257-4.104,0.065C29.695,74.532,29.755,73.353,29.822,72.088 M36.659,71.77
		c0.89-0.004,1.783-0.013,2.851-0.021c0.011,1.378,0.021,2.575,0.032,3.889c-1.152,0.01-2.292,0.02-3.604,0.03
		c-0.029-1.02-0.085-2.041-0.068-3.061C35.877,72.153,36.104,71.775,36.659,71.77 M41.812,71.538
		c1.081-0.009,2.095-0.018,3.179-0.026c0.097,1.354,0.194,2.714,0.296,4.138c-1.113,0.326-2.204-0.095-3.443,0.022
		C41.835,74.266,41.824,72.958,41.812,71.538 M47.437,71.212c1.485-0.012,2.886-0.023,4.387-0.035
		c0.012,1.417,0.024,2.857,0.035,4.388c-1.372,0.013-2.725,0.023-4.131,0.033C47.209,74.188,47.146,72.769,47.437,71.212
		 M51.418,90.854c-0.352,0.582-0.553,0.92-0.833,1.381c-0.12-0.367-0.197-0.604-0.3-0.914
		C50.595,91.193,50.878,91.074,51.418,90.854 M52.383,90.949c-0.191,0.059-0.384,0.123-0.576,0.186
		c-0.022-0.072-0.042-0.146-0.065-0.221c0.194-0.051,0.389-0.104,0.585-0.158C52.345,90.82,52.364,90.885,52.383,90.949
		 M49.271,85.139c-0.561-1.336-0.328-2.619-0.156-4.012c2.191-0.016,4.358-0.033,6.505-0.053c0.503,1.406,0.709,3.023,0.487,4.01
		C53.874,85.1,51.617,85.119,49.271,85.139 M54.192,70.967c1.037-0.06,1.999-0.117,3.055-0.177c0.012,1.592,0.023,3.068,0.038,4.662
		c-1.035,0.058-1.955,0.107-3.056,0.166C54.216,74.06,54.206,72.624,54.192,70.967 M63.62,81.096
		c0.012,1.365,0.022,2.613,0.03,3.877c-1.14,0.283-3.545,0.258-4.545-0.07c-0.152-1.238-0.305-2.471-0.475-3.863
		C60.343,80.93,61.938,80.958,63.62,81.096 M59.659,70.515c1.012-0.09,1.965-0.176,3.007-0.271c0.226,1.709,0.418,3.193,0.636,4.833
		c-1.229,0.011-2.361,0.019-3.607,0.03C59.684,73.659,59.672,72.167,59.659,70.515 M61.139,114.859
		c-0.207,0.029-0.411,0.062-0.616,0.094c-0.011-0.064-0.021-0.125-0.031-0.191c0.204-0.033,0.413-0.066,0.616-0.102
		C61.117,114.727,61.129,114.793,61.139,114.859 M68.936,94.877c0.072,1.799,0.101,3.5-0.093,5.445
		c-3.307,0.027-6.466,0.051-9.739,0.078c-0.371-1.627-0.213-3.336-0.234-5.201C62.223,94.879,65.505,94.975,68.936,94.877
		 M65.185,70.125c1.33-0.077,2.643-0.151,4.188-0.238c0.013,1.646,0.024,3.095,0.038,4.697c-1.217,0.08-2.476,0.161-3.795,0.244
		C65.199,73.271,65.049,71.796,65.185,70.125 M77.733,73.975c-0.163-1.542-0.308-2.944-0.469-4.47
		c1.521-0.012,2.958-0.023,4.402-0.034c0.188,1.419,0.367,2.785,0.562,4.257C80.809,73.805,79.365,73.884,77.733,73.975
		 M71.817,74.428c-0.012-1.604-0.025-3.09-0.037-4.684c1.027-0.011,1.992-0.017,3.051-0.026c0.408,1.409,0.581,2.875,0.674,4.512
		C74.236,74.299,73.099,74.359,71.817,74.428 M68.087,87.439c-0.013,0.049-0.021,0.1-0.035,0.146
		c-0.304,0.004-0.608,0.006-0.914,0.008c0.003-0.07,0.006-0.139,0.008-0.211C67.461,87.402,67.771,87.418,68.087,87.439
		 M66.475,85.104c-0.086-1.271-0.168-2.498-0.262-3.877c2.34-0.023,4.488-0.347,6.777-0.131c0.011,1.316,0.021,2.516,0.032,3.846
		C70.966,85.15,68.816,85.42,66.475,85.104 M78.193,92.434c-0.211,0.023-0.42,0.045-0.634,0.07
		c-0.001-0.039-0.003-0.084-0.007-0.125c0.213,0,0.425-0.004,0.638-0.004C78.191,92.395,78.193,92.414,78.193,92.434 M75.884,84.992
		c-0.118-1.365-0.227-2.627-0.352-4.046c1.936-0.227,3.718-0.048,5.669-0.096c0.408,1.337,0.221,2.748,0.539,4.093
		C79.777,84.961,77.917,84.979,75.884,84.992 M84.187,69.573c1.576-0.165,3.082,0.089,4.647,0.28
		c0.097,1.201,0.188,2.317,0.292,3.609c-1.387,0.011-2.775,0.021-4.355,0.036C84.402,72.293,83.899,71.053,84.187,69.573
		 M89.407,80.588c0.238,1.645,0.466,3.209,0.725,4.994c-1.893-0.137-3.64-0.264-5.496-0.398c-0.22-1.385-0.43-2.729-0.668-4.22
		C85.881,80.831,87.62,80.712,89.407,80.588 M97.494,73.504c-0.074-1.096-0.149-2.263-0.237-3.552
		c1.282-0.133,2.401-0.248,3.546-0.369c0.177,1.37,0.331,2.554,0.504,3.889C100.017,73.483,98.843,73.492,97.494,73.504
		 M100.191,89.732c-0.868,0.01-1.734,0.016-2.794,0.025C98.298,89.277,98.956,89.275,100.191,89.732 M91.481,73.494
		c-0.092-1.165-0.184-2.337-0.285-3.624c1.379-0.011,2.477-0.019,3.687-0.028c0.084,1.245,0.162,2.392,0.251,3.684
		C93.919,73.679,92.788,73.643,91.481,73.494 M93.745,80.522c1.254-0.081,2.474-0.162,3.713-0.246
		c0.684,1.577,0.423,3.153,0.729,4.768c-1.444,0.014-2.747,0.023-4.047,0.031C93.636,83.6,93.507,82.129,93.745,80.522
		 M105.748,80.474c0.422,1.577,0.544,3.047,0.125,4.624c-1.586,0.285-3.151,0.023-4.694-0.004c-0.494-1.203-0.778-3.326-0.616-4.626
		C102.24,80.033,103.933,80.578,105.748,80.474 M111.098,68.33c0.165,1.628,0.328,3.201,0.496,4.835
		c-0.907,0.143-1.696,0.269-2.529,0.4c-0.724-1.57-0.734-3.206-0.846-4.903C109.147,68.251,110.084,68.175,111.098,68.33
		 M113.613,80.586c0.057,1.426,0.485,2.818,0.084,4.316c-1.18,0.131-2.348,0.264-3.583,0.4c-0.271-1.381-0.418-2.646-0.241-3.93
		c0.143-1.033,0.333-1.141,1.344-1.021C111.971,80.438,112.73,80.504,113.613,80.586 M123.755,122.152
		c-1.361,0.443-2.693,1.039-4.18,0.852c-0.018-0.092-0.036-0.18-0.055-0.273c1.385-0.307,2.774-0.617,4.163-0.924
		C123.704,121.92,123.729,122.035,123.755,122.152 M115.36,94.881c2.773-0.246,5.438,0.137,8.208,0.277
		c0.014,1.662,0.025,3.205,0.039,4.857c-2.828,0.021-5.482,0.045-8.206,0.064C115.388,98.34,115.374,96.67,115.36,94.881
		 M116.532,80.601c0.817-0.048,6.528-0.09,7.525-0.148c0.451,1.352-0.312,2.696,0.15,4.081c-1.298,0.582-6.168,0.27-7.642,0.391
		C116.556,83.393,116.542,82.074,116.532,80.601 M125.833,121.447c0.018,0.061,0.031,0.121,0.049,0.18
		c-0.297,0.09-0.59,0.182-0.887,0.273c-0.019-0.08-0.036-0.162-0.06-0.242C125.235,121.588,125.535,121.518,125.833,121.447
		 M103.524,131.879c7.934,0.021,15.867,0.027,23.801,0.059 M152.126,132.102c0.996-1.514-0.857-42.953-0.192-44.039
		c0.403-0.656,0.649-1.24,0.366-1.762c-0.329-0.584-0.223-1.021-0.923-0.977c-2.838,0.18-5.672,0.227-8.512,0.25
		c-1.518,0.01-3.038,0-4.558-0.018c0,0-7.314,0.051-11.048,0.092c-0.442,0.018-0.888,0.023-1.33,0.049
		c-0.258,0.016-0.518-0.006-0.777-0.014c-0.254-0.008,0.671-0.021,2.107-0.035c3.682-0.168,7.366-0.127,11.048-0.092
		c-0.84-2.314,0.964-6.602,0.057-8.894c-0.187-0.469-10.25-2.053-14.54-2.384c-0.777-0.058-4.177-0.271-4.958-0.269
		c-0.899,0-1.802,0.058-2.691,0.174c-1.147,0.15-1.812-0.228-2.081-1.36c-0.141-0.587-0.212-1.192-0.296-1.791
		c-0.205-1.5-0.404-2.999-0.606-4.499c-0.071-0.549-0.184-1.097-0.199-1.648c-0.025-0.918-0.614-1.534-1.541-1.504
		c-0.34,0.012-0.676,0.114-1.012,0.111c-1.021-0.003-2.043-0.076-3.063-0.047c-0.975,0.03-1.948,0.154-3.041,0.249
		c-0.066-0.469-67.066,2.838-80.42,4.148c-0.608,0.541-1.152,1.029-1.797,1.608c0.923,2.913,1.245,6.048,0.859,9.348
		c-0.502,0.058-0.921,0.135-1.342,0.146c-1.461,0.042-2.921,0.053-4.381,0.102c-0.318,0.01-0.679,0.072-0.94,0.237
		c-0.358,0.232-0.642,0.58-0.863,0.789c-0.178,2.229-0.349,4.362-0.519,6.47c-1.774,0.016-3.487,0.027-5.34,0.043
		c-0.245,0.287-0.465,0.611-0.746,0.873c-0.453,0.426-0.453,0.854-0.432,1.479c0.029,0.834-0.439,40.828,0.049,42.299
		c0.433,1.307,18.031,0.959,19.363,0.803"/>
</g>
<rect x="8.463" y="61.589" width="143.835" height="69.651"/>
<path fill="#FFFFFF" d="M25.135,70.323c4.402,0,8.828,1.887,8.828,8.059c0,6.196-4.425,8.269-8.828,8.269h-5.101V70.323H25.135z
	 M22.806,84.135h1.817c3.47,0,6.498-1.143,6.498-5.753c0-4.449-3.028-5.544-6.521-5.544h-1.794V84.135z M39.04,82.783v1.514h5.707
	v2.354h-8.315v-7.269c0-2.793,1.979-4.424,4.332-4.424c2.447,0,4.333,1.746,4.333,4.1c0,2.353-1.98,4.073-4.333,4.073
	C40.087,83.131,39.529,83.016,39.04,82.783z M42.51,79.058c0-0.885-0.698-1.678-1.747-1.678c-1.047,0-1.746,0.792-1.746,1.678
	c0,0.885,0.698,1.653,1.746,1.653C41.812,80.71,42.51,79.942,42.51,79.058z M60.631,70.323c3.307,0,5.614,1.351,5.614,4.333
	c0,1.258-0.513,2.539-1.841,3.493c1.584,0.978,2.235,2.399,2.235,3.863c0,2.869-2.212,4.639-5.612,4.639H53.83V70.323H60.631z
	 M56.602,77.054h3.47c1.887,0,3.354-0.465,3.354-2.143c0-1.723-1.561-2.073-3.495-2.073h-3.33V77.054z M63.845,81.758
	c0-1.677-1.583-2.166-3.516-2.166h-3.727v4.543h3.633C62.284,84.135,63.845,83.6,63.845,81.758z M78.751,75.236V86.65h-5.217
	c-2.539,0-4.146-1.445-4.146-3.635c0-2.189,1.723-3.634,4.146-3.634h2.609v-1.814h-5.753v-2.331H78.751z M76.143,81.666h-2.655
	c-1.025,0-1.7,0.418-1.7,1.35s0.675,1.352,1.7,1.352h2.655V81.666z M91.142,75.236V86.65h-5.217c-2.539,0-4.147-1.445-4.147-3.635
	c0-2.189,1.724-3.634,4.147-3.634h2.608v-1.814h-5.754v-2.331H91.142z M88.533,81.666h-2.654c-1.024,0-1.703,0.418-1.703,1.35
	s0.679,1.352,1.703,1.352h2.654V81.666z M94.146,78.358c0-2.119,1.771-3.4,4.17-3.4c1.934,0,3.261,0.814,4.309,1.908l-1.699,1.818
	c-0.512-0.7-1.396-1.445-2.679-1.445c-0.978,0-1.562,0.49-1.562,1.072c0,0.56,0.49,0.908,1.119,1.07l1.793,0.422
	c2.049,0.464,3.494,1.56,3.494,3.563c0,1.977-1.538,3.539-4.518,3.539c-2.377,0-3.845-1.096-4.73-2.213l1.678-1.725
	c0.838,1.096,1.91,1.652,3.262,1.652c1.349,0,1.747-0.604,1.747-1.162c0-0.49-0.306-0.814-1.399-1.117l-1.514-0.373
	C95.475,81.479,94.146,80.339,94.146,78.358z M119.044,70.066c4.684,0,8.314,3.656,8.314,8.409c0,4.797-3.631,8.432-8.314,8.432
	c-4.682,0-8.245-3.635-8.245-8.432C110.799,73.722,114.362,70.066,119.044,70.066z M119.138,84.367c3.144,0,5.429-2.537,5.429-5.893
	c0-3.284-2.285-5.848-5.429-5.848c-3.215,0-5.497,2.564-5.497,5.848C113.641,81.83,115.923,84.367,119.138,84.367z M135.885,86.906
	c-1.491,0-2.538-0.559-3.191-1.096v5.357h-2.655V75.236h2.606v1.025c0.702-0.745,1.631-1.304,3.24-1.304
	c3.285,0,5.567,2.562,5.567,5.984C141.452,84.367,139.17,86.906,135.885,86.906z M135.696,84.578c2.025,0,3.054-1.701,3.054-3.613
	c0-1.908-1.028-3.609-3.054-3.609c-2.049,0-3.052,1.701-3.052,3.609C132.645,82.877,133.647,84.578,135.696,84.578z"/>
<path fill="#FFFFFF" d="M24.873,93.775V118.9h-4.265V93.775H24.873z M30.067,118.9v-17.564h4.015v1.436
	c0.896-1.004,2.509-1.865,4.552-1.865c4.301,0,6.953,2.795,6.953,7.777V118.9H41.5v-10.217c0-2.436-1.218-4.084-3.476-4.084
	c-2.544,0-3.871,1.826-3.871,4.586v9.715H30.067z M51.209,104.992h-2.975v-3.656h2.975v-4.908h4.05v4.908h4.623v3.656h-4.623v10.035
	h4.407v3.873h-8.457V104.992z M67.657,112.949v2.33h8.781v3.621H63.643v-11.184c0-4.303,3.047-6.811,6.667-6.811
	c3.764,0,6.666,2.689,6.666,6.309c0,3.621-3.046,6.27-6.666,6.27C69.27,113.484,68.41,113.307,67.657,112.949z M72.997,107.215
	c0-1.361-1.074-2.58-2.688-2.58c-1.613,0-2.689,1.219-2.689,2.58s1.076,2.545,2.689,2.545
	C71.923,109.76,72.997,108.576,72.997,107.215z M81.021,118.9v-17.564h9.749v3.873h-5.663V118.9H81.021z M94.315,118.9v-17.564
	h4.014v1.436c0.897-1.004,2.51-1.865,4.552-1.865c4.301,0,6.953,2.795,6.953,7.777V118.9h-4.086v-10.217
	c0-2.436-1.217-4.084-3.476-4.084c-2.545,0-3.872,1.826-3.872,4.586v9.715H94.315z M118.037,112.949v2.33h8.78v3.621h-12.795
	v-11.184c0-4.303,3.046-6.811,6.667-6.811c3.764,0,6.665,2.689,6.665,6.309c0,3.621-3.047,6.27-6.665,6.27
	C119.65,113.484,118.788,113.307,118.037,112.949z M123.377,107.215c0-1.361-1.074-2.58-2.688-2.58s-2.688,1.219-2.688,2.58
	s1.074,2.545,2.688,2.545S123.377,108.576,123.377,107.215z M132.765,104.992h-2.976v-3.656h2.976v-4.908h4.048v4.908h4.626v3.656
	h-4.626v10.035h4.41v3.873h-8.458V104.992z"/>
</svg>
