<?xml version="1.0" encoding="utf-8"?>
<!-- Generator: Adobe Illustrator 16.0.4, SVG Export Plug-In . SVG Version: 6.00 Build 0)  -->
<!DOCTYPE svg PUBLIC "-//W3C//DTD SVG 1.1//EN" "http://www.w3.org/Graphics/SVG/1.1/DTD/svg11.dtd">
<svg version="1.1" id="Layer_1" xmlns="http://www.w3.org/2000/svg" xmlns:xlink="http://www.w3.org/1999/xlink" x="0px" y="0px"
	 width="160px" height="160px" viewBox="0 0 160 160" enable-background="new 0 0 160 160" xml:space="preserve">
<g>
	<path fill="#32383D" d="M44.337,72.262c-1.72,0-3.119-1.423-3.119-3.175s1.399-3.179,3.119-3.179s3.119,1.427,3.119,3.179
		S46.057,72.262,44.337,72.262 M44.337,63.921c-2.741,0-4.975,2.228-5.062,4.997c-4.846,1.935-8.279,6.541-8.776,11.822
		c-0.059,0.627,0.391,1.178,1.004,1.238c0.035,0.006,0.072,0.006,0.106,0.006c0.568,0,1.055-0.439,1.11-1.026
		c0.407-4.295,3.127-8.058,6.995-9.764c0.795,1.8,2.565,3.058,4.624,3.058c2.796,0,5.072-2.318,5.072-5.165
		C49.409,66.236,47.134,63.921,44.337,63.921"/>
	<path fill="#32383D" d="M33.322,91.897c-1.103,0-2.134-0.601-2.693-1.564c-0.422-0.729-0.541-1.588-0.331-2.409
		c0.208-0.82,0.719-1.51,1.438-1.941c0.479-0.287,1.024-0.441,1.577-0.441c1.102,0,2.134,0.602,2.692,1.568
		c0.872,1.51,0.377,3.46-1.105,4.349C34.419,91.747,33.873,91.897,33.322,91.897 M50.738,93.444
		c-0.26-0.569-0.923-0.816-1.481-0.549c-3.84,1.822-8.402,1.346-11.808-1.189c1.118-1.606,1.283-3.802,0.239-5.604
		c-0.907-1.571-2.584-2.549-4.375-2.549c-0.899,0-1.789,0.25-2.568,0.717c-1.167,0.696-1.997,1.822-2.337,3.155
		c-0.339,1.338-0.148,2.727,0.54,3.917c0.907,1.569,2.583,2.545,4.375,2.545c0.847,0,1.682-0.219,2.427-0.639
		c2.485,1.987,5.538,3.02,8.61,3.02c1.988,0,3.985-0.432,5.84-1.313C50.759,94.688,50.999,94.013,50.738,93.444"/>
	<path fill="#32383D" d="M58.069,90.295c-0.557,0.969-1.59,1.57-2.697,1.57c-0.55,0-1.093-0.148-1.571-0.434
		c-0.72-0.429-1.232-1.119-1.443-1.939c-0.21-0.818-0.095-1.675,0.325-2.408c0.558-0.969,1.59-1.574,2.696-1.574
		c0.55,0,1.093,0.151,1.571,0.435C58.436,86.829,58.936,88.781,58.069,90.295 M58.073,84.321c0.81-5.235-1.361-10.581-5.586-13.688
		c-0.5-0.366-1.196-0.251-1.557,0.257c-0.361,0.511-0.249,1.222,0.252,1.586c3.435,2.527,5.249,6.816,4.739,11.08
		c-0.18-0.021-0.36-0.034-0.542-0.034c-1.796,0-3.475,0.98-4.381,2.56c-0.685,1.189-0.872,2.582-0.528,3.913
		c0.342,1.337,1.175,2.456,2.345,3.152c0.775,0.462,1.66,0.706,2.556,0.706c1.796,0,3.476-0.979,4.381-2.557
		C61.138,88.886,60.377,85.797,58.073,84.321"/>
	<path fill="#32383D" d="M82.008,74.123l3.63-7.157c0.071-0.146,0.17-0.282,0.296-0.403c0.125-0.121,0.291-0.184,0.493-0.184h0.683
		c0.132,0,0.246,0.051,0.342,0.148c0.096,0.097,0.143,0.214,0.143,0.35v11.82c0,0.135-0.047,0.251-0.143,0.349
		c-0.096,0.097-0.21,0.146-0.342,0.146h-0.736c-0.131,0-0.246-0.05-0.342-0.146c-0.096-0.098-0.143-0.214-0.143-0.349v-8.675
		l-2.803,5.51c-0.098,0.183-0.198,0.325-0.307,0.431c-0.107,0.104-0.252,0.154-0.431,0.154h-0.683c-0.18,0-0.324-0.051-0.432-0.154
		c-0.107-0.105-0.209-0.248-0.305-0.431l-2.804-5.51v8.675c0,0.135-0.048,0.251-0.143,0.349c-0.096,0.097-0.209,0.146-0.342,0.146
		h-0.735c-0.132,0-0.246-0.05-0.341-0.146c-0.097-0.098-0.145-0.214-0.145-0.349v-11.82c0-0.136,0.048-0.253,0.145-0.35
		c0.096-0.098,0.209-0.148,0.341-0.148h0.682c0.205,0,0.368,0.062,0.495,0.184c0.125,0.121,0.223,0.258,0.295,0.403L82.008,74.123z"
		/>
	<path fill="#32383D" d="M93.128,77.803c0.433,0,0.829-0.069,1.188-0.204s0.669-0.318,0.925-0.558
		c0.258-0.236,0.455-0.522,0.594-0.85c0.137-0.331,0.207-0.696,0.207-1.099v-0.456l-2.121,0.346
		c-0.755,0.123-1.354,0.317-1.795,0.585c-0.445,0.268-0.667,0.617-0.667,1.043c0,0.137,0.03,0.269,0.09,0.403
		s0.155,0.264,0.287,0.386c0.133,0.12,0.304,0.219,0.514,0.293C92.557,77.764,92.816,77.803,93.128,77.803 M89.822,76.794
		c0-0.488,0.098-0.913,0.287-1.278c0.193-0.369,0.457-0.679,0.792-0.935c0.335-0.257,0.728-0.464,1.177-0.624
		c0.449-0.158,0.926-0.279,1.429-0.364l2.534-0.421v-0.238c0-0.623-0.201-1.092-0.602-1.4c-0.402-0.313-0.902-0.466-1.502-0.466
		c-0.526,0-0.925,0.095-1.195,0.293c-0.269,0.194-0.499,0.427-0.693,0.693c-0.07,0.098-0.147,0.165-0.231,0.202
		c-0.083,0.038-0.198,0.055-0.341,0.055h-0.541c-0.131,0-0.248-0.049-0.348-0.146c-0.104-0.099-0.146-0.213-0.137-0.348
		c0.025-0.266,0.129-0.545,0.316-0.824c0.185-0.281,0.437-0.53,0.752-0.75c0.318-0.22,0.684-0.398,1.098-0.541
		c0.412-0.14,0.853-0.209,1.32-0.209c0.539,0,1.039,0.08,1.502,0.239c0.459,0.158,0.855,0.389,1.186,0.696
		c0.328,0.305,0.586,0.679,0.772,1.133c0.184,0.45,0.28,0.97,0.28,1.558v5.579c0,0.135-0.05,0.251-0.146,0.349
		c-0.096,0.099-0.211,0.146-0.342,0.146h-0.663c-0.133,0-0.247-0.048-0.342-0.146c-0.096-0.098-0.144-0.214-0.144-0.349v-0.749
		c-0.109,0.231-0.277,0.437-0.504,0.611c-0.227,0.18-0.488,0.327-0.781,0.447c-0.293,0.124-0.6,0.216-0.917,0.278
		c-0.317,0.061-0.614,0.091-0.888,0.091c-0.47,0-0.898-0.069-1.286-0.203c-0.39-0.132-0.72-0.312-0.987-0.539
		c-0.271-0.226-0.48-0.497-0.629-0.814C89.898,77.5,89.822,77.161,89.822,76.794"/>
	<path fill="#32383D" d="M101.934,75.167v3.53c0,0.135-0.049,0.251-0.143,0.349c-0.096,0.097-0.211,0.146-0.342,0.146h-0.666
		c-0.131,0-0.244-0.05-0.34-0.146c-0.098-0.098-0.145-0.214-0.145-0.349V66.691c0-0.135,0.047-0.25,0.145-0.346
		c0.096-0.099,0.209-0.148,0.34-0.148h0.666c0.131,0,0.246,0.05,0.342,0.148c0.094,0.096,0.143,0.211,0.143,0.346v6.058l3.504-2.762
		c0.072-0.061,0.164-0.128,0.278-0.202c0.114-0.073,0.255-0.111,0.423-0.111h0.896c0.122,0,0.223,0.044,0.309,0.129
		c0.082,0.084,0.123,0.189,0.123,0.31c0,0.063-0.008,0.122-0.027,0.178c-0.017,0.055-0.073,0.117-0.169,0.191l-4.331,3.44
		l4.78,4.482c0.071,0.074,0.118,0.137,0.146,0.184c0.023,0.049,0.034,0.104,0.034,0.166c0,0.119-0.042,0.224-0.125,0.312
		c-0.084,0.084-0.185,0.126-0.308,0.126h-0.844c-0.179,0-0.332-0.037-0.457-0.111c-0.127-0.071-0.221-0.14-0.278-0.2L101.934,75.167
		z"/>
	<path fill="#32383D" d="M111.115,78.697c0,0.135-0.048,0.251-0.143,0.349c-0.098,0.097-0.211,0.146-0.342,0.146h-0.666
		c-0.131,0-0.245-0.05-0.342-0.146c-0.096-0.098-0.143-0.214-0.143-0.349v-8.528c0-0.133,0.047-0.251,0.143-0.347
		c0.097-0.099,0.211-0.146,0.342-0.146h0.666c0.131,0,0.244,0.048,0.342,0.146c0.095,0.096,0.143,0.214,0.143,0.347V78.697z
		 M111.295,67.735c0,0.135-0.049,0.249-0.145,0.346c-0.096,0.1-0.209,0.149-0.34,0.149h-1.024c-0.132,0-0.245-0.05-0.341-0.149
		c-0.098-0.097-0.146-0.211-0.146-0.346v-1.044c0-0.135,0.049-0.25,0.146-0.349c0.096-0.096,0.209-0.146,0.341-0.146h1.024
		c0.131,0,0.244,0.05,0.34,0.146c0.096,0.099,0.145,0.214,0.145,0.349V67.735z"/>
	<path fill="#32383D" d="M122.111,78.697c0,0.135-0.048,0.251-0.143,0.349c-0.098,0.097-0.21,0.146-0.342,0.146h-0.666
		c-0.132,0-0.246-0.05-0.341-0.146c-0.096-0.098-0.144-0.214-0.144-0.349v-4.832c0-0.941-0.223-1.64-0.665-2.104
		c-0.443-0.465-1.06-0.694-1.852-0.694c-0.755,0-1.362,0.229-1.822,0.694c-0.462,0.464-0.692,1.162-0.692,2.104v4.832
		c0,0.135-0.046,0.251-0.145,0.349c-0.096,0.097-0.209,0.146-0.34,0.146h-0.666c-0.132,0-0.244-0.05-0.341-0.146
		c-0.096-0.098-0.143-0.214-0.143-0.349v-8.528c0-0.133,0.047-0.251,0.143-0.347c0.097-0.099,0.209-0.146,0.341-0.146h0.666
		c0.131,0,0.244,0.048,0.34,0.146c0.099,0.096,0.145,0.214,0.145,0.347v0.567c0.229-0.304,0.566-0.588,1.016-0.852
		c0.447-0.26,1.039-0.393,1.771-0.393c0.561,0,1.082,0.095,1.562,0.283c0.479,0.189,0.89,0.459,1.229,0.805
		c0.342,0.349,0.609,0.78,0.8,1.291c0.191,0.514,0.288,1.087,0.288,1.722V78.697z"/>
	<path fill="#32383D" d="M131.133,73.773c-0.037-0.864-0.293-1.533-0.764-2.002c-0.475-0.469-1.088-0.704-1.843-0.704
		c-0.789,0-1.413,0.255-1.868,0.769c-0.455,0.513-0.707,1.208-0.756,2.086c-0.013,0.342-0.013,0.681,0,1.025
		c0.049,0.878,0.301,1.571,0.756,2.086c0.455,0.514,1.079,0.77,1.868,0.77c0.755,0,1.368-0.239,1.843-0.714
		c0.471-0.475,0.727-1.143,0.764-1.996c0.01-0.182,0.018-0.403,0.018-0.659S131.143,73.957,131.133,73.773 M124.267,73.829
		c0.037-0.671,0.163-1.274,0.378-1.812c0.218-0.536,0.504-0.988,0.864-1.362c0.359-0.371,0.782-0.658,1.267-0.858
		c0.486-0.201,1.01-0.304,1.571-0.304c0.743,0,1.335,0.131,1.778,0.393c0.443,0.264,0.779,0.548,1.008,0.852v-0.564
		c0-0.138,0.047-0.254,0.143-0.35c0.096-0.099,0.209-0.148,0.342-0.148h0.664c0.133,0,0.244,0.05,0.342,0.148
		c0.096,0.096,0.145,0.212,0.145,0.35v8.892c0,1.269-0.354,2.278-1.061,3.028c-0.707,0.754-1.768,1.127-3.181,1.127
		c-0.718,0-1.333-0.088-1.841-0.265c-0.51-0.175-0.929-0.396-1.26-0.663c-0.327-0.267-0.573-0.56-0.733-0.874
		c-0.162-0.316-0.251-0.619-0.263-0.91c-0.012-0.135,0.034-0.247,0.135-0.346c0.101-0.096,0.219-0.146,0.352-0.146h0.539
		c0.13,0,0.241,0.033,0.332,0.099c0.09,0.069,0.176,0.198,0.261,0.391c0.034,0.069,0.091,0.172,0.171,0.3
		c0.077,0.126,0.203,0.252,0.377,0.377c0.174,0.127,0.4,0.237,0.684,0.328c0.28,0.092,0.637,0.137,1.067,0.137
		c0.396,0,0.763-0.041,1.104-0.119c0.342-0.082,0.639-0.213,0.891-0.395c0.252-0.184,0.446-0.428,0.584-0.733
		c0.137-0.304,0.207-0.674,0.207-1.117v-1.15c-0.24,0.327-0.58,0.618-1.023,0.868c-0.444,0.25-1.031,0.376-1.763,0.376
		c-0.562,0-1.085-0.101-1.571-0.303c-0.484-0.203-0.907-0.488-1.267-0.858c-0.36-0.373-0.646-0.828-0.864-1.365
		c-0.215-0.538-0.341-1.14-0.378-1.812c-0.01-0.182-0.017-0.385-0.017-0.604C124.25,74.213,124.257,74.013,124.267,73.829"/>
	<path fill="#32383D" d="M80.283,80.81c0.73,0,1.374,0.115,1.931,0.349c0.558,0.231,1.028,0.517,1.419,0.852
		c0.39,0.335,0.687,0.694,0.891,1.078c0.203,0.385,0.311,0.73,0.323,1.035c0.01,0.111-0.024,0.205-0.109,0.283
		c-0.083,0.08-0.179,0.119-0.286,0.119h-0.736c-0.133,0-0.238-0.025-0.316-0.072c-0.076-0.049-0.158-0.16-0.24-0.33
		c-0.062-0.122-0.16-0.277-0.297-0.466c-0.139-0.189-0.324-0.373-0.558-0.549c-0.234-0.176-0.519-0.329-0.853-0.459
		c-0.336-0.126-0.726-0.189-1.168-0.189c-0.336,0-0.655,0.039-0.962,0.117c-0.305,0.077-0.578,0.198-0.817,0.357
		c-0.24,0.157-0.432,0.358-0.574,0.595c-0.146,0.238-0.217,0.515-0.217,0.831c0,0.318,0.07,0.588,0.207,0.807
		c0.138,0.22,0.359,0.418,0.665,0.594c0.305,0.179,0.692,0.341,1.159,0.485c0.468,0.146,1.036,0.311,1.708,0.495
		c0.682,0.184,1.26,0.384,1.732,0.604c0.473,0.219,0.859,0.466,1.159,0.741c0.3,0.274,0.518,0.59,0.655,0.95
		c0.138,0.359,0.209,0.766,0.209,1.219c0,0.547-0.119,1.052-0.352,1.509c-0.234,0.457-0.561,0.849-0.979,1.181
		c-0.42,0.328-0.925,0.587-1.519,0.768c-0.593,0.184-1.256,0.274-1.985,0.274c-0.695,0-1.336-0.101-1.924-0.31
		c-0.586-0.208-1.089-0.479-1.508-0.807c-0.42-0.327-0.752-0.695-0.997-1.096c-0.247-0.404-0.375-0.8-0.387-1.193
		c0-0.109,0.038-0.202,0.117-0.282c0.077-0.079,0.169-0.118,0.278-0.118h0.736c0.12,0,0.226,0.024,0.315,0.074
		c0.089,0.046,0.17,0.157,0.242,0.326c0.072,0.175,0.183,0.357,0.333,0.562c0.149,0.2,0.351,0.388,0.602,0.567
		c0.252,0.177,0.557,0.324,0.916,0.448c0.36,0.12,0.784,0.181,1.276,0.181c0.418,0,0.817-0.049,1.196-0.145
		c0.377-0.1,0.709-0.24,0.996-0.42c0.287-0.185,0.514-0.404,0.683-0.659c0.168-0.259,0.253-0.544,0.253-0.86
		c0-0.317-0.099-0.591-0.289-0.815c-0.191-0.226-0.467-0.432-0.826-0.614c-0.359-0.182-0.8-0.35-1.32-0.501
		c-0.522-0.153-1.11-0.315-1.771-0.489c-0.598-0.155-1.107-0.348-1.526-0.573c-0.42-0.225-0.762-0.485-1.025-0.78
		c-0.263-0.29-0.452-0.614-0.564-0.971c-0.115-0.35-0.172-0.736-0.172-1.151c0-0.452,0.09-0.89,0.27-1.314
		c0.18-0.429,0.445-0.808,0.8-1.138c0.353-0.328,0.796-0.594,1.33-0.794C78.938,80.91,79.563,80.81,80.283,80.81"/>
	<path fill="#32383D" d="M88.494,88.186h5.05v-0.055c0-0.744-0.231-1.339-0.692-1.783c-0.461-0.447-1.076-0.67-1.842-0.67
		c-0.348,0-0.67,0.058-0.971,0.174c-0.299,0.118-0.562,0.282-0.791,0.496c-0.229,0.212-0.406,0.473-0.539,0.777
		c-0.132,0.305-0.203,0.64-0.215,1.006V88.186z M86.895,88.131c0.048-0.559,0.18-1.085,0.395-1.574
		c0.217-0.486,0.498-0.914,0.846-1.281c0.348-0.365,0.764-0.651,1.248-0.86c0.484-0.206,1.028-0.311,1.627-0.311
		c0.646,0,1.225,0.108,1.732,0.321c0.51,0.215,0.945,0.522,1.303,0.923c0.359,0.404,0.635,0.893,0.828,1.467
		c0.192,0.571,0.286,1.214,0.286,1.919v0.494c0,0.135-0.047,0.25-0.143,0.35c-0.097,0.097-0.209,0.146-0.342,0.146h-6.181v0.108
		c0.023,0.83,0.271,1.468,0.746,1.915c0.471,0.444,1.062,0.667,1.77,0.667c0.657,0,1.154-0.093,1.481-0.285
		c0.329-0.187,0.597-0.398,0.8-0.63c0.096-0.098,0.18-0.164,0.253-0.202c0.071-0.037,0.179-0.055,0.323-0.055h0.537
		c0.133,0,0.252,0.051,0.361,0.148c0.107,0.096,0.147,0.211,0.125,0.346c-0.036,0.219-0.139,0.462-0.307,0.725
		c-0.167,0.262-0.41,0.506-0.729,0.729c-0.314,0.227-0.711,0.419-1.184,0.568c-0.474,0.152-1.028,0.229-1.662,0.229
		c-0.599,0-1.139-0.106-1.617-0.317c-0.479-0.214-0.896-0.509-1.25-0.88c-0.354-0.373-0.637-0.812-0.854-1.318
		c-0.215-0.507-0.347-1.059-0.395-1.655C86.834,89.254,86.834,88.693,86.895,88.131"/>
	<path fill="#32383D" d="M105.635,93.31c0,0.137-0.047,0.251-0.143,0.35c-0.096,0.098-0.209,0.147-0.342,0.147h-0.666
		c-0.131,0-0.244-0.05-0.342-0.147c-0.096-0.099-0.143-0.213-0.143-0.35v-4.83c0-0.94-0.222-1.642-0.664-2.106
		c-0.443-0.463-1.061-0.695-1.852-0.695c-0.756,0-1.362,0.232-1.824,0.695c-0.459,0.465-0.689,1.166-0.689,2.106v4.83
		c0,0.137-0.049,0.251-0.146,0.35c-0.097,0.098-0.209,0.147-0.341,0.147h-0.666c-0.131,0-0.244-0.05-0.34-0.147
		c-0.097-0.099-0.144-0.213-0.144-0.35v-8.526c0-0.135,0.047-0.253,0.144-0.349c0.096-0.099,0.209-0.146,0.34-0.146h0.666
		c0.132,0,0.244,0.047,0.341,0.146c0.097,0.096,0.146,0.214,0.146,0.349v0.565c0.227-0.305,0.564-0.588,1.014-0.851
		c0.449-0.261,1.04-0.394,1.771-0.394c0.562,0,1.084,0.097,1.563,0.283c0.479,0.189,0.889,0.46,1.229,0.808
		c0.342,0.346,0.608,0.776,0.799,1.287c0.192,0.515,0.288,1.09,0.288,1.723V93.31z"/>
	<path fill="#32383D" d="M113.559,91.17c0-0.233-0.062-0.423-0.188-0.575c-0.126-0.152-0.314-0.286-0.568-0.395
		c-0.25-0.109-0.57-0.213-0.959-0.312c-0.389-0.098-0.841-0.201-1.355-0.311c-0.973-0.21-1.652-0.552-2.041-1.035
		c-0.389-0.481-0.584-1.047-0.584-1.691c0-0.369,0.07-0.715,0.215-1.045c0.145-0.329,0.36-0.622,0.647-0.879
		c0.288-0.254,0.649-0.457,1.087-0.602c0.438-0.147,0.951-0.222,1.535-0.222c0.588,0,1.102,0.069,1.539,0.2
		c0.436,0.135,0.804,0.309,1.104,0.514c0.299,0.206,0.527,0.432,0.682,0.668c0.157,0.238,0.24,0.466,0.252,0.686
		c0.014,0.135-0.031,0.25-0.133,0.349c-0.104,0.097-0.219,0.146-0.353,0.146h-0.591c-0.073,0-0.16-0.014-0.262-0.048
		c-0.102-0.029-0.195-0.099-0.279-0.208c-0.156-0.208-0.385-0.381-0.691-0.521c-0.305-0.14-0.729-0.212-1.268-0.212
		c-0.549,0-0.996,0.104-1.338,0.314c-0.342,0.205-0.512,0.49-0.512,0.859c0,0.229,0.049,0.415,0.146,0.557
		c0.093,0.141,0.249,0.261,0.466,0.366c0.217,0.103,0.5,0.199,0.854,0.285c0.354,0.081,0.795,0.189,1.322,0.31
		c0.549,0.121,1.01,0.277,1.383,0.468c0.372,0.189,0.67,0.401,0.898,0.64c0.226,0.238,0.389,0.501,0.482,0.787
		c0.098,0.289,0.146,0.589,0.146,0.906c0,0.366-0.088,0.72-0.261,1.06c-0.175,0.344-0.423,0.644-0.747,0.899
		c-0.324,0.255-0.716,0.46-1.176,0.619c-0.462,0.16-0.985,0.239-1.572,0.239c-0.589,0-1.107-0.073-1.562-0.219
		c-0.457-0.146-0.846-0.326-1.17-0.541c-0.323-0.211-0.572-0.444-0.746-0.695c-0.172-0.249-0.266-0.482-0.277-0.705
		c-0.014-0.133,0.029-0.247,0.125-0.347c0.096-0.097,0.217-0.146,0.359-0.146h0.646c0.073,0,0.157,0.009,0.252,0.027
		c0.096,0.02,0.186,0.088,0.271,0.209c0.189,0.27,0.453,0.479,0.789,0.624c0.338,0.145,0.773,0.219,1.312,0.219
		c0.262,0,0.523-0.029,0.783-0.09c0.256-0.061,0.481-0.148,0.681-0.259c0.197-0.106,0.357-0.242,0.476-0.392
		C113.499,91.519,113.559,91.353,113.559,91.17"/>
	<path fill="#32383D" d="M118.502,88.186h5.049v-0.055c0-0.744-0.23-1.339-0.692-1.783c-0.46-0.447-1.075-0.67-1.842-0.67
		c-0.347,0-0.672,0.058-0.97,0.174c-0.3,0.118-0.565,0.282-0.793,0.496c-0.227,0.212-0.406,0.473-0.537,0.777
		c-0.133,0.305-0.204,0.64-0.215,1.006V88.186z M116.9,88.131c0.049-0.559,0.18-1.085,0.396-1.574
		c0.217-0.486,0.498-0.914,0.844-1.281c0.348-0.365,0.764-0.651,1.25-0.86c0.484-0.206,1.025-0.311,1.626-0.311
		c0.647,0,1.225,0.108,1.733,0.321c0.509,0.215,0.943,0.522,1.303,0.923c0.359,0.404,0.635,0.893,0.827,1.467
		c0.191,0.571,0.287,1.214,0.287,1.919v0.494c0,0.135-0.049,0.25-0.144,0.35c-0.098,0.097-0.21,0.146-0.342,0.146h-6.18v0.108
		c0.021,0.83,0.271,1.468,0.744,1.915c0.473,0.444,1.062,0.667,1.771,0.667c0.658,0,1.151-0.093,1.482-0.285
		c0.327-0.187,0.595-0.398,0.799-0.63c0.097-0.098,0.183-0.164,0.253-0.202c0.072-0.037,0.178-0.055,0.322-0.055h0.539
		c0.133,0,0.252,0.051,0.361,0.148c0.106,0.096,0.147,0.211,0.125,0.346c-0.036,0.219-0.14,0.462-0.307,0.725
		c-0.166,0.262-0.41,0.506-0.728,0.729c-0.315,0.227-0.714,0.419-1.186,0.568c-0.474,0.152-1.028,0.229-1.662,0.229
		c-0.601,0-1.139-0.106-1.616-0.317c-0.479-0.214-0.895-0.509-1.25-0.88c-0.354-0.373-0.637-0.812-0.854-1.318
		s-0.348-1.059-0.396-1.655C116.84,89.254,116.84,88.693,116.9,88.131"/>
</g>
<g>
</g>
<g>
</g>
<g>
</g>
<g>
</g>
<g>
</g>
<g>
</g>
</svg>
