<?xml version="1.0" encoding="utf-8"?>
<!-- Generator: Adobe Illustrator 16.0.4, SVG Export Plug-In . SVG Version: 6.00 Build 0)  -->
<!DOCTYPE svg PUBLIC "-//W3C//DTD SVG 1.1//EN" "http://www.w3.org/Graphics/SVG/1.1/DTD/svg11.dtd">
<svg version="1.1" id="Layer_1" xmlns="http://www.w3.org/2000/svg" xmlns:xlink="http://www.w3.org/1999/xlink" x="0px" y="0px"
	 width="160px" height="160px" viewBox="0 0 160 160" enable-background="new 0 0 160 160" xml:space="preserve">
<g id="SIDN">
	<g>
		<path fill-rule="evenodd" clip-rule="evenodd" fill="#414042" d="M69.896,80.233c0-1.767,0-3.533,0-5.299
			c0-1.476,0.016-2.953-0.011-4.429c-0.007-0.404,0.127-0.479,0.494-0.47c0.885,0.024,1.771,0.016,2.656,0.003
			c0.274-0.005,0.405,0.031,0.403,0.364c-0.011,4.756-0.011,9.512,0,14.268c0.001,0.321-0.108,0.373-0.393,0.371
			c-1.279-0.014-2.559-0.023-3.837,0.004c-0.391,0.008-0.562-0.104-0.699-0.478c-1.158-3.181-2.34-6.351-3.516-9.523
			c-0.043-0.117-0.091-0.232-0.207-0.343c-0.007,0.151-0.02,0.303-0.02,0.454c-0.001,3.133-0.007,6.265,0.007,9.397
			c0.001,0.371-0.07,0.508-0.474,0.492c-0.885-0.034-1.771-0.021-2.656-0.004c-0.299,0.005-0.419-0.046-0.418-0.391
			c0.013-4.739,0.013-9.479,0-14.219c-0.001-0.337,0.109-0.4,0.416-0.396c1.295,0.015,2.591,0.019,3.887-0.001
			c0.322-0.006,0.441,0.114,0.549,0.401c1.193,3.166,2.403,6.326,3.608,9.488c0.04,0.104,0.083,0.208,0.124,0.313
			C69.839,80.236,69.868,80.234,69.896,80.233z"/>
		<path fill-rule="evenodd" clip-rule="evenodd" fill="#414042" d="M35.164,73.306c-0.9-0.399-1.776-0.648-2.7-0.719
			c-0.495-0.037-0.986-0.015-1.452,0.162c-1.008,0.382-1.2,1.626-0.351,2.294c0.599,0.47,1.324,0.706,2.001,1.03
			c0.457,0.219,0.924,0.415,1.377,0.642c1.55,0.774,2.227,2.067,2.157,3.761c-0.106,2.577-1.59,4.22-4.134,4.662
			c-1.832,0.319-3.621,0.093-5.402-0.336c-0.215-0.052-0.327-0.129-0.302-0.396c0.083-0.863,0.141-1.731,0.187-2.598
			c0.016-0.305,0.094-0.345,0.372-0.218c1.179,0.537,2.406,0.859,3.716,0.684c0.942-0.126,1.41-0.7,1.389-1.643
			c-0.011-0.487-0.232-0.838-0.638-1.09c-0.574-0.357-1.217-0.556-1.839-0.803c-0.764-0.302-1.512-0.63-2.134-1.18
			c-2.411-2.133-1.491-6.312,1.647-7.373c1.994-0.673,4.002-0.496,5.994,0.084c0.224,0.065,0.308,0.172,0.287,0.418
			C35.268,71.536,35.223,72.387,35.164,73.306z"/>
		<path fill-rule="evenodd" clip-rule="evenodd" fill="#414042" d="M101.48,76.501c1.16-1.809,2.734-2.303,4.631-1.98
			c1.52,0.26,2.415,1.321,2.564,2.986c0.149,1.686,0.057,3.376,0.06,5.063c0.001,0.447,0.131,0.551,0.554,0.536
			c0.875-0.029,0.877-0.006,0.877,0.867c0,1.144,0,1.144-1.15,1.144c-1.377,0-2.756-0.011-4.133,0.008
			c-0.348,0.005-0.463-0.097-0.438-0.441c0.027-0.392,0.02-0.786,0.001-1.181c-0.013-0.281,0.055-0.405,0.374-0.414
			c0.978-0.025,0.987-0.039,0.975-1.021c-0.015-1.261,0.073-2.526-0.048-3.784c-0.088-0.909-0.652-1.568-1.385-1.707
			c-0.891-0.168-1.72,0.202-2.181,0.988c-0.288,0.49-0.423,1.026-0.425,1.595c-0.002,1.182,0.004,2.363-0.011,3.543
			c-0.003,0.293,0.078,0.396,0.386,0.401c0.932,0.013,0.932,0.026,0.932,0.957c0,1.056,0,1.056-1.033,1.056
			c-1.411,0-2.822-0.009-4.232,0.007c-0.327,0.004-0.479-0.059-0.449-0.424c0.031-0.408,0.025-0.821,0-1.229
			c-0.02-0.317,0.11-0.378,0.398-0.381c1.053-0.01,1.053-0.021,1.053-1.093c0-1.592-0.008-3.183,0.007-4.773
			c0.003-0.342-0.052-0.494-0.449-0.487c-1.002,0.017-1.002-0.005-1.002-1.029c0-0.976,0-0.976,0.97-0.976
			c0.918,0,1.837,0.014,2.755-0.008c0.329-0.006,0.428,0.103,0.407,0.422C101.461,75.552,101.48,75.959,101.48,76.501z"/>
		<path fill-rule="evenodd" clip-rule="evenodd" fill="#414042" d="M38.415,77.556c0-2.36,0.007-4.721-0.008-7.082
			c-0.002-0.344,0.092-0.441,0.436-0.436c1.261,0.02,2.524,0.016,3.786,0.002c0.3-0.004,0.388,0.083,0.388,0.386
			c-0.009,4.755-0.009,9.508-0.001,14.261c0.001,0.286-0.09,0.356-0.362,0.354c-1.295-0.013-2.591-0.018-3.885,0.003
			c-0.337,0.005-0.359-0.138-0.358-0.406C38.417,82.276,38.415,79.915,38.415,77.556z"/>
		<path fill-rule="evenodd" clip-rule="evenodd" fill="#414042" d="M127.473,84.131c-0.057,0.986-0.057,0.986-1.076,0.986
			c-1.18,0-1.18,0-1.18-1.161c0-0.705,0.014-1.41-0.006-2.115c-0.009-0.306,0.099-0.396,0.395-0.386
			c0.54,0.018,1.081,0.008,1.622,0.003c0.196-0.002,0.306,0.018,0.354,0.273c0.262,1.389,1.873,2.139,3.137,1.481
			c0.4-0.209,0.596-0.544,0.59-0.997c-0.006-0.434-0.254-0.69-0.63-0.849c-0.671-0.285-1.396-0.333-2.102-0.469
			c-0.53-0.102-1.054-0.225-1.564-0.408c-2.326-0.833-2.3-4.108-0.739-5.224c1.279-0.914,2.676-1.08,4.148-0.557
			c0.517,0.185,0.893,0.579,1.217,1.021c0.041-0.047,0.073-0.068,0.074-0.091c0.042-0.908,0.042-0.916,0.961-0.904
			c0.406,0.004,0.933-0.176,1.188,0.07c0.28,0.27,0.081,0.805,0.093,1.224c0.018,0.573-0.01,1.148,0.011,1.722
			c0.011,0.307-0.065,0.453-0.403,0.423c-0.311-0.027-0.623-0.005-0.934-0.006c-0.296-0.003-0.617,0.063-0.879-0.031
			c-0.287-0.104-0.132-0.49-0.259-0.731c-0.183-0.348-0.415-0.635-0.779-0.781c-0.615-0.246-1.25-0.254-1.876-0.053
			c-0.428,0.137-0.676,0.434-0.693,0.907c-0.016,0.467,0.238,0.727,0.635,0.89c0.674,0.277,1.4,0.315,2.103,0.467
			c0.399,0.085,0.802,0.165,1.192,0.282c1.205,0.358,1.991,1.116,2.156,2.401c0.167,1.304-0.232,2.396-1.312,3.191
			c-1.422,1.051-4.118,0.972-5.252-0.494c-0.039-0.049-0.046-0.124-0.067-0.187C127.556,84.063,127.514,84.097,127.473,84.131z"/>
		<path fill-rule="evenodd" clip-rule="evenodd" fill="#414042" d="M80.199,85.117c-0.967,0-1.935-0.01-2.902,0.007
			c-0.304,0.004-0.45-0.059-0.426-0.4c0.029-0.409,0.03-0.822,0-1.229c-0.025-0.346,0.123-0.419,0.426-0.402
			c0.359,0.021,0.723-0.015,1.082,0.011c0.312,0.021,0.383-0.101,0.381-0.395c-0.012-1.868-0.011-3.737,0-5.606
			c0.001-0.28-0.084-0.374-0.362-0.359c-0.393,0.02-0.787-0.008-1.18,0.01c-0.252,0.009-0.373-0.071-0.34-0.333
			c0.006-0.049,0-0.099,0.001-0.147c0.01-0.49-0.161-1.126,0.082-1.432c0.258-0.324,0.922-0.104,1.407-0.099
			c0.352,0.004,0.398-0.143,0.392-0.436c-0.013-0.589-0.033-1.18,0.101-1.762c0.314-1.361,1.387-2.266,2.905-2.472
			c0.922-0.126,1.828-0.043,2.739,0.089c0.244,0.035,0.295,0.139,0.292,0.35c-0.007,0.492-0.015,0.983,0.003,1.475
			c0.011,0.313-0.088,0.412-0.399,0.325c-0.498-0.138-1.011-0.113-1.512-0.027c-0.735,0.127-1.073,0.511-1.17,1.25
			c-0.155,1.198-0.155,1.198,1.028,1.198c1.294,0,1.297,0,1.293,1.306c-0.002,0.804,0.082,0.702-0.708,0.709
			c-0.427,0.003-0.853,0.011-1.278-0.003c-0.235-0.007-0.354,0.041-0.354,0.318c0.011,1.901,0.01,3.803,0.002,5.705
			c-0.002,0.259,0.086,0.344,0.339,0.334c0.409-0.016,0.819,0.006,1.229-0.007c0.232-0.008,0.32,0.076,0.312,0.312
			c-0.014,0.442-0.02,0.886,0.002,1.327c0.015,0.298-0.078,0.396-0.385,0.391C82.199,85.106,81.199,85.117,80.199,85.117z"/>
		<path fill-rule="evenodd" clip-rule="evenodd" fill="#414042" d="M90.49,90.053c-1.574,0-3.148-0.009-4.723,0.007
			c-0.32,0.003-0.43-0.085-0.414-0.41c0.025-0.557,0.018-1.115,0.002-1.673c-0.007-0.266,0.062-0.376,0.354-0.376
			c3.197,0.01,6.395,0.01,9.593,0.002c0.277-0.001,0.374,0.085,0.365,0.365c-0.019,0.558-0.028,1.116,0.003,1.672
			c0.021,0.372-0.14,0.422-0.458,0.419C93.638,90.045,92.064,90.053,90.49,90.053z"/>
		<path fill-rule="evenodd" clip-rule="evenodd" fill="#414042" d="M58.779,76.433c-0.238-3.824-2.789-6.306-6.609-6.375
			c-1.852-0.034-3.704,0-5.556-0.024c-0.376-0.004-0.456,0.104-0.453,0.463c0.017,2.344,0.009,4.687,0.009,7.03
			c0,2.36-0.002,4.721,0.004,7.081c0,0.181-0.12,0.442,0.264,0.433c2.162-0.057,4.327,0.109,6.484-0.107
			c2.922-0.295,4.915-2.013,5.614-4.838C58.833,78.892,58.855,77.665,58.779,76.433z M54.234,79.908
			c-0.524,1.651-2.157,2.586-3.834,2.265c-0.272-0.053-0.185-0.229-0.186-0.368c-0.006-1.41-0.004-2.819-0.004-4.229
			c0-1.377,0.017-2.754-0.011-4.13c-0.007-0.391,0.114-0.479,0.469-0.438c0.34,0.039,0.684,0.031,1.026,0.089
			c1.373,0.233,2.247,1.026,2.602,2.354C54.692,76.935,54.702,78.437,54.234,79.908z"/>
		<path fill-rule="evenodd" clip-rule="evenodd" fill="#414042" d="M122.667,83.108c-0.444,0.018-0.539-0.123-0.537-0.548
			c0.017-3.904,0.003-7.808,0.019-11.711c0.002-0.419-0.084-0.575-0.535-0.559c-0.982,0.036-1.969,0.011-2.952,0.011
			c-0.927,0-0.927,0-0.927,0.922c0,1.077,0,1.077,1.043,1.1c0.031,0.001,0.065,0.004,0.098,0c0.229-0.025,0.319,0.064,0.317,0.305
			c-0.009,1.176-0.004,2.352-0.004,3.528c-0.45-0.63-0.954-1.13-1.642-1.427c-1.936-0.837-4.449-0.07-5.432,1.799
			c-1.169,2.223-1.195,4.535-0.035,6.788c1.393,2.7,5.713,2.823,7.132,0.382c0.051-0.088,0.079-0.223,0.267-0.229
			c0,0.422,0.016,0.843-0.006,1.261c-0.014,0.297,0.081,0.399,0.387,0.394c0.869-0.019,1.738-0.007,2.608-0.007
			c1.091,0,1.091,0,1.091-1.105C123.559,83.101,123.558,83.073,122.667,83.108z M119.338,80.122
			c-0.008,0.439-0.045,1.026-0.245,1.59c-0.382,1.079-1.202,1.587-2.55,1.577c-0.93-0.007-1.619-0.541-1.943-1.578
			c-0.359-1.153-0.365-2.326-0.02-3.483c0.305-1.023,1.028-1.612,1.955-1.667c1.213-0.07,2.016,0.396,2.484,1.443
			C119.262,78.545,119.384,79.279,119.338,80.122z"/>
		<path fill-rule="evenodd" clip-rule="evenodd" fill="#414042" d="M90.531,74.21c-3.148-0.013-5.759,2.533-5.765,5.619
			c-0.007,3.102,2.573,5.627,5.745,5.627c3.153,0.001,5.729-2.503,5.742-5.582C96.268,76.778,93.685,74.224,90.531,74.21z
			 M90.504,83.05c-1.818-0.004-3.295-1.445-3.293-3.213c0-1.78,1.459-3.186,3.304-3.184c1.84,0.002,3.298,1.414,3.297,3.194
			C93.811,81.608,92.316,83.054,90.504,83.05z"/>
	</g>
</g>
<g>
</g>
<g>
</g>
<g>
</g>
<g>
</g>
<g>
</g>
<g>
</g>
</svg>
