<?xml version="1.0" encoding="utf-8"?>
<!-- Generator: Adobe Illustrator 16.0.4, SVG Export Plug-In . SVG Version: 6.00 Build 0)  -->
<!DOCTYPE svg PUBLIC "-//W3C//DTD SVG 1.1//EN" "http://www.w3.org/Graphics/SVG/1.1/DTD/svg11.dtd">
<svg version="1.1" id="Layer_1" xmlns="http://www.w3.org/2000/svg" xmlns:xlink="http://www.w3.org/1999/xlink" x="0px" y="0px"
	 width="160px" height="160px" viewBox="0 0 160 160" enable-background="new 0 0 160 160" xml:space="preserve">
<g id="netdem">
	<g id="Netdem">
		<path fill-rule="evenodd" clip-rule="evenodd" fill="#414042" d="M80.135,83.98c-0.008,1.241-1.027,2.225-2.301,2.217
			c-1.264-0.007-2.279-1.016-2.268-2.254c0.006-0.848,0.68-1.636,1.623-1.901c1.137-0.32,2.367,0.227,2.805,1.242
			C80.088,83.507,80.143,83.736,80.135,83.98z"/>
		<path fill-rule="evenodd" clip-rule="evenodd" fill="#414042" d="M51.408,84.065c0-0.639,0.006-1.275-0.006-1.914
			c-0.002-0.168,0.049-0.206,0.211-0.205c0.49,0.003,0.973,0.032,1.428,0.234c0.869,0.387,1.291,1.257,1.129,2.32
			c-0.133,0.885-0.844,1.534-1.799,1.647c-0.309,0.036-0.691,0.161-0.902,0.001c-0.193-0.146-0.049-0.547-0.059-0.834
			C51.398,84.898,51.408,84.481,51.408,84.065z"/>
		<path fill-rule="evenodd" clip-rule="evenodd" fill="#414042" d="M83.543,91.274c0-0.256,0.004-0.513,0-0.769
			c-0.002-0.099,0.004-0.169,0.135-0.166c0.316,0.006,0.637,0.002,0.941,0.112c0.396,0.145,0.582,0.402,0.584,0.817
			c0.002,0.416-0.182,0.688-0.568,0.83c-0.312,0.116-0.641,0.117-0.967,0.118c-0.115,0-0.127-0.057-0.125-0.147
			C83.547,91.805,83.543,91.539,83.543,91.274z"/>
		<path fill-rule="evenodd" clip-rule="evenodd" fill="#414042" d="M81.471,74.231c0-0.265,0.002-0.53,0-0.796
			c-0.002-0.099,0.004-0.165,0.135-0.165c0.318,0,0.637,0.013,0.941,0.118c0.387,0.131,0.582,0.41,0.586,0.818
			c0.002,0.419-0.18,0.678-0.57,0.828c-0.305,0.116-0.625,0.106-0.941,0.118c-0.113,0.003-0.154-0.037-0.152-0.152
			C81.477,74.745,81.471,74.488,81.471,74.231z"/>
		<path fill-rule="evenodd" clip-rule="evenodd" fill="#414042" d="M92.592,91.138c0.281,0.792,0.533,1.514,0.797,2.231
			c0.057,0.155,0.062,0.22-0.137,0.213c-0.459-0.012-0.918-0.003-1.377-0.005c-0.076,0-0.172,0.023-0.123-0.118
			C92.025,92.709,92.295,91.958,92.592,91.138z"/>
		<path fill-rule="evenodd" clip-rule="evenodd" fill="#414042" d="M112.309,98.222c0.002,0.018,0.004,0.035,0.008,0.053
			c-6.721,0-13.441,0-20.16,0c0.098-0.094,0.219-0.051,0.328-0.051C99.092,98.222,105.699,98.222,112.309,98.222z"/>
		<path fill-rule="evenodd" clip-rule="evenodd" fill="#414042" d="M47.473,89.715c-0.018-0.002-0.035-0.003-0.053-0.005
			c0-3.758,0-7.518,0-11.275c0.018-0.002,0.035-0.004,0.053-0.005C47.473,82.191,47.473,85.953,47.473,89.715z"/>
		<path fill="#414042" d="M112.34,97.909c0.002-3.457,0.002-6.915,0.002-10.373c0-0.688,0-0.688-0.684-0.688
			c-8.848,0-17.695,0-26.543,0c-0.143,0-0.283,0.001-0.424-0.002c-0.342-0.006-0.363-0.021-0.363-0.363
			c-0.004-1.613-0.004-3.227,0-4.84c0-0.325,0.021-0.34,0.35-0.347c0.098-0.001,0.195-0.001,0.293-0.001c3.537,0,7.074,0,10.611,0
			c0.635,0,0.658-0.025,0.658-0.656c0.002-3.387,0.002-6.773,0.002-10.16c0-0.707-0.002-0.707-0.711-0.707
			c-7.189,0-14.379,0-21.57,0c-0.539,0-0.539,0-0.539-0.532c0-2.473,0.002-4.946-0.002-7.42c0-0.422-0.018-0.435-0.428-0.435
			c-7.756,0-15.514,0-23.271,0c-0.588,0-0.588,0-0.588,0.598c0,3.396,0,6.792,0,10.188c0,0.646,0.021,0.668,0.674,0.668
			c3.564,0,7.129,0,10.691,0c0.439,0,0.441,0.003,0.443,0.445c0,1.48,0,2.961,0,4.441c0,0.098,0.002,0.196-0.002,0.292
			c-0.012,0.283-0.033,0.306-0.305,0.317c-0.098,0.004-0.195,0.002-0.293,0.002c-2.021,0-4.043,0-6.064,0
			c-2.109,0-4.219-0.001-6.33,0.002c-0.164,0-0.34-0.035-0.482,0.09c-0.027,0.068-0.018,0.141-0.018,0.211c0,3.616,0,7.231,0,10.848
			c0,0.078-0.016,0.159,0.023,0.235c0.174,0.129,0.375,0.082,0.566,0.082c7.791,0.003,15.584,0.003,23.375,0.003
			c0.539,0,0.541,0.001,0.541,0.538c0,2.481-0.002,4.964,0,7.446c0,0.166-0.029,0.34,0.096,0.482c6.701,0,13.404,0,20.107,0
			c0.1-0.052,0.209-0.025,0.312-0.025c6.514-0.001,13.029-0.001,19.543-0.003c0.104,0,0.211,0.024,0.312-0.023
			C112.357,98.12,112.34,98.013,112.34,97.909z M65.863,63.459c-0.006-0.163,0.062-0.183,0.201-0.183
			c1.719,0.004,3.439,0.004,5.16-0.002c0.164,0,0.213,0.042,0.209,0.207c-0.012,0.425-0.012,0.851,0,1.276
			c0.004,0.159-0.057,0.19-0.199,0.188c-0.443-0.008-0.887,0.005-1.33-0.007c-0.168-0.005-0.207,0.05-0.205,0.211
			c0.006,0.912,0.004,1.826,0.002,2.738c0,0.904-0.006,1.81,0.006,2.714c0.002,0.182-0.041,0.24-0.232,0.236
			c-0.539-0.014-1.082-0.018-1.621,0.001c-0.236,0.009-0.268-0.076-0.268-0.285c0.008-1.773,0-3.546,0.012-5.319
			c0.002-0.256-0.078-0.307-0.311-0.297c-0.406,0.017-0.814,0-1.223,0.008c-0.139,0.002-0.207-0.02-0.201-0.184
			C65.873,64.328,65.873,63.894,65.863,63.459z M59.027,70.838c-0.586-0.008-1.172-0.012-1.756,0.001
			c-0.164,0.003-0.234-0.094-0.318-0.193c-1.166-1.403-2.33-2.808-3.498-4.211c-0.049-0.06-0.1-0.117-0.166-0.193
			c-0.061,0.102-0.037,0.199-0.037,0.288c0,1.338-0.006,2.676,0.004,4.014c0.002,0.222-0.031,0.309-0.283,0.298
			c-0.539-0.023-1.08-0.013-1.619-0.003c-0.156,0.002-0.213-0.026-0.213-0.2c0.008-2.384,0.008-4.768,0-7.15
			c0-0.186,0.064-0.215,0.227-0.212c0.551,0.009,1.1,0.01,1.648-0.001c0.166-0.003,0.271,0.047,0.379,0.178
			c1.162,1.406,2.33,2.807,3.498,4.209c0.057,0.067,0.113,0.133,0.217,0.252c0-0.86,0-1.656,0-2.452
			c0-0.655,0.008-1.312-0.002-1.967c-0.004-0.176,0.049-0.223,0.223-0.22c0.566,0.011,1.133,0.01,1.699,0.001
			c0.154-0.003,0.193,0.046,0.193,0.194c-0.004,2.393-0.004,4.785,0.002,7.178C59.225,70.806,59.172,70.839,59.027,70.838z
			 M60.631,70.838c-0.176,0.001-0.199-0.061-0.197-0.213c0.006-1.188,0.002-2.376,0.002-3.563c0-1.179,0.006-2.359-0.004-3.537
			c0-0.195,0.041-0.253,0.246-0.252c1.373,0.012,2.748,0.01,4.123,0.001c0.186-0.001,0.238,0.047,0.23,0.233
			c-0.014,0.416-0.012,0.834,0,1.249c0.004,0.152-0.041,0.192-0.191,0.19c-0.691-0.008-1.385,0.003-2.074-0.007
			c-0.18-0.002-0.252,0.034-0.24,0.23c0.018,0.282,0.014,0.566,0,0.851c-0.006,0.158,0.051,0.189,0.195,0.188
			c0.646-0.008,1.295,0.006,1.943-0.01c0.207-0.004,0.25,0.064,0.244,0.256c-0.016,0.398-0.012,0.798,0,1.197
			c0.006,0.177-0.049,0.227-0.225,0.223c-0.629-0.009-1.26,0.009-1.889-0.009c-0.229-0.007-0.285,0.066-0.27,0.282
			c0.02,0.265,0.016,0.532,0,0.798c-0.012,0.181,0.033,0.241,0.227,0.237c0.693-0.013,1.383,0,2.074-0.01
			c0.166-0.002,0.211,0.039,0.205,0.204c-0.014,0.417-0.01,0.833,0,1.251c0.004,0.153-0.023,0.212-0.199,0.211
			C63.432,70.831,62.031,70.831,60.631,70.838z M53.967,87.52c-0.521,0.214-1.064,0.327-1.629,0.329
			c-0.932,0.001-1.861-0.007-2.793,0.006c-0.197,0.002-0.25-0.045-0.25-0.248c0.012-1.178,0.006-2.357,0.006-3.536
			s0.006-2.357-0.006-3.537c-0.002-0.206,0.059-0.245,0.254-0.244c0.965,0.011,1.932-0.004,2.898,0.009
			c1.766,0.022,3.365,1.212,3.807,2.816C56.752,84.922,55.795,86.767,53.967,87.52z M59.711,83.225
			c0.631-0.011,1.26,0.002,1.889-0.008c0.178-0.004,0.248,0.028,0.238,0.225c-0.016,0.417-0.012,0.833,0,1.25
			c0.004,0.154-0.047,0.19-0.195,0.188c-0.646-0.007-1.293,0.007-1.939-0.009c-0.209-0.004-0.256,0.064-0.246,0.256
			c0.016,0.266,0.02,0.533,0,0.798c-0.02,0.232,0.072,0.274,0.285,0.271c0.662-0.014,1.328,0,1.992-0.008
			c0.164-0.003,0.232,0.028,0.225,0.212c-0.014,0.426-0.01,0.852,0,1.276c0.004,0.142-0.041,0.177-0.178,0.176
			c-1.41-0.005-2.818-0.007-4.229,0.003c-0.186,0.001-0.189-0.078-0.189-0.219c0.004-1.188,0.002-2.375,0.002-3.562
			s0.004-2.375-0.002-3.562c-0.002-0.168,0.033-0.223,0.213-0.223c1.393,0.009,2.781,0.008,4.174,0.002
			c0.156-0.001,0.215,0.025,0.209,0.199c-0.014,0.425-0.01,0.852,0,1.276c0.004,0.156-0.051,0.189-0.195,0.188
			c-0.691-0.007-1.383,0.004-2.074-0.008c-0.191-0.003-0.242,0.059-0.232,0.24c0.016,0.266,0.02,0.533-0.002,0.797
			C59.439,83.198,59.525,83.228,59.711,83.225z M63.129,71.772c0.568,0.008,1.135,0.011,1.703-0.002
			c0.166-0.005,0.209,0.061,0.23,0.203c0.162,1.075,0.33,2.15,0.496,3.227c0.045,0.283,0.088,0.566,0.186,0.857
			c0.168-0.391,0.34-0.782,0.506-1.175c0.412-0.967,0.824-1.932,1.229-2.9c0.062-0.148,0.143-0.193,0.307-0.217
			c0.473-0.068,0.705,0.106,0.889,0.559c0.486,1.193,1.037,2.359,1.564,3.534c0.031,0.07,0.039,0.154,0.141,0.217
			c0.08-0.587,0.158-1.158,0.234-1.729c0.107-0.807,0.217-1.613,0.322-2.421c0.014-0.109,0.053-0.152,0.166-0.151
			c0.602,0.003,1.205,0.003,1.809,0c0.109-0.001,0.156,0.019,0.135,0.147c-0.238,1.439-0.471,2.881-0.703,4.32
			c-0.152,0.936-0.312,1.868-0.447,2.805c-0.033,0.238-0.115,0.301-0.346,0.292c-0.504-0.019-1.012-0.016-1.516,0
			c-0.205,0.006-0.307-0.049-0.391-0.25c-0.525-1.253-1.068-2.499-1.627-3.798c-0.355,0.873-0.688,1.689-1.018,2.506
			c-0.18,0.441-0.363,0.882-0.535,1.326c-0.057,0.149-0.127,0.22-0.303,0.216c-0.539-0.015-1.082-0.011-1.621-0.003
			c-0.166,0.004-0.238-0.026-0.271-0.217c-0.426-2.385-0.863-4.768-1.303-7.15C62.938,71.813,62.971,71.77,63.129,71.772z
			 M72.865,87.849c-0.566-0.01-1.135-0.011-1.701,0.001c-0.168,0.004-0.209-0.066-0.227-0.209c-0.18-1.367-0.365-2.733-0.549-4.1
			c-0.016-0.001-0.031-0.001-0.049-0.002c-0.402,0.9-0.807,1.801-1.209,2.702c-0.213,0.476-0.428,0.949-0.633,1.428
			c-0.055,0.132-0.121,0.182-0.27,0.181c-0.639-0.001-0.639,0.006-0.887-0.572c-0.529-1.242-1.057-2.483-1.604-3.767
			c-0.117,0.287-0.119,0.557-0.16,0.816c-0.176,1.082-0.34,2.166-0.498,3.251c-0.029,0.2-0.088,0.28-0.307,0.273
			c-0.541-0.019-1.082-0.011-1.623-0.003c-0.156,0.002-0.213-0.017-0.178-0.201c0.439-2.381,0.873-4.764,1.301-7.148
			c0.029-0.169,0.078-0.218,0.246-0.215c0.551,0.011,1.1,0.012,1.648,0c0.168-0.004,0.242,0.051,0.305,0.208
			c0.469,1.181,0.951,2.356,1.43,3.533c0.031,0.081,0.07,0.16,0.125,0.284c0.287-0.667,0.561-1.299,0.83-1.93
			c0.273-0.632,0.547-1.263,0.811-1.899c0.059-0.14,0.129-0.2,0.291-0.196c0.559,0.012,1.117,0.01,1.674,0
			c0.162-0.001,0.229,0.037,0.258,0.21c0.379,2.383,0.766,4.767,1.154,7.147C73.074,87.813,73.033,87.852,72.865,87.849z
			 M86.666,71.944c-0.002-0.147,0.051-0.174,0.184-0.172c0.566,0.006,1.133,0.012,1.701-0.002c0.188-0.005,0.213,0.065,0.211,0.227
			c-0.006,0.945-0.004,1.893-0.004,2.921c0.734-0.9,1.439-1.721,2.09-2.582c0.316-0.419,0.641-0.625,1.184-0.574
			c0.604,0.057,1.219,0.014,1.883,0.014c-0.195,0.223-0.361,0.412-0.529,0.6c-0.84,0.936-1.68,1.875-2.527,2.804
			c-0.125,0.136-0.119,0.206,0,0.34c1.078,1.212,2.148,2.432,3.219,3.648c0.035,0.039,0.064,0.08,0.098,0.122
			c-0.074,0.076-0.158,0.039-0.23,0.039c-0.736,0.004-1.473-0.002-2.207,0.007c-0.164,0.001-0.273-0.042-0.381-0.174
			c-0.809-0.987-1.625-1.968-2.439-2.949c-0.037-0.045-0.055-0.114-0.158-0.12c0,0.21,0,0.419,0,0.627
			c0,0.798-0.004,1.596,0.004,2.393c0.002,0.171-0.037,0.228-0.217,0.224c-0.559-0.012-1.117-0.008-1.676-0.001
			c-0.137,0.001-0.205-0.017-0.205-0.183C86.67,76.749,86.67,74.347,86.666,71.944z M79.379,71.97c0-0.141,0.023-0.199,0.184-0.199
			c1.1,0.011,2.197-0.008,3.297,0.02c0.676,0.017,1.318,0.198,1.822,0.684c0.662,0.639,0.764,1.44,0.543,2.281
			c-0.213,0.819-0.791,1.291-1.666,1.477c0.85,1.037,1.676,2.046,2.537,3.1c-0.877,0-1.695-0.002-2.516,0.001
			c-0.123,0.001-0.158-0.094-0.211-0.171c-0.568-0.833-1.137-1.667-1.707-2.498c-0.047-0.068-0.074-0.159-0.191-0.205
			c0,0.772,0,1.529,0,2.287c0,0.586,0,0.586-0.59,0.586c-0.426,0-0.852-0.008-1.277,0.004c-0.164,0.004-0.227-0.031-0.227-0.215
			C79.383,76.737,79.383,74.354,79.379,71.97z M73.957,71.771c1.391,0.009,2.781,0.007,4.172,0c0.158,0,0.215,0.032,0.209,0.203
			c-0.014,0.425-0.012,0.851-0.002,1.275c0.004,0.156-0.049,0.188-0.193,0.188c-0.691-0.007-1.383,0.003-2.074-0.008
			c-0.182-0.002-0.246,0.041-0.234,0.232c0.016,0.282,0.012,0.567,0,0.851c-0.006,0.155,0.053,0.193,0.199,0.191
			c0.656-0.007,1.312,0.005,1.969-0.007c0.18-0.003,0.221,0.055,0.215,0.224c-0.01,0.407-0.01,0.815,0.002,1.223
			c0.004,0.172-0.041,0.224-0.219,0.222c-0.637-0.012-1.275,0.002-1.914-0.01c-0.188-0.003-0.27,0.029-0.254,0.242
			c0.023,0.282,0.018,0.567,0.002,0.85c-0.012,0.186,0.061,0.222,0.227,0.221c0.682-0.009,1.365,0.004,2.047-0.01
			c0.189-0.003,0.236,0.055,0.23,0.237c-0.014,0.417-0.012,0.834-0.002,1.249c0.004,0.155-0.047,0.191-0.195,0.19
			c-1.398-0.006-2.801-0.007-4.199,0.001c-0.18,0.002-0.199-0.066-0.197-0.216c0.006-1.196,0.002-2.393,0.002-3.589
			c0-1.178,0.004-2.357-0.004-3.535C73.742,71.831,73.771,71.77,73.957,71.771z M80.121,91.353
			c-0.656-0.697-1.436-0.915-2.314-0.771c-0.512,0.085-0.943,0.341-1.264,0.763c-0.623,0.82-0.543,2.042,0.168,2.749
			c0.633,0.63,2.141,0.987,3.41-0.183c0,0.763-0.002,1.479,0.002,2.193c0,0.094-0.029,0.137-0.123,0.169
			c-1.846,0.642-3.703,0.303-5.055-1.069c-1.482-1.503-1.338-4.068,0.32-5.471c1.4-1.185,2.996-1.372,4.707-0.772
			c0.111,0.037,0.152,0.091,0.15,0.208C80.119,89.877,80.121,90.584,80.121,91.353z M78.861,88.008
			c-1.178,0.199-2.318,0.101-3.375-0.481c-1.404-0.774-2.098-2.004-2.096-3.59c0.002-1.52,0.801-2.587,2.092-3.299
			c1.785-0.981,4.037-0.741,5.562,0.565c0.826,0.708,1.277,1.693,1.271,2.778C82.307,86.021,80.895,87.665,78.861,88.008z
			 M86.977,96.394c-0.398,0-0.797-0.01-1.195,0.004c-0.174,0.008-0.27-0.058-0.363-0.197c-0.602-0.896-1.213-1.785-1.824-2.679
			c-0.092,0.052-0.047,0.13-0.047,0.188c-0.004,0.816-0.008,1.632,0,2.447c0.002,0.178-0.033,0.246-0.229,0.24
			c-0.549-0.014-1.1-0.009-1.648-0.002c-0.148,0.002-0.221-0.016-0.221-0.195c0.006-2.394,0.006-4.787,0-7.181
			c0-0.157,0.055-0.192,0.201-0.189c1.125,0.018,2.25-0.027,3.375,0.028c0.32,0.015,0.631,0.085,0.932,0.195
			c0.969,0.361,1.482,1.146,1.434,2.181c-0.053,1.061-0.609,1.761-1.623,2.032c-0.033,0.01-0.066,0.016-0.135,0.031
			c0.85,1.037,1.672,2.042,2.535,3.096C87.73,96.394,87.354,96.394,86.977,96.394z M94.664,96.396c-0.121,0-0.141-0.078-0.174-0.162
			c-0.129-0.328-0.27-0.652-0.391-0.983c-0.047-0.13-0.111-0.174-0.248-0.173c-0.852,0.006-1.703,0.005-2.553,0
			c-0.127,0-0.188,0.038-0.234,0.157c-0.129,0.328-0.275,0.649-0.408,0.978c-0.051,0.131-0.117,0.188-0.271,0.186
			c-0.611-0.011-1.223-0.008-1.834-0.002c-0.17,0.002-0.191-0.035-0.127-0.193c0.99-2.398,1.977-4.8,2.957-7.201
			c0.051-0.125,0.113-0.173,0.252-0.172c0.646,0.007,1.293,0.005,1.941,0.001c0.119-0.001,0.186,0.026,0.236,0.15
			c0.977,2.44,1.961,4.88,2.943,7.319c0.008,0.022,0.006,0.049,0.012,0.094C96.059,96.394,95.361,96.392,94.664,96.396z
			 M101.758,90.309c0.002,0.148-0.041,0.2-0.195,0.196c-0.434-0.01-0.869,0.01-1.301-0.008c-0.207-0.01-0.244,0.057-0.242,0.249
			c0.008,1.789-0.002,3.578,0.012,5.368c0.002,0.246-0.072,0.292-0.297,0.284c-0.504-0.017-1.01-0.017-1.514-0.001
			c-0.232,0.009-0.318-0.04-0.312-0.297c0.018-0.887,0.006-1.772,0.006-2.658c0-0.902-0.006-1.807,0.004-2.71
			c0.002-0.183-0.039-0.242-0.23-0.235c-0.424,0.015-0.85-0.002-1.275,0.008c-0.162,0.004-0.234-0.026-0.229-0.213
			c0.018-0.415,0.012-0.833,0.004-1.248c-0.006-0.155,0.025-0.217,0.199-0.216c1.719,0.007,3.438,0.006,5.154,0.001
			c0.156,0,0.223,0.032,0.219,0.204C101.746,89.458,101.75,89.884,101.758,90.309z M104.57,96.36
			c-0.559-0.007-1.115-0.011-1.672,0.002c-0.184,0.004-0.215-0.057-0.215-0.223c0.006-1.195,0.004-2.391,0.004-3.586
			c0-1.179,0.004-2.356-0.004-3.533c0-0.168,0.035-0.226,0.215-0.222c0.566,0.013,1.133,0.011,1.699,0.001
			c0.154-0.002,0.189,0.045,0.189,0.194c-0.004,2.39-0.006,4.781,0,7.173C104.789,96.349,104.717,96.362,104.57,96.36z
			 M108.156,91.734c0.646-0.011,1.293,0.002,1.939-0.009c0.186-0.004,0.242,0.046,0.236,0.233c-0.014,0.408-0.014,0.815,0,1.223
			c0.004,0.165-0.047,0.21-0.209,0.208c-0.656-0.009-1.312,0.002-1.967-0.008c-0.168-0.004-0.211,0.046-0.205,0.207
			c0.014,0.301,0.014,0.604,0,0.904c-0.006,0.162,0.039,0.211,0.205,0.209c0.682-0.01,1.365,0.006,2.047-0.01
			c0.221-0.006,0.262,0.067,0.254,0.266c-0.014,0.398-0.012,0.798,0,1.196c0.004,0.159-0.033,0.209-0.201,0.208
			c-1.4-0.007-2.801-0.008-4.201,0c-0.176,0.001-0.199-0.061-0.199-0.213c0.006-1.196,0.004-2.393,0.004-3.59
			c0-1.18,0.002-2.357-0.004-3.536c0-0.164,0.027-0.226,0.213-0.226c1.391,0.01,2.783,0.009,4.174,0.001
			c0.18-0.001,0.221,0.054,0.215,0.223c-0.012,0.406-0.012,0.813,0,1.222c0.006,0.171-0.039,0.223-0.217,0.221
			c-0.691-0.012-1.383,0.002-2.072-0.009c-0.18-0.003-0.225,0.052-0.217,0.222c0.014,0.283,0.014,0.567,0,0.852
			C107.943,91.691,107.99,91.736,108.156,91.734z"/>
	</g>
</g>
<g>
</g>
<g>
</g>
<g>
</g>
<g>
</g>
<g>
</g>
<g>
</g>
</svg>
