<?xml version="1.0" encoding="utf-8"?>
<!-- Generator: Adobe Illustrator 16.0.4, SVG Export Plug-In . SVG Version: 6.00 Build 0)  -->
<!DOCTYPE svg PUBLIC "-//W3C//DTD SVG 1.1//EN" "http://www.w3.org/Graphics/SVG/1.1/DTD/svg11.dtd">
<svg version="1.1" id="Layer_1" xmlns="http://www.w3.org/2000/svg" xmlns:xlink="http://www.w3.org/1999/xlink" x="0px" y="0px"
	 width="160px" height="160px" viewBox="0 0 160 160" enable-background="new 0 0 160 160" xml:space="preserve">
<g>
	<g>
		<defs>
			<rect id="SVGID_1_" x="58.138" y="61.273" width="45.141" height="37.186"/>
		</defs>
		<clipPath id="SVGID_2_">
			<use xlink:href="#SVGID_1_"  overflow="visible"/>
		</clipPath>
		<path clip-path="url(#SVGID_2_)" d="M92.975,77.444l-1.014-0.391c-0.369-0.146-0.711-0.333-1.018-0.567
			c-0.301-0.227-0.568-0.489-0.795-0.787c-0.201-0.263-0.367-0.544-0.5-0.846c0.248,0.049,0.49,0.132,0.727,0.244l1.107,0.527
			l0.752,0.354l-0.117-0.821l-0.17-1.215c-0.289-2.059-1.725-3.719-3.664-4.318c0.109-0.08,0.221-0.157,0.342-0.229
			c0.047-0.026,0.1-0.057,0.148-0.084c0.32-0.177,0.66-0.314,1.016-0.41l1.186-0.32l0.799-0.215l-0.617-0.55l-0.92-0.813
			c-0.715-0.633-1.541-1.092-2.414-1.372c0.096-0.066,0.195-0.132,0.297-0.191l1.059-0.622l0.715-0.416l-0.742-0.369l-1.1-0.543
			c-1.471-0.726-3.143-0.854-4.711-0.363c-1.018,0.319-1.945,0.896-2.686,1.671c-0.174,0.181-0.336,0.37-0.484,0.567
			c-0.164-0.276-0.297-0.576-0.395-0.897c-0.107-0.364-0.168-0.75-0.174-1.14l-0.02-1.227l-0.012-0.83l-0.686,0.467l-1.015,0.688
			c-1.028,0.698-1.796,1.651-2.263,2.728c-1.082-0.34-2.242-0.374-3.368-0.074c-0.931,0.244-1.802,0.715-2.516,1.356l-0.914,0.82
			l-0.614,0.557l0.802,0.209l1.188,0.312c0.354,0.09,0.688,0.23,0.996,0.411c0.18,0.104,0.348,0.226,0.503,0.355
			c-1.624,0.721-2.887,2.133-3.396,3.926l-0.295,1.049l-0.199,0.706l0.7-0.224l1.036-0.325c0.3-0.098,0.604-0.157,0.91-0.182
			c-0.568,0.815-0.904,1.796-0.941,2.848l-0.042,1.227l-0.027,0.831l0.707-0.435l1.049-0.64c0.234-0.146,0.484-0.256,0.741-0.332
			c-1.007,1.111-1.592,2.587-1.573,4.171l0.011,1.087l0.007,0.737l0.609-0.409l0.903-0.609c0.295-0.198,0.607-0.358,0.933-0.473
			c-0.021,0.148-0.05,0.295-0.088,0.44c-0.094,0.374-0.242,0.734-0.44,1.076l-0.547,0.938l-0.369,0.635l0.735-0.04l1.084-0.061
			c1.171-0.063,2.26-0.452,3.169-1.087c0.203,0.226,0.38,0.475,0.528,0.74c0.182,0.328,0.318,0.682,0.406,1.048
			c0.093,0.373,0.129,0.763,0.112,1.155l-0.044,1.088l-0.028,0.733l0.63-0.38l0.931-0.561c0.579-0.348,1.085-0.779,1.505-1.271
			c0.393,0.37,0.836,0.69,1.331,0.951l0.963,0.508l0.648,0.344l-0.07-0.731l-0.104-1.082c-0.035-0.392-0.021-0.782,0.049-1.16
			c0.066-0.371,0.184-0.731,0.346-1.067c0.174-0.355,0.398-0.684,0.662-0.973c0.135,0.17,0.254,0.351,0.359,0.54
			c0.189,0.337,0.33,0.7,0.42,1.084l0.248,1.058l0.17,0.717l0.504-0.535l0.748-0.791c0.551-0.581,0.969-1.247,1.25-1.956l0.34,0.271
			l0.576,0.456l0.064-0.733l0.094-1.085c0.07-0.836-0.029-1.653-0.273-2.415c1.207-0.021,2.41-0.399,3.451-1.143l0.885-0.63
			l0.598-0.427L92.975,77.444z"/>
	</g>
	<g>
		<defs>
			<rect id="SVGID_3_" x="58.138" y="61.271" width="45.141" height="38.115"/>
		</defs>
		<clipPath id="SVGID_4_">
			<use xlink:href="#SVGID_3_"  overflow="visible"/>
		</clipPath>
		<path clip-path="url(#SVGID_4_)" fill="#FFFFFF" d="M91.605,77.967c-0.438-0.17-0.859-0.398-1.252-0.694
			c-1.172-0.885-1.857-2.175-2.01-3.525c0.449-0.076,0.918-0.084,1.395-0.003c0.393,0.066,0.766,0.187,1.111,0.352
			c-0.246-1.761-1.605-3.234-3.453-3.546c-0.467-0.076-0.93-0.074-1.371-0.002c0.465-0.837,1.146-1.571,2.025-2.099
			c0.465-0.28,0.953-0.483,1.451-0.617c-1.07-0.945-2.455-1.442-3.857-1.414c0.209-0.366,0.465-0.712,0.766-1.03
			c0.35-0.362,0.736-0.661,1.148-0.904c-1.998-0.985-4.482-0.616-6.104,1.077c-0.491,0.514-0.856,1.102-1.096,1.722
			c-0.756-0.632-1.34-1.483-1.644-2.496c-0.145-0.478-0.216-0.964-0.224-1.44c-1.146,0.779-1.931,1.981-2.192,3.324
			c-1.914-1.123-4.27-0.82-5.835,0.59c0.439,0.117,0.869,0.29,1.279,0.53c0.768,0.456,1.371,1.085,1.786,1.809
			c-2.075,0.259-3.745,1.75-4.296,3.698c0.446-0.144,0.92-0.229,1.411-0.243c0.733-0.021,1.436,0.114,2.073,0.37
			c-1.316,0.73-2.136,2.116-2.153,3.605c0.32-0.207,0.677-0.374,1.06-0.486c0.912-0.276,1.919-0.324,2.517,0.081
			c-0.362,0.344-0.688,0.708-0.908,1.044c-1.209,0.982-1.915,2.477-1.898,4.041c0.388-0.26,0.819-0.475,1.287-0.627
			c0.391-0.127,0.787-0.206,1.181-0.235c0.076,0.613,0.041,1.254-0.121,1.892c-0.122,0.477-0.308,0.922-0.544,1.324
			c1.229-0.066,2.383-0.578,3.26-1.408c0.895,0.69,1.568,1.677,1.854,2.859c0.116,0.48,0.157,0.958,0.14,1.426
			c0.829-0.497,1.488-1.215,1.92-2.054c0.467,0.706,1.11,1.301,1.879,1.708c-0.045-0.468-0.027-0.948,0.061-1.43
			c0.248-1.351,0.998-2.475,2.023-3.222c0.461,0.387,0.859,0.861,1.17,1.419c0.24,0.431,0.41,0.878,0.518,1.336
			c0.764-0.81,1.234-1.838,1.365-2.918c0.246,0.135,0.477,0.291,0.691,0.461c0.111-1.301-0.279-2.586-1.066-3.601
			C88.514,79.182,90.256,78.928,91.605,77.967"/>
		<path clip-path="url(#SVGID_4_)" d="M77.381,86.23L77.381,86.23c-1.352-0.195-2.82-1.382-2.873-3.196
			c-0.008-0.25,0.007-0.507,0.044-0.767c0.158-1.119,0.692-2.204,1.505-3.062c0.913-0.958,2.092-1.538,3.407-1.676
			c0.736-0.076,1.42-0.073,2.032,0.014c0.389,0.057,0.754,0.145,1.088,0.265c0.594,0.215,1.037,0.472,1.352,0.788
			c0.365,0.368,0.537,0.837,0.473,1.29c-0.061,0.423-0.316,0.802-0.723,1.062c-0.332,0.214-0.746,0.347-1.203,0.383
			c-0.471,0.035-0.988,0.191-1.543,0.469c-0.275,0.138-0.289-0.043-0.451,0.233c-0.15,0.261-0.223,0.282-0.277,0.679
			c-0.01,0.065-0.18,0.597-0.186,0.662c-0.01,0.106-0.084,0.425-0.096,0.523c-0.096,0.658-0.262,1.141-0.525,1.527
			c-0.334,0.5-0.866,0.801-1.459,0.83C77.76,86.263,77.571,86.259,77.381,86.23"/>
		<path clip-path="url(#SVGID_4_)" d="M74.955,83.021c-0.006-0.229,0.008-0.459,0.04-0.689c0.141-0.996,0.618-2.011,1.388-2.813
			c0.768-0.809,1.832-1.406,3.127-1.542c0.738-0.076,1.373-0.065,1.924,0.011c0.369,0.053,0.701,0.136,0.998,0.242l0,0
			c0.539,0.192,0.926,0.418,1.186,0.684c0.262,0.262,0.396,0.588,0.35,0.909s-0.256,0.582-0.523,0.755
			c-0.271,0.176-0.611,0.28-0.994,0.311c-0.463,0.036-1.029,0.176-1.708,0.513c-0.375,0.187-0.637,0.455-0.83,0.782
			c-0.189,0.331-0.309,0.729-0.367,1.155c-0.012,0.071-0.02,0.14-0.025,0.214c-0.012,0.099-0.021,0.195-0.033,0.286
			c-0.076,0.521-0.206,0.978-0.452,1.337c-0.241,0.363-0.638,0.614-1.11,0.634c-0.159,0.008-0.32,0.004-0.478-0.02
			C76.191,85.607,74.999,84.514,74.955,83.021"/>
		<path clip-path="url(#SVGID_4_)" fill="#FFFFFF" d="M79.578,78.636c-1.129,0.117-2.046,0.631-2.716,1.337
			c-0.674,0.703-1.094,1.598-1.212,2.449c-0.029,0.197-0.04,0.393-0.036,0.582c0.02,1.12,0.977,2,1.924,2.128
			c0.117,0.017,0.233,0.022,0.347,0.017c0.282-0.021,0.442-0.123,0.604-0.349c0.158-0.226,0.277-0.591,0.341-1.054
			c0.013-0.084,0.021-0.171,0.031-0.257c0.007-0.084,0.018-0.164,0.027-0.244c0.068-0.488,0.205-0.969,0.454-1.394
			c0.246-0.43,0.609-0.801,1.105-1.045c0.743-0.369,1.395-0.538,1.954-0.581c0.287-0.021,0.525-0.103,0.682-0.208
			c0.158-0.1,0.219-0.207,0.23-0.287c0.008-0.079-0.008-0.189-0.168-0.357c-0.158-0.162-0.459-0.354-0.936-0.521l0.111-0.312
			l-0.111,0.312c-0.25-0.091-0.537-0.163-0.867-0.209C80.853,78.574,80.269,78.563,79.578,78.636"/>
		<path clip-path="url(#SVGID_4_)" d="M80.714,79.289c0,0-1.616-0.32-2.736,1.139c-1.951,2.543-0.559,3.709-0.559,3.709
			s-0.473-1.402,0.824-3.082c0.642-0.829,1.402-1.362,2.301-1.36C80.796,79.697,80.714,79.289,80.714,79.289"/>
		<path clip-path="url(#SVGID_4_)" fill="#FFFFFF" d="M79.23,78.257c0,1.766-1.254,3.199-2.801,3.199
			c-1.545,0-2.801-1.434-2.801-3.199c0-1.771,1.256-3.202,2.801-3.202C77.976,75.055,79.23,76.486,79.23,78.257"/>
		<path clip-path="url(#SVGID_4_)" fill="#FFFFFF" d="M83.92,79.316c0,1.714-1.367,3.105-3.055,3.105
			c-1.682,0-3.049-1.392-3.049-3.105c0-1.716,1.367-3.106,3.049-3.106C82.553,76.21,83.92,77.601,83.92,79.316"/>
		<path clip-path="url(#SVGID_4_)" fill="#FFFFFF" d="M86.609,75.402c0,1.715-1.363,3.107-3.051,3.107
			c-1.686,0-3.049-1.393-3.049-3.107c0-1.717,1.364-3.105,3.049-3.105C85.246,72.297,86.609,73.686,86.609,75.402"/>
		<path clip-path="url(#SVGID_4_)" d="M84.992,78.588c-0.379-0.225-0.766-0.34-1.15-0.34c-0.34,0-0.551,0.09-0.572,0.102
			l-0.176,0.079l0.223,0.591c0.154,0.406,0.195,0.851,0.117,1.282c-0.207,1.179-1.225,2.031-2.416,2.031
			c-0.139,0-0.282-0.014-0.422-0.038c-1.039-0.181-1.846-1.002-2.003-2.045l-0.168-1.102l-0.755,0.818
			c-0.407,0.441-0.983,0.695-1.578,0.695c-0.124,0-0.249-0.012-0.372-0.03c-1.163-0.209-1.948-1.323-1.746-2.488
			c0.063-0.368,0.224-0.714,0.46-0.999c0.056-0.063,0.065-0.157,0.025-0.237c-0.063-0.138-0.369-0.389-0.641-0.389
			c-0.142,0-0.263,0.067-0.333,0.188c-0.229,0.393-0.503,0.89-0.565,1.252c-0.305,1.749,0.867,3.42,2.614,3.725
			c0.185,0.032,0.373,0.049,0.558,0.049c0.6,0,1.176-0.164,1.683-0.478c0.465,1.095,1.453,1.886,2.636,2.095
			c0.203,0.036,0.408,0.056,0.612,0.056c1.713,0,3.172-1.228,3.469-2.919c0.057-0.336,0.068-0.671,0.031-1.006
			c0.211,0.077,0.475,0.239,0.906,0.699l0.244,0.262l0.102-0.343C85.783,80.063,86.021,79.208,84.992,78.588"/>
		<path clip-path="url(#SVGID_4_)" d="M78.021,80.184c-0.896-0.053-2.227-1.753-2.189-2.397c0.038-0.642,0.347-1.37,2.402-1.249
			c2.061,0.121,2.289,0.669,2.242,1.521C80.425,78.912,78.916,80.236,78.021,80.184"/>
		<path clip-path="url(#SVGID_4_)" d="M80.21,75.603c-0.27-0.356-0.432-0.762-0.49-1.175c-0.133-0.897,0.219-1.839,0.992-2.424
			c0.358-0.27,0.764-0.434,1.176-0.495c0.898-0.128,1.84,0.221,2.426,0.996c0.27,0.356,0.432,0.761,0.494,1.177
			c0.129,0.898-0.221,1.838-0.996,2.424l-0.217-0.285l0.217,0.285c-0.355,0.27-0.762,0.432-1.176,0.491
			C81.736,76.729,80.796,76.381,80.21,75.603"/>
		<path clip-path="url(#SVGID_4_)" fill="#FFFFFF" d="M81.146,72.574c-0.563,0.424-0.813,1.101-0.721,1.748
			c0.045,0.301,0.16,0.593,0.355,0.85c0.424,0.561,1.104,0.812,1.752,0.721c0.297-0.045,0.588-0.164,0.848-0.357
			c0.559-0.422,0.812-1.103,0.717-1.75c-0.043-0.3-0.16-0.59-0.354-0.848c-0.424-0.561-1.102-0.813-1.75-0.72
			C81.693,72.261,81.404,72.38,81.146,72.574"/>
		<path clip-path="url(#SVGID_4_)" d="M82.596,75.229c0.631-0.153,1.018-0.792,0.861-1.422c-0.154-0.632-0.793-1.019-1.424-0.863
			c-0.633,0.157-1.018,0.794-0.859,1.427C81.326,75,81.965,75.387,82.596,75.229"/>
		<path clip-path="url(#SVGID_4_)" fill="#FFFFFF" d="M83.482,73.483c0,0.307-0.254,0.561-0.562,0.561s-0.559-0.254-0.559-0.561
			c0-0.311,0.25-0.56,0.559-0.56S83.482,73.173,83.482,73.483"/>
		<polygon clip-path="url(#SVGID_4_)" points="75.36,72.827 75.36,71.029 76.486,72.48 78.289,71.926 77.186,73.387 78.292,74.834 
			76.484,74.288 75.362,75.735 75.355,73.949 73.552,73.385 		"/>
		<path clip-path="url(#SVGID_4_)" d="M68.125,95.003c0.497,0,0.613,0.519,0.613,0.751c0,0.245-0.116,0.764-0.613,0.764h-2.773
			c-0.478,0-0.615-0.519-0.615-0.764c0-0.232,0.138-0.751,0.615-0.751h0.296v-4.174h-0.296c-0.478,0-0.615-0.518-0.615-0.76
			c0-0.232,0.138-0.751,0.615-0.751h2.773c0.497,0,0.613,0.519,0.613,0.751c0,0.242-0.116,0.76-0.613,0.76h-0.297v4.174H68.125z"/>
		<path clip-path="url(#SVGID_4_)" d="M71.943,95.003c0.497,0,0.613,0.519,0.613,0.751c0,0.245-0.116,0.764-0.613,0.764h-2.299
			c-0.476,0-0.613-0.519-0.613-0.764c0-0.232,0.138-0.751,0.613-0.751h0.233v-4.174h-0.307c-0.478,0-0.614-0.518-0.614-0.76
			c0-0.232,0.137-0.751,0.614-0.751h2.519l2.024,3.844c0.073,0.137,0.169,0.441,0.21,0.687v-3.02h-0.422
			c-0.498,0-0.615-0.518-0.615-0.751c0-0.241,0.117-0.76,0.615-0.76h2.276c0.476,0,0.612,0.519,0.612,0.76
			c0,0.233-0.137,0.751-0.612,0.751h-0.19v4.799c0,0.771-0.647,0.995-1.197,0.995c-0.709,0-1.102-0.231-1.46-0.922l-1.61-3.069
			c-0.074-0.149-0.149-0.412-0.18-0.646v3.018H71.943z"/>
		<path clip-path="url(#SVGID_4_)" d="M81.609,94.982l0.076-0.594c0.051-0.381,0.453-0.57,0.877-0.57
			c0.486,0,0.996,0.253,0.996,0.761l-0.256,1.938h-5.687c-0.477,0-0.614-0.519-0.614-0.764c0-0.232,0.138-0.751,0.614-0.751h0.297
			v-4.174h-0.297c-0.477,0-0.614-0.518-0.614-0.76c0-0.232,0.138-0.751,0.614-0.751h5.402c0,0,0.086,1.842,0.086,1.871
			c0,0.405-0.467,0.594-0.879,0.594c-0.393,0-0.859-0.157-0.879-0.56l-0.021-0.371h-1.229v1.28h1.25
			c0.477,0,0.592,0.519,0.592,0.752c0,0.244-0.115,0.764-0.592,0.764h-1.25v1.334H81.609z"/>
		<path clip-path="url(#SVGID_4_)" d="M94.939,95.003c0.496,0,0.615,0.519,0.615,0.751c0,0.245-0.119,0.764-0.615,0.764h-2.773
			c-0.479,0-0.615-0.519-0.615-0.764c0-0.232,0.137-0.751,0.615-0.751h0.295v-4.174h-0.295c-0.479,0-0.615-0.518-0.615-0.76
			c0-0.232,0.137-0.751,0.615-0.751h2.773c0.496,0,0.615,0.519,0.615,0.751c0,0.242-0.119,0.76-0.615,0.76h-0.297v4.174H94.939z"/>
		<path clip-path="url(#SVGID_4_)" d="M99.023,90.894h-0.18v4.045h0.453c1.102,0,1.758-0.615,1.758-2.044
			C101.055,91.479,100.207,90.894,99.023,90.894 M99.107,96.518h-2.744c-0.475,0-0.611-0.519-0.611-0.764
			c0-0.232,0.137-0.751,0.611-0.751h0.297v-4.174h-0.297c-0.475,0-0.611-0.518-0.611-0.76c0-0.232-0.047-0.751,0.611-0.751h2.723
			c2.277,0,4.191,0.719,4.191,3.429C103.277,95.691,101.416,96.518,99.107,96.518"/>
		<path clip-path="url(#SVGID_4_)" d="M91.889,96.657c-0.172,0-0.242,0.022-0.326,0.022c-0.131,0-0.268-0.063-0.428-0.318
			c-0.166-0.274-0.76-1.211-0.992-1.623c-0.168-0.274-0.551-0.965-0.783-1.376c-0.16-0.285-0.316-0.415-0.424-0.478l1.65-2.056
			h0.139c0.498,0,0.615-0.518,0.615-0.76c0-0.232-0.117-0.751-0.615-0.751h-2.57c-0.479,0-0.615,0.519-0.615,0.751
			c0,0.242,0.137,0.76,0.615,0.76h0.041l-1.104,1.537h-0.389v-1.537h0.105c0.498,0,0.613-0.518,0.613-0.76
			c0-0.232-0.115-0.751-0.613-0.751h-2.562c-0.477,0-0.615,0.519-0.615,0.751c0,0.242,0.139,0.76,0.615,0.76h0.297v4.174h-0.297
			c-0.477,0-0.615,0.519-0.615,0.751c0,0.245,0.139,0.764,0.615,0.764h2.615c0.496,0,0.615-0.519,0.615-0.764
			c0-0.232-0.119-0.751-0.615-0.751h-0.158v-1.006h0.137c0.242,0,0.432,0.096,0.645,0.477c0.287,0.52,0.551,0.994,0.85,1.503
			c0.285,0.52,0.635,1.118,0.932,1.623c0.318,0.541,0.916,0.859,1.676,0.859c0.998,0,1.486-0.486,1.486-1.125
			C92.428,96.943,92.176,96.657,91.889,96.657"/>
		<path clip-path="url(#SVGID_4_)" d="M63.751,88.831c0.413,0,0.824,0.201,0.824,0.762c0,0.37-0.221,0.711-0.326,1.146v0.931
			c0,0.475-0.306,0.761-0.976,0.761c-0.646,0-0.921-0.286-0.921-0.761c0-0.331-0.146-0.783-0.76-0.783
			c-0.689,0-1.229,0.497-1.229,1.968c0,1.557,0.58,2.077,1.438,2.077c0.605,0,1.06-0.297,1.347-0.438
			c0.339-0.17,0.519-0.222,0.719-0.222c0.328,0,0.73,0.285,0.73,0.762c0,0.457-0.254,0.742-0.57,0.966
			c-0.424,0.307-1.187,0.688-2.426,0.688c-1.874,0-3.46-0.934-3.46-3.666c0-2.667,1.555-3.875,3.471-3.875
			c0.636,0,0.974,0.182,1.229,0.383C62.958,89.096,63.223,88.831,63.751,88.831"/>
	</g>
</g>
<g>
</g>
<g>
</g>
<g>
</g>
<g>
</g>
<g>
</g>
<g>
</g>
</svg>
