<?xml version="1.0" encoding="utf-8"?>
<!-- Generator: Adobe Illustrator 16.0.4, SVG Export Plug-In . SVG Version: 6.00 Build 0)  -->
<!DOCTYPE svg PUBLIC "-//W3C//DTD SVG 1.1//EN" "http://www.w3.org/Graphics/SVG/1.1/DTD/svg11.dtd">
<svg version="1.1" id="Layer_1" xmlns="http://www.w3.org/2000/svg" xmlns:xlink="http://www.w3.org/1999/xlink" x="0px" y="0px"
	 width="160px" height="160px" viewBox="0 0 160 160" enable-background="new 0 0 160 160" xml:space="preserve">
<g id="Waag_Logo">
	<g>
		<path fill="#414042" d="M131.896,82.001c-0.402,0-0.564,0-0.807,0c-0.24,0-0.562,0-0.885,0c-0.162,0.483-0.322,1.128-0.725,2.095
			c-0.324,0.805-0.484,1.529-0.564,2.175l0,0c-0.162-0.806-0.242-1.21-0.645-2.175c-0.322-0.806-0.564-1.53-0.807-2.095
			c-0.402,0-0.482,0-0.805,0s-0.645,0-0.885,0c0.078,0.402,0.16,0.725,1.367,3.302c0.564,1.289,0.807,1.853,1.049,2.257
			c-0.16,0.321-0.322,0.562-0.564,1.127s-0.402,0.886-0.645,1.369c0.402,0,0.564,0,0.967,0c0.322,0,0.645,0,0.805,0
			c0.242-0.805,0.564-1.45,1.289-3.303C131.172,83.772,131.736,82.484,131.896,82.001 M125.451,83.451c0-0.242,0-0.403,0-0.645
			s0-0.483,0-0.806c-0.32,0.08-1.367,0-1.691,0.08l0,0c0.082-0.482,0.082-0.886,0.082-1.369c-0.404,0.081-0.967,0.162-1.369,0.162
			c0,0.321,0,1.046,0.08,1.207l0,0c-0.242-0.08-0.967-0.08-1.289-0.08c0,0.242,0,0.483,0,0.725c0,0.322,0,0.403,0,0.726
			c0.322,0,0.887,0,1.209-0.161l0,0c-0.08,0.644-0.162,2.013-0.162,2.658c0,1.369,0.484,2.013,1.773,2.013
			c0.482,0,0.965-0.08,1.287-0.161c0-0.24-0.08-0.482-0.08-0.725s0-0.402,0-0.563c-0.16,0-0.402,0.08-0.643,0.08
			c-0.807,0-0.969-0.161-0.969-1.048c0-0.644-0.08-1.771-0.16-2.093v-0.08C124.084,83.451,124.969,83.451,125.451,83.451
			 M119.088,84.498c-0.4-0.08-0.805-0.08-1.289-0.08c-0.482,0-0.965,0-1.367,0.08c0-0.967,0.482-1.369,1.367-1.369
			C118.766,83.129,119.088,83.531,119.088,84.498 M120.539,85.465V84.98c0-2.255-0.967-3.221-2.658-3.221
			c-1.771,0-2.82,1.288-2.82,3.141c0,1.933,1.211,3.142,3.062,3.142c0.885,0,1.609-0.242,2.014-0.564
			c-0.082-0.322-0.082-0.966-0.082-1.207c-0.482,0.241-1.127,0.321-1.852,0.321c-0.967,0-1.611-0.402-1.691-1.289
			c0.162,0.081,0.645,0.081,1.127,0.081L120.539,85.465z M113.771,82.001c-0.32,0-0.562,0-0.805,0c-0.322,0-0.484,0-0.805,0
			c0,0.967,0.08,2.014,0.08,3.06c0,0.807,0,1.854,0,2.82c0.322,0,0.482,0,0.807,0c0.32,0,0.482,0,0.805,0c0-0.967,0-2.014,0-2.82
			C113.691,84.015,113.691,82.968,113.771,82.001 M113.854,80.793c0-0.322,0-0.403,0-0.726c0-0.321,0-0.402,0-0.725
			c-0.322,0-0.564,0-0.967,0c-0.404,0-0.645,0-0.967,0c0,0.242,0,0.403,0,0.725c0,0.322,0,0.403,0,0.726c0.322,0,0.562,0,0.967,0
			C113.369,80.793,113.611,80.793,113.854,80.793 M110.953,82.484c-0.4-0.483-0.967-0.645-1.689-0.645
			c-1.854,0-3.062,1.289-3.062,3.061c0,1.772,1.209,3.142,3.062,3.142c0.643,0,1.289-0.242,1.689-0.645
			c-0.08-0.402-0.16-0.967-0.16-1.369c-0.404,0.322-0.887,0.483-1.449,0.483c-1.047,0-1.693-0.645-1.693-1.692
			c0-0.966,0.564-1.61,1.693-1.61c0.725,0,1.045,0.162,1.529,0.563C110.873,83.209,110.873,82.726,110.953,82.484 M103.785,84.9
			c0,1.048-0.482,1.772-1.531,1.772c-1.047,0-1.529-0.806-1.529-1.772c0-1.047,0.482-1.691,1.529-1.691
			C103.303,83.129,103.785,83.772,103.785,84.9 M105.234,84.9c0-1.933-1.209-3.141-2.898-3.141c-1.691,0-2.9,1.208-2.9,3.06
			c0,1.934,1.127,3.223,2.9,3.223C104.025,88.122,105.234,86.753,105.234,84.9 M98.307,86.108c0-0.967-0.482-1.369-1.529-1.61
			c-1.127-0.242-1.207-0.322-1.207-0.645c0-0.402,0.322-0.645,1.127-0.645c0.562,0,1.047,0.081,1.449,0.322
			c0-0.483,0.08-0.966,0.16-1.288c-0.4-0.323-1.047-0.483-1.691-0.483c-1.609,0-2.496,0.806-2.496,1.933
			c0,0.886,0.404,1.449,1.611,1.61c1.047,0.162,1.127,0.241,1.127,0.646c0,0.402-0.242,0.644-0.965,0.644
			c-0.564,0-1.049-0.08-1.451-0.321c0,0.402-0.08,0.885-0.08,1.289c0.402,0.321,1.047,0.401,1.611,0.401
			C97.422,88.042,98.307,87.317,98.307,86.108 M89.045,83.612c0,0.321-0.08,0.725-0.08,1.127s0,0.805,0,0.886
			c-0.242,0.323-0.564,0.483-1.209,0.483c-0.885,0-1.369-0.564-1.369-1.449c0-0.887,0.402-1.45,1.369-1.45
			C88.4,83.29,88.803,83.371,89.045,83.612 M90.494,82.001c-0.24,0-0.4,0-0.562,0s-0.322,0-0.564,0
			c-0.08,0.161-0.08,0.402-0.16,0.725l0,0c-0.324-0.563-0.727-0.886-1.611-0.886c-1.611,0-2.66,1.128-2.66,2.899
			c0,1.611,1.129,2.82,2.66,2.82c0.725,0,1.209-0.484,1.449-0.968l0,0c0,0.081,0,0.322,0,0.483v0.242c0,1.047-0.482,1.45-1.531,1.45
			c-0.482,0-0.885-0.081-1.289-0.162c0,0.403,0,0.807-0.08,1.289c0.402,0.242,0.967,0.322,1.451,0.322c1.691,0,2.9-0.886,2.9-3.062
			v-2.416C90.494,83.692,90.494,82.887,90.494,82.001 M82.279,86.351c-0.242,0.322-0.562,0.482-1.127,0.482
			c-0.646,0-0.887-0.241-0.887-0.644c0-0.483,0.322-0.646,1.047-0.725c0.404,0,0.725,0,0.887-0.081L82.279,86.351z M83.891,87.881
			c-0.082-0.563-0.162-1.048-0.162-1.53v-2.175c0-1.691-0.805-2.416-2.496-2.416c-0.967,0-1.691,0.241-2.094,0.886
			c0.08,0.322,0.16,0.726,0.16,1.208l0,0c0.322-0.402,0.887-0.645,1.854-0.645c0.885,0,1.207,0.162,1.207,0.887v0.322h-0.322
			c-2.094,0-3.061,0.482-3.061,1.853c0,1.127,0.725,1.771,1.934,1.771c0.885,0,1.369-0.402,1.609-1.128h0.082
			c0,0.322,0.08,0.646,0.16,0.967c0.242,0,0.484,0,0.645,0C83.488,87.881,83.729,87.881,83.891,87.881 M76.318,86.351
			c-0.242,0.322-0.562,0.482-1.127,0.482c-0.645,0-0.887-0.241-0.887-0.644c0-0.483,0.322-0.646,1.049-0.725
			c0.402,0,0.723,0,0.885-0.081L76.318,86.351z M77.848,87.881c-0.08-0.563-0.16-1.048-0.16-1.53v-2.175
			c0-1.691-0.805-2.416-2.496-2.416c-0.967,0-1.691,0.241-2.094,0.886c0.08,0.322,0.16,0.726,0.16,1.208l0,0
			c0.322-0.402,0.885-0.645,1.854-0.645c0.885,0,1.207,0.162,1.207,0.887v0.322h-0.322c-2.094,0-3.061,0.482-3.061,1.853
			c0,1.127,0.725,1.771,1.934,1.771c0.887,0,1.369-0.402,1.611-1.128h0.078c0,0.322,0.082,0.646,0.162,0.967
			c0.242,0,0.484,0,0.645,0C77.447,87.881,77.688,87.881,77.848,87.881 M72.371,82.001c-0.322,0-0.482,0-0.725,0
			c-0.322,0-0.402,0-0.805,0c-0.08,0.564-0.322,1.289-0.482,2.014c-0.162,0.805-0.404,1.61-0.484,2.336l0,0
			c-0.08-0.726-0.402-1.611-0.645-2.497c-0.324-0.886-0.484-1.45-0.645-1.772c-0.162,0-0.402,0-0.645,0s-0.482,0-0.645,0
			c-0.16,0.322-0.32,0.887-0.645,1.772c-0.322,0.966-0.562,1.853-0.645,2.497l0,0c-0.08-0.645-0.24-1.45-0.482-2.336
			c-0.162-0.725-0.402-1.449-0.484-2.014c-0.322,0-0.482,0-0.805,0s-0.402,0-0.725,0c0,0.242,0.24,1.128,0.965,3.302
			c0.404,1.128,0.646,1.934,0.807,2.578c0.242,0,0.484,0,0.725,0c0.242,0,0.564,0,0.645,0c0.082-0.241,0.564-1.369,0.887-2.337
			c0.242-0.725,0.402-1.368,0.482-2.013l0,0c0.082,0.645,0.242,1.288,0.484,2.013c0.322,0.968,0.805,2.176,0.885,2.337
			c0.082,0,0.484,0,0.727,0s0.645,0,0.645,0c0.16-0.645,0.4-1.369,0.805-2.578C72.049,83.048,72.371,82.162,72.371,82.001"/>
	</g>
	<path fill="#414042" d="M43.295,63.797c-8.861,0-16.109,7.169-16.109,16.11c0,8.86,7.248,16.109,16.109,16.109
		c8.859,0,16.109-7.169,16.109-16.109C59.404,71.047,52.234,63.797,43.295,63.797z M46.598,87.56v-5.075
		c0-1.933-1.451-3.464-3.303-3.464c-1.854,0-3.303,1.611-3.303,3.464v5.075h-6.041l1.047-10.149l2.98-6.203l1.289,5.075l4.107-6.847
		l4.107,6.927l1.129-5.155l2.979,6.203l1.049,10.149H46.598z"/>
</g>
<g>
</g>
<g>
</g>
<g>
</g>
<g>
</g>
<g>
</g>
<g>
</g>
</svg>
