<?xml version="1.0" encoding="utf-8"?>
<!-- Generator: Adobe Illustrator 16.0.4, SVG Export Plug-In . SVG Version: 6.00 Build 0)  -->
<!DOCTYPE svg PUBLIC "-//W3C//DTD SVG 1.1//EN" "http://www.w3.org/Graphics/SVG/1.1/DTD/svg11.dtd">
<svg version="1.1" id="Layer_1" xmlns="http://www.w3.org/2000/svg" xmlns:xlink="http://www.w3.org/1999/xlink" x="0px" y="0px"
	 width="160px" height="160px" viewBox="0 0 160 160" enable-background="new 0 0 160 160" xml:space="preserve">
<g>
	<rect x="48.066" y="61.918" fill="#FFFFFF" width="65.692" height="38.012"/>
	<g>
		<defs>
			<rect id="SVGID_1_" x="48.066" y="61.918" width="65.692" height="38.012"/>
		</defs>
		<clipPath id="SVGID_2_">
			<use xlink:href="#SVGID_1_"  overflow="visible"/>
		</clipPath>
		<path clip-path="url(#SVGID_2_)" fill="#26292A" d="M112.467,87.466l0.605-0.059l-0.119-1.237
			c-0.045-0.471,0.201-0.677,0.633-0.718l0.113-0.011l-0.055-0.572l-0.041,0.004c-0.338,0.032-0.643,0.269-0.74,0.609h-0.01
			l-0.045-0.492l-0.576,0.059L112.467,87.466z M109.977,85.265l-0.602,0.059l0.156,1.636c0.055,0.568,0.346,0.805,0.887,0.754
			c0.391-0.038,0.621-0.267,0.717-0.522h0.01l0.037,0.398l0.584-0.056l-0.232-2.419l-0.607,0.06l0.125,1.32
			c0.045,0.449-0.107,0.711-0.473,0.746c-0.145,0.014-0.262-0.022-0.342-0.111c-0.08-0.096-0.105-0.254-0.121-0.428L109.977,85.265z
			 M107.131,85.539l-0.602,0.059l0.16,1.638c0.053,0.564,0.344,0.803,0.885,0.752c0.391-0.038,0.621-0.267,0.715-0.521l0.008-0.003
			l0.039,0.4l0.586-0.058l-0.234-2.417l-0.605,0.059l0.127,1.32c0.043,0.447-0.111,0.711-0.475,0.747
			c-0.146,0.013-0.264-0.022-0.34-0.114c-0.082-0.092-0.107-0.252-0.125-0.424L107.131,85.539z M104.893,85.062l0.02,0.176
			c0.043,0.45-0.012,0.523-0.324,0.555l-0.08,0.008l0.039,0.426l0.391-0.039l0.125,1.305c0.049,0.503,0.324,0.693,0.801,0.646
			c0.203-0.019,0.377-0.06,0.438-0.074l-0.047-0.458c0,0-0.121,0.03-0.223,0.041c-0.248,0.021-0.352-0.07-0.375-0.321l-0.115-1.194
			l0.555-0.052l-0.045-0.438l-0.561,0.056l-0.066-0.684L104.893,85.062z M103.713,88.309l0.613-0.058l-0.344-3.575l-0.613,0.056
			L103.713,88.309z M101.227,86.108l-0.605,0.058l0.158,1.637c0.057,0.565,0.35,0.805,0.889,0.753
			c0.391-0.038,0.619-0.264,0.713-0.521h0.012l0.037,0.398l0.586-0.06l-0.234-2.512l-0.607,0.154l0.127,1.319
			c0.045,0.452-0.109,0.713-0.475,0.749c-0.145,0.014-0.262-0.022-0.34-0.117c-0.082-0.092-0.107-0.25-0.121-0.423L101.227,86.108z
			 M95.021,89.144l0.611-0.06l-0.154-1.607c-0.057-0.586-0.346-0.838-0.887-0.786c-0.402,0.04-0.637,0.278-0.74,0.532h-0.01
			l-0.039-0.403l-0.584,0.059l0.232,2.419l0.613-0.061l-0.137-1.414c-0.037-0.368,0.123-0.617,0.484-0.653
			c0.146-0.015,0.27,0.021,0.352,0.115c0.084,0.094,0.104,0.249,0.117,0.423L95.021,89.144z M92.84,88.669l-0.598,0.057
			c-0.025,0.151-0.105,0.331-0.432,0.362c-0.359,0.035-0.559-0.189-0.631-0.646l1.652-0.158l-0.02-0.196
			c-0.064-0.674-0.438-1.188-1.234-1.111c-0.729,0.071-1.1,0.645-1.029,1.382c0.074,0.758,0.518,1.227,1.279,1.153
			C92.449,89.45,92.809,89.138,92.84,88.669 M92.174,87.965l-1.025,0.099c0.004-0.4,0.15-0.659,0.465-0.686
			c0.336-0.034,0.5,0.198,0.557,0.561L92.174,87.965z M89.09,89.031l-0.6,0.057c-0.027,0.148-0.105,0.33-0.432,0.359
			c-0.357,0.035-0.561-0.188-0.629-0.645l1.648-0.157l-0.016-0.195c-0.066-0.675-0.441-1.187-1.234-1.11
			c-0.732,0.067-1.102,0.646-1.031,1.38c0.074,0.759,0.516,1.228,1.279,1.153C88.697,89.813,89.057,89.499,89.09,89.031
			 M88.422,88.324l-1.025,0.1c0.004-0.398,0.15-0.658,0.463-0.686c0.338-0.035,0.502,0.2,0.559,0.559L88.422,88.324z M85.762,90.035
			l0.609-0.057l-0.23-2.417l-0.609,0.057L85.762,90.035z M85.48,87.154l0.619-0.057l-0.053-0.576l-0.623,0.06L85.48,87.154z
			 M83.857,87.089l0.016,0.177c0.043,0.449-0.01,0.523-0.32,0.554l-0.082,0.008l0.039,0.426l0.391-0.038l0.125,1.302
			c0.051,0.502,0.324,0.692,0.799,0.647c0.205-0.022,0.379-0.06,0.438-0.076l-0.045-0.456c0,0-0.119,0.029-0.223,0.037
			c-0.246,0.025-0.352-0.069-0.375-0.316l-0.115-1.195l0.555-0.056l-0.043-0.434l-0.562,0.056l-0.066-0.687L83.857,87.089z
			 M81.697,88.693c-0.008-0.193,0.096-0.363,0.377-0.392c0.275-0.027,0.418,0.113,0.449,0.44l0.012,0.12
			c-0.518,0.074-0.885,0.141-1.125,0.298c-0.234,0.149-0.332,0.367-0.307,0.642c0.045,0.445,0.375,0.677,0.869,0.632
			c0.35-0.033,0.588-0.197,0.705-0.462l0.014-0.002c0.09,0.271,0.254,0.346,0.613,0.313l0.17-0.018l-0.041-0.438
			c-0.16,0.014-0.211-0.042-0.227-0.195l-0.084-0.89c-0.061-0.643-0.367-0.913-1.084-0.844c-0.613,0.062-0.951,0.386-0.926,0.849
			L81.697,88.693z M82.096,90.011c-0.223,0.019-0.367-0.096-0.387-0.294c-0.01-0.112,0.018-0.209,0.098-0.274
			c0.119-0.104,0.344-0.162,0.766-0.226l0.008,0.068C82.627,89.757,82.363,89.983,82.096,90.011 M80.652,88.918
			c-0.084-0.596-0.557-0.834-1.146-0.78c-0.73,0.073-1.125,0.614-1.053,1.384c0.076,0.785,0.541,1.228,1.289,1.153
			c0.598-0.057,1.018-0.409,0.996-1.021l-0.59,0.057c0.012,0.215-0.08,0.498-0.443,0.533c-0.436,0.042-0.586-0.354-0.625-0.791
			c-0.045-0.463,0.072-0.854,0.467-0.893c0.301-0.027,0.461,0.161,0.508,0.412L80.652,88.918z M76.246,88.511l-0.604,0.059
			l0.158,1.64c0.055,0.564,0.348,0.803,0.887,0.752c0.391-0.038,0.619-0.267,0.715-0.522l0.008-0.002l0.041,0.4l0.584-0.058
			l-0.232-2.416l-0.609,0.059l0.129,1.32c0.041,0.449-0.111,0.711-0.473,0.746c-0.145,0.014-0.264-0.022-0.342-0.114
			c-0.082-0.091-0.105-0.25-0.123-0.423L76.246,88.511z M74.845,87.48l-0.609,0.06l0.143,1.491h-0.012
			c-0.129-0.209-0.381-0.356-0.709-0.324c-0.607,0.06-1.008,0.546-0.928,1.389c0.086,0.871,0.537,1.203,1.133,1.146
			c0.375-0.035,0.592-0.267,0.693-0.501l0.014-0.002l0.035,0.373l0.584-0.058L74.845,87.48z M74.486,90.079
			c0.037,0.379-0.143,0.687-0.506,0.72c-0.396,0.038-0.58-0.271-0.629-0.78c-0.053-0.543,0.123-0.856,0.49-0.889
			c0.332-0.033,0.576,0.219,0.619,0.672L74.486,90.079z M70.099,91.543l2.301-0.22l-0.047-0.494l-1.666,0.163l-0.096-1.006
			l1.525-0.147l-0.051-0.486l-1.523,0.145l-0.094-0.986l1.629-0.155l-0.049-0.501l-2.264,0.221L70.099,91.543z M67.164,92.737
			c0.764-0.073,1.145-0.447,1.076-1.158l-0.221-2.273l-0.582,0.054l0.031,0.349l-0.01,0.003c-0.117-0.194-0.359-0.373-0.74-0.337
			c-0.588,0.058-0.992,0.532-0.918,1.32c0.082,0.843,0.533,1.153,1.123,1.097c0.391-0.036,0.604-0.285,0.686-0.5h0.008l0.033,0.343
			c0.045,0.47-0.127,0.646-0.516,0.682c-0.342,0.032-0.473-0.069-0.539-0.254l-0.59,0.056
			C66.097,92.584,66.517,92.801,67.164,92.737 M67.562,90.682c0.035,0.354-0.172,0.652-0.502,0.684
			c-0.404,0.041-0.592-0.244-0.637-0.729c-0.049-0.506,0.131-0.813,0.482-0.846c0.34-0.03,0.59,0.209,0.633,0.633L67.562,90.682z
			 M64.796,92.057l0.613-0.061l-0.154-1.611c-0.059-0.585-0.348-0.836-0.889-0.783c-0.402,0.039-0.637,0.277-0.74,0.532h-0.008
			l-0.041-0.403l-0.584,0.059l0.232,2.416l0.611-0.059l-0.135-1.413c-0.035-0.369,0.123-0.618,0.486-0.654
			c0.146-0.014,0.268,0.02,0.352,0.112c0.08,0.095,0.1,0.253,0.117,0.427L64.796,92.057z M61.912,92.334l0.611-0.062l-0.232-2.419
			l-0.611,0.062L61.912,92.334z M61.63,89.45l0.619-0.058l-0.057-0.577l-0.619,0.062L61.63,89.45z M60.007,89.384l0.016,0.177
			c0.045,0.45-0.01,0.524-0.32,0.555l-0.084,0.009l0.043,0.425l0.389-0.037l0.127,1.304c0.047,0.502,0.32,0.69,0.799,0.645
			c0.203-0.021,0.379-0.06,0.436-0.074l-0.045-0.457c0,0-0.121,0.028-0.225,0.039c-0.244,0.023-0.35-0.073-0.373-0.321l-0.115-1.193
			l0.555-0.053l-0.043-0.437l-0.562,0.055l-0.066-0.687L60.007,89.384z M58.826,92.63l0.611-0.057l-0.154-1.612
			c-0.055-0.584-0.346-0.837-0.887-0.785c-0.398,0.039-0.629,0.285-0.715,0.519h-0.008l-0.148-1.547l-0.613,0.059l0.344,3.574
			l0.613-0.06l-0.139-1.413c-0.031-0.369,0.125-0.616,0.49-0.651c0.145-0.014,0.268,0.019,0.348,0.112
			c0.084,0.091,0.102,0.243,0.121,0.418L58.826,92.63z M56.595,91.233c-0.086-0.597-0.559-0.833-1.148-0.777
			c-0.729,0.071-1.125,0.615-1.051,1.385c0.076,0.784,0.537,1.224,1.287,1.151c0.6-0.057,1.02-0.408,0.994-1.021l-0.588,0.059
			c0.012,0.214-0.08,0.497-0.443,0.529c-0.436,0.044-0.584-0.354-0.627-0.787c-0.043-0.464,0.076-0.857,0.469-0.896
			c0.301-0.026,0.461,0.162,0.508,0.416L56.595,91.233z M53.359,93.158l0.611-0.061l-0.232-2.416l-0.611,0.057L53.359,93.158z
			 M53.078,90.274l0.619-0.058l-0.053-0.576l-0.623,0.061L53.078,90.274z M51.455,90.209l0.016,0.176
			c0.045,0.45-0.008,0.524-0.32,0.554l-0.084,0.009l0.045,0.426l0.389-0.039l0.125,1.303c0.049,0.504,0.322,0.694,0.799,0.648
			c0.205-0.023,0.379-0.061,0.436-0.075l-0.043-0.458c0,0-0.119,0.028-0.225,0.038c-0.246,0.024-0.352-0.072-0.373-0.319
			l-0.117-1.193l0.555-0.054l-0.041-0.436l-0.562,0.055l-0.066-0.688L51.455,90.209z M50.625,90.864
			c-0.084-0.578-0.494-0.949-1.328-0.871c-0.789,0.079-1.211,0.556-1.152,1.151c0.047,0.517,0.395,0.826,0.99,0.879l0.518,0.047
			c0.393,0.036,0.549,0.176,0.574,0.443c0.027,0.291-0.141,0.551-0.631,0.598c-0.443,0.044-0.697-0.191-0.77-0.518l-0.656,0.064
			c0.102,0.67,0.619,1.008,1.459,0.926c0.865-0.083,1.305-0.536,1.24-1.239c-0.051-0.512-0.357-0.81-1.004-0.868l-0.527-0.043
			c-0.365-0.033-0.52-0.171-0.545-0.435c-0.027-0.272,0.172-0.502,0.543-0.535c0.4-0.04,0.592,0.192,0.645,0.464L50.625,90.864z"/>
		<path clip-path="url(#SVGID_2_)" fill="#26292A" d="M95.014,71.055c0-3.069,1.955-4.049,3.541-4.049
			c2.598,0,3.541,2.093,3.541,3.543h0.674c0-1.721-1.111-4.216-4.215-4.216c-1.889,0-4.217,1.146-4.217,4.722v7.082
			c0,3.575,2.328,4.724,4.217,4.724c3.104,0,4.215-2.496,4.215-4.216h-0.674c0,1.447-0.943,3.539-3.541,3.539
			c-1.586,0-3.541-0.979-3.541-4.047V71.055z M90.965,71.055c0-6.142,4.217-8.096,7.59-8.096c5.598,0,7.588,4.52,7.588,7.59h0.674
			c0-3.339-2.158-8.266-8.262-8.266c-3.676,0-8.266,2.126-8.266,8.771v7.082c0,6.645,4.59,8.769,8.266,8.769
			c6.104,0,8.262-4.925,8.262-8.261h-0.674c0,3.067-1.99,7.588-7.588,7.588c-3.373,0-7.59-1.955-7.59-8.096V71.055z M87.76,62.792
			H77.541v23.606H87.76v-0.672h-9.543v-3.375h9.543V81.68h-9.543v-4.724h8.872v-0.675h-8.872v-3.37h8.872v-0.677h-8.872v-4.722
			h9.543V66.84h-9.543v-3.372h9.543V62.792z M72.552,79.722c0,4.419-3.711,6.511-7.084,6.511c-5.598,0-7.588-4.521-7.588-7.588
			h-0.674c0,3.336,2.156,8.261,8.262,8.261c3.676,0,7.756-2.326,7.756-7.184c0-4.789-3.506-6.073-7.014-7.385
			c-1.957-0.744-3.879-1.453-3.879-2.97c0-1.619,1.553-2.361,2.969-2.361c2.225,0,3.002,1.788,3.002,3.002h0.674
			c0-1.519-0.945-3.675-3.676-3.675c-1.754,0-3.643,0.944-3.643,3.034c0,2.025,2.156,2.799,4.316,3.609
			C69.246,74.191,72.552,75.404,72.552,79.722 M68.503,79.722c0,1.686-1.586,2.462-3.035,2.462c-2.598,0-3.541-2.092-3.541-3.539
			h-0.676c0,1.72,1.115,4.216,4.217,4.216c1.754,0,3.711-1.015,3.711-3.139c0-1.957-2.193-2.766-4.352-3.575
			c-3.305-1.214-6.543-2.428-6.543-6.779c0-4.454,3.643-6.408,7.016-6.408c5.227,0,7.049,4.182,7.049,7.049h0.674
			c0-3.168-1.988-7.725-7.723-7.725c-3.711,0-7.689,2.195-7.689,7.084c0,4.824,3.475,6.106,6.98,7.422
			C66.548,77.529,68.503,78.237,68.503,79.722"/>
		<path clip-path="url(#SVGID_2_)" fill="#26292A" d="M98.611,85.727c0.443-0.041,0.738,0.244,0.814,0.627l0.654-0.063
			c-0.133-0.774-0.76-1.114-1.514-1.044c-0.969,0.093-1.521,0.837-1.414,1.977c0.109,1.138,0.748,1.714,1.762,1.615
			c0.828-0.079,1.307-0.627,1.281-1.346l-0.645,0.062c0,0.421-0.211,0.763-0.689,0.809c-0.568,0.054-0.951-0.394-1.031-1.225
			C97.752,86.298,98.057,85.778,98.611,85.727"/>
	</g>
</g>
<g>
</g>
<g>
</g>
<g>
</g>
<g>
</g>
<g>
</g>
<g>
</g>
</svg>
