<?xml version="1.0" encoding="utf-8"?>
<!-- Generator: Adobe Illustrator 16.0.4, SVG Export Plug-In . SVG Version: 6.00 Build 0)  -->
<!DOCTYPE svg PUBLIC "-//W3C//DTD SVG 1.1//EN" "http://www.w3.org/Graphics/SVG/1.1/DTD/svg11.dtd">
<svg version="1.1" id="Layer_1" xmlns="http://www.w3.org/2000/svg" xmlns:xlink="http://www.w3.org/1999/xlink" x="0px" y="0px"
	 width="160px" height="160px" viewBox="0 0 160 160" enable-background="new 0 0 160 160" xml:space="preserve">
<g id="Bits_of_Freedom_Logo">
	<path fill="#414042" d="M53.377,70.181c-0.263-0.301-0.602-0.54-1.014-0.72c-0.414-0.179-0.913-0.269-1.498-0.269h-2.673v12.773
		h2.493c1.197,0,2.067-0.299,2.611-0.897s0.817-1.459,0.817-2.583v-0.718c0-0.669-0.103-1.204-0.306-1.605
		c-0.205-0.401-0.521-0.702-0.951-0.906c0.204-0.119,0.382-0.247,0.538-0.386c0.155-0.136,0.287-0.296,0.395-0.475
		c0.108-0.18,0.189-0.389,0.243-0.628c0.053-0.239,0.081-0.532,0.081-0.88v-0.466c0-0.419-0.058-0.823-0.171-1.211
		C53.828,70.821,53.641,70.479,53.377,70.181 M52.354,78.845c-0.024,0.264-0.089,0.49-0.198,0.682
		c-0.107,0.191-0.266,0.341-0.476,0.448c-0.208,0.107-0.499,0.161-0.87,0.161h-0.789v-4.09h0.807c0.335,0,0.604,0.042,0.808,0.125
		c0.203,0.084,0.362,0.207,0.476,0.368c0.113,0.161,0.188,0.361,0.224,0.601c0.035,0.239,0.053,0.521,0.053,0.844
		C52.39,78.294,52.377,78.582,52.354,78.845 M52.076,73.974c-0.208,0.306-0.619,0.457-1.228,0.457h-0.826v-3.516h0.754
		c0.609,0,1.03,0.144,1.265,0.431c0.232,0.286,0.349,0.717,0.349,1.291C52.39,73.224,52.285,73.669,52.076,73.974 M55.889,81.966
		h1.829V69.192h-1.829V81.966z M58.579,70.915h2.118v11.051h1.831V70.915h2.116v-1.723h-6.064V70.915z M70.536,70.001
		c-0.269-0.276-0.592-0.497-0.969-0.665c-0.375-0.167-0.792-0.25-1.246-0.25c-0.527,0-0.988,0.092-1.382,0.276
		c-0.394,0.188-0.721,0.434-0.978,0.745c-0.257,0.312-0.451,0.682-0.583,1.112c-0.132,0.432-0.198,0.886-0.198,1.363
		c0,0.803,0.135,1.469,0.404,2.002c0.27,0.531,0.798,0.959,1.588,1.282l1.31,0.538c0.226,0.096,0.409,0.186,0.546,0.269
		c0.138,0.084,0.244,0.191,0.323,0.323c0.077,0.131,0.129,0.305,0.152,0.52c0.024,0.215,0.035,0.491,0.035,0.826
		c0,0.285-0.011,0.55-0.035,0.789c-0.023,0.239-0.081,0.438-0.171,0.602c-0.089,0.16-0.221,0.286-0.394,0.376
		c-0.174,0.09-0.415,0.134-0.727,0.134c-0.466,0-0.798-0.134-0.996-0.402c-0.197-0.271-0.296-0.572-0.296-0.907v-0.574h-1.83v0.682
		c0,0.431,0.081,0.831,0.243,1.202c0.162,0.371,0.378,0.69,0.655,0.959c0.274,0.271,0.603,0.483,0.987,0.638
		c0.381,0.155,0.794,0.233,1.237,0.233c0.586,0,1.082-0.096,1.489-0.287c0.407-0.191,0.731-0.451,0.978-0.779
		c0.245-0.33,0.421-0.724,0.529-1.185c0.107-0.461,0.162-0.96,0.162-1.499c0-0.466-0.024-0.881-0.072-1.246
		s-0.141-0.688-0.278-0.969c-0.137-0.28-0.333-0.526-0.582-0.735c-0.252-0.21-0.582-0.392-0.987-0.548l-1.399-0.557
		c-0.24-0.095-0.429-0.189-0.565-0.287c-0.138-0.094-0.242-0.206-0.314-0.331c-0.072-0.126-0.116-0.274-0.134-0.448
		c-0.019-0.173-0.028-0.386-0.028-0.637c0-0.216,0.018-0.421,0.053-0.619c0.037-0.198,0.1-0.371,0.19-0.521
		c0.09-0.149,0.216-0.271,0.377-0.367c0.16-0.096,0.366-0.144,0.618-0.144c0.466,0,0.798,0.152,0.996,0.457s0.294,0.668,0.294,1.086
		v0.412h1.832v-0.896c0-0.358-0.072-0.709-0.215-1.049C71.012,70.583,70.806,70.275,70.536,70.001 M81.12,69.865
		c-0.294-0.257-0.622-0.452-0.987-0.583c-0.363-0.132-0.732-0.196-1.102-0.196c-0.371,0-0.74,0.064-1.103,0.196
		c-0.366,0.131-0.695,0.326-0.988,0.583c-0.293,0.258-0.529,0.584-0.708,0.978c-0.18,0.395-0.27,0.85-0.27,1.363v6.745
		c0,0.527,0.089,0.984,0.27,1.374c0.179,0.388,0.416,0.71,0.708,0.968c0.292,0.258,0.622,0.452,0.988,0.583
		c0.362,0.131,0.731,0.197,1.103,0.197c0.369,0,0.738-0.066,1.102-0.197c0.365-0.131,0.693-0.325,0.987-0.583s0.529-0.58,0.71-0.968
		c0.18-0.39,0.268-0.847,0.268-1.374v-6.745c0-0.514-0.088-0.969-0.268-1.363C81.649,70.449,81.414,70.123,81.12,69.865
		 M80.269,78.951c0,0.444-0.122,0.771-0.368,0.979c-0.245,0.209-0.535,0.312-0.869,0.312c-0.336,0-0.625-0.104-0.871-0.312
		s-0.367-0.535-0.367-0.979v-6.745c0-0.442,0.121-0.768,0.367-0.978c0.246-0.209,0.535-0.313,0.871-0.313
		c0.334,0,0.624,0.104,0.869,0.313c0.246,0.21,0.368,0.535,0.368,0.978V78.951z M89.166,70.915v-1.723h-5.453v12.773h1.829v-5.454
		h3.157v-1.723h-3.157v-3.874H89.166z"/>
	<polygon fill="#414042" points="93.688,69.192 99.141,69.192 99.141,70.915 95.517,70.915 95.517,74.789 98.675,74.789 
		98.675,76.512 95.517,76.512 95.517,81.966 93.688,81.966 	"/>
	<path fill="#414042" d="M100.325,69.192h2.941c2.153,0,3.23,1.25,3.23,3.75c0,0.741-0.117,1.378-0.351,1.911
		c-0.232,0.531-0.644,0.959-1.229,1.282l1.972,5.83h-1.937l-1.704-5.454h-1.095v5.454h-1.829V69.192z M102.154,74.896h1.041
		c0.324,0,0.581-0.043,0.771-0.134c0.191-0.089,0.338-0.217,0.439-0.385c0.102-0.169,0.17-0.375,0.206-0.62
		c0.036-0.244,0.056-0.529,0.056-0.852c0-0.323-0.02-0.606-0.056-0.853c-0.036-0.244-0.11-0.455-0.224-0.628
		s-0.271-0.302-0.476-0.387c-0.204-0.082-0.472-0.124-0.808-0.124h-0.951V74.896z"/>
	<polygon fill="#414042" points="107.969,69.192 113.422,69.192 113.422,70.915 109.798,70.915 109.798,74.664 112.956,74.664 
		112.956,76.387 109.798,76.387 109.798,80.136 113.422,80.136 113.422,81.966 107.969,81.966 	"/>
	<polygon fill="#414042" points="114.605,69.192 120.059,69.192 120.059,70.915 116.436,70.915 116.436,74.664 119.592,74.664 
		119.592,76.387 116.436,76.387 116.436,80.136 120.059,80.136 120.059,81.966 114.605,81.966 	"/>
	<path fill="#414042" d="M121.244,69.192h2.707c1.043,0,1.838,0.291,2.387,0.87c0.551,0.58,0.825,1.391,0.825,2.431v5.975
		c0,1.196-0.29,2.077-0.869,2.646c-0.58,0.568-1.416,0.852-2.503,0.852h-2.547V69.192z M123.074,80.243h0.842
		c0.515,0,0.879-0.127,1.096-0.385c0.215-0.257,0.322-0.661,0.322-1.212v-6.153c0-0.502-0.102-0.891-0.305-1.166
		s-0.574-0.412-1.113-0.412h-0.842V80.243z"/>
	<path fill="#414042" d="M128.778,72.205c0-0.513,0.089-0.968,0.269-1.362c0.181-0.394,0.415-0.72,0.71-0.978
		c0.292-0.257,0.62-0.452,0.985-0.583c0.365-0.132,0.732-0.196,1.104-0.196s0.738,0.064,1.104,0.196
		c0.365,0.131,0.693,0.326,0.987,0.583c0.292,0.258,0.529,0.584,0.708,0.978c0.179,0.395,0.27,0.85,0.27,1.362v6.746
		c0,0.527-0.091,0.984-0.27,1.374c-0.179,0.388-0.416,0.711-0.708,0.968c-0.294,0.258-0.622,0.452-0.987,0.583
		s-0.732,0.197-1.104,0.197s-0.738-0.066-1.104-0.197s-0.693-0.325-0.985-0.583c-0.295-0.257-0.529-0.58-0.71-0.968
		c-0.18-0.39-0.269-0.847-0.269-1.374V72.205z M130.608,78.951c0,0.444,0.122,0.771,0.367,0.979c0.246,0.209,0.535,0.312,0.87,0.312
		c0.336,0,0.625-0.104,0.871-0.312c0.245-0.209,0.367-0.535,0.367-0.979v-6.746c0-0.441-0.122-0.767-0.367-0.977
		c-0.246-0.209-0.535-0.313-0.871-0.313c-0.335,0-0.624,0.104-0.87,0.313c-0.245,0.21-0.367,0.535-0.367,0.977V78.951z"/>
	<polygon fill="#414042" points="136.528,69.192 138.287,69.192 140.637,75.956 140.674,75.956 143.005,69.192 144.781,69.192 
		144.781,81.966 142.951,81.966 142.951,74.198 142.914,74.198 141.103,79.688 140.188,79.688 138.395,74.198 138.358,74.198 
		138.358,81.966 136.528,81.966 	"/>
	<polygon fill="#414042" points="50.237,91.802 49.496,91.802 48.302,85.937 49.191,85.937 49.86,90.031 49.876,90.031 
		50.551,85.937 51.44,85.937 	"/>
	<polygon fill="#414042" points="51.941,85.937 54.446,85.937 54.446,86.728 52.783,86.728 52.783,88.449 54.231,88.449 
		54.231,89.24 52.783,89.24 52.783,90.961 54.446,90.961 54.446,91.802 51.941,91.802 	"/>
	<path fill="#414042" d="M54.989,85.937h1.352c0.996,0,1.482,0.585,1.482,1.723c0,0.675-0.19,1.17-0.724,1.466l0.906,2.677h-0.89
		l-0.782-2.504h-0.503v2.504h-0.84V85.937z M55.829,88.558h0.479c0.584,0,0.675-0.331,0.675-0.915c0-0.593-0.099-0.915-0.717-0.915
		h-0.437V88.558z"/>
	<path fill="#414042" d="M58.497,85.937h1.244c0.948,0,1.475,0.569,1.475,1.517v2.743c0,1.086-0.56,1.605-1.548,1.605h-1.17V85.937z
		 M59.336,91.011h0.387c0.471,0,0.651-0.23,0.651-0.733v-2.824c0-0.462-0.157-0.726-0.651-0.726h-0.387V91.011z"/>
	<polygon fill="#414042" points="62.005,85.937 64.509,85.937 64.509,86.728 62.845,86.728 62.845,88.449 64.294,88.449 
		64.294,89.24 62.845,89.24 62.845,90.961 64.509,90.961 64.509,91.802 62.005,91.802 	"/>
	<path fill="#414042" d="M65.052,85.937h1.243c0.949,0,1.475,0.569,1.475,1.517v2.743c0,1.086-0.56,1.605-1.547,1.605h-1.17V85.937z
		 M65.892,91.011h0.387c0.47,0,0.651-0.23,0.651-0.733v-2.824c0-0.462-0.157-0.726-0.651-0.726h-0.387V91.011z"/>
	<rect x="68.585" y="85.937" fill="#414042" width="0.84" height="5.865"/>
	<path fill="#414042" d="M70.19,87.321c0-0.956,0.726-1.434,1.409-1.434c0.683,0,1.407,0.478,1.407,1.434v0.296h-0.839v-0.296
		c0-0.403-0.264-0.594-0.568-0.594c-0.304,0-0.568,0.19-0.568,0.594v3.096c0,0.404,0.264,0.594,0.568,0.594
		c0.305,0,0.568-0.189,0.568-0.594v-1.104H71.5v-0.741h1.506v1.845c0,0.955-0.725,1.434-1.407,1.434
		c-0.683,0-1.409-0.479-1.409-1.434V87.321z"/>
	<polygon fill="#414042" points="74.3,86.728 73.327,86.728 73.327,85.937 76.112,85.937 76.112,86.728 75.14,86.728 75.14,91.802 
		74.3,91.802 	"/>
	<path fill="#414042" d="M78.014,85.937h1.244c0.947,0,1.474,0.569,1.474,1.517v2.743c0,1.086-0.561,1.605-1.548,1.605h-1.17V85.937
		z M78.854,91.011h0.387c0.471,0,0.65-0.23,0.65-0.733v-2.824c0-0.462-0.157-0.726-0.65-0.726h-0.387V91.011z"/>
	<rect x="81.545" y="85.937" fill="#414042" width="0.842" height="5.865"/>
	<path fill="#414042" d="M83.151,87.321c0-0.956,0.726-1.434,1.409-1.434c0.682,0,1.408,0.478,1.408,1.434v0.296h-0.841v-0.296
		c0-0.403-0.263-0.594-0.567-0.594s-0.568,0.19-0.568,0.594v3.096c0,0.404,0.264,0.594,0.568,0.594s0.567-0.189,0.567-0.594v-1.104
		h-0.667v-0.741h1.508v1.845c0,0.955-0.727,1.434-1.408,1.434c-0.684,0-1.409-0.479-1.409-1.434V87.321z"/>
	<rect x="86.734" y="85.937" fill="#414042" width="0.84" height="5.865"/>
	<polygon fill="#414042" points="88.94,86.728 87.969,86.728 87.969,85.937 90.752,85.937 90.752,86.728 89.779,86.728 
		89.779,91.802 88.94,91.802 	"/>
	<path fill="#414042" d="M92.055,85.937h0.699l1.31,5.865h-0.841l-0.246-1.261H91.83l-0.246,1.261h-0.84L92.055,85.937z
		 M92.408,87.626h-0.017l-0.413,2.125h0.842L92.408,87.626z"/>
	<polygon fill="#414042" points="94.475,85.937 95.316,85.937 95.316,90.961 96.979,90.961 96.979,91.802 94.475,91.802 	"/>
	<polygon fill="#414042" points="97.521,85.937 100.026,85.937 100.026,86.728 98.361,86.728 98.361,88.449 99.811,88.449 
		99.811,89.24 98.361,89.24 98.361,90.961 100.026,90.961 100.026,91.802 97.521,91.802 	"/>
	<path fill="#414042" d="M102.1,85.937h1.227c1.088,0,1.492,0.717,1.492,1.482v0.215c0,0.627-0.206,0.857-0.577,1.088
		c0.396,0.188,0.577,0.543,0.577,1.152v0.33c0,1.021-0.486,1.598-1.574,1.598H102.1V85.937z M102.941,88.343h0.379
		c0.559,0,0.707-0.289,0.707-0.824c0-0.52-0.189-0.791-0.74-0.791h-0.346V88.343z M102.941,90.961h0.36
		c0.675,0,0.726-0.411,0.726-0.987c0-0.586-0.107-0.891-0.717-0.891h-0.369V90.961z"/>
	<path fill="#414042" d="M108.327,90.483c0,0.767-0.609,1.367-1.36,1.367c-0.75,0-1.358-0.601-1.358-1.367v-4.547h0.839v4.465
		c0,0.412,0.223,0.609,0.52,0.609s0.519-0.197,0.519-0.609v-4.465h0.842V90.483z"/>
	<path fill="#414042" d="M109.116,85.937h1.352c0.996,0,1.482,0.585,1.482,1.723c0,0.675-0.189,1.17-0.727,1.466l0.907,2.677h-0.891
		l-0.781-2.504h-0.503v2.504h-0.84V85.937z M109.956,88.558h0.479c0.583,0,0.674-0.331,0.674-0.915c0-0.593-0.1-0.915-0.717-0.915
		h-0.437V88.558z"/>
	<path fill="#414042" d="M112.574,87.321c0-0.956,0.727-1.434,1.408-1.434c0.684,0,1.41,0.478,1.41,1.434v0.296h-0.84v-0.296
		c0-0.403-0.266-0.594-0.57-0.594c-0.303,0-0.567,0.19-0.567,0.594v3.096c0,0.404,0.265,0.594,0.567,0.594
		c0.305,0,0.57-0.189,0.57-0.594v-1.104h-0.668v-0.741h1.508v1.845c0,0.955-0.727,1.434-1.41,1.434
		c-0.682,0-1.408-0.479-1.408-1.434V87.321z"/>
	<polygon fill="#414042" points="116.133,85.937 118.637,85.937 118.637,86.728 116.973,86.728 116.973,88.449 118.421,88.449 
		118.421,89.24 116.973,89.24 116.973,90.961 118.637,90.961 118.637,91.802 116.133,91.802 	"/>
	<path fill="#414042" d="M119.18,85.937h1.35c0.997,0,1.483,0.585,1.483,1.723c0,0.675-0.19,1.17-0.725,1.466l0.907,2.677h-0.891
		l-0.783-2.504h-0.502v2.504h-0.84V85.937z M120.02,88.558h0.477c0.585,0,0.676-0.331,0.676-0.915c0-0.593-0.099-0.915-0.717-0.915
		h-0.436V88.558z"/>
	<path fill="#414042" d="M122.688,85.937h1.351c0.997,0,1.483,0.585,1.483,1.723c0,0.675-0.189,1.17-0.727,1.466l0.906,2.677h-0.891
		l-0.781-2.504h-0.502v2.504h-0.84V85.937z M123.527,88.558h0.477c0.586,0,0.676-0.331,0.676-0.915c0-0.593-0.099-0.915-0.716-0.915
		h-0.437V88.558z"/>
	<polygon fill="#414042" points="126.195,85.937 128.699,85.937 128.699,86.728 127.035,86.728 127.035,88.449 128.484,88.449 
		128.484,89.24 127.035,89.24 127.035,90.961 128.699,90.961 128.699,91.802 126.195,91.802 	"/>
	<path fill="#414042" d="M131.911,90.492c0,0.725-0.585,1.358-1.335,1.358c-0.642,0-1.384-0.313-1.384-1.383v-3.229
		c0-0.767,0.553-1.352,1.367-1.352c0.774,0,1.352,0.585,1.352,1.4v0.329h-0.842v-0.28c0-0.328-0.196-0.609-0.518-0.609
		c-0.42,0-0.519,0.289-0.519,0.684v2.999c0,0.338,0.131,0.601,0.511,0.601c0.229,0,0.525-0.132,0.525-0.594V90.13h0.842V90.492z"/>
	<polygon fill="#414042" points="132.594,85.937 133.435,85.937 133.435,88.449 134.471,88.449 134.471,85.937 135.311,85.937 
		135.311,91.802 134.471,91.802 134.471,89.191 133.435,89.191 133.435,91.802 132.594,91.802 	"/>
	<polygon fill="#414042" points="136.652,86.728 135.681,86.728 135.681,85.937 138.465,85.937 138.465,86.728 137.493,86.728 
		137.493,91.802 136.652,91.802 	"/>
	<polygon fill="#414042" points="138.836,85.937 141.34,85.937 141.34,86.728 139.675,86.728 139.675,88.449 141.125,88.449 
		141.125,89.24 139.675,89.24 139.675,90.961 141.34,90.961 141.34,91.802 138.836,91.802 	"/>
	<polygon fill="#414042" points="141.85,85.937 142.656,85.937 143.925,89.471 143.941,89.471 143.941,85.937 144.781,85.937 
		144.781,91.802 143.991,91.802 142.707,88.276 142.691,88.276 142.691,91.802 141.85,91.802 	"/>
	<path fill="#414042" d="M30.573,96.21h-0.111c-0.054,0-0.104-0.006-0.156-0.021c0-0.001-0.001-0.001-0.002-0.001
		c-0.021-0.004-0.073-0.011-0.137-0.027l-0.018-0.004c-0.076-0.021-0.17-0.038-0.319-0.079l-0.067-0.024
		c-0.128-0.055-0.276-0.127-0.424-0.234c-0.088-0.065-0.255-0.161-0.422-0.35c-0.23-0.252-0.426-0.539-0.556-0.863
		c-0.103-0.262-0.166-0.562-0.166-0.889v-2.313c0-0.31,0.25-0.559,0.559-0.559c0.309,0,0.559,0.249,0.559,0.559v2.313
		c0.001,0.187,0.032,0.336,0.089,0.48c0.062,0.161,0.187,0.353,0.338,0.516l0.014,0.016c0.019,0.027,0.103,0.089,0.236,0.181
		c0.065,0.046,0.107,0.069,0.181,0.102c0.068,0.019,0.155,0.034,0.278,0.068c0.012,0.001,0.036,0.003,0.078,0.013h0.047h0.639
		c0.415,0,0.919,0,1.518-0.016h0.016h0.144c1.392-0.094,2.603-0.545,3.676-1.396l0.017-0.012c0.196-0.144,0.418-0.349,0.653-0.566
		c1.325-1.349,1.971-2.901,1.978-4.796V72.752c-0.006-1.895-0.651-3.43-1.975-4.776c-1.368-1.344-2.919-1.988-4.796-1.994h-7.33
		c-1.879,0.006-3.447,0.652-4.779,1.992c-1.342,1.352-1.986,2.884-1.993,4.778v15.555c0,0.868,0.133,1.646,0.398,2.382
		c0.34,0.883,0.852,1.685,1.599,2.416c0.683,0.696,1.459,1.211,2.288,1.529c0.36,0.134,0.746,0.253,1.135,0.324l0.014,0.004
		c0.251,0.054,0.56,0.084,0.885,0.115c0.172,0.003,0.321,0.016,0.42,0.016c0.309,0,0.559,0.25,0.559,0.56
		c0,0.309-0.25,0.559-0.559,0.559c-0.183-0.001-0.343-0.017-0.446-0.016l-0.054-0.003c-0.332-0.031-0.68-0.062-1.024-0.135
		c-0.473-0.088-0.917-0.226-1.328-0.378c-0.989-0.382-1.902-0.987-2.682-1.783c-0.855-0.838-1.461-1.791-1.856-2.818l-0.003-0.012
		c-0.311-0.86-0.465-1.776-0.465-2.76V72.752c-0.005-2.161,0.788-4.045,2.317-5.566c1.514-1.538,3.427-2.327,5.572-2.321h7.33
		c2.146-0.006,4.042,0.785,5.587,2.321c1.514,1.523,2.307,3.405,2.301,5.566v15.555c0.005,2.161-0.786,4.057-2.301,5.582
		l-0.017,0.016c-0.238,0.223-0.488,0.458-0.764,0.661c-1.25,0.992-2.711,1.529-4.31,1.628l-0.035,0.002H32.76
		c-0.615,0.016-1.133,0.015-1.547,0.016C30.797,96.21,30.59,96.21,30.573,96.21"/>
	<path fill="#414042" d="M34.487,70.702c-0.969-0.963-2.196-1.47-3.547-1.463l-4.311,0.001c-1.363-0.008-2.606,0.495-3.558,1.455
		c-0.004,0.007-0.01,0.011-0.013,0.016c-0.96,0.97-1.466,2.2-1.458,3.558v8.609v3.911c-0.007,1.363,0.496,2.609,1.476,3.562
		c0.499,0.516,1.081,0.891,1.694,1.131c0.284,0.113,0.562,0.188,0.828,0.241c0.245,0.06,0.464,0.075,0.662,0.092
		c0.157,0.025,0.27,0.019,0.37,0.021h4.328c1.13,0,2.182-0.363,3.047-1.048c0.16-0.125,0.33-0.274,0.49-0.45
		c0.965-0.945,1.484-2.185,1.478-3.548V74.269C35.979,72.898,35.449,71.668,34.487,70.702 M24.08,71.721
		c0.002-0.003,0.006-0.007,0.008-0.008v-0.001c0.711-0.701,1.51-1.028,2.541-1.035h4.311c1.012,0.007,1.798,0.33,2.532,1.041
		c0.721,0.745,1.055,1.528,1.062,2.551v8.049H23.037v-8.049C23.045,73.245,23.362,72.469,24.08,71.721 M26.504,90.397
		c-0.012-0.001-0.021-0.001-0.024-0.001h-0.002l-0.08-0.012c-0.206-0.017-0.355-0.031-0.472-0.062l-0.032-0.008
		c-0.211-0.041-0.404-0.094-0.593-0.17c-0.44-0.172-0.844-0.433-1.202-0.806l-0.015-0.013c-0.714-0.711-1.04-1.506-1.046-2.538
		v-3.354h5.189v6.962l-1.597,0.002C26.574,90.399,26.53,90.397,26.504,90.397 M33.472,89.327l-0.033,0.035
		c-0.09,0.101-0.203,0.201-0.319,0.293c-0.635,0.496-1.335,0.741-2.179,0.742h-1.596v-6.962h5.189v3.354
		C34.527,87.814,34.188,88.612,33.472,89.327"/>
	<path fill="#414042" d="M28.722,66.253v-1.564c0-0.265,0.214-0.479,0.479-0.479c0.266,0,0.48,0.215,0.48,0.479v1.564
		c0,0.266-0.214,0.479-0.48,0.479C28.936,66.731,28.722,66.519,28.722,66.253"/>
	<path fill="#414042" d="M27.826,66.253v-1.564c0-0.265,0.216-0.479,0.48-0.479c0.264,0,0.48,0.215,0.48,0.479v1.564
		c0,0.266-0.216,0.479-0.48,0.479C28.042,66.731,27.826,66.519,27.826,66.253"/>
	<path fill="#414042" d="M29.959,67.04l-0.383-2.157c-0.047-0.26,0.126-0.509,0.387-0.555c0.26-0.046,0.51,0.128,0.556,0.387
		l0.382,2.157c0.047,0.26-0.126,0.509-0.387,0.556c-0.029,0.004-0.056,0.007-0.084,0.007C30.201,67.435,30,67.271,29.959,67.04"/>
	<path fill="#414042" d="M27.004,66.302l-0.367-2.141c-0.045-0.259,0.129-0.507,0.391-0.553c0.261-0.044,0.508,0.131,0.553,0.392
		l0.367,2.14c0.046,0.262-0.129,0.51-0.391,0.555c-0.026,0.003-0.055,0.006-0.081,0.006C27.247,66.7,27.043,66.535,27.004,66.302"/>
	<path fill="#414042" d="M39.022,74.925c-0.266,0-0.48-0.215-0.48-0.479s0.214-0.479,0.48-0.479h1.563
		c0.265,0,0.48,0.215,0.48,0.479s-0.215,0.479-0.48,0.479H39.022z"/>
	<path fill="#414042" d="M39.022,74.046c-0.266,0-0.48-0.215-0.48-0.479c0-0.266,0.214-0.479,0.48-0.479h1.563
		c0.265,0,0.48,0.214,0.48,0.479c0,0.264-0.215,0.479-0.48,0.479H39.022z"/>
	<path fill="#414042" d="M37.863,75.759c-0.047-0.26,0.127-0.509,0.387-0.555l2.14-0.384c0.26-0.047,0.508,0.126,0.556,0.388
		c0.045,0.26-0.127,0.509-0.387,0.555l-2.139,0.385c-0.03,0.004-0.058,0.007-0.087,0.007C38.106,76.154,37.905,75.991,37.863,75.759
		"/>
	<path fill="#414042" d="M38.565,72.801c-0.044-0.26,0.131-0.508,0.391-0.552l2.156-0.368c0.261-0.045,0.509,0.131,0.554,0.392
		c0.043,0.26-0.132,0.508-0.392,0.553l-2.157,0.367c-0.026,0.005-0.054,0.008-0.08,0.008C38.808,73.2,38.605,73.034,38.565,72.801"
		/>
	<path fill="#414042" d="M39.022,88.339c-0.266,0-0.48-0.216-0.48-0.479c0-0.265,0.214-0.479,0.48-0.479h1.563
		c0.265,0,0.48,0.215,0.48,0.479c0,0.264-0.215,0.479-0.48,0.479H39.022z"/>
	<path fill="#414042" d="M39.022,87.443c-0.266,0-0.48-0.214-0.48-0.479s0.214-0.48,0.48-0.48h1.563c0.265,0,0.48,0.216,0.48,0.48
		s-0.215,0.479-0.48,0.479H39.022z"/>
	<path fill="#414042" d="M37.863,89.173c-0.046-0.26,0.127-0.509,0.387-0.557l2.14-0.383c0.26-0.047,0.508,0.127,0.556,0.388
		c0.045,0.26-0.127,0.509-0.387,0.556l-2.139,0.384c-0.03,0.005-0.058,0.007-0.087,0.007C38.106,89.567,37.905,89.405,37.863,89.173
		"/>
	<path fill="#414042" d="M38.565,86.218c-0.045-0.26,0.127-0.509,0.388-0.555l2.155-0.384c0.261-0.046,0.51,0.127,0.557,0.388
		c0.046,0.261-0.128,0.509-0.389,0.556l-2.155,0.385c-0.029,0.004-0.057,0.005-0.085,0.005C38.81,86.612,38.607,86.45,38.565,86.218
		"/>
	<path fill="#414042" d="M16.937,74.925c-0.265,0-0.478-0.215-0.478-0.479s0.213-0.479,0.478-0.479h1.565
		c0.264,0,0.479,0.215,0.479,0.479s-0.215,0.479-0.479,0.479H16.937z"/>
	<path fill="#414042" d="M16.937,74.046c-0.265,0-0.479-0.215-0.479-0.479c0-0.266,0.214-0.479,0.479-0.479h1.565
		c0.264,0,0.479,0.214,0.479,0.479c0,0.264-0.215,0.479-0.479,0.479H16.937z"/>
	<path fill="#414042" d="M19.104,76.147l-2.14-0.385c-0.261-0.046-0.434-0.295-0.388-0.555c0.047-0.262,0.296-0.435,0.557-0.388
		l2.139,0.384c0.26,0.046,0.434,0.295,0.388,0.555c-0.042,0.232-0.245,0.396-0.472,0.396C19.162,76.154,19.132,76.151,19.104,76.147
		"/>
	<path fill="#414042" d="M18.389,73.192l-2.139-0.367c-0.262-0.045-0.436-0.293-0.392-0.553c0.045-0.261,0.293-0.437,0.553-0.392
		l2.14,0.368c0.26,0.044,0.435,0.292,0.391,0.553C18.902,73.035,18.7,73.2,18.47,73.2C18.444,73.2,18.417,73.197,18.389,73.192"/>
	<path fill="#414042" d="M16.937,88.339c-0.265,0-0.479-0.216-0.479-0.479c0-0.265,0.214-0.479,0.479-0.479h1.565
		c0.264,0,0.479,0.215,0.479,0.479c0,0.264-0.215,0.479-0.479,0.479H16.937z"/>
	<path fill="#414042" d="M16.937,87.443c-0.265,0-0.478-0.214-0.478-0.479s0.213-0.48,0.478-0.48h1.565
		c0.264,0,0.479,0.216,0.479,0.48s-0.215,0.479-0.479,0.479H16.937z"/>
	<path fill="#414042" d="M19.104,89.561l-2.14-0.384c-0.261-0.047-0.435-0.296-0.388-0.556c0.047-0.261,0.296-0.435,0.557-0.388
		l2.139,0.383c0.26,0.048,0.434,0.297,0.388,0.557c-0.042,0.232-0.243,0.395-0.471,0.395C19.162,89.567,19.132,89.565,19.104,89.561
		"/>
	<path fill="#414042" d="M18.385,86.606l-2.14-0.384c-0.261-0.047-0.434-0.296-0.387-0.556c0.046-0.261,0.296-0.434,0.556-0.388
		l2.141,0.383c0.26,0.047,0.433,0.296,0.386,0.556c-0.042,0.232-0.243,0.395-0.471,0.395C18.441,86.612,18.414,86.611,18.385,86.606
		"/>
</g>
<g>
</g>
<g>
</g>
<g>
</g>
<g>
</g>
<g>
</g>
<g>
</g>
</svg>
