<?xml version="1.0" encoding="utf-8"?>
<!-- Generator: Adobe Illustrator 16.0.4, SVG Export Plug-In . SVG Version: 6.00 Build 0)  -->
<!DOCTYPE svg PUBLIC "-//W3C//DTD SVG 1.1//EN" "http://www.w3.org/Graphics/SVG/1.1/DTD/svg11.dtd">
<svg version="1.1" id="Layer_1" xmlns="http://www.w3.org/2000/svg" xmlns:xlink="http://www.w3.org/1999/xlink" x="0px" y="0px"
	 width="160px" height="160px" viewBox="0 0 160 160" enable-background="new 0 0 160 160" xml:space="preserve">
<g id="Fonds21">
	<path fill="#414042" d="M120.861,71.472h-2.449c-1.303,1.546-3.355,2.648-4.394,3.224v2.979c1.546-0.661,2.782-1.457,3.665-2.074
		v12.473h3.178V71.472L120.861,71.472z"/>
	<path fill="#414042" d="M108.809,82.397c2.76-2.736,3.643-4.126,3.643-6.201c0-2.692-2.164-4.725-5.276-4.725
		c-2.251,0-5.209,1.436-5.209,5.429v0.354h3.046c0-2.031,0.816-2.958,2.163-2.958c1.303,0,1.965,1.017,1.965,1.986
		c0,0.838-0.286,1.635-1.435,2.892l-5.982,6.403v2.494h10.905v-2.826h-6.644L108.809,82.397z"/>
	<path fill="#414042" d="M94.891,79.906l-2.67-0.853c-0.717-0.23-1.684-0.716-1.684-1.723c0-0.967,0.871-1.605,2.322-1.605
		c1.131,0,2.072,0.59,2.119,1.552h2.911c-0.007-1.077-0.735-4.028-5.204-4.028c-3.773,0-5.051,2.67-5.051,4.527
		c0,1.645,1.121,3.059,2.729,3.638l3.174,1.142c1.432,0.524,1.762,0.931,1.762,1.703c0,1.123-1.394,1.607-2.382,1.607
		c-1.413,0-2.632-0.601-2.632-2.147l-2.902,0.057c0,1.298,0.464,4.566,5.516,4.566c4.025,0,5.301-2.669,5.301-4.45
		C98.199,81.647,96.826,80.525,94.891,79.906"/>
	<path fill="#414042" d="M80.3,73.521h-5.476v14.552h5.554c3.715,0,6.927-2.632,6.927-7.276
		C87.305,76.113,84.711,73.521,80.3,73.521 M80.184,85.595h-2.457v-9.598h2.225c3.289,0,4.335,2.341,4.335,4.779
		C84.287,83.04,83.164,85.595,80.184,85.595"/>
	<polygon fill="#414042" points="71.34,83.293 71.302,83.293 65.4,73.521 62.283,73.521 62.283,88.072 65.071,88.072 65.071,78.145 
		65.109,78.145 71.128,88.072 74.128,88.072 74.128,73.521 71.34,73.521 	"/>
	<path fill="#414042" d="M54.766,73.25c-4.529,0-7.083,3.638-7.083,7.546s2.554,7.546,7.083,7.546c4.528,0,7.082-3.638,7.082-7.546
		S59.294,73.25,54.766,73.25 M54.766,85.751c-2.709,0-4.064-2.343-4.064-4.955s1.354-4.953,4.064-4.953
		c2.709,0,4.063,2.341,4.063,4.953S57.475,85.751,54.766,85.751"/>
	<polygon fill="#414042" points="38.946,88.072 41.849,88.072 41.849,82.016 47.345,82.016 47.345,79.421 41.849,79.421 
		41.849,76.113 47.48,76.113 47.48,73.521 38.946,73.521 	"/>
</g>
<g>
</g>
<g>
</g>
<g>
</g>
<g>
</g>
<g>
</g>
<g>
</g>
</svg>
