<?xml version="1.0" encoding="iso-8859-1"?>
<!-- Generator: Adobe Illustrator 16.0.0, SVG Export Plug-In . SVG Version: 6.00 Build 0)  -->
<!DOCTYPE svg PUBLIC "-//W3C//DTD SVG 1.1//EN" "http://www.w3.org/Graphics/SVG/1.1/DTD/svg11.dtd">
<svg version="1.1" xmlns="http://www.w3.org/2000/svg" xmlns:xlink="http://www.w3.org/1999/xlink" x="0px" y="0px" width="160px"
	 height="160px" viewBox="0 0 160 160" style="enable-background:new 0 0 160 160;" xml:space="preserve">
<g id="geheimtaal">
	<g>
		<path style="fill-rule:evenodd;clip-rule:evenodd;" d="M132.718,82.867c-0.583,3.595-1.157,7.391-1.817,11.184
			c-0.664,3.835-1.457,7.66-2.103,11.491c-0.275,1.638-0.29,3.284-0.494,4.925c-0.226,1.824-0.53,3.647-0.8,5.475
			c-0.029,0.187-0.076,0.373-0.059,0.557c0.238,2.606-0.817,5.128-1.846,7.652c-0.327,0.798-0.498,1.631-0.462,2.445
			c0.081,1.877-0.545,3.719-1.016,5.569c-0.488,1.92-0.832,3.852-1.22,5.782c-0.16,0.778-0.34,1.557-0.391,2.339
			c-0.094,1.454-0.039,2.911-0.157,4.362c-0.118,1.411-0.441,2.82-0.564,4.233c-0.113,1.304-0.14,2.609-0.099,3.912
			c0.045,1.265-0.683,1.688-3.192,1.707c-3.673,0.034-7.342,0.043-11.017-0.108c-2.062-0.079-4.157,0.107-6.236,0.083
			c-1.927-0.024-3.849-0.193-5.78-0.23c-6.61-0.137-13.231-0.204-19.839-0.365c-5.352-0.13-10.685-0.42-16.035-0.538
			c-9.117-0.196-18.219-0.691-27.369-0.474c-1.921,0.047-3.875,0.015-5.785-0.101c-0.661-0.039-1.46-0.376-1.804-0.688
			c-0.426-0.38-0.101-0.824,0.788-1.026c0.957-0.215,1.217-0.588,1.289-1.071c0.627-4.242,1.43-8.485,1.862-12.731
			c0.267-2.607,0.477-5.204,1.146-7.799c0.516-1.992,0.512-4.024,0.654-6.037c0.465-6.458,0.98-12.915,1.297-19.374
			c0.189-3.885-0.11-7.772,0.11-11.656c0.251-4.478,0.823-8.955,3.716-13.254c0.924-1.379,1.578-2.807,2.641-4.153
			c1.128-1.427,2.813-2.716,5.063-3.787c2.055-0.984,4.275-1.757,7.346-1.461c0.287,0.027,0.63,0.037,0.888-0.016
			c3.035-0.625,6.174-0.281,9.266-0.252c7.514,0.075,15.03,0.151,22.533,0.305c8.994,0.189,17.987,0.436,26.971,0.708
			c3.774,0.112,7.574,0.219,11.106,1.057c2.451,0.578,4.513,1.317,6.055,2.487c2.955,2.232,4.148,4.767,5.325,7.311
			C132.884,81.754,132.718,82.219,132.718,82.867z M101.057,130.631c0.624-5.002,1.215-9.994,3.535-14.885
			C101.838,118.56,99.881,126.579,101.057,130.631z M69.667,151.574c-0.026,0.094-0.052,0.194-0.076,0.29
			c0.702,0.021,1.402,0.055,2.105,0.062c1.711,0.021,3.422,0.024,5.135,0.047c2.892,0.036,5.785,0.071,8.682,0.128
			c1.019,0.021,1.459-0.214,1.515-0.809C81.213,151.491,75.421,151.201,69.667,151.574z M119.355,76.098
			c-2.818-0.106-5.282-0.198-8.015-0.306c1.039,1.091,2.887,0.973,4.353,1.224c1.554,0.271,3.111,0.534,5.101,0.871
			C120.178,77.129,119.77,76.617,119.355,76.098z M56.533,72.757c-2.58-0.934-6.275,0.156-8.797,2.042
			c1.462-0.167,2.96-0.127,3.784-0.483c1.16-0.503,2.555-0.719,3.76-1.134C55.677,73.043,56.082,72.91,56.533,72.757z
			 M103.893,77.493c0.635,0.796,1.659,1.128,3.411,1.007c1.333-0.092,2.562,0.174,3.736,0.562c1.438,0.48,2.714,1.193,4.898,1.125
			c-0.261-0.246-0.365-0.48-0.653-0.595C111.947,78.293,108.175,77.579,103.893,77.493z M88.555,112.762
			c-1.409,3.046-0.879,6.14-1.112,9.22C88.485,118.933,88.562,115.847,88.555,112.762z M55.387,112.154
			c-1.427,1.276-1.872,4.906-0.853,6.416C55.529,116.4,55.301,114.396,55.387,112.154z M40.381,130.604c0-1.763,0-3.329,0-4.895
			c-0.604,0.886-0.966,1.791-1.413,2.686C38.581,129.175,38.741,129.857,40.381,130.604z M55.565,107.076
			c-2.481-0.162-4.483-0.127-6.242,0.507c-0.228,0.082-0.119,0.396-0.196,0.742c1.623-0.621,3.091-1.098,4.542-0.147
			C54.3,107.813,54.812,107.515,55.565,107.076z M89.831,139.521c-0.126-0.063-0.251-0.125-0.376-0.186
			c-0.499,0.272-0.977,0.566-1.515,0.817c-0.537,0.255-1.107,0.495-1.721,0.703c-0.613,0.21-1.301,0.358-1.946,0.541
			c-0.562,0.154-1.121,0.314-2.073,0.584C86.561,142.149,87.992,140.694,89.831,139.521z M66.088,108.13
			c0.204,0.782-0.518,1.52,0.975,2.286c0.681-0.819,1.243-1.498,1.894-2.286C67.912,108.13,67.142,108.13,66.088,108.13z
			 M36.603,88.709c0.065,0.004,0.124,0.01,0.189,0.01c0.477-0.685,0.85-1.389,1.457-2.047c0.838-0.902,0.829-1.012-1.125-1.584
			C36.949,86.311,36.777,87.511,36.603,88.709z M112.93,149.67c2.825-0.491,3.059-0.947,1.747-2.611
			C114.066,147.974,113.496,148.82,112.93,149.67z M73.12,71.598c1.8,0.468,5.469,0.415,7.789,0
			C78.48,71.598,75.978,71.598,73.12,71.598z M105.048,132.393c0.207-0.005,0.412-0.015,0.616-0.023
			c0.115-1.196,0.233-2.394,0.349-3.589c-0.154-0.007-0.305-0.01-0.459-0.015C105.385,129.976,105.217,131.183,105.048,132.393z
			 M101.317,151.518c-3.353-0.478-3.68-0.441-4.089,0.373C98.671,151.761,99.99,151.639,101.317,151.518z M126.497,79.93
			c0.533-0.228,0.909-0.314,0.914-0.406c0.046-0.888-0.854-1.628-1.748-2.375C125.926,78.023,126.187,78.902,126.497,79.93z
			 M102.945,75.409c-0.011-0.081-0.023-0.16-0.035-0.24c-1.021-0.109-2.044-0.219-3.387-0.364c0.547,0.545,0.918,0.915,1.325,1.32
			C101.634,75.856,102.289,75.631,102.945,75.409z M43.347,148.73c0.534-0.032,0.978-0.058,1.614-0.097
			c-0.447-0.696-0.825-1.291-1.21-1.883c-0.133,0.018-0.267,0.035-0.403,0.053C43.347,147.422,43.347,148.038,43.347,148.73z
			 M75.767,123.631c0.896,0.027,1.431,0.039,1.943,0.051c0-0.56,0-1.045,0-1.521c-0.14-0.021-0.276-0.032-0.412-0.047
			C76.831,122.577,76.362,123.042,75.767,123.631z M52.92,91.19c-0.062,0.323-0.122,0.631-0.192,1.025c0.687,0,1.214,0,1.827,0
			C54.421,91.697,54.7,91.107,52.92,91.19z M67.562,120.741c1.57-0.714,1.57-0.714,1.327-1.654
			C67.267,119.414,67.787,120.116,67.562,120.741z M56.932,146.771c-0.692-0.773-1.385-1.546-2.081-2.322
			C54.86,145.377,55.446,146.177,56.932,146.771z M90.29,104.776c0.007-0.057,0.012-0.107,0.019-0.163c-1.726,0-3.455,0-5.186,0
			c0.003,0.056,0.003,0.106,0.003,0.163C86.851,104.776,88.569,104.776,90.29,104.776z M54.232,125.091
			c-0.148-0.009-0.297-0.015-0.448-0.022c0,0.771,0,1.545,0,2.32c0.06,0,0.116,0.003,0.175,0.005
			C54.048,126.625,54.143,125.857,54.232,125.091z M48.662,133.524c0.083,0.025,0.169,0.055,0.249,0.086c0-0.903,0-1.801,0-2.7
			c-0.08,0-0.166,0.001-0.249,0.001C48.662,131.785,48.662,132.653,48.662,133.524z M39.288,80.069
			c1.466-0.717,1.468-0.719,1.057-1.78C39.972,78.918,39.628,79.492,39.288,80.069z M111.396,130.172
			c-0.159,0.012-0.319,0.024-0.479,0.032c-0.172,0.571-0.344,1.134-0.513,1.703c0.193,0.012,0.388,0.029,0.584,0.039
			C111.125,131.353,111.26,130.764,111.396,130.172z M115.139,151.97c0.918,0.12,1.573,0.203,2.366,0.303
			c-0.086-0.275-0.15-0.473-0.246-0.767C116.522,151.665,115.953,151.793,115.139,151.97z M123,74.988
			c0.143-0.074,0.282-0.147,0.423-0.222c-0.521-0.535-1.37-0.838-3.02-1.01C121.518,74.287,122.257,74.639,123,74.988z M82.3,80.105
			c-0.021,0.083-0.042,0.166-0.063,0.249c0.967,0.062,1.932,0.122,2.896,0.181c0.018-0.086,0.041-0.174,0.065-0.26
			C84.229,80.217,83.265,80.165,82.3,80.105z M49.693,147.167c0.032,0.422-0.495,0.883,0.539,1.398
			C50.629,147.944,50.093,147.562,49.693,147.167z M73.206,144.55c-0.024,0.093-0.051,0.179-0.076,0.271c0.764,0,1.524,0,2.285,0
			c0.01-0.045,0.018-0.092,0.024-0.135C74.694,144.643,73.952,144.599,73.206,144.55z M117.932,142.663
			c-0.107-0.015-0.214-0.029-0.322-0.043c0,0.444,0,0.885,0,1.329c0.108,0,0.215,0.005,0.322,0.005
			C117.932,143.523,117.932,143.097,117.932,142.663z M77.648,118.449c-0.38,0.329-0.628,0.545-0.99,0.859
			C77.961,119.26,77.85,118.943,77.648,118.449z M111.349,129.003c0.104-0.004,0.211-0.01,0.317-0.015c0-0.232,0-0.466,0-0.696
			c-0.045-0.003-0.086-0.003-0.131-0.006C111.474,128.522,111.408,128.763,111.349,129.003z M91.771,134.989
			c0.043,0,0.092,0.003,0.136,0.003c0-0.272,0-0.545,0-0.814c-0.044,0-0.093-0.006-0.136-0.006
			C91.771,134.447,91.771,134.72,91.771,134.989z M99.881,77.007c0.081,0.081,0.153,0.163,0.231,0.247
			c0.349-0.092,0.702-0.181,1.043-0.279c0.008-0.002-0.157-0.184-0.182-0.178C100.604,76.86,100.245,76.934,99.881,77.007z
			 M87.152,125.908c-0.061,0.006-0.122,0.006-0.181,0.008c0,0.211,0,0.419,0,0.623c0.105-0.003,0.213-0.012,0.32-0.015
			C87.244,126.323,87.199,126.115,87.152,125.908z M108.418,106.33c0.107,0.057,0.212,0.115,0.319,0.172
			c0.237-0.057,0.584-0.08,0.682-0.166c0.115-0.115,0.025-0.281,0.025-0.631C108.921,106.024,108.669,106.183,108.418,106.33z"/>
		<path style="fill-rule:evenodd;clip-rule:evenodd;fill:#FFFFFF;" d="M81.669,111.93c0.325,5.17-0.459,9.966,0.125,12.17
			c0.165,0.629,0,3.849,0,3.849c0.18,1.158-0.093,0.85,0.248,1.987c0.344,1.133,0.106,1.284,0.479,2.413c0.396,1.19-0.433-1.183,0,0
			c0.24,0.648-0.086-0.673,0,0c0.065,0.488,0.675-0.456,0.479,0.032c-0.047,0.133,0.223,0.012,0,0
			c-0.567-0.027,0.09,0.018-0.479-0.032c-1.674-0.169,1.676,0.145,0,0c-0.562-0.051-1.135-0.046-1.703-0.065
			c-0.118,0-0.287,0.048-0.35-0.01c-0.547-0.523-1.246-0.201-1.862-0.327c-0.604-0.132-1.252-0.096-1.88-0.074
			c-2.582,0.097-1.323,0.219-3.876,0.621c-1.421,0.222,1.377-0.621-0.024-0.79c-0.597-0.071,0.501,0.882,0.691,0.366
			c0.269-0.731-0.961,0.368-0.691-0.366c0.562-1.52-0.557,1.524,0,0c0,0-0.388-4.493,1.223-10.465
			c0.205-0.752,0.318-8.8,0.498-9.469c-0.722-0.699-4.163-2.79-4.813-3.396c-1.137-1.058-1.612-2.439-1.91-3.896
			c-0.154-0.767-0.166-1.558-0.326-2.321c-0.353-1.667,0.013-3.251,0.619-4.761c0.903-2.26,2.342-4.137,4.509-5.34
			c1.47-0.814,3.019-1.589,4.72-1.587c1.458,0.003,2.926,0.3,4.368,0.571c1.354,0.259,2.509,1.01,3.6,1.815
			c0.383,0.281,0.761,0.626,1.004,1.024c0.664,1.105,1.301,2.236,1.86,3.394c0.228,0.472,0.245,1.042,0.341,1.572
			c0.151,0.858,0.373,1.718,0.41,2.579c0.075,1.658-0.076,3.296-1.012,4.759c-0.373,0.577-0.692,1.19-1.033,1.791
			c-0.516,0.918-1.234,1.617-2.165,2.105C84.534,110.177,81.834,111.814,81.669,111.93z M71.341,123.939
			c0.226-0.738,0.233-1.298-0.083-1.875C70.583,122.688,71.162,123.223,71.341,123.939z M71.266,120.214
			c-0.091-0.029-0.18-0.054-0.272-0.086c-0.15,0.663-0.305,1.326-0.459,1.99c0.061,0.015,0.119,0.028,0.179,0.045
			C70.899,121.518,71.083,120.862,71.266,120.214z M73.317,121.046c-0.091,0.422-0.769,0.724-0.248,1.362
			C73.371,121.959,73.352,121.508,73.317,121.046z M79.972,127.96c-0.104-0.026-0.204-0.054-0.308-0.083
			c-0.054,0.332-0.107,0.66-0.164,0.989c0.068,0.018,0.137,0.032,0.208,0.051C79.794,128.597,79.886,128.279,79.972,127.96z
			 M73.751,118.778c-0.065-0.018-0.13-0.036-0.193-0.057c-0.032,0.4-0.062,0.803-0.094,1.205c0.032,0.007,0.068,0.01,0.104,0.01
			C73.626,119.551,73.689,119.166,73.751,118.778z M77.458,106.605c-0.074,0.006-0.149,0.015-0.219,0.021
			c0.041,0.302,0.088,0.601,0.13,0.905c0.057-0.009,0.112-0.018,0.165-0.026C77.509,107.206,77.481,106.904,77.458,106.605z
			 M77.352,109.54c-0.276,0.051-0.459,0.085-0.8,0.143C76.957,109.942,77.156,109.983,77.352,109.54z M80.418,117.227
			c0.255-0.302,0.24-0.512,0.021-0.702c-0.026-0.021-0.08-0.018-0.187-0.038C80.312,116.734,80.356,116.949,80.418,117.227z
			 M77.887,125.646c0.054-0.007,0.11-0.017,0.16-0.021c-0.018-0.14-0.035-0.285-0.057-0.427c-0.047,0.012-0.147,0.021-0.147,0.021
			C77.853,125.366,77.872,125.503,77.887,125.646z M80.611,107.296c-0.054,0.02-0.108,0.035-0.162,0.056
			c0.054,0.16,0.104,0.32,0.155,0.477c0.051-0.015,0.103-0.029,0.152-0.044C80.708,107.621,80.661,107.459,80.611,107.296z
			 M67.865,129.873c-0.498,0.029-0.534,0.239-0.508,0.478c0.003,0.032,0.071,0.058,0.154,0.12
			C67.61,130.305,67.701,130.147,67.865,129.873z M79.823,108.444c0.039-0.009,0.084-0.024,0.125-0.033
			c-0.051-0.174-0.101-0.352-0.151-0.523c-0.029,0.006-0.064,0.015-0.094,0.021C79.743,108.086,79.782,108.264,79.823,108.444z"/>
		<g>
			<g>
				<g>
					<path style="fill-rule:evenodd;clip-rule:evenodd;" d="M105.537,62.524c-0.053-1.513-0.17-3.013-0.243-4.521
						c-0.086-1.69-0.204-3.373-0.337-5.048c-0.189-2.369-0.555-4.676-0.949-6.964c-0.283-1.669-3.31-12.732-3.788-14.254
						c-0.107-0.334,5.189,8.999,4.959,9.318c-0.627,0.871-6.479-12.252-6.956-11.142c-0.599,1.392,3.823,6.046,3.379,5.173
						c-0.346-0.672-0.74-1.196-1.141-1.711c-0.521-0.668-0.449-1.688,0.031-2.2c0.475-0.5,0.843-1.172,1.228-1.841
						c0.509-0.9-1.646,7.683-1.126,6.803c0.146-0.246,0.221-0.387,0.043-0.749c-0.281-0.571-0.593-1.092-0.871-1.667
						c-0.507-1.034-1.095-1.907-1.646-2.858c-0.749-1.284-1.59-2.359-2.4-3.5c-0.555-0.782-1.183-1.406-1.732-2.182
						c-0.729-1.027-1.552-1.747-2.305-2.685c-0.804-1.004-1.687-1.791-2.585-2.508c-1.016-0.805-2.013-1.706-3.091-2.256
						c-0.245-0.125-0.482-0.326-0.729-0.468c-0.61-0.353-1.223-0.693-1.833-1.034c-0.094-0.05-0.189-0.08-0.204,0.16
						c-0.101,1.519-0.366-6.467-0.399-4.921c-0.013,0.735-0.086,1.469,0.059,2.194c0.054,0.255,0.054,0.545-0.064,0.796
						c-0.331,0.69-1.041,0.903-1.486,0.429c-0.16-0.171-0.332-0.237-0.519-0.239c-0.385-0.012-0.754,0.219-1.134,0.284
						c-0.469,0.077-0.688-0.13-0.771-0.832c-0.082-0.755,0-1.472-0.02-2.203c-0.057-1.809-0.021,5.845-0.003,4.03
						c0.015-1.303,0.008-1.383-0.705-1.427c-0.654-0.042-1.317-0.148-1.963,0.317c-0.37,0.272-0.781,0.435-1.183,0.503
						c-1.154,0.202-2.306,0.362-3.425,0.968c-0.868,0.471-1.708,1.001-2.508,1.765c-0.727,0.693-1.427,1.465-2.126,2.226
						c-0.521,0.572-1.102,1.011-1.484,1.943c-0.366,0.888-0.829,1.623-1.295,2.351c-0.365,0.565-0.78,1.048-1.049,1.782
						c-0.693,1.898-1.294,3.888-1.752,5.996c-0.583,2.683-0.82,5.516-1.088,8.333c-0.029,0.34,0.089,0.332,0.217,0.396
						c1.399,0.672-2.56-3.349-1.152-2.695c0.729,0.341,1.311,0.913,1.51,2.322c0.037,0.284,0.022,0.527-0.036,0.802
						c-0.19,0.871-0.487,1.659-0.54,2.63c-0.02,0.447-0.216,0.834-0.425,1.116c-0.444,0.593-0.681,0.557-1.114-0.068
						c-0.136-0.195-0.243-0.482-0.431-0.56c-0.946-0.384,3.464-0.784,2.519-1.157c-0.6-0.237-0.625,4.519-0.589,5.593
						c0.047,1.458,0.029,2.916,0.054,4.37c0.023,1.637,0.23-4.717,0.316-3.094c0.078,1.447,0.166-5.061,0.251-3.611
						c0.042,0.73,0.397,1.381,0.178,2.184c-0.036,0.127,0.05,0.207,0.118,0.242c0.513,0.258-1.638,0.504-1.101,0.545
						c1.697,0.136-7.338,0.773-5.638,0.892c0.534,0.036,1.066,0.201,1.608,0.222c1.015,0.047,1.995-0.291,2.973-0.669
						c0.115-0.048,0.266-0.065,0.331-0.275c0.152-0.497,0.425-0.699,0.696-0.85c0.293-0.156,0.594-0.041,0.817,0.326
						c0.214,0.343,0.247,0.799,0.107,1.264c-0.136,0.447-0.175,0.947-0.23,1.431c-0.054,0.479-0.136,0.958,0.104,1.402
						c0.105,0.195,0.076,0.512-0.016,0.731c-0.094,0.219-0.083,0.441-0.07,0.681c0.047,1.151,0.101-5.644,0.141-4.488
						c0.047,1.267-0.388,1.938-1.09,1.716c-0.256-0.079-0.517-0.124-0.775-0.145c-1.184-0.094,5.581,0.05,4.394-0.068
						c-1.225-0.124-2.451-0.287-3.684-0.228c-0.538,0.023,1.677-0.157,1.137-0.151c-0.589,0.009-1.167-0.124-1.747-0.251
						c-1.226-0.261,0.226-0.426-1.007-0.491c-0.9-0.048-1.794-0.243-2.7-0.127c-0.676,0.088-1.303-0.367-1.958-0.584
						c-0.323-0.113-0.512,7.444-0.524,7.003c-0.062-1.955-0.364-3.855-0.373-5.818c-0.009-2.526,0.018,2.896-0.071,0.373
						c-0.092-2.582,0.044,2.807,0.211,0.242c0.115-1.759,0.189-3.535,0.246-5.309c0.077-2.31,0.142-4.625,0.384-6.898
						c0.175-1.584,0.403-3.156,0.586-4.737c0.261-2.271,0.643-4.483,1.078-6.663c0.373-1.869,0.903-3.608,1.413-5.371
						c0.465-1.611,0.918-3.245,1.406-4.839c0.548-1.776,1.341-3.185,2.215-4.465c0.785-1.146,1.614-2.179,2.511-3.005
						c0.627-0.58,1.267-1.116,1.925-1.605c0.919-0.687,1.826-1.463,2.812-1.8c1.362-0.471,2.676-1.255,4.035-1.736
						c1.173-0.417,2.349-0.772,3.542-0.864c0.721-0.056,1.442,0,2.164-0.009c0.916-0.015,1.827,0.193,2.742,0.24
						c0.811,0.039,1.617,0.199,2.42,0.403c1.359,0.346,2.702,0.87,4.043,1.403c0.946,0.376,1.882,0.841,2.835,1.172
						c1.214,0.423,2.41,1.004,3.588,1.703c1.782,1.045,3.532,2.182,5.11,4.033c1.283,1.501,2.523,3.074,3.661,4.924
						c1.704,2.774,3.145,5.931,4.458,9.277c0.383,0.965,0.785,1.912,1.119,2.928c0.724,2.191,1.38,4.441,1.979,6.751
						c0.341,1.327,0.66,2.668,0.886,4.071c0.272,1.691,0.545,3.373,0.753,5.087c0.18,1.481,0.408,2.944,0.459,4.459
						c0.043,1.392,0.037,2.79-0.034,4.181c-0.101,1.945-0.162,3.902-0.274,5.848c-0.099,1.67-0.297,3.31-0.459,4.959
						c-0.101,1.021-0.172,2.049-0.25,3.08c-0.15,1.989-0.441,3.956-0.363,5.989c0.018,0.489-0.344,1.307-0.58,1.19
						c-0.333-0.163-0.593,0.089-0.875,0.243c-0.238,0.13-0.467,0.119-0.683-0.089c-0.439-0.415-0.906-0.569-1.401-0.607
						c-0.312-0.026-0.631-0.27-0.933-0.198 M97.714,20.08c-0.868-1.261-1.916-1.738-2.891-2.543c-0.086-0.071-0.173-0.042-0.266,0
						c-0.323,0.147-0.646,0.136-0.965-0.05c-0.125-0.071-0.243-0.204-0.397-0.042c0.064,0.353,0.266,0.45,0.405,0.586
						c2.118,2.094,4.205,4.279,6.21,6.698c0.571,0.687,1.228,1.08,1.841,1.616c0.083,0.068,0.175,0.1,0.305-0.033
						C100.574,24.093,99.126,22.129,97.714,20.08z M91.664,17.981c0.047-0.035,0.125,0.003,0.133-0.127
						c0.01-0.16-0.069-0.187-0.133-0.222c-0.796-0.497-1.586-1.039-2.396-1.469c-1.178-0.621-2.364-1.175-3.559-1.714
						c-1.211-0.547-2.406-1.191-3.633-1.634c-0.136-0.05-0.243-0.109-0.319,0.145c-0.031,0.109-0.066,0.237,0.008,0.323
						c0.11,0.124,0.219,0.183,0.353,0.08c0.472-0.379,0.874-0.163,1.149,0.572c0.105,0.296,0.316,0.308,0.479,0.387
						c2.111,1.052,4.167,2.367,6.153,3.989c0.4,0.328,0.792,0.698,1.184,1.045c0.154,0.139,0.244,0.103,0.2-0.252
						C91.179,18.488,91.384,18.191,91.664,17.981z M58.585,20.503c-0.548,1.907-1.098,3.805-1.635,5.721
						c-0.55,1.98-0.926,4.077-1.27,6.191c-0.024,0.147-0.086,0.331,0.026,0.426c0.119,0.095,0.181-0.068,0.234-0.237
						c0.56-1.738,1.146-3.45,1.673-5.208c0.581-1.922,1.101-3.891,1.653-5.836c0.029-0.109,0.086-0.269,0.043-0.329
						c-0.209-0.302-0.467-0.512-0.553-1.027c0-0.009-0.018-0.009-0.029-0.012C58.632,20.229,58.617,20.383,58.585,20.503z
						 M105.495,73.215c0.323,0.065,0.649,0.113,0.975,0.127c0.417,0.027,0.832-0.018,1.166-0.554c0.048-0.08,0.13-0.127,0.086-0.278
						c-0.028-0.101-0.097-0.074-0.15-0.074c-0.146,0-0.294-0.018-0.438,0c-0.321,0.038-0.608-0.127-0.851-0.48 M54.742,49.773
						c1.333,0.083,2.667,0.079,3.997-0.06c0.657-0.071,0.757-0.421,0.432-1.407c-0.038-0.119-0.088,7.681-0.08,7.56
						c0.057-0.675-0.222-0.578-0.448-0.66c-0.488-0.187-0.905,0.207-1.332,0.491c-0.657,0.441-1.347,0.592-2.037,0.791
						c-0.61,0.178-1.214,0.42-1.815,0.687c-0.234,0.101-0.495-0.03-0.731,0.314C53.421,57.575,54.081,49.729,54.742,49.773z
						 M59.511,52.201c-1.181-0.05,2.989-0.136,1.821-0.503c-0.37-0.119-0.757-0.115-1.119-0.364
						c-0.193-0.136-0.379-0.243-0.538-0.599c-0.078,0.525-0.003,0.968,0.022,1.404c0.031,0.625,0.084,1.27-0.423,1.544
						c0.268,0.289,0.508,0.117,0.727,0.185c0.201,0.062,0.409-0.002,0.613,0.024c0.284,0.032,0.532,0.038,0.606-0.622
						c0.026-0.27-2.473-0.385-2.319-0.35c0.268,0.059,0.545-0.036,0.806,0.136c0.279,0.181,0.53-0.107,0.796-0.151
						c0.66-0.111-1.438-0.335-0.772-0.364c0.055-0.003,0.115-0.003,0.168-0.163C59.743,52.269,59.671,52.212,59.511,52.201z
						 M67.124,9.306c-1.281,0.814-2.564,1.652-3.76,2.833c-0.939,0.921-1.81,2.014-2.613,3.296
						c-0.532,0.862-1.059,1.721-1.459,2.798c-0.033,0.095-0.091,0.178-0.029,0.37c0.43-0.581,0.838-1.196,1.283-1.714
						c0.751-0.877,1.216-2.248,1.88-3.26c0.187-0.287,0.373-0.581,0.571-0.841c0.297-0.385,0.623-0.642,1.007-0.515
						c0.313,0.094,0.566-0.195,0.822-0.441c1.153-1.093,2.28-2.259,3.542-2.985C67.93,8.811,67.515,9.057,67.124,9.306z
						 M77.985,7.804c0.936-0.32,1.858-0.755,2.818-0.882c-0.698-0.309-1.405-0.261-2.108-0.321c-0.877-0.077-1.76-0.118-2.642-0.05
						c-0.076,0.006-0.216-0.086-0.177,0.193c0.15,1.101-0.344,1.43-0.753,1.987C76.161,8.915,77.05,8.133,77.985,7.804z
						 M108.095,41.82c0.193,1.824,0.341,3.66,0.436,5.51c0.018,0.317,0.05,0.548,0.243,0.696c0.287,0.216,0.435,0.713,0.627,1.146
						c0.176-0.974-1.172-9.421-1.67-10.327C107.866,39.836,107.988,40.822,108.095,41.82z M82.734,9.427
						c0.962,0.429,1.907,0.947,2.857,1.43c0.341,0.172,0.692,0.32,1.058,0.293c0.091-0.006,0.191-0.006,0.219-0.193
						c0.02-0.171-0.071-0.232-0.14-0.302c-0.538-0.563-1.122-0.924-1.714-1.255c-1.021-0.572-2.066-0.812-3.134-0.746
						c-0.108,0.009-0.227-0.018-0.355,0.176C81.93,9.151,82.337,9.25,82.734,9.427z M98.318,26.453
						c0.933,1.386,1.868,2.762,2.81,4.127c0.101,0.145,0.23,0.571,0.337,0.316c0.101-0.239,0.101-0.707-0.025-1.042
						c-0.054-0.142-0.151-0.228-0.229-0.343c-1.054-1.599-2.138-3.136-3.3-4.475c-0.341-0.391-0.67-0.861-1.069-1.069
						c-0.018,0.05-0.035,0.101-0.054,0.148C97.297,24.898,97.8,25.686,98.318,26.453z M106.378,50.226
						c-0.068-1.045-0.11-2.093-0.211-3.135c-0.127-1.298-0.491-2.387-0.822-3.509c-0.405-1.362-0.81-2.721-1.269-4.027
						c-0.041-0.113-0.068-0.332-0.155-0.246c-0.134,0.133,0.001,0.275,0.037,0.388c0.329,1.019,0.658,2.037,0.931,3.115
						c0.27,1.04,0.449,2.123,0.621,3.216c0.255,1.632,0.474,3.28,0.696,4.924c0.082,0.604,0.129,1.223,0.197,1.833
						c0.031-0.003,0.061-0.009,0.09-0.015C106.556,51.908,106.431,51.073,106.378,50.226z M69.129,14.579
						c-0.485,0.305-0.99,0.539-1.507,0.66c-0.098,0.024-0.196,0.034-0.208,0.294c-0.035,0.755-0.194,1.456-0.361,2.33
						c1.071-0.959,1.979-2.238,3.108-2.677C69.902,14.394,69.576,14.289,69.129,14.579z M105.844,67.491 M100.832,20.62
						c-0.296-0.495-0.583-0.999-0.88-1.49c-0.101-0.174-0.636,0.006-0.696,0.219c-0.035,0.122,0.013,0.181,0.054,0.246
						c1.063,1.507,2.126,3.021,3.191,4.527c0.014,0.018,0.039,0.003,0.122,0.003C102.042,22.854,101.462,21.697,100.832,20.62z
						 M59.491,32.244c-0.031,0.468,0.166,0.639,0.325,0.728c0.196,0.11,0.149-0.287,0.185-0.485c0.201-1.024,0.459-2.01,0.74-3.118
						C59.998,29.996,59.574,30.894,59.491,32.244z M70.767,7.704c0.435,0.033,0.84,0.261,1.255,0.409
						c0.22,0.076,0.412-0.289,0.621-0.43c0.387-0.263,0.753-0.601,1.215-0.98C72.732,6.686,71.764,7.283,70.767,7.704z
						 M56.861,55.434c-0.242-0.053-0.249,0.45-0.425,0.622c0.908,0.355,1.823-7.444,2.748-7.387
						C58.413,48.224,57.673,55.603,56.861,55.434z M76.161,12.672c-1.457,0.145-2.908,0.319-4.317,1.057
						C73.334,14.001,74.701,12.77,76.161,12.672z M58.578,40.766c0.143-0.142,0.391,0.077,0.439-0.397
						c0.076-0.837,0.159-1.682,0.242-2.522c0.018-0.196-0.053-0.284-0.115-0.396c-0.104-0.202-0.193-0.222-0.233,0.074
						c-0.143,1.004-0.284,2.01-0.438,3.13C58.466,40.683,58.51,40.831,58.578,40.766z M90.638,11.956
						c-0.368-0.53-0.721-0.791-1.061-1.083c-0.245-0.216-0.485-0.417-0.568-0.942c-0.042-0.269-0.201-0.225-0.312-0.29
						c-0.178-0.095-0.361-0.145-0.587-0.234C88.949,11.091,89.271,11.419,90.638,11.956z M53.88,56.562
						c0.003,1.61,0.036-4.723,0.056-3.118c0,0.21-0.011-7.533,0.148-7.494c0.071,0.014,0.148,7.965,0.122,7.775
						c-0.204-1.501-0.036,4.91-0.145,3.396c-0.042-0.589-0.044-1.182-0.066-1.771C53.835,55.743,53.88,56.168,53.88,56.562z
						 M97.219,15.633c-0.241-0.628-2.382-2.624-3.292-3.077C94.973,13.646,96.046,14.659,97.219,15.633z M58.387,46.892
						c-0.229-0.124-0.229,0.047-0.217,0.325c0.013,0.459,0.031,0.918,0.042,1.377c0.003,0.125-0.003,0.258,0.092,0.261
						c0.073,0,0.118-0.093,0.133-0.223c0.003-0.021,0.005-0.041,0.005-0.059c0.013-0.2,0.018-0.457,0.143-0.503
						c0.183-0.065,0.094,0.355,0.233,0.48C58.976,47.528,58.857,47.152,58.387,46.892z M62.763,18.014
						c0.115-0.016,0.198-0.188,0.28-0.32c0.3-0.471,0.634-0.75,1.046-0.646c0.405,0.101,0.448-0.678,0.699-0.927
						C64.044,16.56,63.142,16.42,62.763,18.014z M60.604,22.242c0.581-1.158,1.161-2.318,1.761-3.516
						C61.652,19.302,60.787,20.958,60.604,22.242z M64.279,20.93c0.704-0.513,0.921-1.732,1.249-2.798
						C65.051,18.973,64.513,19.734,64.279,20.93z M105.851,32.262c0-0.475-0.169-0.72-0.263-1.01
						c-0.185-0.566-0.383-1.125-0.599-1.664c-0.25-0.631-0.261-0.62-0.631-0.075C104.992,30.166,105.345,31.287,105.851,32.262z
						 M81.436,11.923c0.001-0.264-0.043-0.397-0.196-0.246c-0.23,0.23-0.488,0.264-0.74,0.315c-0.054,0.013-0.121-0.01-0.14,0.114
						c-0.018,0.145,0.044,0.21,0.107,0.265c0.141,0.123,0.284,0.235,0.5,0.167C81.164,12.539,81.429,12.569,81.436,11.923z
						 M109.655,53.356c0.015-1.045,0.125-2.103-0.15-3.258C109.49,51.292,109.505,52.331,109.655,53.356z M57.003,35.676
						c0.018-0.125,0.047-0.296-0.054-0.358c-0.076-0.044-0.115,0.088-0.165,0.163c-0.226,0.332-0.122,0.779-0.119,1.175
						c0,0.281,0.039,0.572,0.021,0.868C56.861,36.937,56.906,36.288,57.003,35.676z M106.718,56.58
						c-0.018,0.462-0.094,0.936,0.095,1.436C106.926,57.457,106.866,57.009,106.718,56.58z"/>
					<path style="fill-rule:evenodd;clip-rule:evenodd;fill:none;" d="M101.956,26.313c-1.382-2.22-2.83-4.184-4.242-6.233
						c-0.868-1.261-1.916-1.738-2.891-2.543c-0.086-0.071-0.173-0.042-0.266,0c-0.323,0.147-0.646,0.136-0.965-0.05
						c-0.125-0.071-0.243-0.204-0.397-0.042c0.064,0.353,0.266,0.45,0.405,0.586c2.118,2.094,4.205,4.279,6.21,6.698
						c0.571,0.687,1.228,1.08,1.841,1.616C101.734,26.414,101.826,26.446,101.956,26.313z"/>
					<path style="fill-rule:evenodd;clip-rule:evenodd;fill:none;" d="M91.283,19.103c-0.104-0.615,0.101-0.912,0.381-1.122
						c0.047-0.035,0.125,0.003,0.133-0.127c0.01-0.16-0.069-0.187-0.133-0.222c-0.796-0.497-1.586-1.039-2.396-1.469
						c-1.178-0.621-2.364-1.175-3.559-1.714c-1.211-0.547-2.406-1.191-3.633-1.634c-0.136-0.05-0.243-0.109-0.319,0.145
						c-0.031,0.109-0.066,0.237,0.008,0.323c0.11,0.124,0.219,0.183,0.353,0.08c0.472-0.379,0.874-0.163,1.149,0.572
						c0.105,0.296,0.316,0.308,0.479,0.387c2.111,1.052,4.167,2.367,6.153,3.989c0.4,0.328,0.792,0.698,1.184,1.045
						C91.237,19.494,91.327,19.458,91.283,19.103z"/>
					<path style="fill-rule:evenodd;clip-rule:evenodd;fill:none;" d="M58.728,20.193c-0.096,0.036-0.11,0.19-0.143,0.311
						c-0.548,1.907-1.098,3.805-1.635,5.721c-0.55,1.98-0.926,4.077-1.27,6.191c-0.024,0.147-0.086,0.331,0.026,0.426
						c0.119,0.095,0.181-0.068,0.234-0.237c0.56-1.738,1.146-3.45,1.673-5.208c0.581-1.922,1.101-3.891,1.653-5.836
						c0.029-0.109,0.086-0.269,0.043-0.329c-0.209-0.302-0.467-0.512-0.553-1.027C58.757,20.196,58.739,20.196,58.728,20.193z"/>
					<path style="fill-rule:evenodd;clip-rule:evenodd;fill:none;" d="M105.495,73.215c0.323,0.065,0.649,0.113,0.975,0.127
						c0.417,0.027,0.832-0.018,1.166-0.554c0.048-0.08,0.13-0.127,0.086-0.278c-0.028-0.101-0.097-0.074-0.15-0.074
						c-0.146,0-0.294-0.018-0.438,0c-0.321,0.038-0.608-0.127-0.851-0.48"/>
					<path style="fill-rule:evenodd;clip-rule:evenodd;fill:none;" d="M52.728,57.489c0.693,0.086,1.353-7.761,2.014-7.716
						c1.333,0.083,2.667,0.079,3.997-0.06c0.657-0.071,0.757-0.421,0.432-1.407c-0.038-0.119-5.3,8.377-5.291,8.255
						c0.056-0.678,0.225,0.086,0,0c-0.488-0.184,3.858-1.149,3.432-0.865c-0.657,0.441-1.347,0.592-2.037,0.791
						c-0.61,0.178-1.214,0.42-1.815,0.687C53.225,57.276,52.965,57.146,52.728,57.489z"/>
					<path style="fill-rule:evenodd;clip-rule:evenodd;fill:none;" d="M59.9,52.379c-0.157-0.11-0.229-0.167-0.389-0.178
						c-1.181-0.05,2.989-0.136,1.821-0.503c-0.37-0.119-0.757-0.115-1.119-0.364c-0.193-0.136-0.379-0.243-0.538-0.599
						c-0.078,0.525-0.003,0.968,0.022,1.404c0.031,0.625,0.084,1.27-0.423,1.544c0.268,0.289,0.508,0.117,0.727,0.185
						c0.201,0.062,0.409-0.002,0.613,0.024c0.284,0.032,0.532,0.038,0.606-0.622c0.026-0.27-2.473-0.385-2.319-0.35
						c0.268,0.059,0.545-0.036,0.806,0.136c0.279,0.181,0.53-0.107,0.796-0.151c0.66-0.111-1.438-0.335-0.772-0.364
						C59.787,52.539,59.847,52.539,59.9,52.379z"/>
					<path style="fill-rule:evenodd;clip-rule:evenodd;fill:none;" d="M68.368,8.847c-0.438-0.036-0.854,0.21-1.244,0.459
						c-1.281,0.814-2.564,1.652-3.76,2.833c-0.939,0.921-1.81,2.014-2.613,3.296c-0.532,0.862-1.059,1.721-1.459,2.798
						c-0.033,0.095-0.091,0.178-0.029,0.37c0.43-0.581,0.838-1.196,1.283-1.714c0.751-0.877,1.216-2.248,1.88-3.26
						c0.187-0.287,0.373-0.581,0.571-0.841c0.297-0.385,0.623-0.642,1.007-0.515c0.313,0.094,0.566-0.195,0.822-0.441
						C65.979,10.738,67.105,9.572,68.368,8.847z"/>
					<path style="fill-rule:evenodd;clip-rule:evenodd;fill:none;" d="M75.124,8.731c1.037,0.183,1.926-0.599,2.861-0.927
						c0.936-0.32,1.858-0.755,2.818-0.882c-0.698-0.309-1.405-0.261-2.108-0.321c-0.877-0.077-1.76-0.118-2.642-0.05
						c-0.076,0.006-0.216-0.086-0.177,0.193C76.027,7.846,75.533,8.174,75.124,8.731z"/>
					<path style="fill-rule:evenodd;clip-rule:evenodd;fill:none;" d="M107.73,38.844c0.136,0.992,0.258,1.978,0.364,2.976
						c0.193,1.824,0.341,3.66,0.436,5.51c0.018,0.317,0.05,0.548,0.243,0.696c0.287,0.216,0.435,0.713,0.627,1.146
						C109.576,48.198,108.229,39.75,107.73,38.844z"/>
					<path style="fill-rule:evenodd;clip-rule:evenodd;fill:none;" d="M81.525,8.83c0.404,0.321,0.812,0.419,1.209,0.597
						c0.962,0.429,1.907,0.947,2.857,1.43c0.341,0.172,0.692,0.32,1.058,0.293c0.091-0.006,0.191-0.006,0.219-0.193
						c0.02-0.171-0.071-0.232-0.14-0.302c-0.538-0.563-1.122-0.924-1.714-1.255c-1.021-0.572-2.066-0.812-3.134-0.746
						C81.772,8.663,81.654,8.636,81.525,8.83z"/>
					<path style="fill-rule:evenodd;clip-rule:evenodd;fill:none;" d="M96.787,24.116c0.51,0.782,1.013,1.569,1.531,2.336
						c0.933,1.386,1.868,2.762,2.81,4.127c0.101,0.145,0.23,0.571,0.337,0.316c0.101-0.239,0.101-0.707-0.025-1.042
						c-0.054-0.142-0.151-0.228-0.229-0.343c-1.054-1.599-2.138-3.136-3.3-4.475c-0.341-0.391-0.67-0.861-1.069-1.069
						C96.823,24.018,96.806,24.068,96.787,24.116z"/>
					<path style="fill-rule:evenodd;clip-rule:evenodd;fill:none;" d="M106.493,52.77c0.062-0.862-0.062-1.696-0.115-2.544
						c-0.068-1.045-0.11-2.093-0.211-3.135c-0.127-1.298-0.491-2.387-0.822-3.509c-0.405-1.362-0.81-2.721-1.269-4.027
						c-0.041-0.113-0.068-0.332-0.155-0.246c-0.134,0.133,0.001,0.275,0.037,0.388c0.329,1.019,0.658,2.037,0.931,3.115
						c0.27,1.04,0.449,2.123,0.621,3.216c0.255,1.632,0.474,3.28,0.696,4.924c0.082,0.604,0.129,1.223,0.197,1.833
						C106.435,52.781,106.464,52.775,106.493,52.77z"/>
					<path style="fill-rule:evenodd;clip-rule:evenodd;fill:none;" d="M70.161,15.186c-0.259-0.792-0.585-0.897-1.032-0.606
						c-0.485,0.305-0.99,0.539-1.507,0.66c-0.098,0.024-0.196,0.034-0.208,0.294c-0.035,0.755-0.194,1.456-0.361,2.33
						C68.124,16.903,69.031,15.624,70.161,15.186z"/>
					<path style="fill-rule:evenodd;clip-rule:evenodd;fill:none;" d="M105.844,67.491"/>
					<path style="fill-rule:evenodd;clip-rule:evenodd;fill:none;" d="M102.623,24.125c-0.581-1.271-1.161-2.428-1.791-3.505
						c-0.296-0.495-0.583-0.999-0.88-1.49c-0.101-0.174-0.636,0.006-0.696,0.219c-0.035,0.122,0.013,0.181,0.054,0.246
						c1.063,1.507,2.126,3.021,3.191,4.527C102.515,24.14,102.54,24.125,102.623,24.125z"/>
					<path style="fill-rule:evenodd;clip-rule:evenodd;fill:none;" d="M60.74,29.369c-0.743,0.627-1.166,1.525-1.249,2.875
						c-0.031,0.468,0.166,0.639,0.325,0.728c0.196,0.11,0.149-0.287,0.185-0.485C60.202,31.462,60.459,30.477,60.74,29.369z"/>
					<path style="fill-rule:evenodd;clip-rule:evenodd;fill:none;" d="M73.857,6.702c-1.125-0.017-2.094,0.581-3.091,1.001
						c0.435,0.033,0.84,0.261,1.255,0.409c0.22,0.076,0.412-0.289,0.621-0.43C73.029,7.419,73.396,7.082,73.857,6.702z"/>
					<path style="fill-rule:evenodd;clip-rule:evenodd;fill:none;" d="M59.183,48.669c-0.771-0.445-1.51,6.934-2.322,6.765
						c-0.242-0.053-0.249,0.45-0.425,0.622C57.344,56.412,58.259,48.612,59.183,48.669z"/>
					<path style="fill-rule:evenodd;clip-rule:evenodd;fill:none;" d="M71.844,13.729c1.49,0.272,2.857-0.959,4.317-1.057
						C74.704,12.817,73.253,12.992,71.844,13.729z"/>
					<path style="fill-rule:evenodd;clip-rule:evenodd;fill:none;" d="M58.473,40.653c-0.006,0.029,0.038,0.178,0.105,0.112
						c0.143-0.142,0.391,0.077,0.439-0.397c0.076-0.837,0.159-1.682,0.242-2.522c0.018-0.196-0.053-0.284-0.115-0.396
						c-0.104-0.202-0.193-0.222-0.233,0.074C58.768,38.527,58.627,39.534,58.473,40.653z"/>
					<path style="fill-rule:evenodd;clip-rule:evenodd;fill:none;" d="M88.11,9.406c0.839,1.686,1.161,2.014,2.527,2.55
						c-0.368-0.53-0.721-0.791-1.061-1.083c-0.245-0.216-0.485-0.417-0.568-0.942c-0.042-0.269-0.201-0.225-0.312-0.29
						C88.52,9.545,88.336,9.495,88.11,9.406z"/>
					<path style="fill-rule:evenodd;clip-rule:evenodd;fill:none;" d="M53.995,55.352c-0.16,0.391-0.115,0.816-0.115,1.211
						c0.003,1.61,0.036-4.723,0.056-3.118c0,0.21-0.011-7.533,0.148-7.494c0.071,0.014,0.148,7.965,0.122,7.775
						c-0.204-1.501-0.036,4.91-0.145,3.396C54.019,56.533,54.016,55.94,53.995,55.352z"/>
					<path style="fill-rule:evenodd;clip-rule:evenodd;fill:none;" d="M93.927,12.557c1.046,1.09,2.119,2.103,3.292,3.077
						C96.978,15.005,94.837,13.01,93.927,12.557z"/>
					<path style="fill-rule:evenodd;clip-rule:evenodd;fill:none;" d="M58.818,48.55c0.157-1.022,0.039-1.398-0.432-1.658
						c-0.229-0.124-0.229,0.047-0.217,0.325c0.013,0.459,0.031,0.918,0.042,1.377c0.003,0.125-0.003,0.258,0.092,0.261
						c0.073,0,0.118-0.093,0.133-0.223c0.003-0.021,0.005-0.041,0.005-0.059c0.013-0.2,0.018-0.457,0.143-0.503
						C58.768,48.005,58.679,48.425,58.818,48.55z"/>
					<path style="fill-rule:evenodd;clip-rule:evenodd;fill:none;" d="M64.788,16.121c-0.744,0.439-1.646,0.299-2.025,1.893
						c0.115-0.016,0.198-0.188,0.28-0.32c0.3-0.471,0.634-0.75,1.046-0.646C64.495,17.149,64.537,16.37,64.788,16.121z"/>
					<path style="fill-rule:evenodd;clip-rule:evenodd;fill:none;" d="M62.365,18.727c-0.713,0.575-1.578,2.232-1.761,3.516
						C61.185,21.084,61.765,19.924,62.365,18.727z"/>
					<path style="fill-rule:evenodd;clip-rule:evenodd;fill:none;" d="M65.528,18.132c-0.478,0.841-1.016,1.602-1.249,2.798
						C64.983,20.417,65.2,19.198,65.528,18.132z"/>
					<path style="fill-rule:evenodd;clip-rule:evenodd;fill:none;" d="M104.358,29.514c0.634,0.652,0.986,1.773,1.492,2.749
						c0-0.475-0.169-0.72-0.263-1.01c-0.185-0.566-0.383-1.125-0.599-1.664C104.739,28.958,104.729,28.969,104.358,29.514z"/>
					<path style="fill-rule:evenodd;clip-rule:evenodd;fill:none;" d="M80.967,12.539c0.197,0,0.462,0.03,0.469-0.615
						c0.001-0.264-0.043-0.397-0.196-0.246c-0.23,0.23-0.488,0.264-0.74,0.315c-0.054,0.013-0.121-0.01-0.14,0.114
						c-0.018,0.145,0.044,0.21,0.107,0.265C80.607,12.494,80.751,12.607,80.967,12.539z"/>
					<path style="fill-rule:evenodd;clip-rule:evenodd;fill:none;" d="M109.505,50.098c-0.015,1.194,0,2.233,0.15,3.258
						C109.67,52.311,109.78,51.253,109.505,50.098z"/>
					<path style="fill-rule:evenodd;clip-rule:evenodd;fill:none;" d="M56.687,37.523c0.174-0.586,0.219-1.235,0.316-1.848
						c0.018-0.125,0.047-0.296-0.054-0.358c-0.076-0.044-0.115,0.088-0.165,0.163c-0.226,0.332-0.122,0.779-0.119,1.175
						C56.666,36.937,56.705,37.228,56.687,37.523z"/>
					<path style="fill-rule:evenodd;clip-rule:evenodd;fill:none;" d="M106.812,58.016c0.113-0.56,0.054-1.007-0.095-1.436
						C106.7,57.042,106.624,57.516,106.812,58.016z"/>
					<path style="fill-rule:evenodd;clip-rule:evenodd;fill:none;" d="M91.093,29.268c-0.042-0.341-0.064-0.613-0.109-0.879
						c-0.115-0.696-0.429-0.681-0.761-0.685c-0.32-0.006-0.334,0.373-0.424,0.752c-0.258,1.083-0.498,2.182-0.757,3.266
						c-0.487,2.035-1.011,4.045-1.528,6.064c-0.444,1.747-0.896,3.488-1.345,5.235c-0.405,1.583-0.811,3.159-1.161,4.788
						c-0.141,0.642-0.23,1.327-0.408,1.945c-0.026,0.097-0.051,0.198,0.024,0.243c0.064,0.036,0.082-0.074,0.104-0.178
						c0.378-1.856,0.879-3.615,1.374-5.38c0.438-1.576,0.879-3.145,1.323-4.717c0.911-3.222,1.729-6.517,2.538-9.821
						C90.237,28.78,90.386,28.688,91.093,29.268z"/>
					<path style="fill-rule:evenodd;clip-rule:evenodd;fill:none;" d="M83.522,59.826c0.13-0.003,0.155-0.083,0.184-0.181
						c0.261-0.983,0.523-1.969,0.799-2.94c0.076-0.281,0.029-0.328-0.125-0.357c-0.177-0.03-0.372-0.051-0.521-0.199
						c-0.29-0.285-0.337-0.003-0.397,0.396c-0.106,0.708-0.233,1.409-0.354,2.114C83.061,58.928,83.43,59.828,83.522,59.826z"/>
					<path style="fill-rule:evenodd;clip-rule:evenodd;fill:none;" d="M89.879,35.776c0.382-0.749,0.568-1.563,0.796-2.327
						c0.182-0.619,0.376-1.226,0.447-1.931c0.015-0.142,0.11-0.317-0.021-0.391c-0.086-0.044-0.13,0.14-0.156,0.267
						c-0.217,1.074-0.54,2.066-0.791,3.118C90.063,34.882,89.899,35.208,89.879,35.776z"/>
					<path style="fill-rule:evenodd;clip-rule:evenodd;fill:none;" d="M86.331,49.106c0.388-1.285,0.738-2.6,0.961-4.003
						C86.873,46.365,86.409,47.588,86.331,49.106z"/>
					<path style="fill-rule:evenodd;clip-rule:evenodd;fill:none;" d="M85.334,53.122c0.094-0.479,0.361-0.823,0.405-1.516
						C85.438,52.094,85.459,52.673,85.334,53.122z"/>
				</g>
				<g>
					<path style="fill-rule:evenodd;clip-rule:evenodd;" d="M110.428,62.763c-0.056-1.517-0.169-3.014-0.245-4.524
						c-0.083-1.688-0.201-3.369-0.338-5.045c-0.187-2.369-0.555-4.676-0.946-6.964c-0.286-1.669-3.309-12.732-3.791-14.251
						c-0.106-0.337,5.193,8.996,4.963,9.315c-0.627,0.871-6.479-12.252-6.959-11.142c-0.596,1.395,3.826,6.046,3.378,5.173
						c-0.342-0.675-0.739-1.196-1.14-1.708c-0.518-0.672-0.449-1.691,0.034-2.2c0.474-0.5,0.843-1.175,1.228-1.844
						c0.509-0.9-1.649,7.684-1.127,6.806c0.147-0.248,0.222-0.389,0.043-0.75c-0.283-0.572-0.592-1.096-0.874-1.667
						c-0.503-1.033-1.095-1.907-1.646-2.858c-0.746-1.284-1.587-2.36-2.4-3.5c-0.552-0.778-1.183-1.408-1.729-2.179
						c-0.729-1.027-1.555-1.75-2.308-2.688c-0.802-1.004-1.684-1.791-2.582-2.505c-1.019-0.812-2.013-1.712-3.092-2.259
						c-0.248-0.125-0.484-0.326-0.728-0.468c-0.61-0.355-1.223-0.693-1.833-1.036c-0.094-0.049-0.189-0.074-0.204,0.163
						c-0.104,1.519-0.37-6.467-0.399-4.921c-0.013,0.735-0.086,1.469,0.059,2.194c0.051,0.255,0.054,0.545-0.064,0.796
						c-0.334,0.69-1.045,0.903-1.489,0.429c-0.16-0.171-0.332-0.237-0.516-0.239c-0.388-0.016-0.754,0.219-1.137,0.284
						c-0.466,0.08-0.685-0.13-0.768-0.832c-0.083-0.755,0-1.471-0.022-2.2c-0.054-1.812-0.018,5.842,0,4.027
						c0.012-1.302,0.008-1.383-0.705-1.427c-0.657-0.038-1.32-0.147-1.963,0.32c-0.37,0.271-0.785,0.432-1.183,0.5
						c-1.154,0.201-2.31,0.361-3.429,0.968c-0.864,0.467-1.704,0.998-2.504,1.765c-0.729,0.693-1.427,1.465-2.126,2.227
						c-0.521,0.571-1.104,1.009-1.487,1.939c-0.363,0.895-0.829,1.628-1.296,2.354c-0.361,0.565-0.777,1.048-1.046,1.782
						c-0.692,1.898-1.295,3.891-1.754,5.996c-0.582,2.683-0.822,5.514-1.086,8.334c-0.033,0.339,0.089,0.333,0.214,0.392
						c1.402,0.676-2.556-3.346-1.148-2.691c0.729,0.338,1.311,0.909,1.507,2.318c0.04,0.288,0.026,0.53-0.032,0.809
						c-0.193,0.868-0.49,1.655-0.54,2.626c-0.023,0.447-0.219,0.835-0.429,1.119c-0.441,0.59-0.681,0.557-1.114-0.068
						c-0.136-0.199-0.24-0.486-0.428-0.563c-0.949-0.384,3.464-0.784,2.516-1.157c-0.597-0.237-0.625,4.519-0.586,5.593
						c0.047,1.456,0.029,2.917,0.054,4.37c0.022,1.638,0.23-4.717,0.313-3.094c0.077,1.445,0.167-5.061,0.254-3.613
						c0.042,0.731,0.397,1.383,0.179,2.186c-0.036,0.127,0.05,0.207,0.115,0.24c0.516,0.26-1.638,0.509-1.104,0.547
						c1.699,0.14-7.334,0.773-5.631,0.892c0.532,0.036,1.066,0.201,1.604,0.225c1.019,0.044,1.998-0.293,2.976-0.672
						c0.115-0.048,0.263-0.065,0.33-0.275c0.154-0.497,0.425-0.699,0.697-0.848c0.29-0.162,0.594-0.043,0.817,0.324
						c0.211,0.343,0.243,0.799,0.107,1.264c-0.137,0.444-0.177,0.947-0.23,1.431c-0.054,0.476-0.137,0.959,0.101,1.4
						c0.108,0.195,0.076,0.515-0.014,0.737c-0.094,0.216-0.084,0.438-0.076,0.678c0.054,1.151,0.104-5.643,0.148-4.492
						c0.047,1.27-0.392,1.942-1.092,1.72c-0.255-0.079-0.519-0.124-0.777-0.147c-1.184-0.092-2.365,0.056-3.554-0.062
						c-1.225-0.127-2.454-0.29-3.685-0.231c-0.54,0.024,9.629-0.157,9.089-0.151c-0.592,0.009-1.169-0.124-1.75-0.251
						c-1.223-0.261,0.225-0.423-1.004-0.491c-0.9-0.048-1.797-0.244-2.7-0.127c-0.675,0.088-1.309-0.367-1.956-0.584
						c-0.323-0.112-0.512-0.506-0.524-0.947c-0.066-1.951-0.365,4.098-0.375,2.132c-0.008-2.528,0.018,2.896-0.07,0.373
						c-0.096-2.582,0.041,2.807,0.209,0.24c0.117-1.756,0.189-3.532,0.247-5.306c0.076-2.312,0.139-4.625,0.384-6.899
						c0.175-1.587,0.402-3.154,0.584-4.741c0.263-2.271,0.642-4.477,1.08-6.66c0.373-1.868,0.903-3.609,1.409-5.368
						c0.469-1.613,0.918-3.245,1.41-4.844c0.548-1.771,1.341-3.18,2.215-4.465c0.785-1.14,1.613-2.178,2.511-3.003
						c0.628-0.58,1.267-1.119,1.922-1.605c0.921-0.687,1.829-1.462,2.815-1.8c1.359-0.47,2.676-1.255,4.035-1.734
						c1.171-0.415,2.349-0.773,3.539-0.865c0.724-0.056,1.445,0,2.167-0.011c0.916-0.012,1.827,0.197,2.742,0.246
						c0.811,0.036,1.617,0.195,2.417,0.401c1.362,0.345,2.705,0.869,4.046,1.402c0.945,0.375,1.882,0.84,2.835,1.171
						c1.214,0.424,2.41,1.004,3.588,1.703c1.782,1.048,3.532,2.182,5.11,4.033c1.283,1.501,2.523,3.073,3.66,4.924
						c1.703,2.774,3.142,5.928,4.459,9.277c0.38,0.965,0.785,1.913,1.119,2.925c0.72,2.194,1.38,4.445,1.976,6.757
						c0.344,1.324,0.663,2.665,0.889,4.071c0.27,1.688,0.545,3.367,0.752,5.084c0.184,1.48,0.409,2.943,0.459,4.458
						c0.044,1.392,0.038,2.79-0.035,4.181c-0.099,1.945-0.164,3.902-0.272,5.848c-0.099,1.667-0.3,3.308-0.462,4.959
						c-0.098,1.021-0.172,2.049-0.249,3.08c-0.148,1.989-0.439,3.956-0.364,5.993c0.018,0.485-0.341,1.303-0.577,1.187
						c-0.335-0.163-0.593,0.089-0.875,0.24c-0.241,0.133-0.467,0.122-0.683-0.083c-0.439-0.417-0.91-0.572-1.401-0.61
						c-0.312-0.026-0.631-0.27-0.933-0.199 M102.602,20.317c-0.867-1.261-1.912-1.741-2.887-2.543c-0.089-0.071-0.174-0.042-0.266,0
						c-0.323,0.147-0.646,0.136-0.969-0.05c-0.121-0.071-0.243-0.208-0.394-0.042c0.064,0.352,0.266,0.45,0.405,0.583
						c2.115,2.099,4.202,4.281,6.207,6.701c0.57,0.69,1.23,1.081,1.844,1.616c0.083,0.068,0.172,0.102,0.305-0.032
						C105.466,24.33,104.015,22.366,102.602,20.317z M96.556,18.215c0.045-0.033,0.122,0.005,0.131-0.127
						c0.012-0.154-0.067-0.181-0.131-0.217c-0.796-0.497-1.586-1.045-2.396-1.471c-1.178-0.621-2.368-1.176-3.559-1.718
						c-1.211-0.545-2.406-1.193-3.636-1.631c-0.133-0.05-0.243-0.11-0.316,0.147c-0.031,0.107-0.066,0.234,0.008,0.323
						c0.107,0.122,0.216,0.181,0.349,0.077c0.476-0.379,0.878-0.16,1.153,0.572c0.105,0.296,0.316,0.308,0.479,0.391
						c2.108,1.048,4.163,2.363,6.153,3.986c0.4,0.332,0.788,0.698,1.183,1.045c0.155,0.139,0.245,0.104,0.201-0.252
						C96.07,18.725,96.271,18.425,96.556,18.215z M63.476,20.738c-0.548,1.91-1.101,3.811-1.635,5.724
						c-0.55,1.98-0.929,4.074-1.27,6.194c-0.026,0.143-0.086,0.329,0.026,0.421c0.118,0.097,0.178-0.065,0.235-0.234
						c0.556-1.734,1.142-3.446,1.672-5.208c0.577-1.922,1.101-3.889,1.652-5.836c0.029-0.109,0.086-0.27,0.041-0.329
						c-0.206-0.302-0.467-0.512-0.55-1.027c0-0.006-0.018-0.006-0.029-0.012C63.523,20.465,63.509,20.62,63.476,20.738z
						 M110.387,73.452c0.323,0.065,0.648,0.116,0.975,0.13c0.414,0.021,0.829-0.021,1.166-0.56c0.047-0.077,0.13-0.125,0.086-0.276
						c-0.029-0.1-0.097-0.077-0.153-0.077c-0.144,0-0.294-0.015-0.438,0c-0.319,0.041-0.604-0.124-0.847-0.477 M59.632,50.01
						c1.333,0.083,2.665,0.08,3.998-0.057c0.657-0.074,0.754,7.524,0.43,6.541c-0.039-0.115-0.086-0.267-0.081-0.391
						c0.06-0.672-0.219-0.574-0.444-0.66c-0.492-0.184-0.905,0.204-1.332,0.491c-0.66,0.444,2.467-0.03,1.776,0.169
						c-0.606,0.177-5.029-6.908-5.631-6.642c-0.23,0.101-0.495-0.029-0.729,0.313C58.312,49.858,58.969,49.965,59.632,50.01z
						 M64.401,52.44c-1.183-0.053,2.987-0.139,1.82-0.506c-0.37-0.118-0.755-0.115-1.116-0.364
						c-0.194-0.136-0.379-0.243-0.539-0.599c-0.079,0.525-0.003,0.968,0.021,1.404c0.032,0.625,0.086,1.271-0.422,1.542
						c0.268,0.293,0.508,0.122,0.727,0.193c0.198,0.056,0.406-0.006,0.61,0.015c0.284,0.036,0.535,0.042,0.606-0.619
						c0.029-0.272-2.472-0.385-2.317-0.35c0.266,0.059,0.543-0.036,0.808,0.136c0.279,0.183,0.527-0.106,0.793-0.151
						c0.663-0.113-9.389-0.332-8.719-0.362c0.052-0.005,0.112-0.005,0.166-0.165C56.684,52.506,64.563,52.453,64.401,52.44z
						 M72.016,9.542c-1.285,0.814-2.567,1.655-3.76,2.833c-0.939,0.925-1.81,2.019-2.613,3.296
						c-0.535,0.862-1.059,1.721-1.459,2.798c-0.036,0.093-0.091,0.178-0.033,0.367c0.433-0.581,0.842-1.193,1.287-1.715
						c0.747-0.874,1.213-2.244,1.879-3.257c0.187-0.287,0.37-0.581,0.571-0.837c0.297-0.389,0.619-0.646,1.007-0.521
						c0.312,0.098,0.563-0.192,0.822-0.438c1.153-1.088,2.28-2.263,3.539-2.985C72.821,9.047,72.406,9.293,72.016,9.542z
						 M82.877,8.041c0.936-0.319,1.858-0.755,2.815-0.882c-0.699-0.308-1.406-0.263-2.105-0.32c-0.879-0.077-1.76-0.121-2.642-0.05
						c-0.076,0.007-0.219-0.086-0.18,0.196c0.153,1.099-0.341,1.427-0.75,1.987C81.049,9.151,81.941,8.367,82.877,8.041z
						 M112.986,42.057c0.193,1.824,0.338,3.66,0.435,5.51c0.015,0.313,0.051,0.548,0.244,0.695c0.283,0.217,0.435,0.714,0.627,1.146
						c0.176-0.976-1.176-9.421-1.67-10.327C112.758,40.073,112.88,41.056,112.986,42.057z M87.626,9.664
						c0.96,0.426,1.907,0.947,2.857,1.43c0.341,0.175,0.692,0.317,1.055,0.293c0.094-0.003,0.194-0.003,0.222-0.192
						c0.02-0.172-0.074-0.234-0.143-0.302c-0.535-0.56-1.119-0.922-1.711-1.255c-1.022-0.572-2.066-0.809-3.137-0.744
						c-0.105,0.006-0.224-0.021-0.353,0.172C86.818,9.392,87.229,9.486,87.626,9.664z M103.207,26.689
						c0.933,1.388,1.868,2.763,2.812,4.129c0.097,0.144,0.229,0.57,0.334,0.315c0.104-0.237,0.104-0.708-0.023-1.04
						c-0.057-0.145-0.153-0.231-0.229-0.349c-1.057-1.596-2.138-3.129-3.304-4.474c-0.337-0.388-0.67-0.859-1.065-1.069
						c-0.018,0.05-0.035,0.101-0.054,0.154C102.188,25.135,102.691,25.922,103.207,26.689z M111.266,50.466
						c-0.064-1.049-0.108-2.1-0.209-3.138c-0.125-1.298-0.49-2.384-0.824-3.512c-0.405-1.359-0.806-2.718-1.265-4.024
						c-0.041-0.113-0.069-0.329-0.156-0.243c-0.136,0.13,0.002,0.27,0.038,0.382c0.329,1.021,0.655,2.042,0.931,3.117
						c0.266,1.04,0.449,2.123,0.621,3.216c0.255,1.632,0.474,3.278,0.692,4.927c0.083,0.601,0.133,1.22,0.199,1.83
						c0.033-0.006,0.062-0.012,0.088-0.015C111.444,52.145,111.319,51.31,111.266,50.466z M74.017,14.816
						c-0.484,0.308-0.986,0.539-1.503,0.66c-0.101,0.024-0.196,0.033-0.208,0.294c-0.036,0.755-0.194,1.454-0.361,2.33
						c1.071-0.959,1.975-2.238,3.105-2.676C74.794,14.632,74.468,14.525,74.017,14.816z M110.735,67.726 M105.721,20.859
						c-0.294-0.5-0.581-1.001-0.877-1.492c-0.104-0.172-0.636,0.009-0.699,0.219c-0.032,0.122,0.013,0.181,0.057,0.244
						c1.063,1.511,2.126,3.024,3.188,4.53c0.013,0.018,0.042,0.003,0.122,0.003C106.931,23.092,106.352,21.934,105.721,20.859z
						 M64.379,32.484c-0.029,0.464,0.169,0.633,0.326,0.725c0.195,0.11,0.147-0.287,0.187-0.485c0.201-1.026,0.456-2.014,0.74-3.118
						C64.886,30.234,64.466,31.131,64.379,32.484z M75.658,7.94c0.432,0.033,0.84,0.262,1.255,0.409
						c0.219,0.077,0.409-0.288,0.618-0.43c0.39-0.263,0.756-0.603,1.215-0.979C77.624,6.922,76.652,7.518,75.658,7.94z
						 M61.752,55.668c-0.242-0.053-0.249,0.45-0.425,0.625c0.905,0.355,1.82,0.506,2.748,0.563
						C63.304,56.415,62.562,55.84,61.752,55.668z M81.049,12.909c-1.453,0.145-2.904,0.319-4.313,1.057
						C78.223,14.238,79.59,13.005,81.049,12.909z M63.466,41.002c0.146-0.142,0.395,0.081,0.443-0.393
						c0.076-0.844,0.156-1.682,0.238-2.526c0.021-0.196-0.05-0.284-0.115-0.4c-0.104-0.198-0.19-0.216-0.23,0.079
						c-0.143,1.005-0.284,2.009-0.441,3.128C63.358,40.916,63.402,41.064,63.466,41.002z M95.529,12.192
						c-0.368-0.53-0.721-0.791-1.064-1.083c-0.241-0.217-0.484-0.418-0.567-0.942c-0.042-0.27-0.199-0.229-0.309-0.288
						c-0.178-0.097-0.364-0.147-0.587-0.237C93.841,11.328,94.163,11.656,95.529,12.192z M58.768,48.849
						c0.006,1.614,0.036,3.225,0.06,4.834c0,0.209-0.013-7.534,0.144-7.495c0.072,0.014,0.148,0.014,0.122-0.175
						c-0.204-1.498-0.036,4.909-0.143,3.396c-0.041-0.589-0.047,6.769-0.065,6.18C58.728,55.979,58.768,48.458,58.768,48.849z
						 M102.11,15.87c-0.241-0.625-2.386-2.627-3.292-3.077C99.864,13.883,100.938,14.895,102.11,15.87z M63.275,47.129
						c-0.229-0.124-0.225,0.05-0.214,0.326c0.013,0.456,0.031,0.918,0.042,1.376c0.003,0.125-0.006,0.258,0.089,0.258
						c0.076,0.005,0.122-0.088,0.136-0.219c0-0.018,0.005-0.041,0.005-0.059c0.013-0.201,0.018-0.456,0.14-0.503
						c0.187-0.062,0.096,0.355,0.233,0.48C63.864,47.765,63.749,47.389,63.275,47.129z M67.651,18.248
						c0.118-0.012,0.197-0.183,0.283-0.317c0.297-0.474,0.631-0.749,1.043-0.646c0.409,0.101,0.447-0.678,0.702-0.93
						C68.934,16.797,68.03,16.657,67.651,18.248z M65.495,22.479c0.581-1.158,1.161-2.318,1.762-3.515
						C66.542,19.535,65.679,21.194,65.495,22.479z M69.167,21.167c0.704-0.513,0.923-1.732,1.252-2.798
						C69.942,19.21,69.4,19.974,69.167,21.167z M110.738,32.501c0-0.476-0.165-0.72-0.259-1.012
						c-0.187-0.566-0.386-1.125-0.599-1.662c-0.251-0.633-0.261-0.621-0.631-0.074C109.884,30.402,110.236,31.524,110.738,32.501z
						 M86.326,12.16c0.002-0.263-0.045-0.396-0.196-0.246c-0.229,0.228-0.487,0.264-0.742,0.316
						c-0.054,0.012-0.118-0.011-0.137,0.113c-0.018,0.145,0.041,0.21,0.107,0.264c0.138,0.125,0.284,0.237,0.496,0.166
						C86.056,12.773,86.32,12.805,86.326,12.16z M114.547,53.593c0.015-1.045,0.125-2.1-0.154-3.258
						C114.382,51.529,114.396,52.568,114.547,53.593z M61.892,35.91c0.021-0.119,0.05-0.293-0.055-0.352
						c-0.071-0.048-0.113,0.083-0.161,0.162c-0.229,0.332-0.125,0.776-0.122,1.173c0,0.285,0.039,0.575,0.021,0.868
						C61.752,37.177,61.794,36.528,61.892,35.91z M111.609,56.817c-0.018,0.462-0.094,0.936,0.095,1.439
						C111.814,57.693,111.754,57.247,111.609,56.817z"/>
					<path style="fill-rule:evenodd;clip-rule:evenodd;fill:none;" d="M106.848,26.55c-1.382-2.22-2.833-4.184-4.246-6.233
						c-0.867-1.261-1.912-1.741-2.887-2.543c-0.089-0.071-0.174-0.042-0.266,0c-0.323,0.147-0.646,0.136-0.969-0.05
						c-0.121-0.071-0.243-0.208-0.394-0.042c0.064,0.352,0.266,0.45,0.405,0.583c2.115,2.099,4.202,4.281,6.207,6.701
						c0.57,0.69,1.23,1.081,1.844,1.616C106.626,26.65,106.715,26.684,106.848,26.55z"/>
					<path style="fill-rule:evenodd;clip-rule:evenodd;fill:none;" d="M96.175,19.34c-0.104-0.615,0.097-0.915,0.381-1.125
						c0.045-0.033,0.122,0.005,0.131-0.127c0.012-0.154-0.067-0.181-0.131-0.217c-0.796-0.497-1.586-1.045-2.396-1.471
						c-1.178-0.621-2.368-1.176-3.559-1.718c-1.211-0.545-2.406-1.193-3.636-1.631c-0.133-0.05-0.243-0.11-0.316,0.147
						c-0.031,0.107-0.066,0.234,0.008,0.323c0.107,0.122,0.216,0.181,0.349,0.077c0.476-0.379,0.878-0.16,1.153,0.572
						c0.105,0.296,0.316,0.308,0.479,0.391c2.108,1.048,4.163,2.363,6.153,3.986c0.4,0.332,0.788,0.698,1.183,1.045
						C96.129,19.731,96.219,19.697,96.175,19.34z"/>
					<path style="fill-rule:evenodd;clip-rule:evenodd;fill:none;" d="M63.619,20.43c-0.096,0.036-0.11,0.19-0.143,0.308
						c-0.548,1.91-1.101,3.811-1.635,5.724c-0.55,1.98-0.929,4.074-1.27,6.194c-0.026,0.143-0.086,0.329,0.026,0.421
						c0.118,0.097,0.178-0.065,0.235-0.234c0.556-1.734,1.142-3.446,1.672-5.208c0.577-1.922,1.101-3.889,1.652-5.836
						c0.029-0.109,0.086-0.27,0.041-0.329c-0.206-0.302-0.467-0.512-0.55-1.027C63.648,20.436,63.63,20.436,63.619,20.43z"/>
					<path style="fill-rule:evenodd;clip-rule:evenodd;fill:none;" d="M110.387,73.452c0.323,0.065,0.648,0.116,0.975,0.13
						c0.414,0.021,0.829-0.021,1.166-0.56c0.047-0.077,0.13-0.125,0.086-0.276c-0.029-0.1-0.097-0.077-0.153-0.077
						c-0.144,0-0.294-0.015-0.438,0c-0.319,0.041-0.604-0.124-0.847-0.477"/>
					<path style="fill-rule:evenodd;clip-rule:evenodd;fill:none;" d="M73.256,9.083c-0.435-0.036-0.85,0.21-1.24,0.459
						c-1.285,0.814-2.567,1.655-3.76,2.833c-0.939,0.925-1.81,2.019-2.613,3.296c-0.535,0.862-1.059,1.721-1.459,2.798
						c-0.036,0.093-0.091,0.178-0.033,0.367c0.433-0.581,0.842-1.193,1.287-1.715c0.747-0.874,1.213-2.244,1.879-3.257
						c0.187-0.287,0.37-0.581,0.571-0.837c0.297-0.389,0.619-0.646,1.007-0.521c0.312,0.098,0.563-0.192,0.822-0.438
						C70.87,10.98,71.997,9.806,73.256,9.083z"/>
					<path style="fill-rule:evenodd;clip-rule:evenodd;fill:none;" d="M80.016,8.971c1.033,0.181,1.926-0.604,2.861-0.93
						c0.936-0.319,1.858-0.755,2.815-0.882c-0.699-0.308-1.406-0.263-2.105-0.32c-0.879-0.077-1.76-0.121-2.642-0.05
						c-0.076,0.007-0.219-0.086-0.18,0.196C80.919,8.083,80.425,8.411,80.016,8.971z"/>
					<path style="fill-rule:evenodd;clip-rule:evenodd;fill:none;" d="M112.622,39.081c0.136,0.992,0.258,1.975,0.364,2.976
						c0.193,1.824,0.338,3.66,0.435,5.51c0.015,0.313,0.051,0.548,0.244,0.695c0.283,0.217,0.435,0.714,0.627,1.146
						C114.468,48.432,113.116,39.987,112.622,39.081z"/>
					<path style="fill-rule:evenodd;clip-rule:evenodd;fill:none;" d="M86.417,9.065c0.401,0.326,0.812,0.421,1.209,0.599
						c0.96,0.426,1.907,0.947,2.857,1.43c0.341,0.175,0.692,0.317,1.055,0.293c0.094-0.003,0.194-0.003,0.222-0.192
						c0.02-0.172-0.074-0.234-0.143-0.302c-0.535-0.56-1.119-0.922-1.711-1.255c-1.022-0.572-2.066-0.809-3.137-0.744
						C86.664,8.9,86.546,8.873,86.417,9.065z"/>
					<path style="fill-rule:evenodd;clip-rule:evenodd;fill:none;" d="M101.679,24.356c0.51,0.778,1.013,1.566,1.528,2.333
						c0.933,1.388,1.868,2.763,2.812,4.129c0.097,0.144,0.229,0.57,0.334,0.315c0.104-0.237,0.104-0.708-0.023-1.04
						c-0.057-0.145-0.153-0.231-0.229-0.349c-1.057-1.596-2.138-3.129-3.304-4.474c-0.337-0.388-0.67-0.859-1.065-1.069
						C101.715,24.252,101.697,24.303,101.679,24.356z"/>
					<path style="fill-rule:evenodd;clip-rule:evenodd;fill:none;" d="M111.381,53.006c0.063-0.862-0.062-1.696-0.115-2.541
						c-0.064-1.049-0.108-2.1-0.209-3.138c-0.125-1.298-0.49-2.384-0.824-3.512c-0.405-1.359-0.806-2.718-1.265-4.024
						c-0.041-0.113-0.069-0.329-0.156-0.243c-0.136,0.13,0.002,0.27,0.038,0.382c0.329,1.021,0.655,2.042,0.931,3.117
						c0.266,1.04,0.449,2.123,0.621,3.216c0.255,1.632,0.474,3.278,0.692,4.927c0.083,0.601,0.133,1.22,0.199,1.83
						C111.326,53.015,111.355,53.009,111.381,53.006z"/>
					<path style="fill-rule:evenodd;clip-rule:evenodd;fill:none;" d="M75.05,15.423c-0.256-0.791-0.582-0.897-1.033-0.607
						c-0.484,0.308-0.986,0.539-1.503,0.66c-0.101,0.024-0.196,0.033-0.208,0.294c-0.036,0.755-0.194,1.454-0.361,2.33
						C73.016,17.14,73.919,15.861,75.05,15.423z"/>
					<path style="fill-rule:evenodd;clip-rule:evenodd;fill:none;" d="M110.735,67.726"/>
					<path style="fill-rule:evenodd;clip-rule:evenodd;fill:none;" d="M107.512,24.362c-0.581-1.27-1.16-2.428-1.791-3.503
						c-0.294-0.5-0.581-1.001-0.877-1.492c-0.104-0.172-0.636,0.009-0.699,0.219c-0.032,0.122,0.013,0.181,0.057,0.244
						c1.063,1.511,2.126,3.024,3.188,4.53C107.402,24.376,107.432,24.362,107.512,24.362z"/>
					<path style="fill-rule:evenodd;clip-rule:evenodd;fill:none;" d="M65.632,29.605c-0.746,0.628-1.166,1.525-1.252,2.879
						c-0.029,0.464,0.169,0.633,0.326,0.725c0.195,0.11,0.147-0.287,0.187-0.485C65.093,31.698,65.348,30.71,65.632,29.605z"/>
					<path style="fill-rule:evenodd;clip-rule:evenodd;fill:none;" d="M78.746,6.941c-1.122-0.019-2.094,0.577-3.088,1
						c0.432,0.033,0.84,0.262,1.255,0.409c0.219,0.077,0.409-0.288,0.618-0.43C77.921,7.656,78.287,7.317,78.746,6.941z"/>
					<path style="fill-rule:evenodd;clip-rule:evenodd;fill:none;" d="M64.075,56.856c-0.771-0.441-1.513-1.016-2.322-1.188
						c-0.242-0.053-0.249,0.45-0.425,0.625C62.232,56.648,63.147,56.799,64.075,56.856z"/>
					<path style="fill-rule:evenodd;clip-rule:evenodd;fill:none;" d="M76.735,13.966c1.487,0.272,2.854-0.961,4.313-1.057
						C79.596,13.054,78.145,13.229,76.735,13.966z"/>
					<path style="fill-rule:evenodd;clip-rule:evenodd;fill:none;" d="M63.361,40.89c-0.003,0.026,0.041,0.174,0.105,0.112
						c0.146-0.142,0.395,0.081,0.443-0.393c0.076-0.844,0.156-1.682,0.238-2.526c0.021-0.196-0.05-0.284-0.115-0.4
						c-0.104-0.198-0.19-0.216-0.23,0.079C63.66,38.767,63.519,39.771,63.361,40.89z"/>
					<path style="fill-rule:evenodd;clip-rule:evenodd;fill:none;" d="M93.002,9.643c0.839,1.686,1.161,2.014,2.527,2.55
						c-0.368-0.53-0.721-0.791-1.064-1.083c-0.241-0.217-0.484-0.418-0.567-0.942c-0.042-0.27-0.199-0.229-0.309-0.288
						C93.411,9.782,93.225,9.732,93.002,9.643z"/>
					<path style="fill-rule:evenodd;clip-rule:evenodd;fill:none;" d="M58.886,55.588c-0.159,0.391-0.118-7.13-0.118-6.74
						c0.006,1.614,0.036,3.225,0.06,4.834c0,0.209-0.013-7.534,0.144-7.495c0.072,0.014,0.148,0.014,0.122-0.175
						c-1.62-11.826,0.639,14.378-0.143,3.396C58.911,48.819,58.904,56.177,58.886,55.588z"/>
					<path style="fill-rule:evenodd;clip-rule:evenodd;fill:none;" d="M98.818,12.793c1.046,1.09,2.119,2.101,3.292,3.077
						C101.869,15.246,99.725,13.243,98.818,12.793z"/>
					<path style="fill-rule:evenodd;clip-rule:evenodd;fill:none;" d="M63.707,48.787c0.157-1.022,0.042-1.398-0.432-1.658
						c-0.229-0.124-0.225,0.05-0.214,0.326c0.013,0.456,0.031,0.918,0.042,1.376c0.003,0.125-0.006,0.258,0.089,0.258
						c0.076,0.005,0.122-0.088,0.136-0.219c0-0.018,0.005-0.041,0.005-0.059c0.013-0.201,0.018-0.456,0.14-0.503
						C63.66,48.246,63.569,48.662,63.707,48.787z"/>
					<path style="fill-rule:evenodd;clip-rule:evenodd;fill:none;" d="M69.68,16.355c-0.746,0.441-1.649,0.302-2.028,1.892
						c0.118-0.012,0.197-0.183,0.283-0.317c0.297-0.474,0.631-0.749,1.043-0.646C69.387,17.386,69.425,16.607,69.68,16.355z"/>
					<path style="fill-rule:evenodd;clip-rule:evenodd;fill:none;" d="M67.257,18.964c-0.715,0.571-1.578,2.229-1.762,3.515
						C66.076,21.321,66.656,20.161,67.257,18.964z"/>
					<path style="fill-rule:evenodd;clip-rule:evenodd;fill:none;" d="M70.419,18.369c-0.477,0.841-1.019,1.605-1.252,2.798
						C69.871,20.654,70.09,19.435,70.419,18.369z"/>
					<path style="fill-rule:evenodd;clip-rule:evenodd;fill:none;" d="M109.25,29.754c0.634,0.648,0.986,1.77,1.488,2.748
						c0-0.476-0.165-0.72-0.259-1.012c-0.187-0.566-0.386-1.125-0.599-1.662C109.63,29.194,109.62,29.207,109.25,29.754z"/>
					<path style="fill-rule:evenodd;clip-rule:evenodd;fill:none;" d="M85.854,12.773c0.201,0,0.466,0.032,0.472-0.613
						c0.002-0.263-0.045-0.396-0.196-0.246c-0.229,0.228-0.487,0.264-0.742,0.316c-0.054,0.012-0.118-0.011-0.137,0.113
						c-0.018,0.145,0.041,0.21,0.107,0.264C85.496,12.731,85.643,12.844,85.854,12.773z"/>
					<path style="fill-rule:evenodd;clip-rule:evenodd;fill:none;" d="M114.393,50.335c-0.011,1.194,0.004,2.233,0.154,3.258
						C114.562,52.547,114.672,51.493,114.393,50.335z"/>
					<path style="fill-rule:evenodd;clip-rule:evenodd;fill:none;" d="M61.575,37.76c0.177-0.583,0.219-1.232,0.316-1.851
						c0.021-0.119,0.05-0.293-0.055-0.352c-0.071-0.048-0.113,0.083-0.161,0.162c-0.229,0.332-0.125,0.776-0.122,1.173
						C61.554,37.177,61.593,37.467,61.575,37.76z"/>
					<path style="fill-rule:evenodd;clip-rule:evenodd;fill:none;" d="M111.704,58.256c0.11-0.563,0.05-1.01-0.095-1.439
						C111.592,57.279,111.516,57.753,111.704,58.256z"/>
					<path style="fill-rule:evenodd;clip-rule:evenodd;fill:none;" d="M95.984,29.505c-0.043-0.341-0.067-0.616-0.111-0.879
						c-0.117-0.696-0.427-0.681-0.763-0.685c-0.319-0.002-0.331,0.373-0.423,0.752c-0.258,1.083-0.495,2.182-0.755,3.263
						c-0.487,2.037-1.013,4.044-1.527,6.064c-0.444,1.75-0.896,3.49-1.345,5.238c-0.408,1.584-0.811,3.162-1.164,4.788
						c-0.137,0.642-0.228,1.327-0.405,1.945c-0.026,0.097-0.054,0.198,0.021,0.24c0.068,0.038,0.086-0.068,0.104-0.175
						c0.38-1.854,0.88-3.615,1.374-5.38c0.441-1.576,0.883-3.145,1.323-4.714c0.912-3.228,1.732-6.523,2.542-9.824
						C95.128,29.017,95.274,28.925,95.984,29.505z"/>
					<path style="fill-rule:evenodd;clip-rule:evenodd;fill:none;" d="M88.411,60.062c0.133-0.006,0.158-0.083,0.183-0.181
						c0.265-0.983,0.527-1.966,0.8-2.94c0.079-0.284,0.032-0.328-0.122-0.357c-0.18-0.031-0.373-0.051-0.523-0.199
						c-0.29-0.285-0.334-0.006-0.395,0.396c-0.106,0.708-0.233,1.409-0.358,2.114C87.952,59.166,88.321,60.065,88.411,60.062z"/>
					<path style="fill-rule:evenodd;clip-rule:evenodd;fill:none;" d="M94.769,36.017c0.384-0.756,0.57-1.567,0.796-2.331
						c0.184-0.619,0.378-1.226,0.449-1.931c0.015-0.142,0.11-0.32-0.022-0.391c-0.084-0.047-0.128,0.14-0.154,0.267
						c-0.219,1.076-0.541,2.067-0.795,3.118C94.955,35.119,94.791,35.445,94.769,36.017z"/>
					<path style="fill-rule:evenodd;clip-rule:evenodd;fill:none;" d="M91.223,49.34c0.388-1.282,0.735-2.597,0.957-4.003
						C91.765,46.599,91.298,47.825,91.223,49.34z"/>
					<path style="fill-rule:evenodd;clip-rule:evenodd;fill:none;" d="M90.226,53.358c0.093-0.479,0.361-0.823,0.405-1.516
						C90.326,52.331,90.351,52.908,90.226,53.358z"/>
				</g>
			</g>
			<polyline style="fill-rule:evenodd;clip-rule:evenodd;fill:#FFFFFF;" points="64.725,56.849 58.643,50.629 52.971,57.042 			"/>
		</g>
	</g>
</g>
<g id="Layer_1">
</g>
</svg>
