<?xml version="1.0" encoding="iso-8859-1"?>
<!-- Generator: Adobe Illustrator 16.0.0, SVG Export Plug-In . SVG Version: 6.00 Build 0)  -->
<!DOCTYPE svg PUBLIC "-//W3C//DTD SVG 1.1//EN" "http://www.w3.org/Graphics/SVG/1.1/DTD/svg11.dtd">
<svg version="1.1" xmlns="http://www.w3.org/2000/svg" xmlns:xlink="http://www.w3.org/1999/xlink" x="0px" y="0px" width="160px"
	 height="160px" viewBox="0 0 160 160" style="enable-background:new 0 0 160 160;" xml:space="preserve">
<g id="datasporen">
	<g>
		<g>
			<g>
				<path style="fill-rule:evenodd;clip-rule:evenodd;" d="M48.148,59.562c4.301,0.748,9.036,0.325,12.289,4.082
					c1.403,1.618,8.979,4.207,9.542,6.204c1.467,5.178,15.191,13.05,16.169,18.355c0.249,1.341,0.596-1.296,0,0
					c-2.623,5.731-25.22,12.324-30.591,15.88c-5.883,3.883-12.604,4.444-19.507,3.293c-1.949-0.319-3.994-0.118-5.891-0.586
					C23.841,105.238,7.61,90.347,5.741,84.097c-2.527-8.449,1.696-4.837,8.303-11.161c2.89-2.754,14.377-6.18,17.511-8.611
					C36.345,60.599,42.32,60.298,48.148,59.562z"/>
				<path style="fill-rule:evenodd;clip-rule:evenodd;fill:#F9F9F9;" d="M39.243,64.436c3.272-1.283,6.355-3.556,10.166-2.328
					c1.645,0.528,3.434,1.196,4.658,2.335c3.173,2.954,6.143,6.145,9.032,9.389c0.733,0.821,1.124,2.148,1.256,3.289
					c0.59,5.046,0.825,10.182-1.387,14.882c-2.428,5.134-6.824,8.332-12.06,10.425c-1.477,0.597-2.8,1.593-4.303,2.062
					c-5,1.572-9.753,0.818-13.658-2.705c-5.273-4.761-7.456-10.67-5.551-17.787c0.839-3.107,1.264-6.355,2.404-9.341
					C31.546,70.086,35.532,67.377,39.243,64.436z"/>
				<path style="fill-rule:evenodd;clip-rule:evenodd;" d="M47.012,79.67c1.443-0.565,2.804-1.568,4.484-1.026
					c0.726,0.233,1.513,0.528,2.053,1.03c1.399,1.302,2.707,2.709,3.982,4.14c0.323,0.362,0.496,0.946,0.554,1.449
					c0.259,2.224,0.363,4.492-0.612,6.562c-1.07,2.262-3.01,3.671-5.317,4.596c-0.652,0.264-1.234,0.702-1.897,0.909
					c-2.204,0.693-4.299,0.362-6.021-1.192c-2.326-2.099-3.288-4.705-2.447-7.844c0.371-1.369,0.558-2.801,1.061-4.118
					C43.62,82.161,45.377,80.966,47.012,79.67z"/>
			</g>
			<g>
				<path style="fill-rule:evenodd;clip-rule:evenodd;" d="M111.852,59.059c-4.301,0.75-9.036,0.325-12.286,4.082
					c-1.403,1.618-8.979,4.209-9.545,6.206C88.556,74.524,74.83,82.395,73.854,87.7c-0.251,1.341-0.598-1.296,0,0
					c2.623,5.729,25.22,12.326,30.589,15.882c5.883,3.882,12.605,4.444,19.507,3.29c1.949-0.318,3.996-0.115,5.892-0.586
					c6.317-1.552,22.549-16.443,24.418-22.694c2.527-8.446-1.696-4.835-8.303-11.158c-2.89-2.756-14.376-6.183-17.511-8.612
					C123.654,60.097,117.682,59.794,111.852,59.059z"/>
				<path style="fill-rule:evenodd;clip-rule:evenodd;fill:#F9F9F9;" d="M120.759,63.934c-3.274-1.286-6.357-3.556-10.169-2.328
					c-1.644,0.526-3.434,1.196-4.655,2.336c-3.175,2.954-6.143,6.145-9.034,9.387c-0.733,0.821-1.124,2.148-1.254,3.291
					c-0.592,5.044-0.825,10.182,1.386,14.881c2.429,5.135,6.826,8.331,12.06,10.424c1.477,0.596,2.802,1.593,4.305,2.062
					c4.998,1.572,9.754,0.819,13.658-2.702c5.271-4.766,7.453-10.673,5.548-17.792c-0.839-3.104-1.261-6.354-2.403-9.339
					C128.455,69.582,124.468,66.875,120.759,63.934z"/>
				<path style="fill-rule:evenodd;clip-rule:evenodd;" d="M112.988,79.166c-1.443-0.564-2.803-1.566-4.484-1.026
					c-0.724,0.235-1.511,0.528-2.053,1.032c-1.399,1.302-2.707,2.708-3.982,4.138c-0.323,0.362-0.496,0.948-0.552,1.45
					c-0.262,2.225-0.365,4.49,0.611,6.562c1.07,2.264,3.008,3.673,5.315,4.596c0.652,0.263,1.236,0.701,1.897,0.909
					c2.206,0.695,4.301,0.362,6.021-1.192c2.326-2.099,3.289-4.703,2.448-7.843c-0.369-1.369-0.557-2.802-1.061-4.119
					C116.38,81.659,114.624,80.463,112.988,79.166z"/>
			</g>
		</g>
		<path style="fill-rule:evenodd;clip-rule:evenodd;" d="M73.604,55.394c-0.1,0.415-0.656,0.526-1.274,0.624
			c-0.885,0.144-1.965,0.06-3.236-0.227c-0.899-0.201-1.826-0.56-2.834-1.13c-1.778-1.009-3.591-1.989-5.419-2.926
			c-3.474-1.784-6.968-3.528-10.454-5.284c-0.139-0.07-0.295-0.085-0.446-0.142c-0.14-0.05-0.299-0.105-0.426-0.183
			c-1.168-0.688-2.346-1.381-3.291-2.17c-0.425-0.354-0.739-0.722-1.104-1.08c-0.517-0.512-1.05-1.024-1.537-1.533
			c-0.799-0.835-1.132-1.529-0.733-1.975c0.327-0.371,0.653-0.741,1.05-1.072c0.141-0.116,0.446-0.149,0.747-0.151
			c0.389-0.004,0.869,0.08,1.276,0.092c0.823,0.024,1.786,0.311,2.83,0.723c0.207,0.082,0.41,0.138,0.616,0.229
			c0.227,0.104,0.544,0.233,0.66,0.347c0.562,0.548,1.339,0.741,2.009,1.09c1.116,0.576,2.24,1.132,3.362,1.696
			c0.365,0.182,0.729,0.359,1.09,0.542c1.654,0.845,3.292,1.698,4.869,2.659c0.915,0.558,1.899,1.072,2.86,1.595
			c0.77,0.418,1.559,0.813,2.328,1.231c0.758,0.413,1.491,0.861,2.256,1.255c1.307,0.68,2.3,1.479,3.356,2.26
			c0.686,0.506,1.003,0.973,1.184,1.397C73.746,54.206,74.095,54.729,73.604,55.394z M57.013,46.381
			c-0.435-0.365-0.843-0.709-1.256-1.052c-0.04-0.034-0.107-0.078-0.157-0.098c-0.413-0.159-0.823-0.315-1.236-0.47
			C55.275,45.291,55.944,45.98,57.013,46.381z M55.311,44.569c-0.879-0.63-1.738-0.905-2.595-1.116
			C52.999,43.752,54.23,44.287,55.311,44.569z M45.991,42.351c-0.06-0.098-0.096-0.195-0.191-0.297
			c-0.362-0.378-0.725-0.751-0.779-1.076c-0.018-0.092-0.229-0.259-0.407-0.452C44.437,40.946,45.027,41.733,45.991,42.351z
			 M67.571,50.375c0.385,0.263,0.746,0.508,1.104,0.751c0.042,0.008,0.083,0.012,0.124,0.02c-0.084-0.134-0.12-0.265-0.263-0.395
			C68.253,50.491,67.922,50.373,67.571,50.375z M65.991,53.201c-0.002,0.006-0.002,0.01-0.006,0.018
			c0.211,0.111,0.423,0.229,0.638,0.343c0.271,0.143,0.562,0.271,0.811,0.428c0.486,0.305,0.556,0.325,0.647,0.124
			C67.386,53.811,66.687,53.506,65.991,53.201z M53.487,46.802c-0.002,0.008-0.006,0.016-0.008,0.022
			c1.354,0.697,2.708,1.395,4.064,2.094c0.004-0.008,0.004-0.016,0.008-0.02C56.195,48.199,54.84,47.501,53.487,46.802z
			 M48.618,42.229c0.004-0.022,0.008-0.043,0.008-0.07c-0.311-0.169-0.63-0.343-1.03-0.56c0.066,0.183,0.105,0.289,0.157,0.43
			C48.068,42.102,48.343,42.166,48.618,42.229z M46.386,40.209c0.094,0.04,0.184,0.076,0.275,0.115
			c0.022-0.142,0.062-0.275,0.044-0.43c0-0.024-0.248-0.147-0.486-0.285C46.288,39.85,46.338,40.029,46.386,40.209z M66.866,51.37
			c0.47,0.406,1.188,0.721,1.773,0.769C68.026,51.874,67.47,51.63,66.866,51.37z M59.163,46.845c-0.046,0.004-0.09,0.008-0.136,0.01
			c0.136,0.12,0.251,0.257,0.413,0.354c0.239,0.144,0.522,0.341,0.853,0.347C59.871,47.29,59.516,47.071,59.163,46.845z
			 M45.238,39.212c-0.056-0.036-0.115-0.074-0.175-0.112c-0.129,0.064-0.259,0.125-0.422,0.203c0.259,0.126,0.422,0.208,0.614,0.299
			C45.25,39.458,45.242,39.336,45.238,39.212z M50.225,42.164c-0.02,0.018-0.04,0.038-0.06,0.058c0.399,0.223,0.801,0.45,1.2,0.678
			c0.022-0.024,0.044-0.052,0.068-0.076C51.03,42.604,50.627,42.383,50.225,42.164z M70.573,55.096
			c-0.239-0.124-0.432-0.251-0.5-0.253c-0.144-0.004-0.217,0.058-0.321,0.09c0.04,0.032,0.076,0.063,0.113,0.096
			C70.069,55.046,70.27,55.066,70.573,55.096z M63.635,52.067c-0.006,0.026-0.016,0.048-0.022,0.072
			c0.399,0.186,0.801,0.371,1.2,0.554c0.004-0.022,0.006-0.044,0.008-0.066C64.427,52.442,64.03,52.254,63.635,52.067z
			 M71.805,54.658c0.085,0.054,0.171,0.105,0.259,0.159c0.064-0.064,0.132-0.127,0.195-0.193c-0.063-0.038-0.125-0.078-0.189-0.116
			C71.982,54.558,71.892,54.608,71.805,54.658z"/>
		<path style="fill-rule:evenodd;clip-rule:evenodd;" d="M117.147,37.466c0.289,0.305,0.069,0.829-0.197,1.395
			c-0.381,0.813-1.059,1.668-2.011,2.575c-0.676,0.642-1.495,1.22-2.539,1.756c-1.84,0.942-3.678,1.935-5.487,2.956
			c-3.439,1.943-6.859,3.924-10.284,5.891c-0.135,0.08-0.236,0.199-0.368,0.299c-0.122,0.088-0.259,0.189-0.393,0.255
			c-1.229,0.606-2.472,1.22-3.659,1.584c-0.534,0.166-1.017,0.233-1.522,0.343c-0.714,0.157-1.441,0.333-2.139,0.466
			c-1.144,0.219-1.911,0.129-2.057-0.442c-0.122-0.472-0.249-0.939-0.299-1.445c-0.019-0.18,0.127-0.451,0.297-0.706
			c0.215-0.323,0.554-0.682,0.793-1.013c0.484-0.669,1.266-1.321,2.194-1.971c0.186-0.128,0.349-0.27,0.54-0.389
			c0.213-0.136,0.5-0.331,0.66-0.367c0.771-0.176,1.371-0.718,2.038-1.092c1.108-0.624,2.204-1.266,3.303-1.897
			c0.358-0.207,0.712-0.417,1.068-0.618c1.632-0.929,3.267-1.84,4.952-2.639c0.982-0.466,1.961-1.011,2.938-1.535
			c0.784-0.417,1.555-0.863,2.338-1.282c0.768-0.411,1.555-0.783,2.314-1.209c1.301-0.726,2.527-1.128,3.772-1.593
			c0.806-0.301,1.373-0.316,1.827-0.241C116.24,36.717,116.872,36.707,117.147,37.466z M100.305,46.487
			c-0.548,0.166-1.064,0.323-1.583,0.482c-0.052,0.016-0.125,0.048-0.171,0.08c-0.365,0.259-0.726,0.52-1.086,0.781
			C98.419,47.352,99.368,47.162,100.305,46.487z M97.841,46.937c-1.022,0.396-1.733,0.965-2.392,1.566
			C95.856,48.43,96.996,47.687,97.841,46.937z M90.742,53.518c-0.115,0-0.213-0.024-0.353,0.002
			c-0.521,0.098-1.035,0.201-1.336,0.074c-0.085-0.034-0.345,0.054-0.607,0.1C88.699,54.064,89.684,53.994,90.742,53.518z
			 M109.576,39.818c0.435-0.18,0.843-0.349,1.247-0.517c0.028-0.032,0.056-0.063,0.086-0.093c-0.157,0-0.289-0.042-0.479,0.008
			C110.057,39.312,109.771,39.525,109.576,39.818z M111.035,42.642c0.004,0.004,0.008,0.006,0.01,0.012
			c0.215-0.116,0.433-0.229,0.647-0.347c0.271-0.15,0.54-0.325,0.812-0.449c0.53-0.241,0.586-0.291,0.468-0.472
			C112.328,41.805,111.681,42.224,111.035,42.642z M98.668,49.646c0.006,0.006,0.01,0.012,0.012,0.018
			c1.344-0.755,2.689-1.511,4.032-2.268c-0.002-0.008-0.008-0.012-0.012-0.016C101.356,48.133,100.014,48.89,98.668,49.646z
			 M92.121,51.266c-0.014-0.016-0.034-0.032-0.052-0.046c-0.318,0.171-0.64,0.343-1.046,0.562c0.189,0.042,0.299,0.065,0.446,0.098
			C91.707,51.657,91.914,51.461,92.121,51.266z M89.184,52.047c0.086-0.056,0.167-0.112,0.249-0.167
			c-0.104-0.094-0.193-0.197-0.331-0.267c-0.021-0.01-0.265,0.131-0.51,0.253C88.831,51.939,89.008,51.993,89.184,52.047z
			 M110.004,40.936c0.606-0.175,1.27-0.604,1.641-1.066C111.078,40.237,110.562,40.573,110.004,40.936z M101.903,44.942
			c-0.022,0.038-0.046,0.08-0.07,0.118c0.178-0.048,0.358-0.07,0.53-0.155c0.253-0.12,0.574-0.253,0.768-0.524
			C102.672,44.591,102.287,44.765,101.903,44.942z M87.709,52.474c-0.062,0.028-0.128,0.056-0.191,0.086
			c-0.022,0.141-0.042,0.281-0.072,0.458c0.254-0.147,0.411-0.239,0.597-0.349C87.92,52.593,87.812,52.533,87.709,52.474z
			 M92.973,49.891c0.004,0.03,0.008,0.056,0.012,0.082c0.414-0.211,0.829-0.425,1.241-0.638c-0.008-0.032-0.018-0.063-0.023-0.096
			C93.791,49.456,93.381,49.675,92.973,49.891z M115.194,39.834c-0.237,0.134-0.452,0.227-0.492,0.281
			c-0.086,0.117-0.076,0.211-0.105,0.315c0.045-0.014,0.095-0.03,0.141-0.042C114.869,40.229,114.999,40.069,115.194,39.834z
			 M108.767,44c0.016,0.018,0.03,0.038,0.048,0.056c0.377-0.235,0.756-0.47,1.134-0.706c-0.016-0.012-0.031-0.028-0.048-0.04
			C109.522,43.539,109.144,43.77,108.767,44z M115.523,38.575c0.091-0.042,0.183-0.086,0.276-0.13
			c-0.016-0.089-0.031-0.177-0.048-0.267c-0.067,0.032-0.138,0.066-0.203,0.096C115.539,38.373,115.531,38.475,115.523,38.575z"/>
	</g>
</g>
<g id="Layer_1">
</g>
</svg>
