<?xml version="1.0" encoding="iso-8859-1"?>
<!-- Generator: Adobe Illustrator 16.0.0, SVG Export Plug-In . SVG Version: 6.00 Build 0)  -->
<!DOCTYPE svg PUBLIC "-//W3C//DTD SVG 1.1//EN" "http://www.w3.org/Graphics/SVG/1.1/DTD/svg11.dtd">
<svg version="1.1" xmlns="http://www.w3.org/2000/svg" xmlns:xlink="http://www.w3.org/1999/xlink" x="0px" y="0px" width="160px"
	 height="160px" viewBox="0 0 160 160" style="enable-background:new 0 0 160 160;" xml:space="preserve">
<g id="internet">
	<g>
		<g>
			<path d="M66.378,154.087c0.485-0.012,0.966-0.034,1.45-0.053c2.82-24.185,6.106-55.705,6.049-56.372
				c-0.1-1.072,3.697-46.947,3.697-48.212c0.084,0.123,0.15,0.226,0.203,0.318c0.167-0.111,0.458-0.207,0.938-0.261
				c1.46,2.456,7.07,43.863,7.392,44.698c0.084,0.23,0.037,0.464,0.014,0.694c-0.073,0.65-0.384,1.304-0.213,1.949
				c0.375,1.429,5.25,32.18,9.153,56.426c3.645-0.039,7.301-0.014,10.976,0.203c3.038,0.18,8.324-0.502,8.639-1.053
				c0.523-0.908,1.004-1.829,1.04-2.743c0.052-1.206-3.256-1.705-8.42-1.507c-6.721,0.257-1.739,0.204-8.188,0.18
				c-0.755-2.47-13.404-83.241-14.018-85.575c-0.17-0.646,0.142-1.301,0.215-1.952c0.022-0.23,0.069-0.463-0.014-0.691
				c-0.323-0.835-4.618-27.863-7.882-27.51c0,1.262-4.448,29.892-4.35,30.963c0.092,1.078-8.554,82.816-9.843,83.79
				c-1.452,1.092,0,0-2.069,1.049c-0.505,0-0.858,0-1.136,0c0.368,0-1.689,0.004,0,0c-0.149,0-0.697,0-2.084,0.004
				c-0.277,0.185-1.036,0.46-1.049,0.739c-0.041,1.115,0.147,2.229,0.245,3.346C57.213,153.485,61.23,154.244,66.378,154.087z"/>
			<path d="M77.41,32.626C79.067,32.41,74.881,32.899,77.41,32.626L77.41,32.626z"/>
			<path d="M77.778,49.769C77.126,50.201,78.394,50.841,77.778,49.769L77.778,49.769z"/>
		</g>
		<path d="M82.038,66.452c-3.308,2.329-6.616,4.662-9.925,6.995c-0.578,0.408,0.897,2.084,1.539,2.87
			c4.097,5.017,7.138,9.117,11.235,14.135c-0.651-0.796,0.729-1.689-1.377-0.065c-1.761,1.356-4.589,2.599-6.35,3.955
			c-2.796,2.157-5.593,4.316-8.392,6.474c-0.565,0.433-0.943,1.459-0.006,1.758c6.539,2.07,14.203,4.363,20.74,6.432
			c0.176-0.708,0.562,0.119-0.217-1.521c-6.537,4.029-13.461,7.239-19.999,11.271c-0.745,0.459-1.741,1.535-0.525,2.124
			c6.646,3.216,15.402,5.996,22.049,9.211c0.177-0.709-3.039-2-2.866-2.709c-7.954,4.13-14.627,9.275-22.581,13.4
			c-0.693,0.36-1.801,1.67-0.525,2.127c13.044,4.664,22.487,8.041,30.729,10.986c1.132-0.963,2.263-1.927,3.393-2.893
			c-10.658,0-21.315,0-31.973,0c-2.045,0-6.08,3.107-2.241,3.107c10.658,0,21.315,0,31.971,0c0.821,0,6.57-3.353,4.076-4.24
			c-10.242-3.664-21.17-5.98-31.412-9.643c-0.176,0.708-0.348,1.417-0.525,2.125c7.955-4.13,15.909-8.259,23.865-12.385
			c0.799-0.415,1.695-1.559,0.521-2.126c-6.646-3.214-13.641-5.012-20.288-8.229c-0.177,0.708,0,0-0.177,0.708
			c6.54-4.029,13.078-8.062,19.615-12.094c0.601-0.372,1.875-1.696,0.525-2.126c-6.467-2.046-12.93-4.092-19.396-6.142
			c0.942,2.016-1.644,4.012,0.942,2.016c1.761-1.356,3.942-4.263,5.7-5.621c2.799-2.159,5.596-4.316,8.394-6.474
			c0.48-0.371,0.809-0.982,0.377-1.513c-4.145-5.076-7.207-6.485-11.353-11.562c-0.298,0.625-1.678-2.417-1.976-1.792
			c3.306-2.332,6.616-4.662,9.922-6.995C88.674,65.805,83.756,65.237,82.038,66.452L82.038,66.452z"/>
		<path style="fill-rule:evenodd;clip-rule:evenodd;" d="M78.207,35.935c-2.467-0.178-4.587-0.906-6.041-2.926
			c-0.459-0.634-0.763-1.379-1.128-2.08c-0.037-0.068-0.016-0.169-0.013-0.255c0.022-0.614,0.08-1.229,0.064-1.843
			c-0.049-1.948,0.774-3.469,2.262-4.655c0.756-0.604,1.554-1.162,2.343-1.726c1.975-1.408,4.413-0.949,6.107,0.246
			c0.507,0.358,0.817,0.984,1.248,1.46c1.793,1.981,1.868,4.421,1.835,6.881c-0.006,0.334-0.146,0.705-0.329,0.993
			C83.064,34.396,80.967,35.779,78.207,35.935z"/>
		<path style="fill-rule:evenodd;clip-rule:evenodd;" d="M112.513,22.951c-0.111,1.972-0.218,3.942-0.337,5.912
			c-0.016,0.243-0.093,0.482-0.133,0.724c-0.116,0.694-0.319,1.391-0.315,2.084c0.005,0.674-0.293,1.234-0.41,1.854
			c-0.062,0.323-0.124,0.647-0.155,0.975c-0.052,0.575-0.037,1.159-0.138,1.723c-0.044,0.252-0.391,0.446-0.449,0.7
			c-0.095,0.434-0.074,0.89-0.097,1.337c-0.009,0.122,0.048,0.292-0.014,0.362c-0.909,1.05-0.703,2.456-1.172,3.649
			c-0.221,0.559-0.799,0.979-0.677,1.672c-0.739,0.149-0.44,0.719-0.467,1.157c-0.004,0.061-0.014,0.131-0.046,0.178
			c-0.58,0.804-0.617,1.855-1.213,2.652c-0.432,0.575-1.686,0.667-2.339,0.092c-0.405-0.36-0.732-0.835-1.005-1.311
			c-0.108-0.188-0.044-0.542,0.055-0.77c0.542-1.245,1.126-2.47,1.686-3.709c0.677-1.501,1.019-3.106,1.394-4.699
			c0.543-2.31,1.062-4.625,1.569-6.945c0.112-0.507,0.167-1.034,0.194-1.555c0.146-2.801,0.456-5.613,0.149-8.402
			c-0.213-1.918-0.754-3.811-1.253-5.686c-0.722-2.716-1.926-5.204-3.805-7.334c-0.198-0.226-0.347-0.513-0.473-0.791
			c-0.714-1.559-0.025-2.52,1.853-2.7c0.921-0.089,1.454,0.478,1.882,1.104c2.095,3.087,3.679,6.407,4.689,10.021
			c0.593,2.117,0.918,4.232,0.891,6.418c-0.004,0.213,0.057,0.426,0.069,0.641c0.011,0.212,0.002,0.429,0.002,0.644
			C112.471,22.949,112.491,22.95,112.513,22.951z M108.668,34.5c-0.05-0.02-0.1-0.04-0.148-0.061
			c-0.205,0.837-0.413,1.674-0.618,2.511c0.063,0.016,0.129,0.029,0.191,0.044C108.285,36.164,108.477,35.333,108.668,34.5z
			 M109.553,20.084c-0.237,0.144-0.391,0.233-0.627,0.377c0.264,0.149,0.426,0.241,0.66,0.374
			C109.572,20.536,109.564,20.361,109.553,20.084z"/>
		<path style="fill-rule:evenodd;clip-rule:evenodd;" d="M97.479,41.83c0.076-0.234,0.14-0.49,0.242-0.728
			c0.982-2.304,1.832-4.651,2.04-7.172c0.217-2.613,0.501-5.229,0.556-7.847c0.042-2.062-0.248-4.136-1.007-6.08
			c-0.55-1.407-1.259-2.75-1.889-4.126c-0.256-0.559-0.476-1.137-0.737-1.694c-0.213-0.451-0.087-0.755,0.306-1.023
			c0.609-0.414,1.196-0.86,1.801-1.281c0.336-0.235,0.633-0.102,0.927,0.121c0.729,0.553,0.988,1.393,1.351,2.171
			c0.126,0.273,0.218,0.566,0.327,0.85c0.033,0.086,0.113,0.188,0.092,0.258c-0.289,0.998,0.414,1.768,0.61,2.654
			c0.197,0.897,0.556,1.755,0.796,2.644c0.384,1.418,0.746,2.844,1.08,4.273c0.083,0.353,0.024,0.736,0.031,1.105
			c0.008,0.398-0.033,0.806,0.03,1.194c0.246,1.436,0.235,2.882,0.1,4.312c-0.096,1.001-0.394,1.983-0.635,2.967
			c-0.314,1.278-0.692,2.541-0.978,3.823c-0.197,0.897-0.279,1.822-0.429,2.732c-0.105,0.635-0.266,1.236-0.717,1.752
			c-0.56,0.638-1.233,0.803-1.937,0.324c-0.378-0.258-0.694-0.597-1.074-0.853C98.134,42.05,97.842,41.981,97.479,41.83z"/>
		<path style="fill-rule:evenodd;clip-rule:evenodd;" d="M89.641,18.587c0.568-0.369,1.21-0.789,1.855-1.206
			c0.368-0.238,0.63-0.157,0.963,0.158c1.027,0.97,1.615,2.229,2.271,3.428c0.435,0.795,0.644,1.716,0.94,2.584
			c0.117,0.348,0.231,0.703,0.288,1.062c0.101,0.648,0.15,1.305,0.232,1.957c0.306,2.403,0.278,4.787-0.423,7.131
			c-0.289,0.965-0.549,1.94-0.846,2.902c-0.091,0.286-0.236,0.565-0.402,0.817c-0.334,0.503-0.574,0.575-1.182,0.445
			c-0.295-0.063-0.597-0.122-0.899-0.152c-0.717-0.074-1.251-0.806-1.046-1.485c0.904-3.017,1.128-6.117,1.05-9.237
			c-0.048-1.94-0.653-3.762-1.534-5.483c-0.167-0.326-0.399-0.626-0.648-0.896C89.776,20.088,89.437,19.528,89.641,18.587"/>
		<path style="fill-rule:evenodd;clip-rule:evenodd;" d="M43.666,35.878c0.111-1.971,0.221-3.942,0.337-5.913
			c0.016-0.241,0.092-0.483,0.133-0.722c0.116-0.696,0.321-1.391,0.313-2.086c-0.003-0.673,0.295-1.234,0.414-1.854
			c0.06-0.324,0.123-0.647,0.153-0.973c0.052-0.577,0.037-1.159,0.138-1.724c0.046-0.251,0.391-0.447,0.448-0.699
			c0.096-0.433,0.073-0.891,0.1-1.337c0.005-0.123-0.05-0.292,0.012-0.362c0.909-1.05,0.703-2.458,1.172-3.648
			c0.22-0.56,0.796-0.981,0.676-1.673c0.741-0.149,0.443-0.718,0.469-1.156c0.004-0.062,0.012-0.131,0.044-0.179
			c0.581-0.804,0.615-1.856,1.213-2.65c0.433-0.575,1.686-0.668,2.339-0.092c0.408,0.357,0.731,0.835,1.005,1.31
			c0.107,0.186,0.046,0.54-0.054,0.768c-0.544,1.245-1.128,2.471-1.686,3.709c-0.678,1.502-1.019,3.105-1.395,4.7
			c-0.544,2.31-1.061,4.625-1.57,6.943c-0.111,0.509-0.167,1.036-0.194,1.557c-0.144,2.8-0.456,5.612-0.147,8.402
			c0.211,1.918,0.751,3.811,1.251,5.686c0.722,2.715,1.925,5.205,3.804,7.335c0.201,0.226,0.347,0.509,0.474,0.789
			c0.714,1.559,0.024,2.521-1.851,2.701c-0.923,0.088-1.456-0.479-1.881-1.107c-2.095-3.086-3.682-6.405-4.693-10.021
			c-0.592-2.117-0.919-4.231-0.891-6.417c0.002-0.212-0.056-0.427-0.067-0.64c-0.013-0.214-0.003-0.429-0.003-0.644
			C43.708,35.881,43.687,35.878,43.666,35.878z M47.51,24.329c0.05,0.02,0.1,0.04,0.15,0.061c0.206-0.837,0.411-1.674,0.616-2.512
			c-0.063-0.015-0.126-0.03-0.192-0.046C47.893,22.665,47.701,23.497,47.51,24.329z M46.625,38.744
			c0.238-0.142,0.391-0.234,0.629-0.375c-0.265-0.151-0.428-0.241-0.661-0.375C46.606,38.292,46.613,38.466,46.625,38.744z"/>
		<path style="fill-rule:evenodd;clip-rule:evenodd;" d="M58.7,16.998c-0.077,0.234-0.14,0.491-0.241,0.729
			c-0.985,2.306-1.833,4.652-2.042,7.173c-0.214,2.613-0.501,5.228-0.555,7.848c-0.042,2.062,0.249,4.135,1.007,6.08
			c0.55,1.406,1.258,2.749,1.889,4.125c0.256,0.562,0.475,1.139,0.737,1.696c0.213,0.449,0.086,0.755-0.306,1.022
			c-0.607,0.414-1.195,0.86-1.798,1.28c-0.338,0.238-0.634,0.103-0.928-0.119c-0.73-0.556-0.988-1.394-1.353-2.169
			c-0.125-0.276-0.218-0.567-0.327-0.853c-0.032-0.086-0.113-0.186-0.093-0.256c0.291-0.998-0.414-1.77-0.609-2.654
			c-0.196-0.897-0.552-1.757-0.793-2.644c-0.385-1.42-0.747-2.845-1.081-4.275c-0.084-0.351-0.025-0.736-0.033-1.104
			c-0.005-0.4,0.035-0.806-0.031-1.195c-0.245-1.435-0.236-2.881-0.099-4.312c0.096-1.001,0.396-1.984,0.636-2.967
			c0.312-1.278,0.691-2.54,0.977-3.823c0.197-0.898,0.279-1.822,0.431-2.731c0.104-0.636,0.262-1.236,0.714-1.754
			c0.557-0.636,1.234-0.801,1.937-0.322c0.375,0.257,0.697,0.596,1.075,0.853C58.045,16.779,58.336,16.849,58.7,16.998z"/>
		<path style="fill-rule:evenodd;clip-rule:evenodd;" d="M66.538,40.242c-0.566,0.37-1.21,0.789-1.855,1.205
			c-0.368,0.24-0.63,0.159-0.963-0.156c-1.027-0.97-1.617-2.228-2.27-3.427c-0.435-0.795-0.644-1.716-0.941-2.584
			c-0.116-0.348-0.229-0.703-0.287-1.063c-0.1-0.649-0.152-1.304-0.234-1.956c-0.303-2.404-0.276-4.788,0.425-7.133
			c0.288-0.966,0.548-1.938,0.847-2.9c0.088-0.288,0.233-0.567,0.4-0.818c0.333-0.504,0.573-0.574,1.178-0.447
			c0.299,0.063,0.6,0.123,0.902,0.155c0.716,0.074,1.251,0.806,1.046,1.485c-0.904,3.017-1.128,6.117-1.05,9.236
			c0.048,1.938,0.653,3.762,1.535,5.484c0.165,0.324,0.4,0.626,0.649,0.896C66.402,38.742,66.741,39.3,66.538,40.242"/>
	</g>
</g>
<g id="Layer_1">
</g>
</svg>
